G04 #@! TF.GenerationSoftware,KiCad,Pcbnew,5.0.2+dfsg1-1*
G04 #@! TF.CreationDate,2019-02-22T20:57:12+02:00*
G04 #@! TF.ProjectId,e3634a_oled,65333633-3461-45f6-9f6c-65642e6b6963,A*
G04 #@! TF.SameCoordinates,Original*
G04 #@! TF.FileFunction,Copper,L1,Top*
G04 #@! TF.FilePolarity,Positive*
%FSLAX46Y46*%
G04 Gerber Fmt 4.6, Leading zero omitted, Abs format (unit mm)*
G04 Created by KiCad (PCBNEW 5.0.2+dfsg1-1) date Fri 22 Feb 2019 08:57:12 PM EET*
%MOMM*%
%LPD*%
G01*
G04 APERTURE LIST*
G04 #@! TA.AperFunction,SMDPad,CuDef*
%ADD10R,1.175000X1.900000*%
G04 #@! TD*
G04 #@! TA.AperFunction,SMDPad,CuDef*
%ADD11R,2.375000X1.900000*%
G04 #@! TD*
G04 #@! TA.AperFunction,SMDPad,CuDef*
%ADD12R,1.475000X2.100000*%
G04 #@! TD*
G04 #@! TA.AperFunction,SMDPad,CuDef*
%ADD13R,0.450000X1.380000*%
G04 #@! TD*
G04 #@! TA.AperFunction,ComponentPad*
%ADD14O,1.700000X1.700000*%
G04 #@! TD*
G04 #@! TA.AperFunction,ComponentPad*
%ADD15R,1.700000X1.700000*%
G04 #@! TD*
G04 #@! TA.AperFunction,Conductor*
%ADD16C,0.100000*%
G04 #@! TD*
G04 #@! TA.AperFunction,SMDPad,CuDef*
%ADD17C,0.875000*%
G04 #@! TD*
G04 #@! TA.AperFunction,SMDPad,CuDef*
%ADD18C,0.975000*%
G04 #@! TD*
G04 #@! TA.AperFunction,SMDPad,CuDef*
%ADD19C,0.500000*%
G04 #@! TD*
G04 #@! TA.AperFunction,SMDPad,CuDef*
%ADD20R,1.500000X1.000000*%
G04 #@! TD*
G04 #@! TA.AperFunction,SMDPad,CuDef*
%ADD21R,2.000000X3.800000*%
G04 #@! TD*
G04 #@! TA.AperFunction,SMDPad,CuDef*
%ADD22R,2.000000X1.500000*%
G04 #@! TD*
G04 #@! TA.AperFunction,ComponentPad*
%ADD23C,1.500000*%
G04 #@! TD*
G04 #@! TA.AperFunction,ViaPad*
%ADD24C,0.800000*%
G04 #@! TD*
G04 #@! TA.AperFunction,ViaPad*
%ADD25C,1.200000*%
G04 #@! TD*
G04 #@! TA.AperFunction,Conductor*
%ADD26C,0.250000*%
G04 #@! TD*
G04 #@! TA.AperFunction,Conductor*
%ADD27C,0.500000*%
G04 #@! TD*
G04 #@! TA.AperFunction,Conductor*
%ADD28C,1.000000*%
G04 #@! TD*
G04 #@! TA.AperFunction,Conductor*
%ADD29C,0.400000*%
G04 #@! TD*
G04 APERTURE END LIST*
D10*
G04 #@! TO.P,J1,6*
G04 #@! TO.N,GND*
X55570220Y-72103060D03*
X53890220Y-72103060D03*
D11*
X57640220Y-72103060D03*
X51820220Y-72103060D03*
D12*
X57192720Y-69803060D03*
X52267720Y-69803060D03*
D13*
G04 #@! TO.P,J1,5*
X56030220Y-69443060D03*
G04 #@! TO.P,J1,4*
G04 #@! TO.N,Net-(J1-Pad4)*
X55380220Y-69443060D03*
G04 #@! TO.P,J1,3*
G04 #@! TO.N,Net-(J1-Pad3)*
X54730220Y-69443060D03*
G04 #@! TO.P,J1,2*
G04 #@! TO.N,Net-(J1-Pad2)*
X54080220Y-69443060D03*
G04 #@! TO.P,J1,1*
G04 #@! TO.N,VBUS*
X53430220Y-69443060D03*
G04 #@! TD*
D14*
G04 #@! TO.P,J3,4*
G04 #@! TO.N,+3V3*
X64620000Y-66000000D03*
G04 #@! TO.P,J3,3*
G04 #@! TO.N,/USART_TX*
X62080000Y-66000000D03*
G04 #@! TO.P,J3,2*
G04 #@! TO.N,/USART_RX*
X59540000Y-66000000D03*
D15*
G04 #@! TO.P,J3,1*
G04 #@! TO.N,GND*
X57000000Y-66000000D03*
G04 #@! TD*
D14*
G04 #@! TO.P,J2,16*
G04 #@! TO.N,/DB7*
X75400000Y-47874000D03*
G04 #@! TO.P,J2,15*
G04 #@! TO.N,/DB6*
X77940000Y-47874000D03*
G04 #@! TO.P,J2,14*
G04 #@! TO.N,/DB5*
X75400000Y-50414000D03*
G04 #@! TO.P,J2,13*
G04 #@! TO.N,/DB4*
X77940000Y-50414000D03*
G04 #@! TO.P,J2,12*
G04 #@! TO.N,/DB3*
X75400000Y-52954000D03*
G04 #@! TO.P,J2,11*
G04 #@! TO.N,/DB2*
X77940000Y-52954000D03*
G04 #@! TO.P,J2,10*
G04 #@! TO.N,/DB1*
X75400000Y-55494000D03*
G04 #@! TO.P,J2,9*
G04 #@! TO.N,/DB0*
X77940000Y-55494000D03*
G04 #@! TO.P,J2,8*
G04 #@! TO.N,/RD*
X75400000Y-58034000D03*
G04 #@! TO.P,J2,7*
G04 #@! TO.N,/WR*
X77940000Y-58034000D03*
G04 #@! TO.P,J2,6*
G04 #@! TO.N,/BOOT1*
X75400000Y-60574000D03*
G04 #@! TO.P,J2,5*
G04 #@! TO.N,/CS*
X77940000Y-60574000D03*
G04 #@! TO.P,J2,4*
G04 #@! TO.N,/Reset*
X75400000Y-63114000D03*
G04 #@! TO.P,J2,3*
G04 #@! TO.N,GND*
X77940000Y-63114000D03*
G04 #@! TO.P,J2,2*
X75400000Y-65654000D03*
D15*
G04 #@! TO.P,J2,1*
G04 #@! TO.N,+3V3*
X77940000Y-65654000D03*
G04 #@! TD*
D16*
G04 #@! TO.N,+3V3*
G04 #@! TO.C,C3*
G36*
X63777691Y-54776053D02*
X63798926Y-54779203D01*
X63819750Y-54784419D01*
X63839962Y-54791651D01*
X63859368Y-54800830D01*
X63877781Y-54811866D01*
X63895024Y-54824654D01*
X63910930Y-54839070D01*
X63925346Y-54854976D01*
X63938134Y-54872219D01*
X63949170Y-54890632D01*
X63958349Y-54910038D01*
X63965581Y-54930250D01*
X63970797Y-54951074D01*
X63973947Y-54972309D01*
X63975000Y-54993750D01*
X63975000Y-55431250D01*
X63973947Y-55452691D01*
X63970797Y-55473926D01*
X63965581Y-55494750D01*
X63958349Y-55514962D01*
X63949170Y-55534368D01*
X63938134Y-55552781D01*
X63925346Y-55570024D01*
X63910930Y-55585930D01*
X63895024Y-55600346D01*
X63877781Y-55613134D01*
X63859368Y-55624170D01*
X63839962Y-55633349D01*
X63819750Y-55640581D01*
X63798926Y-55645797D01*
X63777691Y-55648947D01*
X63756250Y-55650000D01*
X63243750Y-55650000D01*
X63222309Y-55648947D01*
X63201074Y-55645797D01*
X63180250Y-55640581D01*
X63160038Y-55633349D01*
X63140632Y-55624170D01*
X63122219Y-55613134D01*
X63104976Y-55600346D01*
X63089070Y-55585930D01*
X63074654Y-55570024D01*
X63061866Y-55552781D01*
X63050830Y-55534368D01*
X63041651Y-55514962D01*
X63034419Y-55494750D01*
X63029203Y-55473926D01*
X63026053Y-55452691D01*
X63025000Y-55431250D01*
X63025000Y-54993750D01*
X63026053Y-54972309D01*
X63029203Y-54951074D01*
X63034419Y-54930250D01*
X63041651Y-54910038D01*
X63050830Y-54890632D01*
X63061866Y-54872219D01*
X63074654Y-54854976D01*
X63089070Y-54839070D01*
X63104976Y-54824654D01*
X63122219Y-54811866D01*
X63140632Y-54800830D01*
X63160038Y-54791651D01*
X63180250Y-54784419D01*
X63201074Y-54779203D01*
X63222309Y-54776053D01*
X63243750Y-54775000D01*
X63756250Y-54775000D01*
X63777691Y-54776053D01*
X63777691Y-54776053D01*
G37*
D17*
G04 #@! TD*
G04 #@! TO.P,C3,1*
G04 #@! TO.N,+3V3*
X63500000Y-55212500D03*
D16*
G04 #@! TO.N,GND*
G04 #@! TO.C,C3*
G36*
X63777691Y-56351053D02*
X63798926Y-56354203D01*
X63819750Y-56359419D01*
X63839962Y-56366651D01*
X63859368Y-56375830D01*
X63877781Y-56386866D01*
X63895024Y-56399654D01*
X63910930Y-56414070D01*
X63925346Y-56429976D01*
X63938134Y-56447219D01*
X63949170Y-56465632D01*
X63958349Y-56485038D01*
X63965581Y-56505250D01*
X63970797Y-56526074D01*
X63973947Y-56547309D01*
X63975000Y-56568750D01*
X63975000Y-57006250D01*
X63973947Y-57027691D01*
X63970797Y-57048926D01*
X63965581Y-57069750D01*
X63958349Y-57089962D01*
X63949170Y-57109368D01*
X63938134Y-57127781D01*
X63925346Y-57145024D01*
X63910930Y-57160930D01*
X63895024Y-57175346D01*
X63877781Y-57188134D01*
X63859368Y-57199170D01*
X63839962Y-57208349D01*
X63819750Y-57215581D01*
X63798926Y-57220797D01*
X63777691Y-57223947D01*
X63756250Y-57225000D01*
X63243750Y-57225000D01*
X63222309Y-57223947D01*
X63201074Y-57220797D01*
X63180250Y-57215581D01*
X63160038Y-57208349D01*
X63140632Y-57199170D01*
X63122219Y-57188134D01*
X63104976Y-57175346D01*
X63089070Y-57160930D01*
X63074654Y-57145024D01*
X63061866Y-57127781D01*
X63050830Y-57109368D01*
X63041651Y-57089962D01*
X63034419Y-57069750D01*
X63029203Y-57048926D01*
X63026053Y-57027691D01*
X63025000Y-57006250D01*
X63025000Y-56568750D01*
X63026053Y-56547309D01*
X63029203Y-56526074D01*
X63034419Y-56505250D01*
X63041651Y-56485038D01*
X63050830Y-56465632D01*
X63061866Y-56447219D01*
X63074654Y-56429976D01*
X63089070Y-56414070D01*
X63104976Y-56399654D01*
X63122219Y-56386866D01*
X63140632Y-56375830D01*
X63160038Y-56366651D01*
X63180250Y-56359419D01*
X63201074Y-56354203D01*
X63222309Y-56351053D01*
X63243750Y-56350000D01*
X63756250Y-56350000D01*
X63777691Y-56351053D01*
X63777691Y-56351053D01*
G37*
D17*
G04 #@! TD*
G04 #@! TO.P,C3,2*
G04 #@! TO.N,GND*
X63500000Y-56787500D03*
D16*
G04 #@! TO.N,GND*
G04 #@! TO.C,C4*
G36*
X66277691Y-57776053D02*
X66298926Y-57779203D01*
X66319750Y-57784419D01*
X66339962Y-57791651D01*
X66359368Y-57800830D01*
X66377781Y-57811866D01*
X66395024Y-57824654D01*
X66410930Y-57839070D01*
X66425346Y-57854976D01*
X66438134Y-57872219D01*
X66449170Y-57890632D01*
X66458349Y-57910038D01*
X66465581Y-57930250D01*
X66470797Y-57951074D01*
X66473947Y-57972309D01*
X66475000Y-57993750D01*
X66475000Y-58431250D01*
X66473947Y-58452691D01*
X66470797Y-58473926D01*
X66465581Y-58494750D01*
X66458349Y-58514962D01*
X66449170Y-58534368D01*
X66438134Y-58552781D01*
X66425346Y-58570024D01*
X66410930Y-58585930D01*
X66395024Y-58600346D01*
X66377781Y-58613134D01*
X66359368Y-58624170D01*
X66339962Y-58633349D01*
X66319750Y-58640581D01*
X66298926Y-58645797D01*
X66277691Y-58648947D01*
X66256250Y-58650000D01*
X65743750Y-58650000D01*
X65722309Y-58648947D01*
X65701074Y-58645797D01*
X65680250Y-58640581D01*
X65660038Y-58633349D01*
X65640632Y-58624170D01*
X65622219Y-58613134D01*
X65604976Y-58600346D01*
X65589070Y-58585930D01*
X65574654Y-58570024D01*
X65561866Y-58552781D01*
X65550830Y-58534368D01*
X65541651Y-58514962D01*
X65534419Y-58494750D01*
X65529203Y-58473926D01*
X65526053Y-58452691D01*
X65525000Y-58431250D01*
X65525000Y-57993750D01*
X65526053Y-57972309D01*
X65529203Y-57951074D01*
X65534419Y-57930250D01*
X65541651Y-57910038D01*
X65550830Y-57890632D01*
X65561866Y-57872219D01*
X65574654Y-57854976D01*
X65589070Y-57839070D01*
X65604976Y-57824654D01*
X65622219Y-57811866D01*
X65640632Y-57800830D01*
X65660038Y-57791651D01*
X65680250Y-57784419D01*
X65701074Y-57779203D01*
X65722309Y-57776053D01*
X65743750Y-57775000D01*
X66256250Y-57775000D01*
X66277691Y-57776053D01*
X66277691Y-57776053D01*
G37*
D17*
G04 #@! TD*
G04 #@! TO.P,C4,2*
G04 #@! TO.N,GND*
X66000000Y-58212500D03*
D16*
G04 #@! TO.N,+3V3*
G04 #@! TO.C,C4*
G36*
X66277691Y-59351053D02*
X66298926Y-59354203D01*
X66319750Y-59359419D01*
X66339962Y-59366651D01*
X66359368Y-59375830D01*
X66377781Y-59386866D01*
X66395024Y-59399654D01*
X66410930Y-59414070D01*
X66425346Y-59429976D01*
X66438134Y-59447219D01*
X66449170Y-59465632D01*
X66458349Y-59485038D01*
X66465581Y-59505250D01*
X66470797Y-59526074D01*
X66473947Y-59547309D01*
X66475000Y-59568750D01*
X66475000Y-60006250D01*
X66473947Y-60027691D01*
X66470797Y-60048926D01*
X66465581Y-60069750D01*
X66458349Y-60089962D01*
X66449170Y-60109368D01*
X66438134Y-60127781D01*
X66425346Y-60145024D01*
X66410930Y-60160930D01*
X66395024Y-60175346D01*
X66377781Y-60188134D01*
X66359368Y-60199170D01*
X66339962Y-60208349D01*
X66319750Y-60215581D01*
X66298926Y-60220797D01*
X66277691Y-60223947D01*
X66256250Y-60225000D01*
X65743750Y-60225000D01*
X65722309Y-60223947D01*
X65701074Y-60220797D01*
X65680250Y-60215581D01*
X65660038Y-60208349D01*
X65640632Y-60199170D01*
X65622219Y-60188134D01*
X65604976Y-60175346D01*
X65589070Y-60160930D01*
X65574654Y-60145024D01*
X65561866Y-60127781D01*
X65550830Y-60109368D01*
X65541651Y-60089962D01*
X65534419Y-60069750D01*
X65529203Y-60048926D01*
X65526053Y-60027691D01*
X65525000Y-60006250D01*
X65525000Y-59568750D01*
X65526053Y-59547309D01*
X65529203Y-59526074D01*
X65534419Y-59505250D01*
X65541651Y-59485038D01*
X65550830Y-59465632D01*
X65561866Y-59447219D01*
X65574654Y-59429976D01*
X65589070Y-59414070D01*
X65604976Y-59399654D01*
X65622219Y-59386866D01*
X65640632Y-59375830D01*
X65660038Y-59366651D01*
X65680250Y-59359419D01*
X65701074Y-59354203D01*
X65722309Y-59351053D01*
X65743750Y-59350000D01*
X66256250Y-59350000D01*
X66277691Y-59351053D01*
X66277691Y-59351053D01*
G37*
D17*
G04 #@! TD*
G04 #@! TO.P,C4,1*
G04 #@! TO.N,+3V3*
X66000000Y-59787500D03*
D16*
G04 #@! TO.N,+3V3*
G04 #@! TO.C,C5*
G36*
X66277691Y-50776053D02*
X66298926Y-50779203D01*
X66319750Y-50784419D01*
X66339962Y-50791651D01*
X66359368Y-50800830D01*
X66377781Y-50811866D01*
X66395024Y-50824654D01*
X66410930Y-50839070D01*
X66425346Y-50854976D01*
X66438134Y-50872219D01*
X66449170Y-50890632D01*
X66458349Y-50910038D01*
X66465581Y-50930250D01*
X66470797Y-50951074D01*
X66473947Y-50972309D01*
X66475000Y-50993750D01*
X66475000Y-51431250D01*
X66473947Y-51452691D01*
X66470797Y-51473926D01*
X66465581Y-51494750D01*
X66458349Y-51514962D01*
X66449170Y-51534368D01*
X66438134Y-51552781D01*
X66425346Y-51570024D01*
X66410930Y-51585930D01*
X66395024Y-51600346D01*
X66377781Y-51613134D01*
X66359368Y-51624170D01*
X66339962Y-51633349D01*
X66319750Y-51640581D01*
X66298926Y-51645797D01*
X66277691Y-51648947D01*
X66256250Y-51650000D01*
X65743750Y-51650000D01*
X65722309Y-51648947D01*
X65701074Y-51645797D01*
X65680250Y-51640581D01*
X65660038Y-51633349D01*
X65640632Y-51624170D01*
X65622219Y-51613134D01*
X65604976Y-51600346D01*
X65589070Y-51585930D01*
X65574654Y-51570024D01*
X65561866Y-51552781D01*
X65550830Y-51534368D01*
X65541651Y-51514962D01*
X65534419Y-51494750D01*
X65529203Y-51473926D01*
X65526053Y-51452691D01*
X65525000Y-51431250D01*
X65525000Y-50993750D01*
X65526053Y-50972309D01*
X65529203Y-50951074D01*
X65534419Y-50930250D01*
X65541651Y-50910038D01*
X65550830Y-50890632D01*
X65561866Y-50872219D01*
X65574654Y-50854976D01*
X65589070Y-50839070D01*
X65604976Y-50824654D01*
X65622219Y-50811866D01*
X65640632Y-50800830D01*
X65660038Y-50791651D01*
X65680250Y-50784419D01*
X65701074Y-50779203D01*
X65722309Y-50776053D01*
X65743750Y-50775000D01*
X66256250Y-50775000D01*
X66277691Y-50776053D01*
X66277691Y-50776053D01*
G37*
D17*
G04 #@! TD*
G04 #@! TO.P,C5,1*
G04 #@! TO.N,+3V3*
X66000000Y-51212500D03*
D16*
G04 #@! TO.N,GND*
G04 #@! TO.C,C5*
G36*
X66277691Y-52351053D02*
X66298926Y-52354203D01*
X66319750Y-52359419D01*
X66339962Y-52366651D01*
X66359368Y-52375830D01*
X66377781Y-52386866D01*
X66395024Y-52399654D01*
X66410930Y-52414070D01*
X66425346Y-52429976D01*
X66438134Y-52447219D01*
X66449170Y-52465632D01*
X66458349Y-52485038D01*
X66465581Y-52505250D01*
X66470797Y-52526074D01*
X66473947Y-52547309D01*
X66475000Y-52568750D01*
X66475000Y-53006250D01*
X66473947Y-53027691D01*
X66470797Y-53048926D01*
X66465581Y-53069750D01*
X66458349Y-53089962D01*
X66449170Y-53109368D01*
X66438134Y-53127781D01*
X66425346Y-53145024D01*
X66410930Y-53160930D01*
X66395024Y-53175346D01*
X66377781Y-53188134D01*
X66359368Y-53199170D01*
X66339962Y-53208349D01*
X66319750Y-53215581D01*
X66298926Y-53220797D01*
X66277691Y-53223947D01*
X66256250Y-53225000D01*
X65743750Y-53225000D01*
X65722309Y-53223947D01*
X65701074Y-53220797D01*
X65680250Y-53215581D01*
X65660038Y-53208349D01*
X65640632Y-53199170D01*
X65622219Y-53188134D01*
X65604976Y-53175346D01*
X65589070Y-53160930D01*
X65574654Y-53145024D01*
X65561866Y-53127781D01*
X65550830Y-53109368D01*
X65541651Y-53089962D01*
X65534419Y-53069750D01*
X65529203Y-53048926D01*
X65526053Y-53027691D01*
X65525000Y-53006250D01*
X65525000Y-52568750D01*
X65526053Y-52547309D01*
X65529203Y-52526074D01*
X65534419Y-52505250D01*
X65541651Y-52485038D01*
X65550830Y-52465632D01*
X65561866Y-52447219D01*
X65574654Y-52429976D01*
X65589070Y-52414070D01*
X65604976Y-52399654D01*
X65622219Y-52386866D01*
X65640632Y-52375830D01*
X65660038Y-52366651D01*
X65680250Y-52359419D01*
X65701074Y-52354203D01*
X65722309Y-52351053D01*
X65743750Y-52350000D01*
X66256250Y-52350000D01*
X66277691Y-52351053D01*
X66277691Y-52351053D01*
G37*
D17*
G04 #@! TD*
G04 #@! TO.P,C5,2*
G04 #@! TO.N,GND*
X66000000Y-52787500D03*
D16*
G04 #@! TO.N,GND*
G04 #@! TO.C,C6*
G36*
X68777691Y-56351053D02*
X68798926Y-56354203D01*
X68819750Y-56359419D01*
X68839962Y-56366651D01*
X68859368Y-56375830D01*
X68877781Y-56386866D01*
X68895024Y-56399654D01*
X68910930Y-56414070D01*
X68925346Y-56429976D01*
X68938134Y-56447219D01*
X68949170Y-56465632D01*
X68958349Y-56485038D01*
X68965581Y-56505250D01*
X68970797Y-56526074D01*
X68973947Y-56547309D01*
X68975000Y-56568750D01*
X68975000Y-57006250D01*
X68973947Y-57027691D01*
X68970797Y-57048926D01*
X68965581Y-57069750D01*
X68958349Y-57089962D01*
X68949170Y-57109368D01*
X68938134Y-57127781D01*
X68925346Y-57145024D01*
X68910930Y-57160930D01*
X68895024Y-57175346D01*
X68877781Y-57188134D01*
X68859368Y-57199170D01*
X68839962Y-57208349D01*
X68819750Y-57215581D01*
X68798926Y-57220797D01*
X68777691Y-57223947D01*
X68756250Y-57225000D01*
X68243750Y-57225000D01*
X68222309Y-57223947D01*
X68201074Y-57220797D01*
X68180250Y-57215581D01*
X68160038Y-57208349D01*
X68140632Y-57199170D01*
X68122219Y-57188134D01*
X68104976Y-57175346D01*
X68089070Y-57160930D01*
X68074654Y-57145024D01*
X68061866Y-57127781D01*
X68050830Y-57109368D01*
X68041651Y-57089962D01*
X68034419Y-57069750D01*
X68029203Y-57048926D01*
X68026053Y-57027691D01*
X68025000Y-57006250D01*
X68025000Y-56568750D01*
X68026053Y-56547309D01*
X68029203Y-56526074D01*
X68034419Y-56505250D01*
X68041651Y-56485038D01*
X68050830Y-56465632D01*
X68061866Y-56447219D01*
X68074654Y-56429976D01*
X68089070Y-56414070D01*
X68104976Y-56399654D01*
X68122219Y-56386866D01*
X68140632Y-56375830D01*
X68160038Y-56366651D01*
X68180250Y-56359419D01*
X68201074Y-56354203D01*
X68222309Y-56351053D01*
X68243750Y-56350000D01*
X68756250Y-56350000D01*
X68777691Y-56351053D01*
X68777691Y-56351053D01*
G37*
D17*
G04 #@! TD*
G04 #@! TO.P,C6,2*
G04 #@! TO.N,GND*
X68500000Y-56787500D03*
D16*
G04 #@! TO.N,+3V3*
G04 #@! TO.C,C6*
G36*
X68777691Y-54776053D02*
X68798926Y-54779203D01*
X68819750Y-54784419D01*
X68839962Y-54791651D01*
X68859368Y-54800830D01*
X68877781Y-54811866D01*
X68895024Y-54824654D01*
X68910930Y-54839070D01*
X68925346Y-54854976D01*
X68938134Y-54872219D01*
X68949170Y-54890632D01*
X68958349Y-54910038D01*
X68965581Y-54930250D01*
X68970797Y-54951074D01*
X68973947Y-54972309D01*
X68975000Y-54993750D01*
X68975000Y-55431250D01*
X68973947Y-55452691D01*
X68970797Y-55473926D01*
X68965581Y-55494750D01*
X68958349Y-55514962D01*
X68949170Y-55534368D01*
X68938134Y-55552781D01*
X68925346Y-55570024D01*
X68910930Y-55585930D01*
X68895024Y-55600346D01*
X68877781Y-55613134D01*
X68859368Y-55624170D01*
X68839962Y-55633349D01*
X68819750Y-55640581D01*
X68798926Y-55645797D01*
X68777691Y-55648947D01*
X68756250Y-55650000D01*
X68243750Y-55650000D01*
X68222309Y-55648947D01*
X68201074Y-55645797D01*
X68180250Y-55640581D01*
X68160038Y-55633349D01*
X68140632Y-55624170D01*
X68122219Y-55613134D01*
X68104976Y-55600346D01*
X68089070Y-55585930D01*
X68074654Y-55570024D01*
X68061866Y-55552781D01*
X68050830Y-55534368D01*
X68041651Y-55514962D01*
X68034419Y-55494750D01*
X68029203Y-55473926D01*
X68026053Y-55452691D01*
X68025000Y-55431250D01*
X68025000Y-54993750D01*
X68026053Y-54972309D01*
X68029203Y-54951074D01*
X68034419Y-54930250D01*
X68041651Y-54910038D01*
X68050830Y-54890632D01*
X68061866Y-54872219D01*
X68074654Y-54854976D01*
X68089070Y-54839070D01*
X68104976Y-54824654D01*
X68122219Y-54811866D01*
X68140632Y-54800830D01*
X68160038Y-54791651D01*
X68180250Y-54784419D01*
X68201074Y-54779203D01*
X68222309Y-54776053D01*
X68243750Y-54775000D01*
X68756250Y-54775000D01*
X68777691Y-54776053D01*
X68777691Y-54776053D01*
G37*
D17*
G04 #@! TD*
G04 #@! TO.P,C6,1*
G04 #@! TO.N,+3V3*
X68500000Y-55212500D03*
D16*
G04 #@! TO.N,+3V3*
G04 #@! TO.C,D1*
G36*
X68260142Y-41702674D02*
X68283803Y-41706184D01*
X68307007Y-41711996D01*
X68329529Y-41720054D01*
X68351153Y-41730282D01*
X68371670Y-41742579D01*
X68390883Y-41756829D01*
X68408607Y-41772893D01*
X68424671Y-41790617D01*
X68438921Y-41809830D01*
X68451218Y-41830347D01*
X68461446Y-41851971D01*
X68469504Y-41874493D01*
X68475316Y-41897697D01*
X68478826Y-41921358D01*
X68480000Y-41945250D01*
X68480000Y-42432750D01*
X68478826Y-42456642D01*
X68475316Y-42480303D01*
X68469504Y-42503507D01*
X68461446Y-42526029D01*
X68451218Y-42547653D01*
X68438921Y-42568170D01*
X68424671Y-42587383D01*
X68408607Y-42605107D01*
X68390883Y-42621171D01*
X68371670Y-42635421D01*
X68351153Y-42647718D01*
X68329529Y-42657946D01*
X68307007Y-42666004D01*
X68283803Y-42671816D01*
X68260142Y-42675326D01*
X68236250Y-42676500D01*
X67323750Y-42676500D01*
X67299858Y-42675326D01*
X67276197Y-42671816D01*
X67252993Y-42666004D01*
X67230471Y-42657946D01*
X67208847Y-42647718D01*
X67188330Y-42635421D01*
X67169117Y-42621171D01*
X67151393Y-42605107D01*
X67135329Y-42587383D01*
X67121079Y-42568170D01*
X67108782Y-42547653D01*
X67098554Y-42526029D01*
X67090496Y-42503507D01*
X67084684Y-42480303D01*
X67081174Y-42456642D01*
X67080000Y-42432750D01*
X67080000Y-41945250D01*
X67081174Y-41921358D01*
X67084684Y-41897697D01*
X67090496Y-41874493D01*
X67098554Y-41851971D01*
X67108782Y-41830347D01*
X67121079Y-41809830D01*
X67135329Y-41790617D01*
X67151393Y-41772893D01*
X67169117Y-41756829D01*
X67188330Y-41742579D01*
X67208847Y-41730282D01*
X67230471Y-41720054D01*
X67252993Y-41711996D01*
X67276197Y-41706184D01*
X67299858Y-41702674D01*
X67323750Y-41701500D01*
X68236250Y-41701500D01*
X68260142Y-41702674D01*
X68260142Y-41702674D01*
G37*
D18*
G04 #@! TD*
G04 #@! TO.P,D1,2*
G04 #@! TO.N,+3V3*
X67780000Y-42189000D03*
D16*
G04 #@! TO.N,Net-(D1-Pad1)*
G04 #@! TO.C,D1*
G36*
X68260142Y-43577674D02*
X68283803Y-43581184D01*
X68307007Y-43586996D01*
X68329529Y-43595054D01*
X68351153Y-43605282D01*
X68371670Y-43617579D01*
X68390883Y-43631829D01*
X68408607Y-43647893D01*
X68424671Y-43665617D01*
X68438921Y-43684830D01*
X68451218Y-43705347D01*
X68461446Y-43726971D01*
X68469504Y-43749493D01*
X68475316Y-43772697D01*
X68478826Y-43796358D01*
X68480000Y-43820250D01*
X68480000Y-44307750D01*
X68478826Y-44331642D01*
X68475316Y-44355303D01*
X68469504Y-44378507D01*
X68461446Y-44401029D01*
X68451218Y-44422653D01*
X68438921Y-44443170D01*
X68424671Y-44462383D01*
X68408607Y-44480107D01*
X68390883Y-44496171D01*
X68371670Y-44510421D01*
X68351153Y-44522718D01*
X68329529Y-44532946D01*
X68307007Y-44541004D01*
X68283803Y-44546816D01*
X68260142Y-44550326D01*
X68236250Y-44551500D01*
X67323750Y-44551500D01*
X67299858Y-44550326D01*
X67276197Y-44546816D01*
X67252993Y-44541004D01*
X67230471Y-44532946D01*
X67208847Y-44522718D01*
X67188330Y-44510421D01*
X67169117Y-44496171D01*
X67151393Y-44480107D01*
X67135329Y-44462383D01*
X67121079Y-44443170D01*
X67108782Y-44422653D01*
X67098554Y-44401029D01*
X67090496Y-44378507D01*
X67084684Y-44355303D01*
X67081174Y-44331642D01*
X67080000Y-44307750D01*
X67080000Y-43820250D01*
X67081174Y-43796358D01*
X67084684Y-43772697D01*
X67090496Y-43749493D01*
X67098554Y-43726971D01*
X67108782Y-43705347D01*
X67121079Y-43684830D01*
X67135329Y-43665617D01*
X67151393Y-43647893D01*
X67169117Y-43631829D01*
X67188330Y-43617579D01*
X67208847Y-43605282D01*
X67230471Y-43595054D01*
X67252993Y-43586996D01*
X67276197Y-43581184D01*
X67299858Y-43577674D01*
X67323750Y-43576500D01*
X68236250Y-43576500D01*
X68260142Y-43577674D01*
X68260142Y-43577674D01*
G37*
D18*
G04 #@! TD*
G04 #@! TO.P,D1,1*
G04 #@! TO.N,Net-(D1-Pad1)*
X67780000Y-44064000D03*
D16*
G04 #@! TO.N,Net-(D2-Pad1)*
G04 #@! TO.C,D2*
G36*
X70546142Y-43577674D02*
X70569803Y-43581184D01*
X70593007Y-43586996D01*
X70615529Y-43595054D01*
X70637153Y-43605282D01*
X70657670Y-43617579D01*
X70676883Y-43631829D01*
X70694607Y-43647893D01*
X70710671Y-43665617D01*
X70724921Y-43684830D01*
X70737218Y-43705347D01*
X70747446Y-43726971D01*
X70755504Y-43749493D01*
X70761316Y-43772697D01*
X70764826Y-43796358D01*
X70766000Y-43820250D01*
X70766000Y-44307750D01*
X70764826Y-44331642D01*
X70761316Y-44355303D01*
X70755504Y-44378507D01*
X70747446Y-44401029D01*
X70737218Y-44422653D01*
X70724921Y-44443170D01*
X70710671Y-44462383D01*
X70694607Y-44480107D01*
X70676883Y-44496171D01*
X70657670Y-44510421D01*
X70637153Y-44522718D01*
X70615529Y-44532946D01*
X70593007Y-44541004D01*
X70569803Y-44546816D01*
X70546142Y-44550326D01*
X70522250Y-44551500D01*
X69609750Y-44551500D01*
X69585858Y-44550326D01*
X69562197Y-44546816D01*
X69538993Y-44541004D01*
X69516471Y-44532946D01*
X69494847Y-44522718D01*
X69474330Y-44510421D01*
X69455117Y-44496171D01*
X69437393Y-44480107D01*
X69421329Y-44462383D01*
X69407079Y-44443170D01*
X69394782Y-44422653D01*
X69384554Y-44401029D01*
X69376496Y-44378507D01*
X69370684Y-44355303D01*
X69367174Y-44331642D01*
X69366000Y-44307750D01*
X69366000Y-43820250D01*
X69367174Y-43796358D01*
X69370684Y-43772697D01*
X69376496Y-43749493D01*
X69384554Y-43726971D01*
X69394782Y-43705347D01*
X69407079Y-43684830D01*
X69421329Y-43665617D01*
X69437393Y-43647893D01*
X69455117Y-43631829D01*
X69474330Y-43617579D01*
X69494847Y-43605282D01*
X69516471Y-43595054D01*
X69538993Y-43586996D01*
X69562197Y-43581184D01*
X69585858Y-43577674D01*
X69609750Y-43576500D01*
X70522250Y-43576500D01*
X70546142Y-43577674D01*
X70546142Y-43577674D01*
G37*
D18*
G04 #@! TD*
G04 #@! TO.P,D2,1*
G04 #@! TO.N,Net-(D2-Pad1)*
X70066000Y-44064000D03*
D16*
G04 #@! TO.N,+3V3*
G04 #@! TO.C,D2*
G36*
X70546142Y-41702674D02*
X70569803Y-41706184D01*
X70593007Y-41711996D01*
X70615529Y-41720054D01*
X70637153Y-41730282D01*
X70657670Y-41742579D01*
X70676883Y-41756829D01*
X70694607Y-41772893D01*
X70710671Y-41790617D01*
X70724921Y-41809830D01*
X70737218Y-41830347D01*
X70747446Y-41851971D01*
X70755504Y-41874493D01*
X70761316Y-41897697D01*
X70764826Y-41921358D01*
X70766000Y-41945250D01*
X70766000Y-42432750D01*
X70764826Y-42456642D01*
X70761316Y-42480303D01*
X70755504Y-42503507D01*
X70747446Y-42526029D01*
X70737218Y-42547653D01*
X70724921Y-42568170D01*
X70710671Y-42587383D01*
X70694607Y-42605107D01*
X70676883Y-42621171D01*
X70657670Y-42635421D01*
X70637153Y-42647718D01*
X70615529Y-42657946D01*
X70593007Y-42666004D01*
X70569803Y-42671816D01*
X70546142Y-42675326D01*
X70522250Y-42676500D01*
X69609750Y-42676500D01*
X69585858Y-42675326D01*
X69562197Y-42671816D01*
X69538993Y-42666004D01*
X69516471Y-42657946D01*
X69494847Y-42647718D01*
X69474330Y-42635421D01*
X69455117Y-42621171D01*
X69437393Y-42605107D01*
X69421329Y-42587383D01*
X69407079Y-42568170D01*
X69394782Y-42547653D01*
X69384554Y-42526029D01*
X69376496Y-42503507D01*
X69370684Y-42480303D01*
X69367174Y-42456642D01*
X69366000Y-42432750D01*
X69366000Y-41945250D01*
X69367174Y-41921358D01*
X69370684Y-41897697D01*
X69376496Y-41874493D01*
X69384554Y-41851971D01*
X69394782Y-41830347D01*
X69407079Y-41809830D01*
X69421329Y-41790617D01*
X69437393Y-41772893D01*
X69455117Y-41756829D01*
X69474330Y-41742579D01*
X69494847Y-41730282D01*
X69516471Y-41720054D01*
X69538993Y-41711996D01*
X69562197Y-41706184D01*
X69585858Y-41702674D01*
X69609750Y-41701500D01*
X70522250Y-41701500D01*
X70546142Y-41702674D01*
X70546142Y-41702674D01*
G37*
D18*
G04 #@! TD*
G04 #@! TO.P,D2,2*
G04 #@! TO.N,+3V3*
X70066000Y-42189000D03*
D19*
G04 #@! TO.P,JP1,1*
G04 #@! TO.N,GND*
X61430000Y-52222000D03*
D16*
G04 #@! TD*
G04 #@! TO.N,GND*
G04 #@! TO.C,JP1*
G36*
X62180000Y-51672000D02*
X62180000Y-52222000D01*
X62179398Y-52222000D01*
X62179398Y-52246534D01*
X62174588Y-52295365D01*
X62165016Y-52343490D01*
X62150772Y-52390445D01*
X62131995Y-52435778D01*
X62108864Y-52479051D01*
X62081604Y-52519850D01*
X62050476Y-52557779D01*
X62015779Y-52592476D01*
X61977850Y-52623604D01*
X61937051Y-52650864D01*
X61893778Y-52673995D01*
X61848445Y-52692772D01*
X61801490Y-52707016D01*
X61753365Y-52716588D01*
X61704534Y-52721398D01*
X61680000Y-52721398D01*
X61680000Y-52722000D01*
X61180000Y-52722000D01*
X61180000Y-52721398D01*
X61155466Y-52721398D01*
X61106635Y-52716588D01*
X61058510Y-52707016D01*
X61011555Y-52692772D01*
X60966222Y-52673995D01*
X60922949Y-52650864D01*
X60882150Y-52623604D01*
X60844221Y-52592476D01*
X60809524Y-52557779D01*
X60778396Y-52519850D01*
X60751136Y-52479051D01*
X60728005Y-52435778D01*
X60709228Y-52390445D01*
X60694984Y-52343490D01*
X60685412Y-52295365D01*
X60680602Y-52246534D01*
X60680602Y-52222000D01*
X60680000Y-52222000D01*
X60680000Y-51672000D01*
X62180000Y-51672000D01*
X62180000Y-51672000D01*
G37*
D19*
G04 #@! TO.P,JP1,3*
G04 #@! TO.N,+3V3*
X61430000Y-49622000D03*
D16*
G04 #@! TD*
G04 #@! TO.N,+3V3*
G04 #@! TO.C,JP1*
G36*
X60680602Y-49622000D02*
X60680602Y-49597466D01*
X60685412Y-49548635D01*
X60694984Y-49500510D01*
X60709228Y-49453555D01*
X60728005Y-49408222D01*
X60751136Y-49364949D01*
X60778396Y-49324150D01*
X60809524Y-49286221D01*
X60844221Y-49251524D01*
X60882150Y-49220396D01*
X60922949Y-49193136D01*
X60966222Y-49170005D01*
X61011555Y-49151228D01*
X61058510Y-49136984D01*
X61106635Y-49127412D01*
X61155466Y-49122602D01*
X61180000Y-49122602D01*
X61180000Y-49122000D01*
X61680000Y-49122000D01*
X61680000Y-49122602D01*
X61704534Y-49122602D01*
X61753365Y-49127412D01*
X61801490Y-49136984D01*
X61848445Y-49151228D01*
X61893778Y-49170005D01*
X61937051Y-49193136D01*
X61977850Y-49220396D01*
X62015779Y-49251524D01*
X62050476Y-49286221D01*
X62081604Y-49324150D01*
X62108864Y-49364949D01*
X62131995Y-49408222D01*
X62150772Y-49453555D01*
X62165016Y-49500510D01*
X62174588Y-49548635D01*
X62179398Y-49597466D01*
X62179398Y-49622000D01*
X62180000Y-49622000D01*
X62180000Y-50172000D01*
X60680000Y-50172000D01*
X60680000Y-49622000D01*
X60680602Y-49622000D01*
X60680602Y-49622000D01*
G37*
D20*
G04 #@! TO.P,JP1,2*
G04 #@! TO.N,Net-(JP1-Pad2)*
X61430000Y-50922000D03*
G04 #@! TD*
D16*
G04 #@! TO.N,Net-(R1-Pad2)*
G04 #@! TO.C,R1*
G36*
X67205142Y-53801174D02*
X67228803Y-53804684D01*
X67252007Y-53810496D01*
X67274529Y-53818554D01*
X67296153Y-53828782D01*
X67316670Y-53841079D01*
X67335883Y-53855329D01*
X67353607Y-53871393D01*
X67369671Y-53889117D01*
X67383921Y-53908330D01*
X67396218Y-53928847D01*
X67406446Y-53950471D01*
X67414504Y-53972993D01*
X67420316Y-53996197D01*
X67423826Y-54019858D01*
X67425000Y-54043750D01*
X67425000Y-54956250D01*
X67423826Y-54980142D01*
X67420316Y-55003803D01*
X67414504Y-55027007D01*
X67406446Y-55049529D01*
X67396218Y-55071153D01*
X67383921Y-55091670D01*
X67369671Y-55110883D01*
X67353607Y-55128607D01*
X67335883Y-55144671D01*
X67316670Y-55158921D01*
X67296153Y-55171218D01*
X67274529Y-55181446D01*
X67252007Y-55189504D01*
X67228803Y-55195316D01*
X67205142Y-55198826D01*
X67181250Y-55200000D01*
X66693750Y-55200000D01*
X66669858Y-55198826D01*
X66646197Y-55195316D01*
X66622993Y-55189504D01*
X66600471Y-55181446D01*
X66578847Y-55171218D01*
X66558330Y-55158921D01*
X66539117Y-55144671D01*
X66521393Y-55128607D01*
X66505329Y-55110883D01*
X66491079Y-55091670D01*
X66478782Y-55071153D01*
X66468554Y-55049529D01*
X66460496Y-55027007D01*
X66454684Y-55003803D01*
X66451174Y-54980142D01*
X66450000Y-54956250D01*
X66450000Y-54043750D01*
X66451174Y-54019858D01*
X66454684Y-53996197D01*
X66460496Y-53972993D01*
X66468554Y-53950471D01*
X66478782Y-53928847D01*
X66491079Y-53908330D01*
X66505329Y-53889117D01*
X66521393Y-53871393D01*
X66539117Y-53855329D01*
X66558330Y-53841079D01*
X66578847Y-53828782D01*
X66600471Y-53818554D01*
X66622993Y-53810496D01*
X66646197Y-53804684D01*
X66669858Y-53801174D01*
X66693750Y-53800000D01*
X67181250Y-53800000D01*
X67205142Y-53801174D01*
X67205142Y-53801174D01*
G37*
D18*
G04 #@! TD*
G04 #@! TO.P,R1,2*
G04 #@! TO.N,Net-(R1-Pad2)*
X66937500Y-54500000D03*
D16*
G04 #@! TO.N,+3V3*
G04 #@! TO.C,R1*
G36*
X65330142Y-53801174D02*
X65353803Y-53804684D01*
X65377007Y-53810496D01*
X65399529Y-53818554D01*
X65421153Y-53828782D01*
X65441670Y-53841079D01*
X65460883Y-53855329D01*
X65478607Y-53871393D01*
X65494671Y-53889117D01*
X65508921Y-53908330D01*
X65521218Y-53928847D01*
X65531446Y-53950471D01*
X65539504Y-53972993D01*
X65545316Y-53996197D01*
X65548826Y-54019858D01*
X65550000Y-54043750D01*
X65550000Y-54956250D01*
X65548826Y-54980142D01*
X65545316Y-55003803D01*
X65539504Y-55027007D01*
X65531446Y-55049529D01*
X65521218Y-55071153D01*
X65508921Y-55091670D01*
X65494671Y-55110883D01*
X65478607Y-55128607D01*
X65460883Y-55144671D01*
X65441670Y-55158921D01*
X65421153Y-55171218D01*
X65399529Y-55181446D01*
X65377007Y-55189504D01*
X65353803Y-55195316D01*
X65330142Y-55198826D01*
X65306250Y-55200000D01*
X64818750Y-55200000D01*
X64794858Y-55198826D01*
X64771197Y-55195316D01*
X64747993Y-55189504D01*
X64725471Y-55181446D01*
X64703847Y-55171218D01*
X64683330Y-55158921D01*
X64664117Y-55144671D01*
X64646393Y-55128607D01*
X64630329Y-55110883D01*
X64616079Y-55091670D01*
X64603782Y-55071153D01*
X64593554Y-55049529D01*
X64585496Y-55027007D01*
X64579684Y-55003803D01*
X64576174Y-54980142D01*
X64575000Y-54956250D01*
X64575000Y-54043750D01*
X64576174Y-54019858D01*
X64579684Y-53996197D01*
X64585496Y-53972993D01*
X64593554Y-53950471D01*
X64603782Y-53928847D01*
X64616079Y-53908330D01*
X64630329Y-53889117D01*
X64646393Y-53871393D01*
X64664117Y-53855329D01*
X64683330Y-53841079D01*
X64703847Y-53828782D01*
X64725471Y-53818554D01*
X64747993Y-53810496D01*
X64771197Y-53804684D01*
X64794858Y-53801174D01*
X64818750Y-53800000D01*
X65306250Y-53800000D01*
X65330142Y-53801174D01*
X65330142Y-53801174D01*
G37*
D18*
G04 #@! TD*
G04 #@! TO.P,R1,1*
G04 #@! TO.N,+3V3*
X65062500Y-54500000D03*
D16*
G04 #@! TO.N,Net-(D1-Pad1)*
G04 #@! TO.C,R3*
G36*
X68260142Y-45258674D02*
X68283803Y-45262184D01*
X68307007Y-45267996D01*
X68329529Y-45276054D01*
X68351153Y-45286282D01*
X68371670Y-45298579D01*
X68390883Y-45312829D01*
X68408607Y-45328893D01*
X68424671Y-45346617D01*
X68438921Y-45365830D01*
X68451218Y-45386347D01*
X68461446Y-45407971D01*
X68469504Y-45430493D01*
X68475316Y-45453697D01*
X68478826Y-45477358D01*
X68480000Y-45501250D01*
X68480000Y-45988750D01*
X68478826Y-46012642D01*
X68475316Y-46036303D01*
X68469504Y-46059507D01*
X68461446Y-46082029D01*
X68451218Y-46103653D01*
X68438921Y-46124170D01*
X68424671Y-46143383D01*
X68408607Y-46161107D01*
X68390883Y-46177171D01*
X68371670Y-46191421D01*
X68351153Y-46203718D01*
X68329529Y-46213946D01*
X68307007Y-46222004D01*
X68283803Y-46227816D01*
X68260142Y-46231326D01*
X68236250Y-46232500D01*
X67323750Y-46232500D01*
X67299858Y-46231326D01*
X67276197Y-46227816D01*
X67252993Y-46222004D01*
X67230471Y-46213946D01*
X67208847Y-46203718D01*
X67188330Y-46191421D01*
X67169117Y-46177171D01*
X67151393Y-46161107D01*
X67135329Y-46143383D01*
X67121079Y-46124170D01*
X67108782Y-46103653D01*
X67098554Y-46082029D01*
X67090496Y-46059507D01*
X67084684Y-46036303D01*
X67081174Y-46012642D01*
X67080000Y-45988750D01*
X67080000Y-45501250D01*
X67081174Y-45477358D01*
X67084684Y-45453697D01*
X67090496Y-45430493D01*
X67098554Y-45407971D01*
X67108782Y-45386347D01*
X67121079Y-45365830D01*
X67135329Y-45346617D01*
X67151393Y-45328893D01*
X67169117Y-45312829D01*
X67188330Y-45298579D01*
X67208847Y-45286282D01*
X67230471Y-45276054D01*
X67252993Y-45267996D01*
X67276197Y-45262184D01*
X67299858Y-45258674D01*
X67323750Y-45257500D01*
X68236250Y-45257500D01*
X68260142Y-45258674D01*
X68260142Y-45258674D01*
G37*
D18*
G04 #@! TD*
G04 #@! TO.P,R3,1*
G04 #@! TO.N,Net-(D1-Pad1)*
X67780000Y-45745000D03*
D16*
G04 #@! TO.N,GND*
G04 #@! TO.C,R3*
G36*
X68260142Y-47133674D02*
X68283803Y-47137184D01*
X68307007Y-47142996D01*
X68329529Y-47151054D01*
X68351153Y-47161282D01*
X68371670Y-47173579D01*
X68390883Y-47187829D01*
X68408607Y-47203893D01*
X68424671Y-47221617D01*
X68438921Y-47240830D01*
X68451218Y-47261347D01*
X68461446Y-47282971D01*
X68469504Y-47305493D01*
X68475316Y-47328697D01*
X68478826Y-47352358D01*
X68480000Y-47376250D01*
X68480000Y-47863750D01*
X68478826Y-47887642D01*
X68475316Y-47911303D01*
X68469504Y-47934507D01*
X68461446Y-47957029D01*
X68451218Y-47978653D01*
X68438921Y-47999170D01*
X68424671Y-48018383D01*
X68408607Y-48036107D01*
X68390883Y-48052171D01*
X68371670Y-48066421D01*
X68351153Y-48078718D01*
X68329529Y-48088946D01*
X68307007Y-48097004D01*
X68283803Y-48102816D01*
X68260142Y-48106326D01*
X68236250Y-48107500D01*
X67323750Y-48107500D01*
X67299858Y-48106326D01*
X67276197Y-48102816D01*
X67252993Y-48097004D01*
X67230471Y-48088946D01*
X67208847Y-48078718D01*
X67188330Y-48066421D01*
X67169117Y-48052171D01*
X67151393Y-48036107D01*
X67135329Y-48018383D01*
X67121079Y-47999170D01*
X67108782Y-47978653D01*
X67098554Y-47957029D01*
X67090496Y-47934507D01*
X67084684Y-47911303D01*
X67081174Y-47887642D01*
X67080000Y-47863750D01*
X67080000Y-47376250D01*
X67081174Y-47352358D01*
X67084684Y-47328697D01*
X67090496Y-47305493D01*
X67098554Y-47282971D01*
X67108782Y-47261347D01*
X67121079Y-47240830D01*
X67135329Y-47221617D01*
X67151393Y-47203893D01*
X67169117Y-47187829D01*
X67188330Y-47173579D01*
X67208847Y-47161282D01*
X67230471Y-47151054D01*
X67252993Y-47142996D01*
X67276197Y-47137184D01*
X67299858Y-47133674D01*
X67323750Y-47132500D01*
X68236250Y-47132500D01*
X68260142Y-47133674D01*
X68260142Y-47133674D01*
G37*
D18*
G04 #@! TD*
G04 #@! TO.P,R3,2*
G04 #@! TO.N,GND*
X67780000Y-47620000D03*
D16*
G04 #@! TO.N,Net-(D2-Pad1)*
G04 #@! TO.C,R4*
G36*
X70546142Y-45258674D02*
X70569803Y-45262184D01*
X70593007Y-45267996D01*
X70615529Y-45276054D01*
X70637153Y-45286282D01*
X70657670Y-45298579D01*
X70676883Y-45312829D01*
X70694607Y-45328893D01*
X70710671Y-45346617D01*
X70724921Y-45365830D01*
X70737218Y-45386347D01*
X70747446Y-45407971D01*
X70755504Y-45430493D01*
X70761316Y-45453697D01*
X70764826Y-45477358D01*
X70766000Y-45501250D01*
X70766000Y-45988750D01*
X70764826Y-46012642D01*
X70761316Y-46036303D01*
X70755504Y-46059507D01*
X70747446Y-46082029D01*
X70737218Y-46103653D01*
X70724921Y-46124170D01*
X70710671Y-46143383D01*
X70694607Y-46161107D01*
X70676883Y-46177171D01*
X70657670Y-46191421D01*
X70637153Y-46203718D01*
X70615529Y-46213946D01*
X70593007Y-46222004D01*
X70569803Y-46227816D01*
X70546142Y-46231326D01*
X70522250Y-46232500D01*
X69609750Y-46232500D01*
X69585858Y-46231326D01*
X69562197Y-46227816D01*
X69538993Y-46222004D01*
X69516471Y-46213946D01*
X69494847Y-46203718D01*
X69474330Y-46191421D01*
X69455117Y-46177171D01*
X69437393Y-46161107D01*
X69421329Y-46143383D01*
X69407079Y-46124170D01*
X69394782Y-46103653D01*
X69384554Y-46082029D01*
X69376496Y-46059507D01*
X69370684Y-46036303D01*
X69367174Y-46012642D01*
X69366000Y-45988750D01*
X69366000Y-45501250D01*
X69367174Y-45477358D01*
X69370684Y-45453697D01*
X69376496Y-45430493D01*
X69384554Y-45407971D01*
X69394782Y-45386347D01*
X69407079Y-45365830D01*
X69421329Y-45346617D01*
X69437393Y-45328893D01*
X69455117Y-45312829D01*
X69474330Y-45298579D01*
X69494847Y-45286282D01*
X69516471Y-45276054D01*
X69538993Y-45267996D01*
X69562197Y-45262184D01*
X69585858Y-45258674D01*
X69609750Y-45257500D01*
X70522250Y-45257500D01*
X70546142Y-45258674D01*
X70546142Y-45258674D01*
G37*
D18*
G04 #@! TD*
G04 #@! TO.P,R4,1*
G04 #@! TO.N,Net-(D2-Pad1)*
X70066000Y-45745000D03*
D16*
G04 #@! TO.N,/PC13*
G04 #@! TO.C,R4*
G36*
X70546142Y-47133674D02*
X70569803Y-47137184D01*
X70593007Y-47142996D01*
X70615529Y-47151054D01*
X70637153Y-47161282D01*
X70657670Y-47173579D01*
X70676883Y-47187829D01*
X70694607Y-47203893D01*
X70710671Y-47221617D01*
X70724921Y-47240830D01*
X70737218Y-47261347D01*
X70747446Y-47282971D01*
X70755504Y-47305493D01*
X70761316Y-47328697D01*
X70764826Y-47352358D01*
X70766000Y-47376250D01*
X70766000Y-47863750D01*
X70764826Y-47887642D01*
X70761316Y-47911303D01*
X70755504Y-47934507D01*
X70747446Y-47957029D01*
X70737218Y-47978653D01*
X70724921Y-47999170D01*
X70710671Y-48018383D01*
X70694607Y-48036107D01*
X70676883Y-48052171D01*
X70657670Y-48066421D01*
X70637153Y-48078718D01*
X70615529Y-48088946D01*
X70593007Y-48097004D01*
X70569803Y-48102816D01*
X70546142Y-48106326D01*
X70522250Y-48107500D01*
X69609750Y-48107500D01*
X69585858Y-48106326D01*
X69562197Y-48102816D01*
X69538993Y-48097004D01*
X69516471Y-48088946D01*
X69494847Y-48078718D01*
X69474330Y-48066421D01*
X69455117Y-48052171D01*
X69437393Y-48036107D01*
X69421329Y-48018383D01*
X69407079Y-47999170D01*
X69394782Y-47978653D01*
X69384554Y-47957029D01*
X69376496Y-47934507D01*
X69370684Y-47911303D01*
X69367174Y-47887642D01*
X69366000Y-47863750D01*
X69366000Y-47376250D01*
X69367174Y-47352358D01*
X69370684Y-47328697D01*
X69376496Y-47305493D01*
X69384554Y-47282971D01*
X69394782Y-47261347D01*
X69407079Y-47240830D01*
X69421329Y-47221617D01*
X69437393Y-47203893D01*
X69455117Y-47187829D01*
X69474330Y-47173579D01*
X69494847Y-47161282D01*
X69516471Y-47151054D01*
X69538993Y-47142996D01*
X69562197Y-47137184D01*
X69585858Y-47133674D01*
X69609750Y-47132500D01*
X70522250Y-47132500D01*
X70546142Y-47133674D01*
X70546142Y-47133674D01*
G37*
D18*
G04 #@! TD*
G04 #@! TO.P,R4,2*
G04 #@! TO.N,/PC13*
X70066000Y-47620000D03*
D16*
G04 #@! TO.N,Net-(JP1-Pad2)*
G04 #@! TO.C,R7*
G36*
X64450142Y-48990174D02*
X64473803Y-48993684D01*
X64497007Y-48999496D01*
X64519529Y-49007554D01*
X64541153Y-49017782D01*
X64561670Y-49030079D01*
X64580883Y-49044329D01*
X64598607Y-49060393D01*
X64614671Y-49078117D01*
X64628921Y-49097330D01*
X64641218Y-49117847D01*
X64651446Y-49139471D01*
X64659504Y-49161993D01*
X64665316Y-49185197D01*
X64668826Y-49208858D01*
X64670000Y-49232750D01*
X64670000Y-49720250D01*
X64668826Y-49744142D01*
X64665316Y-49767803D01*
X64659504Y-49791007D01*
X64651446Y-49813529D01*
X64641218Y-49835153D01*
X64628921Y-49855670D01*
X64614671Y-49874883D01*
X64598607Y-49892607D01*
X64580883Y-49908671D01*
X64561670Y-49922921D01*
X64541153Y-49935218D01*
X64519529Y-49945446D01*
X64497007Y-49953504D01*
X64473803Y-49959316D01*
X64450142Y-49962826D01*
X64426250Y-49964000D01*
X63513750Y-49964000D01*
X63489858Y-49962826D01*
X63466197Y-49959316D01*
X63442993Y-49953504D01*
X63420471Y-49945446D01*
X63398847Y-49935218D01*
X63378330Y-49922921D01*
X63359117Y-49908671D01*
X63341393Y-49892607D01*
X63325329Y-49874883D01*
X63311079Y-49855670D01*
X63298782Y-49835153D01*
X63288554Y-49813529D01*
X63280496Y-49791007D01*
X63274684Y-49767803D01*
X63271174Y-49744142D01*
X63270000Y-49720250D01*
X63270000Y-49232750D01*
X63271174Y-49208858D01*
X63274684Y-49185197D01*
X63280496Y-49161993D01*
X63288554Y-49139471D01*
X63298782Y-49117847D01*
X63311079Y-49097330D01*
X63325329Y-49078117D01*
X63341393Y-49060393D01*
X63359117Y-49044329D01*
X63378330Y-49030079D01*
X63398847Y-49017782D01*
X63420471Y-49007554D01*
X63442993Y-48999496D01*
X63466197Y-48993684D01*
X63489858Y-48990174D01*
X63513750Y-48989000D01*
X64426250Y-48989000D01*
X64450142Y-48990174D01*
X64450142Y-48990174D01*
G37*
D18*
G04 #@! TD*
G04 #@! TO.P,R7,1*
G04 #@! TO.N,Net-(JP1-Pad2)*
X63970000Y-49476500D03*
D16*
G04 #@! TO.N,/BOOT0*
G04 #@! TO.C,R7*
G36*
X64450142Y-50865174D02*
X64473803Y-50868684D01*
X64497007Y-50874496D01*
X64519529Y-50882554D01*
X64541153Y-50892782D01*
X64561670Y-50905079D01*
X64580883Y-50919329D01*
X64598607Y-50935393D01*
X64614671Y-50953117D01*
X64628921Y-50972330D01*
X64641218Y-50992847D01*
X64651446Y-51014471D01*
X64659504Y-51036993D01*
X64665316Y-51060197D01*
X64668826Y-51083858D01*
X64670000Y-51107750D01*
X64670000Y-51595250D01*
X64668826Y-51619142D01*
X64665316Y-51642803D01*
X64659504Y-51666007D01*
X64651446Y-51688529D01*
X64641218Y-51710153D01*
X64628921Y-51730670D01*
X64614671Y-51749883D01*
X64598607Y-51767607D01*
X64580883Y-51783671D01*
X64561670Y-51797921D01*
X64541153Y-51810218D01*
X64519529Y-51820446D01*
X64497007Y-51828504D01*
X64473803Y-51834316D01*
X64450142Y-51837826D01*
X64426250Y-51839000D01*
X63513750Y-51839000D01*
X63489858Y-51837826D01*
X63466197Y-51834316D01*
X63442993Y-51828504D01*
X63420471Y-51820446D01*
X63398847Y-51810218D01*
X63378330Y-51797921D01*
X63359117Y-51783671D01*
X63341393Y-51767607D01*
X63325329Y-51749883D01*
X63311079Y-51730670D01*
X63298782Y-51710153D01*
X63288554Y-51688529D01*
X63280496Y-51666007D01*
X63274684Y-51642803D01*
X63271174Y-51619142D01*
X63270000Y-51595250D01*
X63270000Y-51107750D01*
X63271174Y-51083858D01*
X63274684Y-51060197D01*
X63280496Y-51036993D01*
X63288554Y-51014471D01*
X63298782Y-50992847D01*
X63311079Y-50972330D01*
X63325329Y-50953117D01*
X63341393Y-50935393D01*
X63359117Y-50919329D01*
X63378330Y-50905079D01*
X63398847Y-50892782D01*
X63420471Y-50882554D01*
X63442993Y-50874496D01*
X63466197Y-50868684D01*
X63489858Y-50865174D01*
X63513750Y-50864000D01*
X64426250Y-50864000D01*
X64450142Y-50865174D01*
X64450142Y-50865174D01*
G37*
D18*
G04 #@! TD*
G04 #@! TO.P,R7,2*
G04 #@! TO.N,/BOOT0*
X63970000Y-51351500D03*
D16*
G04 #@! TO.N,/BOOT1*
G04 #@! TO.C,R8*
G36*
X67205142Y-55801174D02*
X67228803Y-55804684D01*
X67252007Y-55810496D01*
X67274529Y-55818554D01*
X67296153Y-55828782D01*
X67316670Y-55841079D01*
X67335883Y-55855329D01*
X67353607Y-55871393D01*
X67369671Y-55889117D01*
X67383921Y-55908330D01*
X67396218Y-55928847D01*
X67406446Y-55950471D01*
X67414504Y-55972993D01*
X67420316Y-55996197D01*
X67423826Y-56019858D01*
X67425000Y-56043750D01*
X67425000Y-56956250D01*
X67423826Y-56980142D01*
X67420316Y-57003803D01*
X67414504Y-57027007D01*
X67406446Y-57049529D01*
X67396218Y-57071153D01*
X67383921Y-57091670D01*
X67369671Y-57110883D01*
X67353607Y-57128607D01*
X67335883Y-57144671D01*
X67316670Y-57158921D01*
X67296153Y-57171218D01*
X67274529Y-57181446D01*
X67252007Y-57189504D01*
X67228803Y-57195316D01*
X67205142Y-57198826D01*
X67181250Y-57200000D01*
X66693750Y-57200000D01*
X66669858Y-57198826D01*
X66646197Y-57195316D01*
X66622993Y-57189504D01*
X66600471Y-57181446D01*
X66578847Y-57171218D01*
X66558330Y-57158921D01*
X66539117Y-57144671D01*
X66521393Y-57128607D01*
X66505329Y-57110883D01*
X66491079Y-57091670D01*
X66478782Y-57071153D01*
X66468554Y-57049529D01*
X66460496Y-57027007D01*
X66454684Y-57003803D01*
X66451174Y-56980142D01*
X66450000Y-56956250D01*
X66450000Y-56043750D01*
X66451174Y-56019858D01*
X66454684Y-55996197D01*
X66460496Y-55972993D01*
X66468554Y-55950471D01*
X66478782Y-55928847D01*
X66491079Y-55908330D01*
X66505329Y-55889117D01*
X66521393Y-55871393D01*
X66539117Y-55855329D01*
X66558330Y-55841079D01*
X66578847Y-55828782D01*
X66600471Y-55818554D01*
X66622993Y-55810496D01*
X66646197Y-55804684D01*
X66669858Y-55801174D01*
X66693750Y-55800000D01*
X67181250Y-55800000D01*
X67205142Y-55801174D01*
X67205142Y-55801174D01*
G37*
D18*
G04 #@! TD*
G04 #@! TO.P,R8,2*
G04 #@! TO.N,/BOOT1*
X66937500Y-56500000D03*
D16*
G04 #@! TO.N,GND*
G04 #@! TO.C,R8*
G36*
X65330142Y-55801174D02*
X65353803Y-55804684D01*
X65377007Y-55810496D01*
X65399529Y-55818554D01*
X65421153Y-55828782D01*
X65441670Y-55841079D01*
X65460883Y-55855329D01*
X65478607Y-55871393D01*
X65494671Y-55889117D01*
X65508921Y-55908330D01*
X65521218Y-55928847D01*
X65531446Y-55950471D01*
X65539504Y-55972993D01*
X65545316Y-55996197D01*
X65548826Y-56019858D01*
X65550000Y-56043750D01*
X65550000Y-56956250D01*
X65548826Y-56980142D01*
X65545316Y-57003803D01*
X65539504Y-57027007D01*
X65531446Y-57049529D01*
X65521218Y-57071153D01*
X65508921Y-57091670D01*
X65494671Y-57110883D01*
X65478607Y-57128607D01*
X65460883Y-57144671D01*
X65441670Y-57158921D01*
X65421153Y-57171218D01*
X65399529Y-57181446D01*
X65377007Y-57189504D01*
X65353803Y-57195316D01*
X65330142Y-57198826D01*
X65306250Y-57200000D01*
X64818750Y-57200000D01*
X64794858Y-57198826D01*
X64771197Y-57195316D01*
X64747993Y-57189504D01*
X64725471Y-57181446D01*
X64703847Y-57171218D01*
X64683330Y-57158921D01*
X64664117Y-57144671D01*
X64646393Y-57128607D01*
X64630329Y-57110883D01*
X64616079Y-57091670D01*
X64603782Y-57071153D01*
X64593554Y-57049529D01*
X64585496Y-57027007D01*
X64579684Y-57003803D01*
X64576174Y-56980142D01*
X64575000Y-56956250D01*
X64575000Y-56043750D01*
X64576174Y-56019858D01*
X64579684Y-55996197D01*
X64585496Y-55972993D01*
X64593554Y-55950471D01*
X64603782Y-55928847D01*
X64616079Y-55908330D01*
X64630329Y-55889117D01*
X64646393Y-55871393D01*
X64664117Y-55855329D01*
X64683330Y-55841079D01*
X64703847Y-55828782D01*
X64725471Y-55818554D01*
X64747993Y-55810496D01*
X64771197Y-55804684D01*
X64794858Y-55801174D01*
X64818750Y-55800000D01*
X65306250Y-55800000D01*
X65330142Y-55801174D01*
X65330142Y-55801174D01*
G37*
D18*
G04 #@! TD*
G04 #@! TO.P,R8,1*
G04 #@! TO.N,GND*
X65062500Y-56500000D03*
D21*
G04 #@! TO.P,U2,2*
G04 #@! TO.N,+3V3*
X64150000Y-44500000D03*
D22*
X57850000Y-44500000D03*
G04 #@! TO.P,U2,3*
G04 #@! TO.N,/Vin*
X57850000Y-46800000D03*
G04 #@! TO.P,U2,1*
G04 #@! TO.N,GND*
X57850000Y-42200000D03*
G04 #@! TD*
D15*
G04 #@! TO.P,J4,1*
G04 #@! TO.N,GND*
X60541000Y-70480000D03*
D14*
G04 #@! TO.P,J4,2*
G04 #@! TO.N,/SPI_MOSI*
X63081000Y-70480000D03*
G04 #@! TO.P,J4,3*
G04 #@! TO.N,/SPI_MISO*
X65621000Y-70480000D03*
G04 #@! TO.P,J4,4*
G04 #@! TO.N,/SPI_SCK*
X68161000Y-70480000D03*
G04 #@! TO.P,J4,5*
G04 #@! TO.N,/SPI_INT*
X70701000Y-70480000D03*
G04 #@! TD*
D15*
G04 #@! TO.P,J5,1*
G04 #@! TO.N,GND*
X52540000Y-52192000D03*
D14*
G04 #@! TO.P,J5,2*
G04 #@! TO.N,+5V*
X52540000Y-49652000D03*
G04 #@! TD*
D23*
G04 #@! TO.P,TP1,1*
G04 #@! TO.N,/SWDIO*
X59144000Y-56510000D03*
G04 #@! TD*
G04 #@! TO.P,TP2,1*
G04 #@! TO.N,/SWCLK*
X59144000Y-54478000D03*
G04 #@! TD*
D24*
G04 #@! TO.N,GND*
X64250000Y-58000000D03*
X69500000Y-56000000D03*
X64986000Y-52750000D03*
X59906000Y-52192000D03*
X57010400Y-67762200D03*
X66002000Y-47620000D03*
X56096000Y-42032000D03*
X59398000Y-41270000D03*
G04 #@! TO.N,+3V3*
X66000000Y-61000000D03*
X69558000Y-54732000D03*
X66000000Y-50250013D03*
D25*
X66002000Y-43556000D03*
D24*
X62395200Y-55240000D03*
X57620000Y-58288000D03*
D25*
X60922000Y-44572000D03*
G04 #@! TO.N,VBUS*
X55080000Y-52446000D03*
D24*
G04 #@! TO.N,Net-(J1-Pad2)*
X52997200Y-66492200D03*
G04 #@! TO.N,Net-(J1-Pad3)*
X54800600Y-66517600D03*
G04 #@! TO.N,/DB3*
X71590000Y-52286990D03*
X71590000Y-56002000D03*
G04 #@! TO.N,/DB4*
X72214696Y-56782870D03*
X72214904Y-51506286D03*
G04 #@! TO.N,/DB5*
X72624839Y-57694893D03*
X72956082Y-50834975D03*
G04 #@! TO.N,/DB6*
X73114000Y-58669000D03*
G04 #@! TO.N,/DB7*
X72225000Y-59595000D03*
G04 #@! TO.N,Net-(R1-Pad2)*
X67907000Y-53335000D03*
G04 #@! TO.N,/PC13*
X68288000Y-49144000D03*
G04 #@! TO.N,/BOOT0*
X63970000Y-53462000D03*
G04 #@! TO.N,/BOOT1*
X67500000Y-58000000D03*
D25*
G04 #@! TO.N,/Vin*
X59144000Y-48890000D03*
G04 #@! TD*
D26*
G04 #@! TO.N,GND*
X63500000Y-56787500D02*
X63500000Y-57250000D01*
X63500000Y-57250000D02*
X64250000Y-58000000D01*
X65062500Y-57187500D02*
X64250000Y-58000000D01*
X65062500Y-56500000D02*
X65062500Y-57187500D01*
X64462500Y-58212500D02*
X64250000Y-58000000D01*
X66000000Y-58212500D02*
X64462500Y-58212500D01*
X68500000Y-56787500D02*
X68712500Y-56787500D01*
X68712500Y-56787500D02*
X69500000Y-56000000D01*
X66000000Y-52787500D02*
X64787500Y-52787500D01*
X64787500Y-52787500D02*
X64750000Y-52750000D01*
D27*
X52267720Y-71655560D02*
X51820220Y-72103060D01*
X52267720Y-69803060D02*
X52267720Y-71655560D01*
X51820220Y-72103060D02*
X53890220Y-72103060D01*
X53890220Y-72103060D02*
X55570220Y-72103060D01*
X55570220Y-72103060D02*
X57640220Y-72103060D01*
X57192720Y-71655560D02*
X57640220Y-72103060D01*
X57192720Y-69803060D02*
X57192720Y-71655560D01*
X57010400Y-69620740D02*
X57192720Y-69803060D01*
X57010400Y-67762200D02*
X57010400Y-69620740D01*
D26*
X56030220Y-69443060D02*
X56030220Y-68107380D01*
X56375400Y-67762200D02*
X57010400Y-67762200D01*
X56030220Y-68107380D02*
X56375400Y-67762200D01*
X66002000Y-47620000D02*
X67780000Y-47620000D01*
D28*
X57682000Y-42032000D02*
X57850000Y-42200000D01*
X56096000Y-42032000D02*
X57682000Y-42032000D01*
X58468000Y-42200000D02*
X59398000Y-41270000D01*
X57850000Y-42200000D02*
X58468000Y-42200000D01*
D26*
X61400000Y-52192000D02*
X61430000Y-52222000D01*
X59906000Y-52192000D02*
X61400000Y-52192000D01*
G04 #@! TO.N,+3V3*
X66000000Y-59787500D02*
X66000000Y-61000000D01*
X66000000Y-51212500D02*
X66000000Y-50250013D01*
D27*
X64212500Y-54500000D02*
X63500000Y-55212500D01*
X65062500Y-54500000D02*
X64212500Y-54500000D01*
D28*
X65058000Y-44500000D02*
X66002000Y-43556000D01*
X64150000Y-44500000D02*
X65058000Y-44500000D01*
D26*
X59100000Y-44500000D02*
X64150000Y-44500000D01*
X57850000Y-44500000D02*
X59100000Y-44500000D01*
D28*
X77940000Y-65654000D02*
X77940000Y-65908000D01*
X77940000Y-65908000D02*
X76162000Y-67686000D01*
X76162000Y-67686000D02*
X72352000Y-67686000D01*
D26*
X61430000Y-45080000D02*
X60922000Y-44572000D01*
X61430000Y-49622000D02*
X61430000Y-45080000D01*
G04 #@! TO.N,Net-(D1-Pad1)*
X67780000Y-45745000D02*
X67780000Y-44064000D01*
G04 #@! TO.N,Net-(D2-Pad1)*
X70066000Y-45745000D02*
X70066000Y-44064000D01*
D29*
G04 #@! TO.N,VBUS*
X53430220Y-68503060D02*
X51524000Y-66797000D01*
X53430220Y-69443060D02*
X53430220Y-68503060D01*
D27*
X55080000Y-53970000D02*
X51524000Y-57526000D01*
X55080000Y-52446000D02*
X55080000Y-53970000D01*
X51524000Y-57526000D02*
X51524000Y-66797000D01*
D26*
G04 #@! TO.N,Net-(J1-Pad2)*
X54080220Y-67575220D02*
X52997200Y-66492200D01*
X54080220Y-69443060D02*
X54080220Y-67575220D01*
G04 #@! TO.N,Net-(J1-Pad3)*
X54730220Y-66587980D02*
X54800600Y-66517600D01*
X54730220Y-69443060D02*
X54730220Y-66587980D01*
G04 #@! TO.N,/DB3*
X71590000Y-52286990D02*
X71590000Y-52852675D01*
X71590000Y-52852675D02*
X71590000Y-56002000D01*
G04 #@! TO.N,/DB4*
X72315001Y-56350001D02*
X72315001Y-51901001D01*
X72214696Y-56782870D02*
X72214696Y-56450306D01*
X72214696Y-56450306D02*
X72315001Y-56350001D01*
X72315001Y-51901001D02*
X72214904Y-51800904D01*
X72214904Y-51800904D02*
X72214904Y-51506286D01*
G04 #@! TO.N,/DB5*
X73024838Y-50903731D02*
X72956082Y-50834975D01*
X72624839Y-57694893D02*
X73024838Y-57294894D01*
X73024838Y-57294894D02*
X73024838Y-50903731D01*
G04 #@! TO.N,/DB6*
X76670000Y-49144000D02*
X77940000Y-47874000D01*
X74384000Y-49144000D02*
X76670000Y-49144000D01*
X73681083Y-49846917D02*
X74384000Y-49144000D01*
X73114000Y-58669000D02*
X73681083Y-58101917D01*
X73681083Y-58101917D02*
X73681083Y-49846917D01*
G04 #@! TO.N,/DB7*
X74197919Y-47874000D02*
X73495000Y-48576919D01*
X75400000Y-47874000D02*
X74197919Y-47874000D01*
X70864999Y-51206920D02*
X70864999Y-57181999D01*
X73495000Y-48576919D02*
X70864999Y-51206920D01*
X70864999Y-57181999D02*
X72225000Y-58542000D01*
X72225000Y-58542000D02*
X72225000Y-59595000D01*
X72225000Y-59595000D02*
X72225000Y-59685000D01*
G04 #@! TO.N,Net-(JP1-Pad2)*
X62524500Y-50922000D02*
X61430000Y-50922000D01*
X63970000Y-49476500D02*
X62524500Y-50922000D01*
G04 #@! TO.N,Net-(R1-Pad2)*
X66937500Y-54304500D02*
X67907000Y-53335000D01*
X66937500Y-54500000D02*
X66937500Y-54304500D01*
G04 #@! TO.N,/PC13*
X68288000Y-49144000D02*
X69050000Y-48382000D01*
X69255763Y-48176237D02*
X69050000Y-48382000D01*
X69509763Y-48176237D02*
X69255763Y-48176237D01*
X70066000Y-47620000D02*
X69509763Y-48176237D01*
G04 #@! TO.N,/BOOT0*
X63970000Y-51351500D02*
X63970000Y-52954000D01*
X63970000Y-53462000D02*
X63970000Y-52954000D01*
G04 #@! TO.N,/BOOT1*
X66937500Y-56500000D02*
X66937500Y-57437500D01*
X66937500Y-57437500D02*
X67500000Y-58000000D01*
D28*
G04 #@! TO.N,/Vin*
X57850000Y-46800000D02*
X57850000Y-47596000D01*
X57850000Y-47596000D02*
X58890000Y-48636000D01*
G04 #@! TD*
D26*
G04 #@! TO.N,+3V3*
G36*
X73125000Y-48253954D02*
X70552642Y-50826313D01*
X70511729Y-50853650D01*
X70403430Y-51015733D01*
X70374999Y-51158663D01*
X70365400Y-51206920D01*
X70374999Y-51255176D01*
X70375000Y-57133738D01*
X70365400Y-57181999D01*
X70403431Y-57373187D01*
X70478865Y-57486082D01*
X70511730Y-57535269D01*
X70552640Y-57562604D01*
X71735000Y-58744965D01*
X71735000Y-59003127D01*
X71576465Y-59161662D01*
X71460000Y-59442832D01*
X71460000Y-59747168D01*
X71576465Y-60028338D01*
X71791662Y-60243535D01*
X72072832Y-60360000D01*
X72377168Y-60360000D01*
X72658338Y-60243535D01*
X72873535Y-60028338D01*
X72990000Y-59747168D01*
X72990000Y-59442832D01*
X72986342Y-59434000D01*
X73125000Y-59434000D01*
X73125000Y-73060000D01*
X59198490Y-73060000D01*
X59199870Y-73053060D01*
X59199870Y-71153060D01*
X59171542Y-71010644D01*
X59090870Y-70889910D01*
X58970136Y-70809238D01*
X58827720Y-70780910D01*
X58302370Y-70780910D01*
X58302370Y-69630000D01*
X59318850Y-69630000D01*
X59318850Y-71330000D01*
X59347178Y-71472416D01*
X59427850Y-71593150D01*
X59548584Y-71673822D01*
X59691000Y-71702150D01*
X61391000Y-71702150D01*
X61533416Y-71673822D01*
X61654150Y-71593150D01*
X61734822Y-71472416D01*
X61763150Y-71330000D01*
X61763150Y-70480000D01*
X61842197Y-70480000D01*
X61936495Y-70954069D01*
X62205034Y-71355966D01*
X62606931Y-71624505D01*
X62961334Y-71695000D01*
X63200666Y-71695000D01*
X63555069Y-71624505D01*
X63956966Y-71355966D01*
X64225505Y-70954069D01*
X64319803Y-70480000D01*
X64382197Y-70480000D01*
X64476495Y-70954069D01*
X64745034Y-71355966D01*
X65146931Y-71624505D01*
X65501334Y-71695000D01*
X65740666Y-71695000D01*
X66095069Y-71624505D01*
X66496966Y-71355966D01*
X66765505Y-70954069D01*
X66859803Y-70480000D01*
X66922197Y-70480000D01*
X67016495Y-70954069D01*
X67285034Y-71355966D01*
X67686931Y-71624505D01*
X68041334Y-71695000D01*
X68280666Y-71695000D01*
X68635069Y-71624505D01*
X69036966Y-71355966D01*
X69305505Y-70954069D01*
X69399803Y-70480000D01*
X69462197Y-70480000D01*
X69556495Y-70954069D01*
X69825034Y-71355966D01*
X70226931Y-71624505D01*
X70581334Y-71695000D01*
X70820666Y-71695000D01*
X71175069Y-71624505D01*
X71576966Y-71355966D01*
X71845505Y-70954069D01*
X71939803Y-70480000D01*
X71845505Y-70005931D01*
X71576966Y-69604034D01*
X71175069Y-69335495D01*
X70820666Y-69265000D01*
X70581334Y-69265000D01*
X70226931Y-69335495D01*
X69825034Y-69604034D01*
X69556495Y-70005931D01*
X69462197Y-70480000D01*
X69399803Y-70480000D01*
X69305505Y-70005931D01*
X69036966Y-69604034D01*
X68635069Y-69335495D01*
X68280666Y-69265000D01*
X68041334Y-69265000D01*
X67686931Y-69335495D01*
X67285034Y-69604034D01*
X67016495Y-70005931D01*
X66922197Y-70480000D01*
X66859803Y-70480000D01*
X66765505Y-70005931D01*
X66496966Y-69604034D01*
X66095069Y-69335495D01*
X65740666Y-69265000D01*
X65501334Y-69265000D01*
X65146931Y-69335495D01*
X64745034Y-69604034D01*
X64476495Y-70005931D01*
X64382197Y-70480000D01*
X64319803Y-70480000D01*
X64225505Y-70005931D01*
X63956966Y-69604034D01*
X63555069Y-69335495D01*
X63200666Y-69265000D01*
X62961334Y-69265000D01*
X62606931Y-69335495D01*
X62205034Y-69604034D01*
X61936495Y-70005931D01*
X61842197Y-70480000D01*
X61763150Y-70480000D01*
X61763150Y-69630000D01*
X61734822Y-69487584D01*
X61654150Y-69366850D01*
X61533416Y-69286178D01*
X61391000Y-69257850D01*
X59691000Y-69257850D01*
X59548584Y-69286178D01*
X59427850Y-69366850D01*
X59347178Y-69487584D01*
X59318850Y-69630000D01*
X58302370Y-69630000D01*
X58302370Y-68753060D01*
X58274042Y-68610644D01*
X58193370Y-68489910D01*
X58072636Y-68409238D01*
X57930220Y-68380910D01*
X57625400Y-68380910D01*
X57625400Y-68229073D01*
X57658935Y-68195538D01*
X57775400Y-67914368D01*
X57775400Y-67610032D01*
X57658935Y-67328862D01*
X57552223Y-67222150D01*
X57850000Y-67222150D01*
X57992416Y-67193822D01*
X58113150Y-67113150D01*
X58193822Y-66992416D01*
X58222150Y-66850000D01*
X58222150Y-66000000D01*
X58301197Y-66000000D01*
X58395495Y-66474069D01*
X58664034Y-66875966D01*
X59065931Y-67144505D01*
X59420334Y-67215000D01*
X59659666Y-67215000D01*
X60014069Y-67144505D01*
X60415966Y-66875966D01*
X60684505Y-66474069D01*
X60778803Y-66000000D01*
X60841197Y-66000000D01*
X60935495Y-66474069D01*
X61204034Y-66875966D01*
X61605931Y-67144505D01*
X61960334Y-67215000D01*
X62199666Y-67215000D01*
X62554069Y-67144505D01*
X62955966Y-66875966D01*
X63224505Y-66474069D01*
X63227753Y-66457742D01*
X63427721Y-66881924D01*
X63855976Y-67271057D01*
X64261475Y-67439010D01*
X64491000Y-67318454D01*
X64491000Y-66129000D01*
X64749000Y-66129000D01*
X64749000Y-67318454D01*
X64978525Y-67439010D01*
X65384024Y-67271057D01*
X65812279Y-66881924D01*
X66059020Y-66358526D01*
X65939139Y-66129000D01*
X64749000Y-66129000D01*
X64491000Y-66129000D01*
X64471000Y-66129000D01*
X64471000Y-65871000D01*
X64491000Y-65871000D01*
X64491000Y-64681546D01*
X64749000Y-64681546D01*
X64749000Y-65871000D01*
X65939139Y-65871000D01*
X66059020Y-65641474D01*
X65812279Y-65118076D01*
X65384024Y-64728943D01*
X64978525Y-64560990D01*
X64749000Y-64681546D01*
X64491000Y-64681546D01*
X64261475Y-64560990D01*
X63855976Y-64728943D01*
X63427721Y-65118076D01*
X63227753Y-65542258D01*
X63224505Y-65525931D01*
X62955966Y-65124034D01*
X62554069Y-64855495D01*
X62199666Y-64785000D01*
X61960334Y-64785000D01*
X61605931Y-64855495D01*
X61204034Y-65124034D01*
X60935495Y-65525931D01*
X60841197Y-66000000D01*
X60778803Y-66000000D01*
X60684505Y-65525931D01*
X60415966Y-65124034D01*
X60014069Y-64855495D01*
X59659666Y-64785000D01*
X59420334Y-64785000D01*
X59065931Y-64855495D01*
X58664034Y-65124034D01*
X58395495Y-65525931D01*
X58301197Y-66000000D01*
X58222150Y-66000000D01*
X58222150Y-65150000D01*
X58193822Y-65007584D01*
X58113150Y-64886850D01*
X57992416Y-64806178D01*
X57850000Y-64777850D01*
X56150000Y-64777850D01*
X56007584Y-64806178D01*
X55886850Y-64886850D01*
X55806178Y-65007584D01*
X55777850Y-65150000D01*
X55777850Y-66850000D01*
X55806178Y-66992416D01*
X55886850Y-67113150D01*
X56007584Y-67193822D01*
X56150000Y-67222150D01*
X56468577Y-67222150D01*
X56419378Y-67271349D01*
X56375399Y-67262601D01*
X56327143Y-67272200D01*
X56184212Y-67300631D01*
X56022130Y-67408930D01*
X55994795Y-67449841D01*
X55717861Y-67726775D01*
X55676951Y-67754110D01*
X55649616Y-67795020D01*
X55649615Y-67795021D01*
X55568652Y-67916192D01*
X55530621Y-68107380D01*
X55540221Y-68155640D01*
X55540221Y-68380910D01*
X55220220Y-68380910D01*
X55220220Y-67171817D01*
X55233938Y-67166135D01*
X55449135Y-66950938D01*
X55565600Y-66669768D01*
X55565600Y-66365432D01*
X55449135Y-66084262D01*
X55233938Y-65869065D01*
X54952768Y-65752600D01*
X54648432Y-65752600D01*
X54367262Y-65869065D01*
X54152065Y-66084262D01*
X54035600Y-66365432D01*
X54035600Y-66669768D01*
X54152065Y-66950938D01*
X54240221Y-67039094D01*
X54240221Y-67042256D01*
X53762200Y-66564236D01*
X53762200Y-66340032D01*
X53645735Y-66058862D01*
X53430538Y-65843665D01*
X53149368Y-65727200D01*
X52845032Y-65727200D01*
X52563862Y-65843665D01*
X52348665Y-66058862D01*
X52232200Y-66340032D01*
X52232200Y-66644368D01*
X52250781Y-66689225D01*
X52139000Y-66589182D01*
X52139000Y-60074750D01*
X64892000Y-60074750D01*
X64892000Y-60350911D01*
X64988368Y-60583565D01*
X65166434Y-60761631D01*
X65399088Y-60858000D01*
X65712750Y-60858000D01*
X65871000Y-60699750D01*
X65871000Y-59916500D01*
X66129000Y-59916500D01*
X66129000Y-60699750D01*
X66287250Y-60858000D01*
X66600912Y-60858000D01*
X66833566Y-60761631D01*
X67011632Y-60583565D01*
X67108000Y-60350911D01*
X67108000Y-60074750D01*
X66949750Y-59916500D01*
X66129000Y-59916500D01*
X65871000Y-59916500D01*
X65050250Y-59916500D01*
X64892000Y-60074750D01*
X52139000Y-60074750D01*
X52139000Y-57780741D01*
X55472040Y-54447701D01*
X55523390Y-54413390D01*
X55628412Y-54256213D01*
X58029000Y-54256213D01*
X58029000Y-54699787D01*
X58198749Y-55109597D01*
X58512403Y-55423251D01*
X58683206Y-55494000D01*
X58512403Y-55564749D01*
X58198749Y-55878403D01*
X58029000Y-56288213D01*
X58029000Y-56731787D01*
X58198749Y-57141597D01*
X58512403Y-57455251D01*
X58922213Y-57625000D01*
X59365787Y-57625000D01*
X59775597Y-57455251D01*
X60089251Y-57141597D01*
X60259000Y-56731787D01*
X60259000Y-56288213D01*
X60089251Y-55878403D01*
X59775597Y-55564749D01*
X59604794Y-55494000D01*
X59775597Y-55423251D01*
X60089251Y-55109597D01*
X60259000Y-54699787D01*
X60259000Y-54649089D01*
X62392000Y-54649089D01*
X62392000Y-54925250D01*
X62550250Y-55083500D01*
X63371000Y-55083500D01*
X63371000Y-54300250D01*
X63212750Y-54142000D01*
X62899088Y-54142000D01*
X62666434Y-54238369D01*
X62488368Y-54416435D01*
X62392000Y-54649089D01*
X60259000Y-54649089D01*
X60259000Y-54256213D01*
X60089251Y-53846403D01*
X59775597Y-53532749D01*
X59365787Y-53363000D01*
X58922213Y-53363000D01*
X58512403Y-53532749D01*
X58198749Y-53846403D01*
X58029000Y-54256213D01*
X55628412Y-54256213D01*
X55659317Y-54209961D01*
X55695000Y-54030570D01*
X55695000Y-54030566D01*
X55707047Y-53970001D01*
X55695000Y-53909436D01*
X55695000Y-53195715D01*
X55898087Y-52992628D01*
X56045000Y-52637950D01*
X56045000Y-52254050D01*
X55956268Y-52039832D01*
X59141000Y-52039832D01*
X59141000Y-52344168D01*
X59257465Y-52625338D01*
X59472662Y-52840535D01*
X59753832Y-52957000D01*
X60058168Y-52957000D01*
X60339338Y-52840535D01*
X60463979Y-52715894D01*
X60484063Y-52745953D01*
X60530345Y-52802347D01*
X60599653Y-52871655D01*
X60656047Y-52917937D01*
X60737546Y-52972393D01*
X60801888Y-53006784D01*
X60892444Y-53044293D01*
X60962255Y-53065470D01*
X61058388Y-53084592D01*
X61130991Y-53091743D01*
X61167894Y-53091743D01*
X61180000Y-53094151D01*
X61680000Y-53094151D01*
X61692106Y-53091743D01*
X61729009Y-53091743D01*
X61801612Y-53084592D01*
X61897745Y-53065470D01*
X61967556Y-53044293D01*
X62058112Y-53006784D01*
X62122454Y-52972393D01*
X62203953Y-52917937D01*
X62260347Y-52871655D01*
X62329655Y-52802347D01*
X62375937Y-52745953D01*
X62430393Y-52664454D01*
X62464784Y-52600112D01*
X62502293Y-52509556D01*
X62523470Y-52439745D01*
X62542592Y-52343612D01*
X62549743Y-52271009D01*
X62549743Y-52234106D01*
X62552151Y-52222000D01*
X62552151Y-51672000D01*
X62527287Y-51546997D01*
X62552150Y-51422000D01*
X62552150Y-51416099D01*
X62572756Y-51412000D01*
X62572757Y-51412000D01*
X62715688Y-51383569D01*
X62877770Y-51275270D01*
X62897850Y-51245218D01*
X62897850Y-51595250D01*
X62944733Y-51830945D01*
X63078243Y-52030757D01*
X63278055Y-52164267D01*
X63480001Y-52204437D01*
X63480001Y-52870126D01*
X63321465Y-53028662D01*
X63205000Y-53309832D01*
X63205000Y-53614168D01*
X63321465Y-53895338D01*
X63536662Y-54110535D01*
X63736103Y-54193147D01*
X63629000Y-54300250D01*
X63629000Y-55083500D01*
X63649000Y-55083500D01*
X63649000Y-55341500D01*
X63629000Y-55341500D01*
X63629000Y-55361500D01*
X63371000Y-55361500D01*
X63371000Y-55341500D01*
X62550250Y-55341500D01*
X62392000Y-55499750D01*
X62392000Y-55775911D01*
X62488368Y-56008565D01*
X62666434Y-56186631D01*
X62772660Y-56230631D01*
X62697830Y-56342622D01*
X62652850Y-56568750D01*
X62652850Y-57006250D01*
X62697830Y-57232378D01*
X62825921Y-57424079D01*
X63017622Y-57552170D01*
X63127144Y-57573955D01*
X63146731Y-57603270D01*
X63187641Y-57630605D01*
X63485000Y-57927964D01*
X63485000Y-58152168D01*
X63601465Y-58433338D01*
X63816662Y-58648535D01*
X64097832Y-58765000D01*
X64402168Y-58765000D01*
X64553056Y-58702500D01*
X65227980Y-58702500D01*
X65272660Y-58769369D01*
X65166434Y-58813369D01*
X64988368Y-58991435D01*
X64892000Y-59224089D01*
X64892000Y-59500250D01*
X65050250Y-59658500D01*
X65871000Y-59658500D01*
X65871000Y-59638500D01*
X66129000Y-59638500D01*
X66129000Y-59658500D01*
X66949750Y-59658500D01*
X67108000Y-59500250D01*
X67108000Y-59224089D01*
X67011632Y-58991435D01*
X66833566Y-58813369D01*
X66727340Y-58769369D01*
X66802170Y-58657378D01*
X66847150Y-58431250D01*
X66847150Y-58422921D01*
X66851465Y-58433338D01*
X67066662Y-58648535D01*
X67347832Y-58765000D01*
X67652168Y-58765000D01*
X67933338Y-58648535D01*
X68148535Y-58433338D01*
X68265000Y-58152168D01*
X68265000Y-57847832D01*
X68153748Y-57579247D01*
X68243750Y-57597150D01*
X68756250Y-57597150D01*
X68982378Y-57552170D01*
X69174079Y-57424079D01*
X69302170Y-57232378D01*
X69347150Y-57006250D01*
X69347150Y-56845814D01*
X69427964Y-56765000D01*
X69652168Y-56765000D01*
X69933338Y-56648535D01*
X70148535Y-56433338D01*
X70265000Y-56152168D01*
X70265000Y-55847832D01*
X70148535Y-55566662D01*
X69933338Y-55351465D01*
X69652168Y-55235000D01*
X69347832Y-55235000D01*
X69090720Y-55341500D01*
X68629000Y-55341500D01*
X68629000Y-55361500D01*
X68371000Y-55361500D01*
X68371000Y-55341500D01*
X68351000Y-55341500D01*
X68351000Y-55083500D01*
X68371000Y-55083500D01*
X68371000Y-54300250D01*
X68629000Y-54300250D01*
X68629000Y-55083500D01*
X69449750Y-55083500D01*
X69608000Y-54925250D01*
X69608000Y-54649089D01*
X69511632Y-54416435D01*
X69333566Y-54238369D01*
X69100912Y-54142000D01*
X68787250Y-54142000D01*
X68629000Y-54300250D01*
X68371000Y-54300250D01*
X68212750Y-54142000D01*
X67899088Y-54142000D01*
X67797150Y-54184224D01*
X67797150Y-54137815D01*
X67834965Y-54100000D01*
X68059168Y-54100000D01*
X68340338Y-53983535D01*
X68555535Y-53768338D01*
X68672000Y-53487168D01*
X68672000Y-53182832D01*
X68555535Y-52901662D01*
X68340338Y-52686465D01*
X68059168Y-52570000D01*
X67754832Y-52570000D01*
X67473662Y-52686465D01*
X67258465Y-52901662D01*
X67142000Y-53182832D01*
X67142000Y-53407035D01*
X67121185Y-53427850D01*
X66693750Y-53427850D01*
X66657705Y-53435020D01*
X66674079Y-53424079D01*
X66802170Y-53232378D01*
X66847150Y-53006250D01*
X66847150Y-52568750D01*
X66802170Y-52342622D01*
X66727340Y-52230631D01*
X66833566Y-52186631D01*
X67011632Y-52008565D01*
X67108000Y-51775911D01*
X67108000Y-51499750D01*
X66949750Y-51341500D01*
X66129000Y-51341500D01*
X66129000Y-51361500D01*
X65871000Y-51361500D01*
X65871000Y-51341500D01*
X65851000Y-51341500D01*
X65851000Y-51083500D01*
X65871000Y-51083500D01*
X65871000Y-50300250D01*
X66129000Y-50300250D01*
X66129000Y-51083500D01*
X66949750Y-51083500D01*
X67108000Y-50925250D01*
X67108000Y-50649089D01*
X67011632Y-50416435D01*
X66833566Y-50238369D01*
X66600912Y-50142000D01*
X66287250Y-50142000D01*
X66129000Y-50300250D01*
X65871000Y-50300250D01*
X65712750Y-50142000D01*
X65399088Y-50142000D01*
X65166434Y-50238369D01*
X64988368Y-50416435D01*
X64892000Y-50649089D01*
X64892000Y-50717505D01*
X64861757Y-50672243D01*
X64661945Y-50538733D01*
X64426250Y-50491850D01*
X63647615Y-50491850D01*
X63803315Y-50336150D01*
X64426250Y-50336150D01*
X64661945Y-50289267D01*
X64861757Y-50155757D01*
X64995267Y-49955945D01*
X65042150Y-49720250D01*
X65042150Y-49232750D01*
X64995267Y-48997055D01*
X64861757Y-48797243D01*
X64661945Y-48663733D01*
X64426250Y-48616850D01*
X63513750Y-48616850D01*
X63278055Y-48663733D01*
X63078243Y-48797243D01*
X62944733Y-48997055D01*
X62897850Y-49232750D01*
X62897850Y-49720250D01*
X62920320Y-49833215D01*
X62697952Y-50055584D01*
X62697952Y-49622000D01*
X62695544Y-49609894D01*
X62695544Y-49572991D01*
X62685592Y-49471944D01*
X62666470Y-49375811D01*
X62636996Y-49278649D01*
X62599487Y-49188093D01*
X62551622Y-49098543D01*
X62497166Y-49017044D01*
X62432752Y-48938556D01*
X62363444Y-48869248D01*
X62284956Y-48804834D01*
X62203457Y-48750378D01*
X62113907Y-48702513D01*
X62023351Y-48665004D01*
X61926189Y-48635530D01*
X61830056Y-48616408D01*
X61729009Y-48606456D01*
X61692106Y-48606456D01*
X61680000Y-48604048D01*
X61180000Y-48604048D01*
X61167894Y-48606456D01*
X61130991Y-48606456D01*
X61029944Y-48616408D01*
X60933811Y-48635530D01*
X60836649Y-48665004D01*
X60746093Y-48702513D01*
X60656543Y-48750378D01*
X60575044Y-48804834D01*
X60496556Y-48869248D01*
X60427248Y-48938556D01*
X60362834Y-49017044D01*
X60308378Y-49098543D01*
X60260513Y-49188093D01*
X60223004Y-49278649D01*
X60193530Y-49375811D01*
X60174408Y-49471944D01*
X60164456Y-49572991D01*
X60164456Y-49609894D01*
X60162048Y-49622000D01*
X60162048Y-50172000D01*
X60201475Y-50370212D01*
X60307850Y-50529413D01*
X60307850Y-51422000D01*
X60331353Y-51540157D01*
X60058168Y-51427000D01*
X59753832Y-51427000D01*
X59472662Y-51543465D01*
X59257465Y-51758662D01*
X59141000Y-52039832D01*
X55956268Y-52039832D01*
X55898087Y-51899372D01*
X55626628Y-51627913D01*
X55271950Y-51481000D01*
X54888050Y-51481000D01*
X54533372Y-51627913D01*
X54261913Y-51899372D01*
X54115000Y-52254050D01*
X54115000Y-52637950D01*
X54261913Y-52992628D01*
X54465000Y-53195715D01*
X54465001Y-53715258D01*
X51131960Y-57048299D01*
X51080610Y-57082610D01*
X51046300Y-57133959D01*
X50944683Y-57286040D01*
X50896952Y-57526000D01*
X50909000Y-57586569D01*
X50909001Y-66857570D01*
X50944684Y-67036961D01*
X51080611Y-67240390D01*
X51284040Y-67376317D01*
X51335529Y-67386559D01*
X52446539Y-68380910D01*
X51530220Y-68380910D01*
X51387804Y-68409238D01*
X51267070Y-68489910D01*
X51186398Y-68610644D01*
X51158070Y-68753060D01*
X51158070Y-70780910D01*
X50632720Y-70780910D01*
X50490304Y-70809238D01*
X50440000Y-70842850D01*
X50440000Y-51342000D01*
X51317850Y-51342000D01*
X51317850Y-53042000D01*
X51346178Y-53184416D01*
X51426850Y-53305150D01*
X51547584Y-53385822D01*
X51690000Y-53414150D01*
X53390000Y-53414150D01*
X53532416Y-53385822D01*
X53653150Y-53305150D01*
X53733822Y-53184416D01*
X53762150Y-53042000D01*
X53762150Y-51342000D01*
X53733822Y-51199584D01*
X53653150Y-51078850D01*
X53532416Y-50998178D01*
X53390000Y-50969850D01*
X51690000Y-50969850D01*
X51547584Y-50998178D01*
X51426850Y-51078850D01*
X51346178Y-51199584D01*
X51317850Y-51342000D01*
X50440000Y-51342000D01*
X50440000Y-49652000D01*
X51301197Y-49652000D01*
X51395495Y-50126069D01*
X51664034Y-50527966D01*
X52065931Y-50796505D01*
X52420334Y-50867000D01*
X52659666Y-50867000D01*
X53014069Y-50796505D01*
X53415966Y-50527966D01*
X53684505Y-50126069D01*
X53778803Y-49652000D01*
X53684505Y-49177931D01*
X53415966Y-48776034D01*
X53014069Y-48507495D01*
X52659666Y-48437000D01*
X52420334Y-48437000D01*
X52065931Y-48507495D01*
X51664034Y-48776034D01*
X51395495Y-49177931D01*
X51301197Y-49652000D01*
X50440000Y-49652000D01*
X50440000Y-47237000D01*
X55588000Y-47237000D01*
X55635835Y-47227485D01*
X55676388Y-47200388D01*
X55703485Y-47159835D01*
X55713000Y-47112000D01*
X55713000Y-44787250D01*
X56217000Y-44787250D01*
X56217000Y-45375912D01*
X56313369Y-45608566D01*
X56491435Y-45786632D01*
X56566281Y-45817634D01*
X56506178Y-45907584D01*
X56477850Y-46050000D01*
X56477850Y-47550000D01*
X56506178Y-47692416D01*
X56586850Y-47813150D01*
X56707584Y-47893822D01*
X56850000Y-47922150D01*
X57032930Y-47922150D01*
X57035189Y-47933506D01*
X57226371Y-48219630D01*
X57298596Y-48267889D01*
X58225913Y-49195206D01*
X58325913Y-49436628D01*
X58597372Y-49708087D01*
X58952050Y-49855000D01*
X59335950Y-49855000D01*
X59690628Y-49708087D01*
X59962087Y-49436628D01*
X60109000Y-49081950D01*
X60109000Y-48698050D01*
X59962087Y-48343372D01*
X59690628Y-48071913D01*
X59449206Y-47971913D01*
X59184164Y-47706870D01*
X59193822Y-47692416D01*
X59222150Y-47550000D01*
X59222150Y-47467832D01*
X65237000Y-47467832D01*
X65237000Y-47772168D01*
X65353465Y-48053338D01*
X65568662Y-48268535D01*
X65849832Y-48385000D01*
X66154168Y-48385000D01*
X66435338Y-48268535D01*
X66593873Y-48110000D01*
X66761786Y-48110000D01*
X66888243Y-48299257D01*
X67088055Y-48432767D01*
X67323750Y-48479650D01*
X67892843Y-48479650D01*
X67854662Y-48495465D01*
X67639465Y-48710662D01*
X67523000Y-48991832D01*
X67523000Y-49296168D01*
X67639465Y-49577338D01*
X67854662Y-49792535D01*
X68135832Y-49909000D01*
X68440168Y-49909000D01*
X68721338Y-49792535D01*
X68936535Y-49577338D01*
X69053000Y-49296168D01*
X69053000Y-49071965D01*
X69430605Y-48694360D01*
X69430607Y-48694357D01*
X69458727Y-48666237D01*
X69461507Y-48666237D01*
X69509763Y-48675836D01*
X69558019Y-48666237D01*
X69558020Y-48666237D01*
X69700951Y-48637806D01*
X69863033Y-48529507D01*
X69890370Y-48488594D01*
X69899314Y-48479650D01*
X70522250Y-48479650D01*
X70757945Y-48432767D01*
X70957757Y-48299257D01*
X71091267Y-48099445D01*
X71138150Y-47863750D01*
X71138150Y-47376250D01*
X71091267Y-47140555D01*
X70957757Y-46940743D01*
X70757945Y-46807233D01*
X70522250Y-46760350D01*
X69609750Y-46760350D01*
X69374055Y-46807233D01*
X69174243Y-46940743D01*
X69040733Y-47140555D01*
X68993850Y-47376250D01*
X68993850Y-47761925D01*
X68902493Y-47822967D01*
X68875156Y-47863880D01*
X68846405Y-47892631D01*
X68852150Y-47863750D01*
X68852150Y-47376250D01*
X68805267Y-47140555D01*
X68671757Y-46940743D01*
X68471945Y-46807233D01*
X68236250Y-46760350D01*
X67323750Y-46760350D01*
X67088055Y-46807233D01*
X66888243Y-46940743D01*
X66761786Y-47130000D01*
X66593873Y-47130000D01*
X66435338Y-46971465D01*
X66154168Y-46855000D01*
X65849832Y-46855000D01*
X65568662Y-46971465D01*
X65353465Y-47186662D01*
X65237000Y-47467832D01*
X59222150Y-47467832D01*
X59222150Y-46050000D01*
X59193822Y-45907584D01*
X59133719Y-45817634D01*
X59208565Y-45786632D01*
X59386631Y-45608566D01*
X59483000Y-45375912D01*
X59483000Y-44787250D01*
X59324750Y-44629000D01*
X57979000Y-44629000D01*
X57979000Y-44649000D01*
X57721000Y-44649000D01*
X57721000Y-44629000D01*
X56375250Y-44629000D01*
X56217000Y-44787250D01*
X55713000Y-44787250D01*
X55713000Y-42816414D01*
X55758494Y-42846812D01*
X56010807Y-42897000D01*
X56477850Y-42897000D01*
X56477850Y-42950000D01*
X56506178Y-43092416D01*
X56566281Y-43182366D01*
X56491435Y-43213368D01*
X56313369Y-43391434D01*
X56217000Y-43624088D01*
X56217000Y-44212750D01*
X56375250Y-44371000D01*
X57721000Y-44371000D01*
X57721000Y-44351000D01*
X57979000Y-44351000D01*
X57979000Y-44371000D01*
X59324750Y-44371000D01*
X59483000Y-44212750D01*
X59483000Y-43624088D01*
X59386631Y-43391434D01*
X59208565Y-43213368D01*
X59133719Y-43182366D01*
X59193822Y-43092416D01*
X59222150Y-42950000D01*
X59222150Y-42669143D01*
X59415043Y-42476250D01*
X66447000Y-42476250D01*
X66447000Y-42802411D01*
X66543368Y-43035065D01*
X66721434Y-43213131D01*
X66954088Y-43309500D01*
X67000852Y-43309500D01*
X66888243Y-43384743D01*
X66754733Y-43584555D01*
X66707850Y-43820250D01*
X66707850Y-44307750D01*
X66754733Y-44543445D01*
X66888243Y-44743257D01*
X67088055Y-44876767D01*
X67227477Y-44904500D01*
X67088055Y-44932233D01*
X66888243Y-45065743D01*
X66754733Y-45265555D01*
X66707850Y-45501250D01*
X66707850Y-45988750D01*
X66754733Y-46224445D01*
X66888243Y-46424257D01*
X67088055Y-46557767D01*
X67323750Y-46604650D01*
X68236250Y-46604650D01*
X68471945Y-46557767D01*
X68671757Y-46424257D01*
X68805267Y-46224445D01*
X68852150Y-45988750D01*
X68852150Y-45501250D01*
X68805267Y-45265555D01*
X68671757Y-45065743D01*
X68471945Y-44932233D01*
X68332523Y-44904500D01*
X68471945Y-44876767D01*
X68671757Y-44743257D01*
X68805267Y-44543445D01*
X68852150Y-44307750D01*
X68852150Y-43820250D01*
X68805267Y-43584555D01*
X68671757Y-43384743D01*
X68559148Y-43309500D01*
X68605912Y-43309500D01*
X68838566Y-43213131D01*
X68923000Y-43128697D01*
X69007434Y-43213131D01*
X69240088Y-43309500D01*
X69286852Y-43309500D01*
X69174243Y-43384743D01*
X69040733Y-43584555D01*
X68993850Y-43820250D01*
X68993850Y-44307750D01*
X69040733Y-44543445D01*
X69174243Y-44743257D01*
X69374055Y-44876767D01*
X69513477Y-44904500D01*
X69374055Y-44932233D01*
X69174243Y-45065743D01*
X69040733Y-45265555D01*
X68993850Y-45501250D01*
X68993850Y-45988750D01*
X69040733Y-46224445D01*
X69174243Y-46424257D01*
X69374055Y-46557767D01*
X69609750Y-46604650D01*
X70522250Y-46604650D01*
X70757945Y-46557767D01*
X70957757Y-46424257D01*
X71091267Y-46224445D01*
X71138150Y-45988750D01*
X71138150Y-45501250D01*
X71091267Y-45265555D01*
X70957757Y-45065743D01*
X70757945Y-44932233D01*
X70618523Y-44904500D01*
X70757945Y-44876767D01*
X70957757Y-44743257D01*
X71091267Y-44543445D01*
X71138150Y-44307750D01*
X71138150Y-43820250D01*
X71091267Y-43584555D01*
X70957757Y-43384743D01*
X70845148Y-43309500D01*
X70891912Y-43309500D01*
X71124566Y-43213131D01*
X71302632Y-43035065D01*
X71399000Y-42802411D01*
X71399000Y-42476250D01*
X71240750Y-42318000D01*
X70195000Y-42318000D01*
X70195000Y-42338000D01*
X69937000Y-42338000D01*
X69937000Y-42318000D01*
X67909000Y-42318000D01*
X67909000Y-42338000D01*
X67651000Y-42338000D01*
X67651000Y-42318000D01*
X66605250Y-42318000D01*
X66447000Y-42476250D01*
X59415043Y-42476250D01*
X60069888Y-41821407D01*
X60212812Y-41607507D01*
X60219160Y-41575589D01*
X66447000Y-41575589D01*
X66447000Y-41901750D01*
X66605250Y-42060000D01*
X67651000Y-42060000D01*
X67651000Y-41226750D01*
X67909000Y-41226750D01*
X67909000Y-42060000D01*
X69937000Y-42060000D01*
X69937000Y-41226750D01*
X70195000Y-41226750D01*
X70195000Y-42060000D01*
X71240750Y-42060000D01*
X71399000Y-41901750D01*
X71399000Y-41575589D01*
X71302632Y-41342935D01*
X71124566Y-41164869D01*
X70891912Y-41068500D01*
X70353250Y-41068500D01*
X70195000Y-41226750D01*
X69937000Y-41226750D01*
X69778750Y-41068500D01*
X69240088Y-41068500D01*
X69007434Y-41164869D01*
X68923000Y-41249303D01*
X68838566Y-41164869D01*
X68605912Y-41068500D01*
X68067250Y-41068500D01*
X67909000Y-41226750D01*
X67651000Y-41226750D01*
X67492750Y-41068500D01*
X66954088Y-41068500D01*
X66721434Y-41164869D01*
X66543368Y-41342935D01*
X66447000Y-41575589D01*
X60219160Y-41575589D01*
X60279946Y-41270000D01*
X60212812Y-40932494D01*
X60021630Y-40646370D01*
X59735506Y-40455188D01*
X59659151Y-40440000D01*
X73125000Y-40440000D01*
X73125000Y-48253954D01*
X73125000Y-48253954D01*
G37*
X73125000Y-48253954D02*
X70552642Y-50826313D01*
X70511729Y-50853650D01*
X70403430Y-51015733D01*
X70374999Y-51158663D01*
X70365400Y-51206920D01*
X70374999Y-51255176D01*
X70375000Y-57133738D01*
X70365400Y-57181999D01*
X70403431Y-57373187D01*
X70478865Y-57486082D01*
X70511730Y-57535269D01*
X70552640Y-57562604D01*
X71735000Y-58744965D01*
X71735000Y-59003127D01*
X71576465Y-59161662D01*
X71460000Y-59442832D01*
X71460000Y-59747168D01*
X71576465Y-60028338D01*
X71791662Y-60243535D01*
X72072832Y-60360000D01*
X72377168Y-60360000D01*
X72658338Y-60243535D01*
X72873535Y-60028338D01*
X72990000Y-59747168D01*
X72990000Y-59442832D01*
X72986342Y-59434000D01*
X73125000Y-59434000D01*
X73125000Y-73060000D01*
X59198490Y-73060000D01*
X59199870Y-73053060D01*
X59199870Y-71153060D01*
X59171542Y-71010644D01*
X59090870Y-70889910D01*
X58970136Y-70809238D01*
X58827720Y-70780910D01*
X58302370Y-70780910D01*
X58302370Y-69630000D01*
X59318850Y-69630000D01*
X59318850Y-71330000D01*
X59347178Y-71472416D01*
X59427850Y-71593150D01*
X59548584Y-71673822D01*
X59691000Y-71702150D01*
X61391000Y-71702150D01*
X61533416Y-71673822D01*
X61654150Y-71593150D01*
X61734822Y-71472416D01*
X61763150Y-71330000D01*
X61763150Y-70480000D01*
X61842197Y-70480000D01*
X61936495Y-70954069D01*
X62205034Y-71355966D01*
X62606931Y-71624505D01*
X62961334Y-71695000D01*
X63200666Y-71695000D01*
X63555069Y-71624505D01*
X63956966Y-71355966D01*
X64225505Y-70954069D01*
X64319803Y-70480000D01*
X64382197Y-70480000D01*
X64476495Y-70954069D01*
X64745034Y-71355966D01*
X65146931Y-71624505D01*
X65501334Y-71695000D01*
X65740666Y-71695000D01*
X66095069Y-71624505D01*
X66496966Y-71355966D01*
X66765505Y-70954069D01*
X66859803Y-70480000D01*
X66922197Y-70480000D01*
X67016495Y-70954069D01*
X67285034Y-71355966D01*
X67686931Y-71624505D01*
X68041334Y-71695000D01*
X68280666Y-71695000D01*
X68635069Y-71624505D01*
X69036966Y-71355966D01*
X69305505Y-70954069D01*
X69399803Y-70480000D01*
X69462197Y-70480000D01*
X69556495Y-70954069D01*
X69825034Y-71355966D01*
X70226931Y-71624505D01*
X70581334Y-71695000D01*
X70820666Y-71695000D01*
X71175069Y-71624505D01*
X71576966Y-71355966D01*
X71845505Y-70954069D01*
X71939803Y-70480000D01*
X71845505Y-70005931D01*
X71576966Y-69604034D01*
X71175069Y-69335495D01*
X70820666Y-69265000D01*
X70581334Y-69265000D01*
X70226931Y-69335495D01*
X69825034Y-69604034D01*
X69556495Y-70005931D01*
X69462197Y-70480000D01*
X69399803Y-70480000D01*
X69305505Y-70005931D01*
X69036966Y-69604034D01*
X68635069Y-69335495D01*
X68280666Y-69265000D01*
X68041334Y-69265000D01*
X67686931Y-69335495D01*
X67285034Y-69604034D01*
X67016495Y-70005931D01*
X66922197Y-70480000D01*
X66859803Y-70480000D01*
X66765505Y-70005931D01*
X66496966Y-69604034D01*
X66095069Y-69335495D01*
X65740666Y-69265000D01*
X65501334Y-69265000D01*
X65146931Y-69335495D01*
X64745034Y-69604034D01*
X64476495Y-70005931D01*
X64382197Y-70480000D01*
X64319803Y-70480000D01*
X64225505Y-70005931D01*
X63956966Y-69604034D01*
X63555069Y-69335495D01*
X63200666Y-69265000D01*
X62961334Y-69265000D01*
X62606931Y-69335495D01*
X62205034Y-69604034D01*
X61936495Y-70005931D01*
X61842197Y-70480000D01*
X61763150Y-70480000D01*
X61763150Y-69630000D01*
X61734822Y-69487584D01*
X61654150Y-69366850D01*
X61533416Y-69286178D01*
X61391000Y-69257850D01*
X59691000Y-69257850D01*
X59548584Y-69286178D01*
X59427850Y-69366850D01*
X59347178Y-69487584D01*
X59318850Y-69630000D01*
X58302370Y-69630000D01*
X58302370Y-68753060D01*
X58274042Y-68610644D01*
X58193370Y-68489910D01*
X58072636Y-68409238D01*
X57930220Y-68380910D01*
X57625400Y-68380910D01*
X57625400Y-68229073D01*
X57658935Y-68195538D01*
X57775400Y-67914368D01*
X57775400Y-67610032D01*
X57658935Y-67328862D01*
X57552223Y-67222150D01*
X57850000Y-67222150D01*
X57992416Y-67193822D01*
X58113150Y-67113150D01*
X58193822Y-66992416D01*
X58222150Y-66850000D01*
X58222150Y-66000000D01*
X58301197Y-66000000D01*
X58395495Y-66474069D01*
X58664034Y-66875966D01*
X59065931Y-67144505D01*
X59420334Y-67215000D01*
X59659666Y-67215000D01*
X60014069Y-67144505D01*
X60415966Y-66875966D01*
X60684505Y-66474069D01*
X60778803Y-66000000D01*
X60841197Y-66000000D01*
X60935495Y-66474069D01*
X61204034Y-66875966D01*
X61605931Y-67144505D01*
X61960334Y-67215000D01*
X62199666Y-67215000D01*
X62554069Y-67144505D01*
X62955966Y-66875966D01*
X63224505Y-66474069D01*
X63227753Y-66457742D01*
X63427721Y-66881924D01*
X63855976Y-67271057D01*
X64261475Y-67439010D01*
X64491000Y-67318454D01*
X64491000Y-66129000D01*
X64749000Y-66129000D01*
X64749000Y-67318454D01*
X64978525Y-67439010D01*
X65384024Y-67271057D01*
X65812279Y-66881924D01*
X66059020Y-66358526D01*
X65939139Y-66129000D01*
X64749000Y-66129000D01*
X64491000Y-66129000D01*
X64471000Y-66129000D01*
X64471000Y-65871000D01*
X64491000Y-65871000D01*
X64491000Y-64681546D01*
X64749000Y-64681546D01*
X64749000Y-65871000D01*
X65939139Y-65871000D01*
X66059020Y-65641474D01*
X65812279Y-65118076D01*
X65384024Y-64728943D01*
X64978525Y-64560990D01*
X64749000Y-64681546D01*
X64491000Y-64681546D01*
X64261475Y-64560990D01*
X63855976Y-64728943D01*
X63427721Y-65118076D01*
X63227753Y-65542258D01*
X63224505Y-65525931D01*
X62955966Y-65124034D01*
X62554069Y-64855495D01*
X62199666Y-64785000D01*
X61960334Y-64785000D01*
X61605931Y-64855495D01*
X61204034Y-65124034D01*
X60935495Y-65525931D01*
X60841197Y-66000000D01*
X60778803Y-66000000D01*
X60684505Y-65525931D01*
X60415966Y-65124034D01*
X60014069Y-64855495D01*
X59659666Y-64785000D01*
X59420334Y-64785000D01*
X59065931Y-64855495D01*
X58664034Y-65124034D01*
X58395495Y-65525931D01*
X58301197Y-66000000D01*
X58222150Y-66000000D01*
X58222150Y-65150000D01*
X58193822Y-65007584D01*
X58113150Y-64886850D01*
X57992416Y-64806178D01*
X57850000Y-64777850D01*
X56150000Y-64777850D01*
X56007584Y-64806178D01*
X55886850Y-64886850D01*
X55806178Y-65007584D01*
X55777850Y-65150000D01*
X55777850Y-66850000D01*
X55806178Y-66992416D01*
X55886850Y-67113150D01*
X56007584Y-67193822D01*
X56150000Y-67222150D01*
X56468577Y-67222150D01*
X56419378Y-67271349D01*
X56375399Y-67262601D01*
X56327143Y-67272200D01*
X56184212Y-67300631D01*
X56022130Y-67408930D01*
X55994795Y-67449841D01*
X55717861Y-67726775D01*
X55676951Y-67754110D01*
X55649616Y-67795020D01*
X55649615Y-67795021D01*
X55568652Y-67916192D01*
X55530621Y-68107380D01*
X55540221Y-68155640D01*
X55540221Y-68380910D01*
X55220220Y-68380910D01*
X55220220Y-67171817D01*
X55233938Y-67166135D01*
X55449135Y-66950938D01*
X55565600Y-66669768D01*
X55565600Y-66365432D01*
X55449135Y-66084262D01*
X55233938Y-65869065D01*
X54952768Y-65752600D01*
X54648432Y-65752600D01*
X54367262Y-65869065D01*
X54152065Y-66084262D01*
X54035600Y-66365432D01*
X54035600Y-66669768D01*
X54152065Y-66950938D01*
X54240221Y-67039094D01*
X54240221Y-67042256D01*
X53762200Y-66564236D01*
X53762200Y-66340032D01*
X53645735Y-66058862D01*
X53430538Y-65843665D01*
X53149368Y-65727200D01*
X52845032Y-65727200D01*
X52563862Y-65843665D01*
X52348665Y-66058862D01*
X52232200Y-66340032D01*
X52232200Y-66644368D01*
X52250781Y-66689225D01*
X52139000Y-66589182D01*
X52139000Y-60074750D01*
X64892000Y-60074750D01*
X64892000Y-60350911D01*
X64988368Y-60583565D01*
X65166434Y-60761631D01*
X65399088Y-60858000D01*
X65712750Y-60858000D01*
X65871000Y-60699750D01*
X65871000Y-59916500D01*
X66129000Y-59916500D01*
X66129000Y-60699750D01*
X66287250Y-60858000D01*
X66600912Y-60858000D01*
X66833566Y-60761631D01*
X67011632Y-60583565D01*
X67108000Y-60350911D01*
X67108000Y-60074750D01*
X66949750Y-59916500D01*
X66129000Y-59916500D01*
X65871000Y-59916500D01*
X65050250Y-59916500D01*
X64892000Y-60074750D01*
X52139000Y-60074750D01*
X52139000Y-57780741D01*
X55472040Y-54447701D01*
X55523390Y-54413390D01*
X55628412Y-54256213D01*
X58029000Y-54256213D01*
X58029000Y-54699787D01*
X58198749Y-55109597D01*
X58512403Y-55423251D01*
X58683206Y-55494000D01*
X58512403Y-55564749D01*
X58198749Y-55878403D01*
X58029000Y-56288213D01*
X58029000Y-56731787D01*
X58198749Y-57141597D01*
X58512403Y-57455251D01*
X58922213Y-57625000D01*
X59365787Y-57625000D01*
X59775597Y-57455251D01*
X60089251Y-57141597D01*
X60259000Y-56731787D01*
X60259000Y-56288213D01*
X60089251Y-55878403D01*
X59775597Y-55564749D01*
X59604794Y-55494000D01*
X59775597Y-55423251D01*
X60089251Y-55109597D01*
X60259000Y-54699787D01*
X60259000Y-54649089D01*
X62392000Y-54649089D01*
X62392000Y-54925250D01*
X62550250Y-55083500D01*
X63371000Y-55083500D01*
X63371000Y-54300250D01*
X63212750Y-54142000D01*
X62899088Y-54142000D01*
X62666434Y-54238369D01*
X62488368Y-54416435D01*
X62392000Y-54649089D01*
X60259000Y-54649089D01*
X60259000Y-54256213D01*
X60089251Y-53846403D01*
X59775597Y-53532749D01*
X59365787Y-53363000D01*
X58922213Y-53363000D01*
X58512403Y-53532749D01*
X58198749Y-53846403D01*
X58029000Y-54256213D01*
X55628412Y-54256213D01*
X55659317Y-54209961D01*
X55695000Y-54030570D01*
X55695000Y-54030566D01*
X55707047Y-53970001D01*
X55695000Y-53909436D01*
X55695000Y-53195715D01*
X55898087Y-52992628D01*
X56045000Y-52637950D01*
X56045000Y-52254050D01*
X55956268Y-52039832D01*
X59141000Y-52039832D01*
X59141000Y-52344168D01*
X59257465Y-52625338D01*
X59472662Y-52840535D01*
X59753832Y-52957000D01*
X60058168Y-52957000D01*
X60339338Y-52840535D01*
X60463979Y-52715894D01*
X60484063Y-52745953D01*
X60530345Y-52802347D01*
X60599653Y-52871655D01*
X60656047Y-52917937D01*
X60737546Y-52972393D01*
X60801888Y-53006784D01*
X60892444Y-53044293D01*
X60962255Y-53065470D01*
X61058388Y-53084592D01*
X61130991Y-53091743D01*
X61167894Y-53091743D01*
X61180000Y-53094151D01*
X61680000Y-53094151D01*
X61692106Y-53091743D01*
X61729009Y-53091743D01*
X61801612Y-53084592D01*
X61897745Y-53065470D01*
X61967556Y-53044293D01*
X62058112Y-53006784D01*
X62122454Y-52972393D01*
X62203953Y-52917937D01*
X62260347Y-52871655D01*
X62329655Y-52802347D01*
X62375937Y-52745953D01*
X62430393Y-52664454D01*
X62464784Y-52600112D01*
X62502293Y-52509556D01*
X62523470Y-52439745D01*
X62542592Y-52343612D01*
X62549743Y-52271009D01*
X62549743Y-52234106D01*
X62552151Y-52222000D01*
X62552151Y-51672000D01*
X62527287Y-51546997D01*
X62552150Y-51422000D01*
X62552150Y-51416099D01*
X62572756Y-51412000D01*
X62572757Y-51412000D01*
X62715688Y-51383569D01*
X62877770Y-51275270D01*
X62897850Y-51245218D01*
X62897850Y-51595250D01*
X62944733Y-51830945D01*
X63078243Y-52030757D01*
X63278055Y-52164267D01*
X63480001Y-52204437D01*
X63480001Y-52870126D01*
X63321465Y-53028662D01*
X63205000Y-53309832D01*
X63205000Y-53614168D01*
X63321465Y-53895338D01*
X63536662Y-54110535D01*
X63736103Y-54193147D01*
X63629000Y-54300250D01*
X63629000Y-55083500D01*
X63649000Y-55083500D01*
X63649000Y-55341500D01*
X63629000Y-55341500D01*
X63629000Y-55361500D01*
X63371000Y-55361500D01*
X63371000Y-55341500D01*
X62550250Y-55341500D01*
X62392000Y-55499750D01*
X62392000Y-55775911D01*
X62488368Y-56008565D01*
X62666434Y-56186631D01*
X62772660Y-56230631D01*
X62697830Y-56342622D01*
X62652850Y-56568750D01*
X62652850Y-57006250D01*
X62697830Y-57232378D01*
X62825921Y-57424079D01*
X63017622Y-57552170D01*
X63127144Y-57573955D01*
X63146731Y-57603270D01*
X63187641Y-57630605D01*
X63485000Y-57927964D01*
X63485000Y-58152168D01*
X63601465Y-58433338D01*
X63816662Y-58648535D01*
X64097832Y-58765000D01*
X64402168Y-58765000D01*
X64553056Y-58702500D01*
X65227980Y-58702500D01*
X65272660Y-58769369D01*
X65166434Y-58813369D01*
X64988368Y-58991435D01*
X64892000Y-59224089D01*
X64892000Y-59500250D01*
X65050250Y-59658500D01*
X65871000Y-59658500D01*
X65871000Y-59638500D01*
X66129000Y-59638500D01*
X66129000Y-59658500D01*
X66949750Y-59658500D01*
X67108000Y-59500250D01*
X67108000Y-59224089D01*
X67011632Y-58991435D01*
X66833566Y-58813369D01*
X66727340Y-58769369D01*
X66802170Y-58657378D01*
X66847150Y-58431250D01*
X66847150Y-58422921D01*
X66851465Y-58433338D01*
X67066662Y-58648535D01*
X67347832Y-58765000D01*
X67652168Y-58765000D01*
X67933338Y-58648535D01*
X68148535Y-58433338D01*
X68265000Y-58152168D01*
X68265000Y-57847832D01*
X68153748Y-57579247D01*
X68243750Y-57597150D01*
X68756250Y-57597150D01*
X68982378Y-57552170D01*
X69174079Y-57424079D01*
X69302170Y-57232378D01*
X69347150Y-57006250D01*
X69347150Y-56845814D01*
X69427964Y-56765000D01*
X69652168Y-56765000D01*
X69933338Y-56648535D01*
X70148535Y-56433338D01*
X70265000Y-56152168D01*
X70265000Y-55847832D01*
X70148535Y-55566662D01*
X69933338Y-55351465D01*
X69652168Y-55235000D01*
X69347832Y-55235000D01*
X69090720Y-55341500D01*
X68629000Y-55341500D01*
X68629000Y-55361500D01*
X68371000Y-55361500D01*
X68371000Y-55341500D01*
X68351000Y-55341500D01*
X68351000Y-55083500D01*
X68371000Y-55083500D01*
X68371000Y-54300250D01*
X68629000Y-54300250D01*
X68629000Y-55083500D01*
X69449750Y-55083500D01*
X69608000Y-54925250D01*
X69608000Y-54649089D01*
X69511632Y-54416435D01*
X69333566Y-54238369D01*
X69100912Y-54142000D01*
X68787250Y-54142000D01*
X68629000Y-54300250D01*
X68371000Y-54300250D01*
X68212750Y-54142000D01*
X67899088Y-54142000D01*
X67797150Y-54184224D01*
X67797150Y-54137815D01*
X67834965Y-54100000D01*
X68059168Y-54100000D01*
X68340338Y-53983535D01*
X68555535Y-53768338D01*
X68672000Y-53487168D01*
X68672000Y-53182832D01*
X68555535Y-52901662D01*
X68340338Y-52686465D01*
X68059168Y-52570000D01*
X67754832Y-52570000D01*
X67473662Y-52686465D01*
X67258465Y-52901662D01*
X67142000Y-53182832D01*
X67142000Y-53407035D01*
X67121185Y-53427850D01*
X66693750Y-53427850D01*
X66657705Y-53435020D01*
X66674079Y-53424079D01*
X66802170Y-53232378D01*
X66847150Y-53006250D01*
X66847150Y-52568750D01*
X66802170Y-52342622D01*
X66727340Y-52230631D01*
X66833566Y-52186631D01*
X67011632Y-52008565D01*
X67108000Y-51775911D01*
X67108000Y-51499750D01*
X66949750Y-51341500D01*
X66129000Y-51341500D01*
X66129000Y-51361500D01*
X65871000Y-51361500D01*
X65871000Y-51341500D01*
X65851000Y-51341500D01*
X65851000Y-51083500D01*
X65871000Y-51083500D01*
X65871000Y-50300250D01*
X66129000Y-50300250D01*
X66129000Y-51083500D01*
X66949750Y-51083500D01*
X67108000Y-50925250D01*
X67108000Y-50649089D01*
X67011632Y-50416435D01*
X66833566Y-50238369D01*
X66600912Y-50142000D01*
X66287250Y-50142000D01*
X66129000Y-50300250D01*
X65871000Y-50300250D01*
X65712750Y-50142000D01*
X65399088Y-50142000D01*
X65166434Y-50238369D01*
X64988368Y-50416435D01*
X64892000Y-50649089D01*
X64892000Y-50717505D01*
X64861757Y-50672243D01*
X64661945Y-50538733D01*
X64426250Y-50491850D01*
X63647615Y-50491850D01*
X63803315Y-50336150D01*
X64426250Y-50336150D01*
X64661945Y-50289267D01*
X64861757Y-50155757D01*
X64995267Y-49955945D01*
X65042150Y-49720250D01*
X65042150Y-49232750D01*
X64995267Y-48997055D01*
X64861757Y-48797243D01*
X64661945Y-48663733D01*
X64426250Y-48616850D01*
X63513750Y-48616850D01*
X63278055Y-48663733D01*
X63078243Y-48797243D01*
X62944733Y-48997055D01*
X62897850Y-49232750D01*
X62897850Y-49720250D01*
X62920320Y-49833215D01*
X62697952Y-50055584D01*
X62697952Y-49622000D01*
X62695544Y-49609894D01*
X62695544Y-49572991D01*
X62685592Y-49471944D01*
X62666470Y-49375811D01*
X62636996Y-49278649D01*
X62599487Y-49188093D01*
X62551622Y-49098543D01*
X62497166Y-49017044D01*
X62432752Y-48938556D01*
X62363444Y-48869248D01*
X62284956Y-48804834D01*
X62203457Y-48750378D01*
X62113907Y-48702513D01*
X62023351Y-48665004D01*
X61926189Y-48635530D01*
X61830056Y-48616408D01*
X61729009Y-48606456D01*
X61692106Y-48606456D01*
X61680000Y-48604048D01*
X61180000Y-48604048D01*
X61167894Y-48606456D01*
X61130991Y-48606456D01*
X61029944Y-48616408D01*
X60933811Y-48635530D01*
X60836649Y-48665004D01*
X60746093Y-48702513D01*
X60656543Y-48750378D01*
X60575044Y-48804834D01*
X60496556Y-48869248D01*
X60427248Y-48938556D01*
X60362834Y-49017044D01*
X60308378Y-49098543D01*
X60260513Y-49188093D01*
X60223004Y-49278649D01*
X60193530Y-49375811D01*
X60174408Y-49471944D01*
X60164456Y-49572991D01*
X60164456Y-49609894D01*
X60162048Y-49622000D01*
X60162048Y-50172000D01*
X60201475Y-50370212D01*
X60307850Y-50529413D01*
X60307850Y-51422000D01*
X60331353Y-51540157D01*
X60058168Y-51427000D01*
X59753832Y-51427000D01*
X59472662Y-51543465D01*
X59257465Y-51758662D01*
X59141000Y-52039832D01*
X55956268Y-52039832D01*
X55898087Y-51899372D01*
X55626628Y-51627913D01*
X55271950Y-51481000D01*
X54888050Y-51481000D01*
X54533372Y-51627913D01*
X54261913Y-51899372D01*
X54115000Y-52254050D01*
X54115000Y-52637950D01*
X54261913Y-52992628D01*
X54465000Y-53195715D01*
X54465001Y-53715258D01*
X51131960Y-57048299D01*
X51080610Y-57082610D01*
X51046300Y-57133959D01*
X50944683Y-57286040D01*
X50896952Y-57526000D01*
X50909000Y-57586569D01*
X50909001Y-66857570D01*
X50944684Y-67036961D01*
X51080611Y-67240390D01*
X51284040Y-67376317D01*
X51335529Y-67386559D01*
X52446539Y-68380910D01*
X51530220Y-68380910D01*
X51387804Y-68409238D01*
X51267070Y-68489910D01*
X51186398Y-68610644D01*
X51158070Y-68753060D01*
X51158070Y-70780910D01*
X50632720Y-70780910D01*
X50490304Y-70809238D01*
X50440000Y-70842850D01*
X50440000Y-51342000D01*
X51317850Y-51342000D01*
X51317850Y-53042000D01*
X51346178Y-53184416D01*
X51426850Y-53305150D01*
X51547584Y-53385822D01*
X51690000Y-53414150D01*
X53390000Y-53414150D01*
X53532416Y-53385822D01*
X53653150Y-53305150D01*
X53733822Y-53184416D01*
X53762150Y-53042000D01*
X53762150Y-51342000D01*
X53733822Y-51199584D01*
X53653150Y-51078850D01*
X53532416Y-50998178D01*
X53390000Y-50969850D01*
X51690000Y-50969850D01*
X51547584Y-50998178D01*
X51426850Y-51078850D01*
X51346178Y-51199584D01*
X51317850Y-51342000D01*
X50440000Y-51342000D01*
X50440000Y-49652000D01*
X51301197Y-49652000D01*
X51395495Y-50126069D01*
X51664034Y-50527966D01*
X52065931Y-50796505D01*
X52420334Y-50867000D01*
X52659666Y-50867000D01*
X53014069Y-50796505D01*
X53415966Y-50527966D01*
X53684505Y-50126069D01*
X53778803Y-49652000D01*
X53684505Y-49177931D01*
X53415966Y-48776034D01*
X53014069Y-48507495D01*
X52659666Y-48437000D01*
X52420334Y-48437000D01*
X52065931Y-48507495D01*
X51664034Y-48776034D01*
X51395495Y-49177931D01*
X51301197Y-49652000D01*
X50440000Y-49652000D01*
X50440000Y-47237000D01*
X55588000Y-47237000D01*
X55635835Y-47227485D01*
X55676388Y-47200388D01*
X55703485Y-47159835D01*
X55713000Y-47112000D01*
X55713000Y-44787250D01*
X56217000Y-44787250D01*
X56217000Y-45375912D01*
X56313369Y-45608566D01*
X56491435Y-45786632D01*
X56566281Y-45817634D01*
X56506178Y-45907584D01*
X56477850Y-46050000D01*
X56477850Y-47550000D01*
X56506178Y-47692416D01*
X56586850Y-47813150D01*
X56707584Y-47893822D01*
X56850000Y-47922150D01*
X57032930Y-47922150D01*
X57035189Y-47933506D01*
X57226371Y-48219630D01*
X57298596Y-48267889D01*
X58225913Y-49195206D01*
X58325913Y-49436628D01*
X58597372Y-49708087D01*
X58952050Y-49855000D01*
X59335950Y-49855000D01*
X59690628Y-49708087D01*
X59962087Y-49436628D01*
X60109000Y-49081950D01*
X60109000Y-48698050D01*
X59962087Y-48343372D01*
X59690628Y-48071913D01*
X59449206Y-47971913D01*
X59184164Y-47706870D01*
X59193822Y-47692416D01*
X59222150Y-47550000D01*
X59222150Y-47467832D01*
X65237000Y-47467832D01*
X65237000Y-47772168D01*
X65353465Y-48053338D01*
X65568662Y-48268535D01*
X65849832Y-48385000D01*
X66154168Y-48385000D01*
X66435338Y-48268535D01*
X66593873Y-48110000D01*
X66761786Y-48110000D01*
X66888243Y-48299257D01*
X67088055Y-48432767D01*
X67323750Y-48479650D01*
X67892843Y-48479650D01*
X67854662Y-48495465D01*
X67639465Y-48710662D01*
X67523000Y-48991832D01*
X67523000Y-49296168D01*
X67639465Y-49577338D01*
X67854662Y-49792535D01*
X68135832Y-49909000D01*
X68440168Y-49909000D01*
X68721338Y-49792535D01*
X68936535Y-49577338D01*
X69053000Y-49296168D01*
X69053000Y-49071965D01*
X69430605Y-48694360D01*
X69430607Y-48694357D01*
X69458727Y-48666237D01*
X69461507Y-48666237D01*
X69509763Y-48675836D01*
X69558019Y-48666237D01*
X69558020Y-48666237D01*
X69700951Y-48637806D01*
X69863033Y-48529507D01*
X69890370Y-48488594D01*
X69899314Y-48479650D01*
X70522250Y-48479650D01*
X70757945Y-48432767D01*
X70957757Y-48299257D01*
X71091267Y-48099445D01*
X71138150Y-47863750D01*
X71138150Y-47376250D01*
X71091267Y-47140555D01*
X70957757Y-46940743D01*
X70757945Y-46807233D01*
X70522250Y-46760350D01*
X69609750Y-46760350D01*
X69374055Y-46807233D01*
X69174243Y-46940743D01*
X69040733Y-47140555D01*
X68993850Y-47376250D01*
X68993850Y-47761925D01*
X68902493Y-47822967D01*
X68875156Y-47863880D01*
X68846405Y-47892631D01*
X68852150Y-47863750D01*
X68852150Y-47376250D01*
X68805267Y-47140555D01*
X68671757Y-46940743D01*
X68471945Y-46807233D01*
X68236250Y-46760350D01*
X67323750Y-46760350D01*
X67088055Y-46807233D01*
X66888243Y-46940743D01*
X66761786Y-47130000D01*
X66593873Y-47130000D01*
X66435338Y-46971465D01*
X66154168Y-46855000D01*
X65849832Y-46855000D01*
X65568662Y-46971465D01*
X65353465Y-47186662D01*
X65237000Y-47467832D01*
X59222150Y-47467832D01*
X59222150Y-46050000D01*
X59193822Y-45907584D01*
X59133719Y-45817634D01*
X59208565Y-45786632D01*
X59386631Y-45608566D01*
X59483000Y-45375912D01*
X59483000Y-44787250D01*
X59324750Y-44629000D01*
X57979000Y-44629000D01*
X57979000Y-44649000D01*
X57721000Y-44649000D01*
X57721000Y-44629000D01*
X56375250Y-44629000D01*
X56217000Y-44787250D01*
X55713000Y-44787250D01*
X55713000Y-42816414D01*
X55758494Y-42846812D01*
X56010807Y-42897000D01*
X56477850Y-42897000D01*
X56477850Y-42950000D01*
X56506178Y-43092416D01*
X56566281Y-43182366D01*
X56491435Y-43213368D01*
X56313369Y-43391434D01*
X56217000Y-43624088D01*
X56217000Y-44212750D01*
X56375250Y-44371000D01*
X57721000Y-44371000D01*
X57721000Y-44351000D01*
X57979000Y-44351000D01*
X57979000Y-44371000D01*
X59324750Y-44371000D01*
X59483000Y-44212750D01*
X59483000Y-43624088D01*
X59386631Y-43391434D01*
X59208565Y-43213368D01*
X59133719Y-43182366D01*
X59193822Y-43092416D01*
X59222150Y-42950000D01*
X59222150Y-42669143D01*
X59415043Y-42476250D01*
X66447000Y-42476250D01*
X66447000Y-42802411D01*
X66543368Y-43035065D01*
X66721434Y-43213131D01*
X66954088Y-43309500D01*
X67000852Y-43309500D01*
X66888243Y-43384743D01*
X66754733Y-43584555D01*
X66707850Y-43820250D01*
X66707850Y-44307750D01*
X66754733Y-44543445D01*
X66888243Y-44743257D01*
X67088055Y-44876767D01*
X67227477Y-44904500D01*
X67088055Y-44932233D01*
X66888243Y-45065743D01*
X66754733Y-45265555D01*
X66707850Y-45501250D01*
X66707850Y-45988750D01*
X66754733Y-46224445D01*
X66888243Y-46424257D01*
X67088055Y-46557767D01*
X67323750Y-46604650D01*
X68236250Y-46604650D01*
X68471945Y-46557767D01*
X68671757Y-46424257D01*
X68805267Y-46224445D01*
X68852150Y-45988750D01*
X68852150Y-45501250D01*
X68805267Y-45265555D01*
X68671757Y-45065743D01*
X68471945Y-44932233D01*
X68332523Y-44904500D01*
X68471945Y-44876767D01*
X68671757Y-44743257D01*
X68805267Y-44543445D01*
X68852150Y-44307750D01*
X68852150Y-43820250D01*
X68805267Y-43584555D01*
X68671757Y-43384743D01*
X68559148Y-43309500D01*
X68605912Y-43309500D01*
X68838566Y-43213131D01*
X68923000Y-43128697D01*
X69007434Y-43213131D01*
X69240088Y-43309500D01*
X69286852Y-43309500D01*
X69174243Y-43384743D01*
X69040733Y-43584555D01*
X68993850Y-43820250D01*
X68993850Y-44307750D01*
X69040733Y-44543445D01*
X69174243Y-44743257D01*
X69374055Y-44876767D01*
X69513477Y-44904500D01*
X69374055Y-44932233D01*
X69174243Y-45065743D01*
X69040733Y-45265555D01*
X68993850Y-45501250D01*
X68993850Y-45988750D01*
X69040733Y-46224445D01*
X69174243Y-46424257D01*
X69374055Y-46557767D01*
X69609750Y-46604650D01*
X70522250Y-46604650D01*
X70757945Y-46557767D01*
X70957757Y-46424257D01*
X71091267Y-46224445D01*
X71138150Y-45988750D01*
X71138150Y-45501250D01*
X71091267Y-45265555D01*
X70957757Y-45065743D01*
X70757945Y-44932233D01*
X70618523Y-44904500D01*
X70757945Y-44876767D01*
X70957757Y-44743257D01*
X71091267Y-44543445D01*
X71138150Y-44307750D01*
X71138150Y-43820250D01*
X71091267Y-43584555D01*
X70957757Y-43384743D01*
X70845148Y-43309500D01*
X70891912Y-43309500D01*
X71124566Y-43213131D01*
X71302632Y-43035065D01*
X71399000Y-42802411D01*
X71399000Y-42476250D01*
X71240750Y-42318000D01*
X70195000Y-42318000D01*
X70195000Y-42338000D01*
X69937000Y-42338000D01*
X69937000Y-42318000D01*
X67909000Y-42318000D01*
X67909000Y-42338000D01*
X67651000Y-42338000D01*
X67651000Y-42318000D01*
X66605250Y-42318000D01*
X66447000Y-42476250D01*
X59415043Y-42476250D01*
X60069888Y-41821407D01*
X60212812Y-41607507D01*
X60219160Y-41575589D01*
X66447000Y-41575589D01*
X66447000Y-41901750D01*
X66605250Y-42060000D01*
X67651000Y-42060000D01*
X67651000Y-41226750D01*
X67909000Y-41226750D01*
X67909000Y-42060000D01*
X69937000Y-42060000D01*
X69937000Y-41226750D01*
X70195000Y-41226750D01*
X70195000Y-42060000D01*
X71240750Y-42060000D01*
X71399000Y-41901750D01*
X71399000Y-41575589D01*
X71302632Y-41342935D01*
X71124566Y-41164869D01*
X70891912Y-41068500D01*
X70353250Y-41068500D01*
X70195000Y-41226750D01*
X69937000Y-41226750D01*
X69778750Y-41068500D01*
X69240088Y-41068500D01*
X69007434Y-41164869D01*
X68923000Y-41249303D01*
X68838566Y-41164869D01*
X68605912Y-41068500D01*
X68067250Y-41068500D01*
X67909000Y-41226750D01*
X67651000Y-41226750D01*
X67492750Y-41068500D01*
X66954088Y-41068500D01*
X66721434Y-41164869D01*
X66543368Y-41342935D01*
X66447000Y-41575589D01*
X60219160Y-41575589D01*
X60279946Y-41270000D01*
X60212812Y-40932494D01*
X60021630Y-40646370D01*
X59735506Y-40455188D01*
X59659151Y-40440000D01*
X73125000Y-40440000D01*
X73125000Y-48253954D01*
G36*
X65191500Y-54371000D02*
X65211500Y-54371000D01*
X65211500Y-54629000D01*
X65191500Y-54629000D01*
X65191500Y-54649000D01*
X64933500Y-54649000D01*
X64933500Y-54629000D01*
X64913500Y-54629000D01*
X64913500Y-54371000D01*
X64933500Y-54371000D01*
X64933500Y-54351000D01*
X65191500Y-54351000D01*
X65191500Y-54371000D01*
X65191500Y-54371000D01*
G37*
X65191500Y-54371000D02*
X65211500Y-54371000D01*
X65211500Y-54629000D01*
X65191500Y-54629000D01*
X65191500Y-54649000D01*
X64933500Y-54649000D01*
X64933500Y-54629000D01*
X64913500Y-54629000D01*
X64913500Y-54371000D01*
X64933500Y-54371000D01*
X64933500Y-54351000D01*
X65191500Y-54351000D01*
X65191500Y-54371000D01*
G04 #@! TD*
M02*
