G04 #@! TF.GenerationSoftware,KiCad,Pcbnew,5.0.2+dfsg1-1*
G04 #@! TF.CreationDate,2019-02-22T20:57:12+02:00*
G04 #@! TF.ProjectId,e3634a_oled,65333633-3461-45f6-9f6c-65642e6b6963,A*
G04 #@! TF.SameCoordinates,Original*
G04 #@! TF.FileFunction,Soldermask,Top*
G04 #@! TF.FilePolarity,Negative*
%FSLAX46Y46*%
G04 Gerber Fmt 4.6, Leading zero omitted, Abs format (unit mm)*
G04 Created by KiCad (PCBNEW 5.0.2+dfsg1-1) date Fri 22 Feb 2019 08:57:12 PM EET*
%MOMM*%
%LPD*%
G01*
G04 APERTURE LIST*
%ADD10C,0.100000*%
G04 APERTURE END LIST*
D10*
G36*
X58130220Y-70828060D02*
X58132622Y-70852446D01*
X58139735Y-70875895D01*
X58151286Y-70897506D01*
X58166832Y-70916448D01*
X58185774Y-70931994D01*
X58207385Y-70943545D01*
X58230834Y-70950658D01*
X58255220Y-70953060D01*
X59027720Y-70953060D01*
X59027720Y-73253060D01*
X50432720Y-73253060D01*
X50432720Y-70953060D01*
X51205220Y-70953060D01*
X51229606Y-70950658D01*
X51253055Y-70943545D01*
X51274666Y-70931994D01*
X51293608Y-70916448D01*
X51309154Y-70897506D01*
X51320705Y-70875895D01*
X51327818Y-70852446D01*
X51330220Y-70828060D01*
X51330220Y-70458060D01*
X53205220Y-70458060D01*
X53205220Y-70828060D01*
X53207622Y-70852446D01*
X53214735Y-70875895D01*
X53226286Y-70897506D01*
X53241832Y-70916448D01*
X53260774Y-70931994D01*
X53282385Y-70943545D01*
X53305834Y-70950658D01*
X53330220Y-70953060D01*
X56130220Y-70953060D01*
X56154606Y-70950658D01*
X56178055Y-70943545D01*
X56199666Y-70931994D01*
X56218608Y-70916448D01*
X56234154Y-70897506D01*
X56245705Y-70875895D01*
X56252818Y-70852446D01*
X56255220Y-70828060D01*
X56255220Y-70458060D01*
X56252818Y-70433674D01*
X56245705Y-70410225D01*
X56234154Y-70388614D01*
X56218608Y-70369672D01*
X56199666Y-70354126D01*
X56178055Y-70342575D01*
X56154606Y-70335462D01*
X56130220Y-70333060D01*
X53330220Y-70333060D01*
X53305834Y-70335462D01*
X53282385Y-70342575D01*
X53260774Y-70354126D01*
X53241832Y-70369672D01*
X53226286Y-70388614D01*
X53214735Y-70410225D01*
X53207622Y-70433674D01*
X53205220Y-70458060D01*
X51330220Y-70458060D01*
X51330220Y-68553060D01*
X58130220Y-68553060D01*
X58130220Y-70828060D01*
X58130220Y-70828060D01*
G37*
G36*
X77909122Y-69246115D02*
X78025041Y-69269173D01*
X78352620Y-69404861D01*
X78390243Y-69430000D01*
X78647436Y-69601851D01*
X78898149Y-69852564D01*
X78898151Y-69852567D01*
X79095139Y-70147380D01*
X79230827Y-70474959D01*
X79300000Y-70822716D01*
X79300000Y-71177284D01*
X79232863Y-71514807D01*
X79230827Y-71525040D01*
X79095140Y-71852618D01*
X78898149Y-72147436D01*
X78647436Y-72398149D01*
X78647433Y-72398151D01*
X78352620Y-72595139D01*
X78025041Y-72730827D01*
X77909122Y-72753885D01*
X77677286Y-72800000D01*
X77322714Y-72800000D01*
X77090878Y-72753885D01*
X76974959Y-72730827D01*
X76647380Y-72595139D01*
X76352567Y-72398151D01*
X76352564Y-72398149D01*
X76101851Y-72147436D01*
X75904860Y-71852618D01*
X75769173Y-71525040D01*
X75767138Y-71514807D01*
X75700000Y-71177284D01*
X75700000Y-70822716D01*
X75769173Y-70474959D01*
X75904861Y-70147380D01*
X76101849Y-69852567D01*
X76101851Y-69852564D01*
X76352564Y-69601851D01*
X76609757Y-69430000D01*
X76647380Y-69404861D01*
X76974959Y-69269173D01*
X77090878Y-69246115D01*
X77322714Y-69200000D01*
X77677286Y-69200000D01*
X77909122Y-69246115D01*
X77909122Y-69246115D01*
G37*
G36*
X61591000Y-71530000D02*
X59491000Y-71530000D01*
X59491000Y-69430000D01*
X61591000Y-69430000D01*
X61591000Y-71530000D01*
X61591000Y-71530000D01*
G37*
G36*
X63209707Y-69437597D02*
X63286836Y-69445193D01*
X63418787Y-69485220D01*
X63484763Y-69505233D01*
X63667172Y-69602733D01*
X63827054Y-69733946D01*
X63958267Y-69893828D01*
X64055767Y-70076237D01*
X64055767Y-70076238D01*
X64115807Y-70274164D01*
X64136080Y-70480000D01*
X64115807Y-70685836D01*
X64075780Y-70817787D01*
X64055767Y-70883763D01*
X63958267Y-71066172D01*
X63827054Y-71226054D01*
X63667172Y-71357267D01*
X63484763Y-71454767D01*
X63418787Y-71474780D01*
X63286836Y-71514807D01*
X63209707Y-71522404D01*
X63132580Y-71530000D01*
X63029420Y-71530000D01*
X62952293Y-71522404D01*
X62875164Y-71514807D01*
X62743213Y-71474780D01*
X62677237Y-71454767D01*
X62494828Y-71357267D01*
X62334946Y-71226054D01*
X62203733Y-71066172D01*
X62106233Y-70883763D01*
X62086220Y-70817787D01*
X62046193Y-70685836D01*
X62025920Y-70480000D01*
X62046193Y-70274164D01*
X62106233Y-70076238D01*
X62106233Y-70076237D01*
X62203733Y-69893828D01*
X62334946Y-69733946D01*
X62494828Y-69602733D01*
X62677237Y-69505233D01*
X62743213Y-69485220D01*
X62875164Y-69445193D01*
X62952293Y-69437597D01*
X63029420Y-69430000D01*
X63132580Y-69430000D01*
X63209707Y-69437597D01*
X63209707Y-69437597D01*
G37*
G36*
X65749707Y-69437597D02*
X65826836Y-69445193D01*
X65958787Y-69485220D01*
X66024763Y-69505233D01*
X66207172Y-69602733D01*
X66367054Y-69733946D01*
X66498267Y-69893828D01*
X66595767Y-70076237D01*
X66595767Y-70076238D01*
X66655807Y-70274164D01*
X66676080Y-70480000D01*
X66655807Y-70685836D01*
X66615780Y-70817787D01*
X66595767Y-70883763D01*
X66498267Y-71066172D01*
X66367054Y-71226054D01*
X66207172Y-71357267D01*
X66024763Y-71454767D01*
X65958787Y-71474780D01*
X65826836Y-71514807D01*
X65749707Y-71522404D01*
X65672580Y-71530000D01*
X65569420Y-71530000D01*
X65492293Y-71522404D01*
X65415164Y-71514807D01*
X65283213Y-71474780D01*
X65217237Y-71454767D01*
X65034828Y-71357267D01*
X64874946Y-71226054D01*
X64743733Y-71066172D01*
X64646233Y-70883763D01*
X64626220Y-70817787D01*
X64586193Y-70685836D01*
X64565920Y-70480000D01*
X64586193Y-70274164D01*
X64646233Y-70076238D01*
X64646233Y-70076237D01*
X64743733Y-69893828D01*
X64874946Y-69733946D01*
X65034828Y-69602733D01*
X65217237Y-69505233D01*
X65283213Y-69485220D01*
X65415164Y-69445193D01*
X65492293Y-69437597D01*
X65569420Y-69430000D01*
X65672580Y-69430000D01*
X65749707Y-69437597D01*
X65749707Y-69437597D01*
G37*
G36*
X68289707Y-69437597D02*
X68366836Y-69445193D01*
X68498787Y-69485220D01*
X68564763Y-69505233D01*
X68747172Y-69602733D01*
X68907054Y-69733946D01*
X69038267Y-69893828D01*
X69135767Y-70076237D01*
X69135767Y-70076238D01*
X69195807Y-70274164D01*
X69216080Y-70480000D01*
X69195807Y-70685836D01*
X69155780Y-70817787D01*
X69135767Y-70883763D01*
X69038267Y-71066172D01*
X68907054Y-71226054D01*
X68747172Y-71357267D01*
X68564763Y-71454767D01*
X68498787Y-71474780D01*
X68366836Y-71514807D01*
X68289707Y-71522404D01*
X68212580Y-71530000D01*
X68109420Y-71530000D01*
X68032293Y-71522404D01*
X67955164Y-71514807D01*
X67823213Y-71474780D01*
X67757237Y-71454767D01*
X67574828Y-71357267D01*
X67414946Y-71226054D01*
X67283733Y-71066172D01*
X67186233Y-70883763D01*
X67166220Y-70817787D01*
X67126193Y-70685836D01*
X67105920Y-70480000D01*
X67126193Y-70274164D01*
X67186233Y-70076238D01*
X67186233Y-70076237D01*
X67283733Y-69893828D01*
X67414946Y-69733946D01*
X67574828Y-69602733D01*
X67757237Y-69505233D01*
X67823213Y-69485220D01*
X67955164Y-69445193D01*
X68032293Y-69437597D01*
X68109420Y-69430000D01*
X68212580Y-69430000D01*
X68289707Y-69437597D01*
X68289707Y-69437597D01*
G37*
G36*
X70829707Y-69437597D02*
X70906836Y-69445193D01*
X71038787Y-69485220D01*
X71104763Y-69505233D01*
X71287172Y-69602733D01*
X71447054Y-69733946D01*
X71578267Y-69893828D01*
X71675767Y-70076237D01*
X71675767Y-70076238D01*
X71735807Y-70274164D01*
X71756080Y-70480000D01*
X71735807Y-70685836D01*
X71695780Y-70817787D01*
X71675767Y-70883763D01*
X71578267Y-71066172D01*
X71447054Y-71226054D01*
X71287172Y-71357267D01*
X71104763Y-71454767D01*
X71038787Y-71474780D01*
X70906836Y-71514807D01*
X70829707Y-71522404D01*
X70752580Y-71530000D01*
X70649420Y-71530000D01*
X70572293Y-71522404D01*
X70495164Y-71514807D01*
X70363213Y-71474780D01*
X70297237Y-71454767D01*
X70114828Y-71357267D01*
X69954946Y-71226054D01*
X69823733Y-71066172D01*
X69726233Y-70883763D01*
X69706220Y-70817787D01*
X69666193Y-70685836D01*
X69645920Y-70480000D01*
X69666193Y-70274164D01*
X69726233Y-70076238D01*
X69726233Y-70076237D01*
X69823733Y-69893828D01*
X69954946Y-69733946D01*
X70114828Y-69602733D01*
X70297237Y-69505233D01*
X70363213Y-69485220D01*
X70495164Y-69445193D01*
X70572293Y-69437597D01*
X70649420Y-69430000D01*
X70752580Y-69430000D01*
X70829707Y-69437597D01*
X70829707Y-69437597D01*
G37*
G36*
X58050000Y-67050000D02*
X55950000Y-67050000D01*
X55950000Y-64950000D01*
X58050000Y-64950000D01*
X58050000Y-67050000D01*
X58050000Y-67050000D01*
G37*
G36*
X59668707Y-64957596D02*
X59745836Y-64965193D01*
X59877787Y-65005220D01*
X59943763Y-65025233D01*
X60126172Y-65122733D01*
X60286054Y-65253946D01*
X60417267Y-65413828D01*
X60514767Y-65596237D01*
X60514767Y-65596238D01*
X60574807Y-65794164D01*
X60595080Y-66000000D01*
X60574807Y-66205836D01*
X60564391Y-66240172D01*
X60514767Y-66403763D01*
X60417267Y-66586172D01*
X60286054Y-66746054D01*
X60126172Y-66877267D01*
X59943763Y-66974767D01*
X59877787Y-66994780D01*
X59745836Y-67034807D01*
X59668707Y-67042404D01*
X59591580Y-67050000D01*
X59488420Y-67050000D01*
X59411293Y-67042404D01*
X59334164Y-67034807D01*
X59202213Y-66994780D01*
X59136237Y-66974767D01*
X58953828Y-66877267D01*
X58793946Y-66746054D01*
X58662733Y-66586172D01*
X58565233Y-66403763D01*
X58515609Y-66240172D01*
X58505193Y-66205836D01*
X58484920Y-66000000D01*
X58505193Y-65794164D01*
X58565233Y-65596238D01*
X58565233Y-65596237D01*
X58662733Y-65413828D01*
X58793946Y-65253946D01*
X58953828Y-65122733D01*
X59136237Y-65025233D01*
X59202213Y-65005220D01*
X59334164Y-64965193D01*
X59411293Y-64957596D01*
X59488420Y-64950000D01*
X59591580Y-64950000D01*
X59668707Y-64957596D01*
X59668707Y-64957596D01*
G37*
G36*
X64748707Y-64957596D02*
X64825836Y-64965193D01*
X64957787Y-65005220D01*
X65023763Y-65025233D01*
X65206172Y-65122733D01*
X65366054Y-65253946D01*
X65497267Y-65413828D01*
X65594767Y-65596237D01*
X65594767Y-65596238D01*
X65654807Y-65794164D01*
X65675080Y-66000000D01*
X65654807Y-66205836D01*
X65644391Y-66240172D01*
X65594767Y-66403763D01*
X65497267Y-66586172D01*
X65366054Y-66746054D01*
X65206172Y-66877267D01*
X65023763Y-66974767D01*
X64957787Y-66994780D01*
X64825836Y-67034807D01*
X64748707Y-67042404D01*
X64671580Y-67050000D01*
X64568420Y-67050000D01*
X64491293Y-67042404D01*
X64414164Y-67034807D01*
X64282213Y-66994780D01*
X64216237Y-66974767D01*
X64033828Y-66877267D01*
X63873946Y-66746054D01*
X63742733Y-66586172D01*
X63645233Y-66403763D01*
X63595609Y-66240172D01*
X63585193Y-66205836D01*
X63564920Y-66000000D01*
X63585193Y-65794164D01*
X63645233Y-65596238D01*
X63645233Y-65596237D01*
X63742733Y-65413828D01*
X63873946Y-65253946D01*
X64033828Y-65122733D01*
X64216237Y-65025233D01*
X64282213Y-65005220D01*
X64414164Y-64965193D01*
X64491293Y-64957596D01*
X64568420Y-64950000D01*
X64671580Y-64950000D01*
X64748707Y-64957596D01*
X64748707Y-64957596D01*
G37*
G36*
X62208707Y-64957596D02*
X62285836Y-64965193D01*
X62417787Y-65005220D01*
X62483763Y-65025233D01*
X62666172Y-65122733D01*
X62826054Y-65253946D01*
X62957267Y-65413828D01*
X63054767Y-65596237D01*
X63054767Y-65596238D01*
X63114807Y-65794164D01*
X63135080Y-66000000D01*
X63114807Y-66205836D01*
X63104391Y-66240172D01*
X63054767Y-66403763D01*
X62957267Y-66586172D01*
X62826054Y-66746054D01*
X62666172Y-66877267D01*
X62483763Y-66974767D01*
X62417787Y-66994780D01*
X62285836Y-67034807D01*
X62208707Y-67042404D01*
X62131580Y-67050000D01*
X62028420Y-67050000D01*
X61951293Y-67042404D01*
X61874164Y-67034807D01*
X61742213Y-66994780D01*
X61676237Y-66974767D01*
X61493828Y-66877267D01*
X61333946Y-66746054D01*
X61202733Y-66586172D01*
X61105233Y-66403763D01*
X61055609Y-66240172D01*
X61045193Y-66205836D01*
X61024920Y-66000000D01*
X61045193Y-65794164D01*
X61105233Y-65596238D01*
X61105233Y-65596237D01*
X61202733Y-65413828D01*
X61333946Y-65253946D01*
X61493828Y-65122733D01*
X61676237Y-65025233D01*
X61742213Y-65005220D01*
X61874164Y-64965193D01*
X61951293Y-64957596D01*
X62028420Y-64950000D01*
X62131580Y-64950000D01*
X62208707Y-64957596D01*
X62208707Y-64957596D01*
G37*
G36*
X78990000Y-66704000D02*
X76890000Y-66704000D01*
X76890000Y-64604000D01*
X78990000Y-64604000D01*
X78990000Y-66704000D01*
X78990000Y-66704000D01*
G37*
G36*
X75528707Y-64611596D02*
X75605836Y-64619193D01*
X75737787Y-64659220D01*
X75803763Y-64679233D01*
X75986172Y-64776733D01*
X76146054Y-64907946D01*
X76277267Y-65067828D01*
X76374767Y-65250237D01*
X76374767Y-65250238D01*
X76434807Y-65448164D01*
X76455080Y-65654000D01*
X76434807Y-65859836D01*
X76394780Y-65991787D01*
X76374767Y-66057763D01*
X76277267Y-66240172D01*
X76146054Y-66400054D01*
X75986172Y-66531267D01*
X75803763Y-66628767D01*
X75737787Y-66648780D01*
X75605836Y-66688807D01*
X75528707Y-66696404D01*
X75451580Y-66704000D01*
X75348420Y-66704000D01*
X75271293Y-66696404D01*
X75194164Y-66688807D01*
X75062213Y-66648780D01*
X74996237Y-66628767D01*
X74813828Y-66531267D01*
X74653946Y-66400054D01*
X74522733Y-66240172D01*
X74425233Y-66057763D01*
X74405220Y-65991787D01*
X74365193Y-65859836D01*
X74344920Y-65654000D01*
X74365193Y-65448164D01*
X74425233Y-65250238D01*
X74425233Y-65250237D01*
X74522733Y-65067828D01*
X74653946Y-64907946D01*
X74813828Y-64776733D01*
X74996237Y-64679233D01*
X75062213Y-64659220D01*
X75194164Y-64619193D01*
X75271293Y-64611596D01*
X75348420Y-64604000D01*
X75451580Y-64604000D01*
X75528707Y-64611596D01*
X75528707Y-64611596D01*
G37*
G36*
X78068707Y-62071596D02*
X78145836Y-62079193D01*
X78277787Y-62119220D01*
X78343763Y-62139233D01*
X78526172Y-62236733D01*
X78686054Y-62367946D01*
X78817267Y-62527828D01*
X78914767Y-62710237D01*
X78914767Y-62710238D01*
X78974807Y-62908164D01*
X78995080Y-63114000D01*
X78974807Y-63319836D01*
X78934780Y-63451787D01*
X78914767Y-63517763D01*
X78817267Y-63700172D01*
X78686054Y-63860054D01*
X78526172Y-63991267D01*
X78343763Y-64088767D01*
X78277787Y-64108780D01*
X78145836Y-64148807D01*
X78068707Y-64156404D01*
X77991580Y-64164000D01*
X77888420Y-64164000D01*
X77811293Y-64156404D01*
X77734164Y-64148807D01*
X77602213Y-64108780D01*
X77536237Y-64088767D01*
X77353828Y-63991267D01*
X77193946Y-63860054D01*
X77062733Y-63700172D01*
X76965233Y-63517763D01*
X76945220Y-63451787D01*
X76905193Y-63319836D01*
X76884920Y-63114000D01*
X76905193Y-62908164D01*
X76965233Y-62710238D01*
X76965233Y-62710237D01*
X77062733Y-62527828D01*
X77193946Y-62367946D01*
X77353828Y-62236733D01*
X77536237Y-62139233D01*
X77602213Y-62119220D01*
X77734164Y-62079193D01*
X77811293Y-62071596D01*
X77888420Y-62064000D01*
X77991580Y-62064000D01*
X78068707Y-62071596D01*
X78068707Y-62071596D01*
G37*
G36*
X75528707Y-62071596D02*
X75605836Y-62079193D01*
X75737787Y-62119220D01*
X75803763Y-62139233D01*
X75986172Y-62236733D01*
X76146054Y-62367946D01*
X76277267Y-62527828D01*
X76374767Y-62710237D01*
X76374767Y-62710238D01*
X76434807Y-62908164D01*
X76455080Y-63114000D01*
X76434807Y-63319836D01*
X76394780Y-63451787D01*
X76374767Y-63517763D01*
X76277267Y-63700172D01*
X76146054Y-63860054D01*
X75986172Y-63991267D01*
X75803763Y-64088767D01*
X75737787Y-64108780D01*
X75605836Y-64148807D01*
X75528707Y-64156404D01*
X75451580Y-64164000D01*
X75348420Y-64164000D01*
X75271293Y-64156404D01*
X75194164Y-64148807D01*
X75062213Y-64108780D01*
X74996237Y-64088767D01*
X74813828Y-63991267D01*
X74653946Y-63860054D01*
X74522733Y-63700172D01*
X74425233Y-63517763D01*
X74405220Y-63451787D01*
X74365193Y-63319836D01*
X74344920Y-63114000D01*
X74365193Y-62908164D01*
X74425233Y-62710238D01*
X74425233Y-62710237D01*
X74522733Y-62527828D01*
X74653946Y-62367946D01*
X74813828Y-62236733D01*
X74996237Y-62139233D01*
X75062213Y-62119220D01*
X75194164Y-62079193D01*
X75271293Y-62071596D01*
X75348420Y-62064000D01*
X75451580Y-62064000D01*
X75528707Y-62071596D01*
X75528707Y-62071596D01*
G37*
G36*
X78068707Y-59531596D02*
X78145836Y-59539193D01*
X78277787Y-59579220D01*
X78343763Y-59599233D01*
X78526172Y-59696733D01*
X78686054Y-59827946D01*
X78817267Y-59987828D01*
X78914767Y-60170237D01*
X78914767Y-60170238D01*
X78974807Y-60368164D01*
X78995080Y-60574000D01*
X78974807Y-60779836D01*
X78934780Y-60911787D01*
X78914767Y-60977763D01*
X78817267Y-61160172D01*
X78686054Y-61320054D01*
X78526172Y-61451267D01*
X78343763Y-61548767D01*
X78277787Y-61568780D01*
X78145836Y-61608807D01*
X78068707Y-61616404D01*
X77991580Y-61624000D01*
X77888420Y-61624000D01*
X77811293Y-61616404D01*
X77734164Y-61608807D01*
X77602213Y-61568780D01*
X77536237Y-61548767D01*
X77353828Y-61451267D01*
X77193946Y-61320054D01*
X77062733Y-61160172D01*
X76965233Y-60977763D01*
X76945220Y-60911787D01*
X76905193Y-60779836D01*
X76884920Y-60574000D01*
X76905193Y-60368164D01*
X76965233Y-60170238D01*
X76965233Y-60170237D01*
X77062733Y-59987828D01*
X77193946Y-59827946D01*
X77353828Y-59696733D01*
X77536237Y-59599233D01*
X77602213Y-59579220D01*
X77734164Y-59539193D01*
X77811293Y-59531596D01*
X77888420Y-59524000D01*
X77991580Y-59524000D01*
X78068707Y-59531596D01*
X78068707Y-59531596D01*
G37*
G36*
X75528707Y-59531596D02*
X75605836Y-59539193D01*
X75737787Y-59579220D01*
X75803763Y-59599233D01*
X75986172Y-59696733D01*
X76146054Y-59827946D01*
X76277267Y-59987828D01*
X76374767Y-60170237D01*
X76374767Y-60170238D01*
X76434807Y-60368164D01*
X76455080Y-60574000D01*
X76434807Y-60779836D01*
X76394780Y-60911787D01*
X76374767Y-60977763D01*
X76277267Y-61160172D01*
X76146054Y-61320054D01*
X75986172Y-61451267D01*
X75803763Y-61548767D01*
X75737787Y-61568780D01*
X75605836Y-61608807D01*
X75528707Y-61616404D01*
X75451580Y-61624000D01*
X75348420Y-61624000D01*
X75271293Y-61616404D01*
X75194164Y-61608807D01*
X75062213Y-61568780D01*
X74996237Y-61548767D01*
X74813828Y-61451267D01*
X74653946Y-61320054D01*
X74522733Y-61160172D01*
X74425233Y-60977763D01*
X74405220Y-60911787D01*
X74365193Y-60779836D01*
X74344920Y-60574000D01*
X74365193Y-60368164D01*
X74425233Y-60170238D01*
X74425233Y-60170237D01*
X74522733Y-59987828D01*
X74653946Y-59827946D01*
X74813828Y-59696733D01*
X74996237Y-59599233D01*
X75062213Y-59579220D01*
X75194164Y-59539193D01*
X75271293Y-59531596D01*
X75348420Y-59524000D01*
X75451580Y-59524000D01*
X75528707Y-59531596D01*
X75528707Y-59531596D01*
G37*
G36*
X66468622Y-59155517D02*
X66516585Y-59170066D01*
X66560775Y-59193686D01*
X66599518Y-59225482D01*
X66631314Y-59264225D01*
X66654934Y-59308415D01*
X66669483Y-59356378D01*
X66675000Y-59412391D01*
X66675000Y-60162609D01*
X66669483Y-60218622D01*
X66654934Y-60266585D01*
X66631314Y-60310775D01*
X66599518Y-60349518D01*
X66560775Y-60381314D01*
X66516585Y-60404934D01*
X66468622Y-60419483D01*
X66412609Y-60425000D01*
X65587391Y-60425000D01*
X65531378Y-60419483D01*
X65483415Y-60404934D01*
X65439225Y-60381314D01*
X65400482Y-60349518D01*
X65368686Y-60310775D01*
X65345066Y-60266585D01*
X65330517Y-60218622D01*
X65325000Y-60162609D01*
X65325000Y-59412391D01*
X65330517Y-59356378D01*
X65345066Y-59308415D01*
X65368686Y-59264225D01*
X65400482Y-59225482D01*
X65439225Y-59193686D01*
X65483415Y-59170066D01*
X65531378Y-59155517D01*
X65587391Y-59150000D01*
X66412609Y-59150000D01*
X66468622Y-59155517D01*
X66468622Y-59155517D01*
G37*
G36*
X75528707Y-56991597D02*
X75605836Y-56999193D01*
X75737787Y-57039220D01*
X75803763Y-57059233D01*
X75986172Y-57156733D01*
X76146054Y-57287946D01*
X76277267Y-57447828D01*
X76374767Y-57630237D01*
X76374767Y-57630238D01*
X76434807Y-57828164D01*
X76455080Y-58034000D01*
X76434807Y-58239836D01*
X76394780Y-58371787D01*
X76374767Y-58437763D01*
X76277267Y-58620172D01*
X76146054Y-58780054D01*
X75986172Y-58911267D01*
X75803763Y-59008767D01*
X75737787Y-59028780D01*
X75605836Y-59068807D01*
X75528707Y-59076403D01*
X75451580Y-59084000D01*
X75348420Y-59084000D01*
X75271293Y-59076403D01*
X75194164Y-59068807D01*
X75062213Y-59028780D01*
X74996237Y-59008767D01*
X74813828Y-58911267D01*
X74653946Y-58780054D01*
X74522733Y-58620172D01*
X74425233Y-58437763D01*
X74405220Y-58371787D01*
X74365193Y-58239836D01*
X74344920Y-58034000D01*
X74365193Y-57828164D01*
X74425233Y-57630238D01*
X74425233Y-57630237D01*
X74522733Y-57447828D01*
X74653946Y-57287946D01*
X74813828Y-57156733D01*
X74996237Y-57059233D01*
X75062213Y-57039220D01*
X75194164Y-56999193D01*
X75271293Y-56991597D01*
X75348420Y-56984000D01*
X75451580Y-56984000D01*
X75528707Y-56991597D01*
X75528707Y-56991597D01*
G37*
G36*
X78068707Y-56991597D02*
X78145836Y-56999193D01*
X78277787Y-57039220D01*
X78343763Y-57059233D01*
X78526172Y-57156733D01*
X78686054Y-57287946D01*
X78817267Y-57447828D01*
X78914767Y-57630237D01*
X78914767Y-57630238D01*
X78974807Y-57828164D01*
X78995080Y-58034000D01*
X78974807Y-58239836D01*
X78934780Y-58371787D01*
X78914767Y-58437763D01*
X78817267Y-58620172D01*
X78686054Y-58780054D01*
X78526172Y-58911267D01*
X78343763Y-59008767D01*
X78277787Y-59028780D01*
X78145836Y-59068807D01*
X78068707Y-59076403D01*
X77991580Y-59084000D01*
X77888420Y-59084000D01*
X77811293Y-59076403D01*
X77734164Y-59068807D01*
X77602213Y-59028780D01*
X77536237Y-59008767D01*
X77353828Y-58911267D01*
X77193946Y-58780054D01*
X77062733Y-58620172D01*
X76965233Y-58437763D01*
X76945220Y-58371787D01*
X76905193Y-58239836D01*
X76884920Y-58034000D01*
X76905193Y-57828164D01*
X76965233Y-57630238D01*
X76965233Y-57630237D01*
X77062733Y-57447828D01*
X77193946Y-57287946D01*
X77353828Y-57156733D01*
X77536237Y-57059233D01*
X77602213Y-57039220D01*
X77734164Y-56999193D01*
X77811293Y-56991597D01*
X77888420Y-56984000D01*
X77991580Y-56984000D01*
X78068707Y-56991597D01*
X78068707Y-56991597D01*
G37*
G36*
X66468622Y-52155517D02*
X66516585Y-52170066D01*
X66560775Y-52193686D01*
X66599518Y-52225482D01*
X66631314Y-52264225D01*
X66654934Y-52308415D01*
X66669483Y-52356378D01*
X66675000Y-52412391D01*
X66675000Y-53162609D01*
X66669483Y-53218622D01*
X66654934Y-53266585D01*
X66631314Y-53310775D01*
X66599518Y-53349518D01*
X66564357Y-53378374D01*
X66547030Y-53395702D01*
X66533416Y-53416076D01*
X66524039Y-53438715D01*
X66519259Y-53462749D01*
X66519259Y-53487253D01*
X66524040Y-53511286D01*
X66533417Y-53533925D01*
X66547031Y-53554300D01*
X66564359Y-53571627D01*
X66584733Y-53585241D01*
X66607372Y-53594618D01*
X66643657Y-53600000D01*
X67337610Y-53600000D01*
X67398497Y-53605997D01*
X67451153Y-53621970D01*
X67499665Y-53647900D01*
X67542196Y-53682804D01*
X67577100Y-53725335D01*
X67603030Y-53773847D01*
X67619003Y-53826503D01*
X67625000Y-53887390D01*
X67625000Y-54646103D01*
X67627402Y-54670489D01*
X67634515Y-54693938D01*
X67646066Y-54715549D01*
X67661612Y-54734491D01*
X67680554Y-54750037D01*
X67702165Y-54761588D01*
X67725614Y-54768701D01*
X67750000Y-54771103D01*
X67774386Y-54768701D01*
X67797835Y-54761588D01*
X67819446Y-54750037D01*
X67838388Y-54734491D01*
X67853934Y-54715549D01*
X67860241Y-54705027D01*
X67868689Y-54689221D01*
X67900482Y-54650482D01*
X67939225Y-54618686D01*
X67983415Y-54595066D01*
X68031378Y-54580517D01*
X68087391Y-54575000D01*
X68912609Y-54575000D01*
X68968622Y-54580517D01*
X69016585Y-54595066D01*
X69060775Y-54618686D01*
X69099518Y-54650482D01*
X69131314Y-54689225D01*
X69154934Y-54733415D01*
X69169483Y-54781378D01*
X69175000Y-54837391D01*
X69175000Y-55587609D01*
X69169483Y-55643622D01*
X69154934Y-55691585D01*
X69131314Y-55735775D01*
X69099518Y-55774518D01*
X69060775Y-55806314D01*
X69016585Y-55829934D01*
X68968622Y-55844483D01*
X68912609Y-55850000D01*
X68087391Y-55850000D01*
X68031378Y-55844483D01*
X67983415Y-55829934D01*
X67939225Y-55806314D01*
X67900482Y-55774518D01*
X67868686Y-55735775D01*
X67845066Y-55691585D01*
X67830517Y-55643622D01*
X67825000Y-55587609D01*
X67825000Y-55309904D01*
X67822598Y-55285518D01*
X67815485Y-55262069D01*
X67803934Y-55240458D01*
X67788388Y-55221516D01*
X67769446Y-55205970D01*
X67747835Y-55194419D01*
X67724386Y-55187306D01*
X67700000Y-55184904D01*
X67675614Y-55187306D01*
X67652165Y-55194419D01*
X67630554Y-55205970D01*
X67611612Y-55221516D01*
X67596066Y-55240458D01*
X67589760Y-55250980D01*
X67577100Y-55274665D01*
X67542196Y-55317196D01*
X67499665Y-55352100D01*
X67451152Y-55378031D01*
X67443401Y-55380382D01*
X67420762Y-55389760D01*
X67400387Y-55403373D01*
X67383060Y-55420701D01*
X67369446Y-55441075D01*
X67360069Y-55463714D01*
X67355288Y-55487748D01*
X67355288Y-55512252D01*
X67360068Y-55536285D01*
X67369446Y-55558924D01*
X67383059Y-55579299D01*
X67400387Y-55596626D01*
X67420761Y-55610240D01*
X67443401Y-55619618D01*
X67451152Y-55621969D01*
X67499665Y-55647900D01*
X67542196Y-55682804D01*
X67577100Y-55725335D01*
X67603030Y-55773847D01*
X67619003Y-55826503D01*
X67625000Y-55887390D01*
X67625000Y-56221103D01*
X67627402Y-56245489D01*
X67634515Y-56268938D01*
X67646066Y-56290549D01*
X67661612Y-56309491D01*
X67680554Y-56325037D01*
X67702165Y-56336588D01*
X67725614Y-56343701D01*
X67750000Y-56346103D01*
X67774386Y-56343701D01*
X67797835Y-56336588D01*
X67819446Y-56325037D01*
X67838388Y-56309491D01*
X67853934Y-56290549D01*
X67860241Y-56280027D01*
X67868689Y-56264221D01*
X67900482Y-56225482D01*
X67939225Y-56193686D01*
X67983415Y-56170066D01*
X68031378Y-56155517D01*
X68087391Y-56150000D01*
X68912609Y-56150000D01*
X68968622Y-56155517D01*
X69016585Y-56170066D01*
X69060775Y-56193686D01*
X69099518Y-56225482D01*
X69131314Y-56264225D01*
X69154934Y-56308415D01*
X69169483Y-56356378D01*
X69175000Y-56412391D01*
X69175000Y-57162609D01*
X69169483Y-57218622D01*
X69154934Y-57266585D01*
X69131314Y-57310775D01*
X69099518Y-57349518D01*
X69060775Y-57381314D01*
X69016585Y-57404934D01*
X68968622Y-57419483D01*
X68912609Y-57425000D01*
X68087391Y-57425000D01*
X68031378Y-57419483D01*
X67983415Y-57404934D01*
X67939225Y-57381314D01*
X67900482Y-57349518D01*
X67868686Y-57310775D01*
X67845066Y-57266585D01*
X67837214Y-57240699D01*
X67827837Y-57218060D01*
X67814223Y-57197685D01*
X67796896Y-57180358D01*
X67776521Y-57166744D01*
X67753882Y-57157367D01*
X67729849Y-57152586D01*
X67705345Y-57152586D01*
X67681311Y-57157366D01*
X67658672Y-57166743D01*
X67638297Y-57180357D01*
X67620970Y-57197684D01*
X67607356Y-57218060D01*
X67577100Y-57274665D01*
X67542196Y-57317196D01*
X67499665Y-57352100D01*
X67451153Y-57378030D01*
X67398497Y-57394003D01*
X67337610Y-57400000D01*
X66643657Y-57400000D01*
X66619271Y-57402402D01*
X66595822Y-57409515D01*
X66574211Y-57421066D01*
X66555269Y-57436612D01*
X66539723Y-57455554D01*
X66528172Y-57477165D01*
X66521059Y-57500614D01*
X66518657Y-57525000D01*
X66521059Y-57549386D01*
X66528172Y-57572835D01*
X66539723Y-57594446D01*
X66564357Y-57621626D01*
X66599518Y-57650482D01*
X66631314Y-57689225D01*
X66654934Y-57733415D01*
X66669483Y-57781378D01*
X66675000Y-57837391D01*
X66675000Y-58587609D01*
X66669483Y-58643622D01*
X66654934Y-58691585D01*
X66631314Y-58735775D01*
X66599518Y-58774518D01*
X66560775Y-58806314D01*
X66516585Y-58829934D01*
X66468622Y-58844483D01*
X66412609Y-58850000D01*
X65587391Y-58850000D01*
X65531378Y-58844483D01*
X65483415Y-58829934D01*
X65439225Y-58806314D01*
X65400482Y-58774518D01*
X65368686Y-58735775D01*
X65345066Y-58691585D01*
X65330517Y-58643622D01*
X65325000Y-58587609D01*
X65325000Y-57837391D01*
X65330517Y-57781378D01*
X65345066Y-57733415D01*
X65368686Y-57689225D01*
X65400482Y-57650482D01*
X65435643Y-57621626D01*
X65452970Y-57604298D01*
X65466584Y-57583924D01*
X65475961Y-57561285D01*
X65480741Y-57537251D01*
X65480741Y-57512747D01*
X65475960Y-57488714D01*
X65466583Y-57466075D01*
X65452969Y-57445700D01*
X65435641Y-57428373D01*
X65415267Y-57414759D01*
X65392628Y-57405382D01*
X65356343Y-57400000D01*
X64662390Y-57400000D01*
X64601503Y-57394003D01*
X64548847Y-57378030D01*
X64500335Y-57352100D01*
X64457804Y-57317196D01*
X64422900Y-57274665D01*
X64392644Y-57218060D01*
X64379031Y-57197685D01*
X64361704Y-57180358D01*
X64341329Y-57166744D01*
X64318690Y-57157367D01*
X64294657Y-57152586D01*
X64270152Y-57152586D01*
X64246119Y-57157366D01*
X64223480Y-57166744D01*
X64203105Y-57180357D01*
X64185778Y-57197684D01*
X64172164Y-57218059D01*
X64162786Y-57240699D01*
X64154934Y-57266585D01*
X64131314Y-57310775D01*
X64099518Y-57349518D01*
X64060775Y-57381314D01*
X64016585Y-57404934D01*
X63968622Y-57419483D01*
X63912609Y-57425000D01*
X63087391Y-57425000D01*
X63031378Y-57419483D01*
X62983415Y-57404934D01*
X62939225Y-57381314D01*
X62900482Y-57349518D01*
X62868686Y-57310775D01*
X62845066Y-57266585D01*
X62830517Y-57218622D01*
X62825000Y-57162609D01*
X62825000Y-56412391D01*
X62830517Y-56356378D01*
X62845066Y-56308415D01*
X62868686Y-56264225D01*
X62900482Y-56225482D01*
X62939225Y-56193686D01*
X62983415Y-56170066D01*
X63031378Y-56155517D01*
X63087391Y-56150000D01*
X63912609Y-56150000D01*
X63968622Y-56155517D01*
X64016585Y-56170066D01*
X64060775Y-56193686D01*
X64099518Y-56225482D01*
X64131311Y-56264221D01*
X64139759Y-56280027D01*
X64153373Y-56300402D01*
X64170700Y-56317729D01*
X64191075Y-56331343D01*
X64213714Y-56340720D01*
X64237747Y-56345501D01*
X64262251Y-56345501D01*
X64286285Y-56340721D01*
X64308924Y-56331344D01*
X64329299Y-56317730D01*
X64346626Y-56300403D01*
X64360240Y-56280028D01*
X64369617Y-56257389D01*
X64374398Y-56233356D01*
X64375000Y-56221103D01*
X64375000Y-55887390D01*
X64380997Y-55826503D01*
X64396970Y-55773847D01*
X64422900Y-55725335D01*
X64457804Y-55682804D01*
X64500335Y-55647900D01*
X64548848Y-55621969D01*
X64556599Y-55619618D01*
X64579238Y-55610240D01*
X64599613Y-55596627D01*
X64616940Y-55579299D01*
X64630554Y-55558925D01*
X64639931Y-55536286D01*
X64644712Y-55512252D01*
X64644712Y-55487748D01*
X65480288Y-55487748D01*
X65480288Y-55512252D01*
X65485068Y-55536285D01*
X65494446Y-55558924D01*
X65508059Y-55579299D01*
X65525387Y-55596626D01*
X65545761Y-55610240D01*
X65568401Y-55619618D01*
X65576152Y-55621969D01*
X65624665Y-55647900D01*
X65667196Y-55682804D01*
X65702100Y-55725335D01*
X65728030Y-55773847D01*
X65744003Y-55826503D01*
X65750000Y-55887390D01*
X65750000Y-57112610D01*
X65744003Y-57173497D01*
X65728030Y-57226153D01*
X65702100Y-57274665D01*
X65667196Y-57317196D01*
X65623113Y-57353374D01*
X65605786Y-57370701D01*
X65592173Y-57391076D01*
X65582795Y-57413715D01*
X65578015Y-57437748D01*
X65578015Y-57462253D01*
X65582796Y-57486286D01*
X65592173Y-57508925D01*
X65605787Y-57529300D01*
X65623114Y-57546627D01*
X65643489Y-57560240D01*
X65666128Y-57569618D01*
X65702413Y-57575000D01*
X66297587Y-57575000D01*
X66321973Y-57572598D01*
X66345422Y-57565485D01*
X66367033Y-57553934D01*
X66385975Y-57538388D01*
X66401521Y-57519446D01*
X66413072Y-57497835D01*
X66420185Y-57474386D01*
X66422587Y-57450000D01*
X66420185Y-57425614D01*
X66413072Y-57402165D01*
X66401521Y-57380554D01*
X66376887Y-57353374D01*
X66332804Y-57317196D01*
X66297900Y-57274665D01*
X66271970Y-57226153D01*
X66255997Y-57173497D01*
X66250000Y-57112610D01*
X66250000Y-55887390D01*
X66255997Y-55826503D01*
X66271970Y-55773847D01*
X66297900Y-55725335D01*
X66332804Y-55682804D01*
X66375335Y-55647900D01*
X66423848Y-55621969D01*
X66431599Y-55619618D01*
X66454238Y-55610240D01*
X66474613Y-55596627D01*
X66491940Y-55579299D01*
X66505554Y-55558925D01*
X66514931Y-55536286D01*
X66519712Y-55512252D01*
X66519712Y-55487748D01*
X66514932Y-55463715D01*
X66505554Y-55441076D01*
X66491941Y-55420701D01*
X66474613Y-55403374D01*
X66454239Y-55389760D01*
X66431599Y-55380382D01*
X66423848Y-55378031D01*
X66375335Y-55352100D01*
X66332804Y-55317196D01*
X66297900Y-55274665D01*
X66271970Y-55226153D01*
X66255997Y-55173497D01*
X66250000Y-55112610D01*
X66250000Y-53887390D01*
X66255997Y-53826503D01*
X66271970Y-53773847D01*
X66297900Y-53725335D01*
X66332804Y-53682804D01*
X66376887Y-53646626D01*
X66394214Y-53629299D01*
X66407827Y-53608924D01*
X66417205Y-53586285D01*
X66421985Y-53562252D01*
X66421985Y-53537747D01*
X66417204Y-53513714D01*
X66407827Y-53491075D01*
X66394213Y-53470700D01*
X66376886Y-53453373D01*
X66356511Y-53439760D01*
X66333872Y-53430382D01*
X66297587Y-53425000D01*
X65702413Y-53425000D01*
X65678027Y-53427402D01*
X65654578Y-53434515D01*
X65632967Y-53446066D01*
X65614025Y-53461612D01*
X65598479Y-53480554D01*
X65586928Y-53502165D01*
X65579815Y-53525614D01*
X65577413Y-53550000D01*
X65579815Y-53574386D01*
X65586928Y-53597835D01*
X65598479Y-53619446D01*
X65623113Y-53646626D01*
X65667196Y-53682804D01*
X65702100Y-53725335D01*
X65728030Y-53773847D01*
X65744003Y-53826503D01*
X65750000Y-53887390D01*
X65750000Y-55112610D01*
X65744003Y-55173497D01*
X65728030Y-55226153D01*
X65702100Y-55274665D01*
X65667196Y-55317196D01*
X65624665Y-55352100D01*
X65576152Y-55378031D01*
X65568401Y-55380382D01*
X65545762Y-55389760D01*
X65525387Y-55403373D01*
X65508060Y-55420701D01*
X65494446Y-55441075D01*
X65485069Y-55463714D01*
X65480288Y-55487748D01*
X64644712Y-55487748D01*
X64639932Y-55463715D01*
X64630554Y-55441076D01*
X64616941Y-55420701D01*
X64599613Y-55403374D01*
X64579239Y-55389760D01*
X64556599Y-55380382D01*
X64548848Y-55378031D01*
X64500335Y-55352100D01*
X64457804Y-55317196D01*
X64422900Y-55274665D01*
X64410240Y-55250980D01*
X64396627Y-55230605D01*
X64379300Y-55213278D01*
X64358925Y-55199664D01*
X64336286Y-55190287D01*
X64312253Y-55185506D01*
X64287748Y-55185506D01*
X64263715Y-55190286D01*
X64241076Y-55199664D01*
X64220701Y-55213277D01*
X64203374Y-55230604D01*
X64189760Y-55250979D01*
X64180383Y-55273618D01*
X64175602Y-55297651D01*
X64175000Y-55309904D01*
X64175000Y-55587609D01*
X64169483Y-55643622D01*
X64154934Y-55691585D01*
X64131314Y-55735775D01*
X64099518Y-55774518D01*
X64060775Y-55806314D01*
X64016585Y-55829934D01*
X63968622Y-55844483D01*
X63912609Y-55850000D01*
X63087391Y-55850000D01*
X63031378Y-55844483D01*
X62983415Y-55829934D01*
X62939225Y-55806314D01*
X62900482Y-55774518D01*
X62868686Y-55735775D01*
X62845066Y-55691585D01*
X62830517Y-55643622D01*
X62825000Y-55587609D01*
X62825000Y-54837391D01*
X62830517Y-54781378D01*
X62845066Y-54733415D01*
X62868686Y-54689225D01*
X62900482Y-54650482D01*
X62939225Y-54618686D01*
X62983415Y-54595066D01*
X63031378Y-54580517D01*
X63087391Y-54575000D01*
X63912609Y-54575000D01*
X63968622Y-54580517D01*
X64016585Y-54595066D01*
X64060775Y-54618686D01*
X64099518Y-54650482D01*
X64131311Y-54689221D01*
X64139759Y-54705027D01*
X64153373Y-54725402D01*
X64170700Y-54742729D01*
X64191075Y-54756343D01*
X64213714Y-54765720D01*
X64237747Y-54770501D01*
X64262251Y-54770501D01*
X64286285Y-54765721D01*
X64308924Y-54756344D01*
X64329299Y-54742730D01*
X64346626Y-54725403D01*
X64360240Y-54705028D01*
X64369617Y-54682389D01*
X64374398Y-54658356D01*
X64375000Y-54646103D01*
X64375000Y-53887390D01*
X64380997Y-53826503D01*
X64396970Y-53773847D01*
X64422900Y-53725335D01*
X64457804Y-53682804D01*
X64500335Y-53647900D01*
X64548847Y-53621970D01*
X64601503Y-53605997D01*
X64662390Y-53600000D01*
X65356343Y-53600000D01*
X65380729Y-53597598D01*
X65404178Y-53590485D01*
X65425789Y-53578934D01*
X65444731Y-53563388D01*
X65460277Y-53544446D01*
X65471828Y-53522835D01*
X65478941Y-53499386D01*
X65481343Y-53475000D01*
X65478941Y-53450614D01*
X65471828Y-53427165D01*
X65460277Y-53405554D01*
X65435643Y-53378374D01*
X65400482Y-53349518D01*
X65368686Y-53310775D01*
X65345066Y-53266585D01*
X65330517Y-53218622D01*
X65325000Y-53162609D01*
X65325000Y-52412391D01*
X65330517Y-52356378D01*
X65345066Y-52308415D01*
X65368686Y-52264225D01*
X65400482Y-52225482D01*
X65439225Y-52193686D01*
X65483415Y-52170066D01*
X65531378Y-52155517D01*
X65587391Y-52150000D01*
X66412609Y-52150000D01*
X66468622Y-52155517D01*
X66468622Y-52155517D01*
G37*
G36*
X59267354Y-53533925D02*
X59421105Y-53564508D01*
X59593994Y-53636121D01*
X59749590Y-53740087D01*
X59881913Y-53872410D01*
X59985879Y-54028006D01*
X60057492Y-54200895D01*
X60094000Y-54384433D01*
X60094000Y-54571567D01*
X60057492Y-54755105D01*
X59985879Y-54927994D01*
X59881913Y-55083590D01*
X59749590Y-55215913D01*
X59593994Y-55319879D01*
X59452424Y-55378519D01*
X59430822Y-55390066D01*
X59411880Y-55405612D01*
X59396334Y-55424554D01*
X59384783Y-55446165D01*
X59377670Y-55469614D01*
X59375268Y-55494000D01*
X59377670Y-55518386D01*
X59384783Y-55541836D01*
X59396334Y-55563446D01*
X59411880Y-55582388D01*
X59430822Y-55597934D01*
X59452424Y-55609481D01*
X59593994Y-55668121D01*
X59749590Y-55772087D01*
X59881913Y-55904410D01*
X59985879Y-56060006D01*
X60057492Y-56232895D01*
X60094000Y-56416433D01*
X60094000Y-56603567D01*
X60057492Y-56787105D01*
X59985879Y-56959994D01*
X59881913Y-57115590D01*
X59749590Y-57247913D01*
X59593994Y-57351879D01*
X59421105Y-57423492D01*
X59287840Y-57450000D01*
X59237568Y-57460000D01*
X59050432Y-57460000D01*
X59000160Y-57450000D01*
X58866895Y-57423492D01*
X58694006Y-57351879D01*
X58538410Y-57247913D01*
X58406087Y-57115590D01*
X58302121Y-56959994D01*
X58230508Y-56787105D01*
X58194000Y-56603567D01*
X58194000Y-56416433D01*
X58230508Y-56232895D01*
X58302121Y-56060006D01*
X58406087Y-55904410D01*
X58538410Y-55772087D01*
X58694006Y-55668121D01*
X58835576Y-55609481D01*
X58857178Y-55597934D01*
X58876120Y-55582388D01*
X58891666Y-55563446D01*
X58903217Y-55541835D01*
X58910330Y-55518386D01*
X58912732Y-55494000D01*
X58910330Y-55469614D01*
X58903217Y-55446164D01*
X58891666Y-55424554D01*
X58876120Y-55405612D01*
X58857178Y-55390066D01*
X58835576Y-55378519D01*
X58694006Y-55319879D01*
X58538410Y-55215913D01*
X58406087Y-55083590D01*
X58302121Y-54927994D01*
X58230508Y-54755105D01*
X58194000Y-54571567D01*
X58194000Y-54384433D01*
X58230508Y-54200895D01*
X58302121Y-54028006D01*
X58406087Y-53872410D01*
X58538410Y-53740087D01*
X58694006Y-53636121D01*
X58866895Y-53564508D01*
X59020646Y-53533925D01*
X59050432Y-53528000D01*
X59237568Y-53528000D01*
X59267354Y-53533925D01*
X59267354Y-53533925D01*
G37*
G36*
X75528707Y-54451596D02*
X75605836Y-54459193D01*
X75737787Y-54499220D01*
X75803763Y-54519233D01*
X75986172Y-54616733D01*
X76146054Y-54747946D01*
X76277267Y-54907828D01*
X76374767Y-55090237D01*
X76384800Y-55123312D01*
X76434807Y-55288164D01*
X76455080Y-55494000D01*
X76434807Y-55699836D01*
X76405551Y-55796281D01*
X76374767Y-55897763D01*
X76277267Y-56080172D01*
X76146054Y-56240054D01*
X75986172Y-56371267D01*
X75803763Y-56468767D01*
X75737787Y-56488780D01*
X75605836Y-56528807D01*
X75528707Y-56536403D01*
X75451580Y-56544000D01*
X75348420Y-56544000D01*
X75271293Y-56536403D01*
X75194164Y-56528807D01*
X75062213Y-56488780D01*
X74996237Y-56468767D01*
X74813828Y-56371267D01*
X74653946Y-56240054D01*
X74522733Y-56080172D01*
X74425233Y-55897763D01*
X74394449Y-55796281D01*
X74365193Y-55699836D01*
X74344920Y-55494000D01*
X74365193Y-55288164D01*
X74415200Y-55123312D01*
X74425233Y-55090237D01*
X74522733Y-54907828D01*
X74653946Y-54747946D01*
X74813828Y-54616733D01*
X74996237Y-54519233D01*
X75062213Y-54499220D01*
X75194164Y-54459193D01*
X75271293Y-54451596D01*
X75348420Y-54444000D01*
X75451580Y-54444000D01*
X75528707Y-54451596D01*
X75528707Y-54451596D01*
G37*
G36*
X78068707Y-54451596D02*
X78145836Y-54459193D01*
X78277787Y-54499220D01*
X78343763Y-54519233D01*
X78526172Y-54616733D01*
X78686054Y-54747946D01*
X78817267Y-54907828D01*
X78914767Y-55090237D01*
X78924800Y-55123312D01*
X78974807Y-55288164D01*
X78995080Y-55494000D01*
X78974807Y-55699836D01*
X78945551Y-55796281D01*
X78914767Y-55897763D01*
X78817267Y-56080172D01*
X78686054Y-56240054D01*
X78526172Y-56371267D01*
X78343763Y-56468767D01*
X78277787Y-56488780D01*
X78145836Y-56528807D01*
X78068707Y-56536403D01*
X77991580Y-56544000D01*
X77888420Y-56544000D01*
X77811293Y-56536403D01*
X77734164Y-56528807D01*
X77602213Y-56488780D01*
X77536237Y-56468767D01*
X77353828Y-56371267D01*
X77193946Y-56240054D01*
X77062733Y-56080172D01*
X76965233Y-55897763D01*
X76934449Y-55796281D01*
X76905193Y-55699836D01*
X76884920Y-55494000D01*
X76905193Y-55288164D01*
X76955200Y-55123312D01*
X76965233Y-55090237D01*
X77062733Y-54907828D01*
X77193946Y-54747946D01*
X77353828Y-54616733D01*
X77536237Y-54519233D01*
X77602213Y-54499220D01*
X77734164Y-54459193D01*
X77811293Y-54451596D01*
X77888420Y-54444000D01*
X77991580Y-54444000D01*
X78068707Y-54451596D01*
X78068707Y-54451596D01*
G37*
G36*
X75528707Y-51911597D02*
X75605836Y-51919193D01*
X75727819Y-51956196D01*
X75803763Y-51979233D01*
X75986172Y-52076733D01*
X76146054Y-52207946D01*
X76277267Y-52367828D01*
X76374767Y-52550237D01*
X76374767Y-52550238D01*
X76434807Y-52748164D01*
X76455080Y-52954000D01*
X76434807Y-53159836D01*
X76414060Y-53228230D01*
X76374767Y-53357763D01*
X76277267Y-53540172D01*
X76146054Y-53700054D01*
X75986172Y-53831267D01*
X75803763Y-53928767D01*
X75754370Y-53943750D01*
X75605836Y-53988807D01*
X75528707Y-53996403D01*
X75451580Y-54004000D01*
X75348420Y-54004000D01*
X75271293Y-53996403D01*
X75194164Y-53988807D01*
X75045630Y-53943750D01*
X74996237Y-53928767D01*
X74813828Y-53831267D01*
X74653946Y-53700054D01*
X74522733Y-53540172D01*
X74425233Y-53357763D01*
X74385940Y-53228230D01*
X74365193Y-53159836D01*
X74344920Y-52954000D01*
X74365193Y-52748164D01*
X74425233Y-52550238D01*
X74425233Y-52550237D01*
X74522733Y-52367828D01*
X74653946Y-52207946D01*
X74813828Y-52076733D01*
X74996237Y-51979233D01*
X75072181Y-51956196D01*
X75194164Y-51919193D01*
X75271293Y-51911597D01*
X75348420Y-51904000D01*
X75451580Y-51904000D01*
X75528707Y-51911597D01*
X75528707Y-51911597D01*
G37*
G36*
X78068707Y-51911597D02*
X78145836Y-51919193D01*
X78267819Y-51956196D01*
X78343763Y-51979233D01*
X78526172Y-52076733D01*
X78686054Y-52207946D01*
X78817267Y-52367828D01*
X78914767Y-52550237D01*
X78914767Y-52550238D01*
X78974807Y-52748164D01*
X78995080Y-52954000D01*
X78974807Y-53159836D01*
X78954060Y-53228230D01*
X78914767Y-53357763D01*
X78817267Y-53540172D01*
X78686054Y-53700054D01*
X78526172Y-53831267D01*
X78343763Y-53928767D01*
X78294370Y-53943750D01*
X78145836Y-53988807D01*
X78068707Y-53996403D01*
X77991580Y-54004000D01*
X77888420Y-54004000D01*
X77811293Y-53996403D01*
X77734164Y-53988807D01*
X77585630Y-53943750D01*
X77536237Y-53928767D01*
X77353828Y-53831267D01*
X77193946Y-53700054D01*
X77062733Y-53540172D01*
X76965233Y-53357763D01*
X76925940Y-53228230D01*
X76905193Y-53159836D01*
X76884920Y-52954000D01*
X76905193Y-52748164D01*
X76965233Y-52550238D01*
X76965233Y-52550237D01*
X77062733Y-52367828D01*
X77193946Y-52207946D01*
X77353828Y-52076733D01*
X77536237Y-51979233D01*
X77612181Y-51956196D01*
X77734164Y-51919193D01*
X77811293Y-51911597D01*
X77888420Y-51904000D01*
X77991580Y-51904000D01*
X78068707Y-51911597D01*
X78068707Y-51911597D01*
G37*
G36*
X53590000Y-53242000D02*
X51490000Y-53242000D01*
X51490000Y-51142000D01*
X53590000Y-51142000D01*
X53590000Y-53242000D01*
X53590000Y-53242000D01*
G37*
G36*
X61692197Y-48922233D02*
X61704449Y-48922835D01*
X61722869Y-48922835D01*
X61774358Y-48927906D01*
X61858443Y-48944632D01*
X61892168Y-48954862D01*
X61902048Y-48957859D01*
X61902050Y-48957860D01*
X61907955Y-48959651D01*
X61987164Y-48992460D01*
X62032787Y-49016846D01*
X62104082Y-49064484D01*
X62144076Y-49097306D01*
X62204694Y-49157924D01*
X62237516Y-49197918D01*
X62285154Y-49269213D01*
X62309540Y-49314836D01*
X62342349Y-49394045D01*
X62357368Y-49443557D01*
X62374094Y-49527642D01*
X62379165Y-49579130D01*
X62379165Y-49597551D01*
X62379767Y-49609803D01*
X62381573Y-49628140D01*
X62381573Y-50165860D01*
X62380602Y-50175719D01*
X62380000Y-50187971D01*
X62380000Y-51656029D01*
X62380602Y-51668281D01*
X62381573Y-51678140D01*
X62381573Y-52215860D01*
X62379767Y-52234197D01*
X62379165Y-52246449D01*
X62379165Y-52264869D01*
X62374094Y-52316358D01*
X62357368Y-52400443D01*
X62342349Y-52449955D01*
X62309540Y-52529164D01*
X62285154Y-52574787D01*
X62237516Y-52646082D01*
X62204694Y-52686076D01*
X62144076Y-52746694D01*
X62104082Y-52779516D01*
X62032787Y-52827154D01*
X61987164Y-52851540D01*
X61907955Y-52884349D01*
X61902050Y-52886140D01*
X61902048Y-52886141D01*
X61892168Y-52889138D01*
X61858443Y-52899368D01*
X61774358Y-52916094D01*
X61722869Y-52921165D01*
X61704449Y-52921165D01*
X61692197Y-52921767D01*
X61673860Y-52923573D01*
X61186140Y-52923573D01*
X61167803Y-52921767D01*
X61155551Y-52921165D01*
X61137131Y-52921165D01*
X61085642Y-52916094D01*
X61001557Y-52899368D01*
X60967832Y-52889138D01*
X60957952Y-52886141D01*
X60957950Y-52886140D01*
X60952045Y-52884349D01*
X60872836Y-52851540D01*
X60827213Y-52827154D01*
X60755918Y-52779516D01*
X60715924Y-52746694D01*
X60655306Y-52686076D01*
X60622484Y-52646082D01*
X60574846Y-52574787D01*
X60550460Y-52529164D01*
X60517651Y-52449955D01*
X60502632Y-52400443D01*
X60485906Y-52316358D01*
X60480835Y-52264869D01*
X60480835Y-52246449D01*
X60480233Y-52234197D01*
X60478427Y-52215860D01*
X60478427Y-51678140D01*
X60479398Y-51668281D01*
X60480000Y-51656029D01*
X60480000Y-50187971D01*
X60479398Y-50175719D01*
X60478427Y-50165860D01*
X60478427Y-49628140D01*
X60480233Y-49609803D01*
X60480835Y-49597551D01*
X60480835Y-49579130D01*
X60485906Y-49527642D01*
X60502632Y-49443557D01*
X60517651Y-49394045D01*
X60550460Y-49314836D01*
X60574846Y-49269213D01*
X60622484Y-49197918D01*
X60655306Y-49157924D01*
X60715924Y-49097306D01*
X60755918Y-49064484D01*
X60827213Y-49016846D01*
X60872836Y-48992460D01*
X60952045Y-48959651D01*
X60957950Y-48957860D01*
X60957952Y-48957859D01*
X60967832Y-48954862D01*
X61001557Y-48944632D01*
X61085642Y-48927906D01*
X61137131Y-48922835D01*
X61155551Y-48922835D01*
X61167803Y-48922233D01*
X61186140Y-48920427D01*
X61673860Y-48920427D01*
X61692197Y-48922233D01*
X61692197Y-48922233D01*
G37*
G36*
X64643497Y-50669997D02*
X64696153Y-50685970D01*
X64744665Y-50711900D01*
X64787196Y-50746804D01*
X64822100Y-50789335D01*
X64848030Y-50837847D01*
X64864003Y-50890503D01*
X64870000Y-50951390D01*
X64870000Y-51751610D01*
X64864003Y-51812497D01*
X64848030Y-51865153D01*
X64822100Y-51913665D01*
X64787196Y-51956196D01*
X64744665Y-51991100D01*
X64696153Y-52017030D01*
X64643497Y-52033003D01*
X64582610Y-52039000D01*
X63357390Y-52039000D01*
X63296503Y-52033003D01*
X63243847Y-52017030D01*
X63195335Y-51991100D01*
X63152804Y-51956196D01*
X63117900Y-51913665D01*
X63091970Y-51865153D01*
X63075997Y-51812497D01*
X63070000Y-51751610D01*
X63070000Y-50951390D01*
X63075997Y-50890503D01*
X63091970Y-50837847D01*
X63117900Y-50789335D01*
X63152804Y-50746804D01*
X63195335Y-50711900D01*
X63243847Y-50685970D01*
X63296503Y-50669997D01*
X63357390Y-50664000D01*
X64582610Y-50664000D01*
X64643497Y-50669997D01*
X64643497Y-50669997D01*
G37*
G36*
X66468622Y-50580517D02*
X66516585Y-50595066D01*
X66560775Y-50618686D01*
X66599518Y-50650482D01*
X66631314Y-50689225D01*
X66654934Y-50733415D01*
X66669483Y-50781378D01*
X66675000Y-50837391D01*
X66675000Y-51587609D01*
X66669483Y-51643622D01*
X66654934Y-51691585D01*
X66631314Y-51735775D01*
X66599518Y-51774518D01*
X66560775Y-51806314D01*
X66516585Y-51829934D01*
X66468622Y-51844483D01*
X66412609Y-51850000D01*
X65587391Y-51850000D01*
X65531378Y-51844483D01*
X65483415Y-51829934D01*
X65439225Y-51806314D01*
X65400482Y-51774518D01*
X65368686Y-51735775D01*
X65345066Y-51691585D01*
X65330517Y-51643622D01*
X65325000Y-51587609D01*
X65325000Y-50837391D01*
X65330517Y-50781378D01*
X65345066Y-50733415D01*
X65368686Y-50689225D01*
X65400482Y-50650482D01*
X65439225Y-50618686D01*
X65483415Y-50595066D01*
X65531378Y-50580517D01*
X65587391Y-50575000D01*
X66412609Y-50575000D01*
X66468622Y-50580517D01*
X66468622Y-50580517D01*
G37*
G36*
X78068707Y-49371597D02*
X78145836Y-49379193D01*
X78214269Y-49399952D01*
X78343763Y-49439233D01*
X78526172Y-49536733D01*
X78686054Y-49667946D01*
X78817267Y-49827828D01*
X78914767Y-50010237D01*
X78914767Y-50010238D01*
X78974807Y-50208164D01*
X78995080Y-50414000D01*
X78974807Y-50619836D01*
X78940353Y-50733415D01*
X78914767Y-50817763D01*
X78817267Y-51000172D01*
X78686054Y-51160054D01*
X78526172Y-51291267D01*
X78343763Y-51388767D01*
X78277787Y-51408780D01*
X78145836Y-51448807D01*
X78068707Y-51456404D01*
X77991580Y-51464000D01*
X77888420Y-51464000D01*
X77811293Y-51456403D01*
X77734164Y-51448807D01*
X77602213Y-51408780D01*
X77536237Y-51388767D01*
X77353828Y-51291267D01*
X77193946Y-51160054D01*
X77062733Y-51000172D01*
X76965233Y-50817763D01*
X76939647Y-50733415D01*
X76905193Y-50619836D01*
X76884920Y-50414000D01*
X76905193Y-50208164D01*
X76965233Y-50010238D01*
X76965233Y-50010237D01*
X77062733Y-49827828D01*
X77193946Y-49667946D01*
X77353828Y-49536733D01*
X77536237Y-49439233D01*
X77665731Y-49399952D01*
X77734164Y-49379193D01*
X77811293Y-49371596D01*
X77888420Y-49364000D01*
X77991580Y-49364000D01*
X78068707Y-49371597D01*
X78068707Y-49371597D01*
G37*
G36*
X75528707Y-49371597D02*
X75605836Y-49379193D01*
X75674269Y-49399952D01*
X75803763Y-49439233D01*
X75986172Y-49536733D01*
X76146054Y-49667946D01*
X76277267Y-49827828D01*
X76374767Y-50010237D01*
X76374767Y-50010238D01*
X76434807Y-50208164D01*
X76455080Y-50414000D01*
X76434807Y-50619836D01*
X76400353Y-50733415D01*
X76374767Y-50817763D01*
X76277267Y-51000172D01*
X76146054Y-51160054D01*
X75986172Y-51291267D01*
X75803763Y-51388767D01*
X75737787Y-51408780D01*
X75605836Y-51448807D01*
X75528707Y-51456404D01*
X75451580Y-51464000D01*
X75348420Y-51464000D01*
X75271293Y-51456403D01*
X75194164Y-51448807D01*
X75062213Y-51408780D01*
X74996237Y-51388767D01*
X74813828Y-51291267D01*
X74653946Y-51160054D01*
X74522733Y-51000172D01*
X74425233Y-50817763D01*
X74399647Y-50733415D01*
X74365193Y-50619836D01*
X74344920Y-50414000D01*
X74365193Y-50208164D01*
X74425233Y-50010238D01*
X74425233Y-50010237D01*
X74522733Y-49827828D01*
X74653946Y-49667946D01*
X74813828Y-49536733D01*
X74996237Y-49439233D01*
X75125731Y-49399952D01*
X75194164Y-49379193D01*
X75271293Y-49371596D01*
X75348420Y-49364000D01*
X75451580Y-49364000D01*
X75528707Y-49371597D01*
X75528707Y-49371597D01*
G37*
G36*
X52668707Y-48609597D02*
X52745836Y-48617193D01*
X52877787Y-48657220D01*
X52943763Y-48677233D01*
X53126172Y-48774733D01*
X53286054Y-48905946D01*
X53417267Y-49065828D01*
X53514767Y-49248237D01*
X53514767Y-49248238D01*
X53574807Y-49446164D01*
X53595080Y-49652000D01*
X53574807Y-49857836D01*
X53550642Y-49937497D01*
X53514767Y-50055763D01*
X53417267Y-50238172D01*
X53286054Y-50398054D01*
X53126172Y-50529267D01*
X52943763Y-50626767D01*
X52877787Y-50646780D01*
X52745836Y-50686807D01*
X52668707Y-50694404D01*
X52591580Y-50702000D01*
X52488420Y-50702000D01*
X52411293Y-50694403D01*
X52334164Y-50686807D01*
X52202213Y-50646780D01*
X52136237Y-50626767D01*
X51953828Y-50529267D01*
X51793946Y-50398054D01*
X51662733Y-50238172D01*
X51565233Y-50055763D01*
X51529358Y-49937497D01*
X51505193Y-49857836D01*
X51484920Y-49652000D01*
X51505193Y-49446164D01*
X51565233Y-49248238D01*
X51565233Y-49248237D01*
X51662733Y-49065828D01*
X51793946Y-48905946D01*
X51953828Y-48774733D01*
X52136237Y-48677233D01*
X52202213Y-48657220D01*
X52334164Y-48617193D01*
X52411293Y-48609596D01*
X52488420Y-48602000D01*
X52591580Y-48602000D01*
X52668707Y-48609597D01*
X52668707Y-48609597D01*
G37*
G36*
X64643497Y-48794997D02*
X64696153Y-48810970D01*
X64744665Y-48836900D01*
X64787196Y-48871804D01*
X64822100Y-48914335D01*
X64848030Y-48962847D01*
X64864003Y-49015503D01*
X64870000Y-49076390D01*
X64870000Y-49876610D01*
X64864003Y-49937497D01*
X64848030Y-49990153D01*
X64822100Y-50038665D01*
X64787196Y-50081196D01*
X64744665Y-50116100D01*
X64696153Y-50142030D01*
X64643497Y-50158003D01*
X64582610Y-50164000D01*
X63357390Y-50164000D01*
X63296503Y-50158003D01*
X63243847Y-50142030D01*
X63195335Y-50116100D01*
X63152804Y-50081196D01*
X63117900Y-50038665D01*
X63091970Y-49990153D01*
X63075997Y-49937497D01*
X63070000Y-49876610D01*
X63070000Y-49076390D01*
X63075997Y-49015503D01*
X63091970Y-48962847D01*
X63117900Y-48914335D01*
X63152804Y-48871804D01*
X63195335Y-48836900D01*
X63243847Y-48810970D01*
X63296503Y-48794997D01*
X63357390Y-48789000D01*
X64582610Y-48789000D01*
X64643497Y-48794997D01*
X64643497Y-48794997D01*
G37*
G36*
X75528707Y-46831597D02*
X75605836Y-46839193D01*
X75737787Y-46879220D01*
X75803763Y-46899233D01*
X75986172Y-46996733D01*
X76146054Y-47127946D01*
X76277267Y-47287828D01*
X76374767Y-47470237D01*
X76374767Y-47470238D01*
X76434807Y-47668164D01*
X76455080Y-47874000D01*
X76434807Y-48079836D01*
X76412089Y-48154727D01*
X76374767Y-48277763D01*
X76277267Y-48460172D01*
X76146054Y-48620054D01*
X75986172Y-48751267D01*
X75803763Y-48848767D01*
X75737787Y-48868780D01*
X75605836Y-48908807D01*
X75528707Y-48916403D01*
X75451580Y-48924000D01*
X75348420Y-48924000D01*
X75271293Y-48916403D01*
X75194164Y-48908807D01*
X75062213Y-48868780D01*
X74996237Y-48848767D01*
X74813828Y-48751267D01*
X74653946Y-48620054D01*
X74522733Y-48460172D01*
X74425233Y-48277763D01*
X74387911Y-48154727D01*
X74365193Y-48079836D01*
X74344920Y-47874000D01*
X74365193Y-47668164D01*
X74425233Y-47470238D01*
X74425233Y-47470237D01*
X74522733Y-47287828D01*
X74653946Y-47127946D01*
X74813828Y-46996733D01*
X74996237Y-46899233D01*
X75062213Y-46879220D01*
X75194164Y-46839193D01*
X75271293Y-46831597D01*
X75348420Y-46824000D01*
X75451580Y-46824000D01*
X75528707Y-46831597D01*
X75528707Y-46831597D01*
G37*
G36*
X78068707Y-46831597D02*
X78145836Y-46839193D01*
X78277787Y-46879220D01*
X78343763Y-46899233D01*
X78526172Y-46996733D01*
X78686054Y-47127946D01*
X78817267Y-47287828D01*
X78914767Y-47470237D01*
X78914767Y-47470238D01*
X78974807Y-47668164D01*
X78995080Y-47874000D01*
X78974807Y-48079836D01*
X78952089Y-48154727D01*
X78914767Y-48277763D01*
X78817267Y-48460172D01*
X78686054Y-48620054D01*
X78526172Y-48751267D01*
X78343763Y-48848767D01*
X78277787Y-48868780D01*
X78145836Y-48908807D01*
X78068707Y-48916403D01*
X77991580Y-48924000D01*
X77888420Y-48924000D01*
X77811293Y-48916403D01*
X77734164Y-48908807D01*
X77602213Y-48868780D01*
X77536237Y-48848767D01*
X77353828Y-48751267D01*
X77193946Y-48620054D01*
X77062733Y-48460172D01*
X76965233Y-48277763D01*
X76927911Y-48154727D01*
X76905193Y-48079836D01*
X76884920Y-47874000D01*
X76905193Y-47668164D01*
X76965233Y-47470238D01*
X76965233Y-47470237D01*
X77062733Y-47287828D01*
X77193946Y-47127946D01*
X77353828Y-46996733D01*
X77536237Y-46899233D01*
X77602213Y-46879220D01*
X77734164Y-46839193D01*
X77811293Y-46831597D01*
X77888420Y-46824000D01*
X77991580Y-46824000D01*
X78068707Y-46831597D01*
X78068707Y-46831597D01*
G37*
G36*
X70739497Y-46938497D02*
X70792153Y-46954470D01*
X70840665Y-46980400D01*
X70883196Y-47015304D01*
X70918100Y-47057835D01*
X70944030Y-47106347D01*
X70960003Y-47159003D01*
X70966000Y-47219890D01*
X70966000Y-48020110D01*
X70960003Y-48080997D01*
X70944030Y-48133653D01*
X70918100Y-48182165D01*
X70883196Y-48224696D01*
X70840665Y-48259600D01*
X70792153Y-48285530D01*
X70739497Y-48301503D01*
X70678610Y-48307500D01*
X69453390Y-48307500D01*
X69392503Y-48301503D01*
X69339847Y-48285530D01*
X69291335Y-48259600D01*
X69248804Y-48224696D01*
X69213900Y-48182165D01*
X69187970Y-48133653D01*
X69171997Y-48080997D01*
X69166000Y-48020110D01*
X69166000Y-47219890D01*
X69171997Y-47159003D01*
X69187970Y-47106347D01*
X69213900Y-47057835D01*
X69248804Y-47015304D01*
X69291335Y-46980400D01*
X69339847Y-46954470D01*
X69392503Y-46938497D01*
X69453390Y-46932500D01*
X70678610Y-46932500D01*
X70739497Y-46938497D01*
X70739497Y-46938497D01*
G37*
G36*
X68453497Y-46938497D02*
X68506153Y-46954470D01*
X68554665Y-46980400D01*
X68597196Y-47015304D01*
X68632100Y-47057835D01*
X68658030Y-47106347D01*
X68674003Y-47159003D01*
X68680000Y-47219890D01*
X68680000Y-48020110D01*
X68674003Y-48080997D01*
X68658030Y-48133653D01*
X68632100Y-48182165D01*
X68597196Y-48224696D01*
X68554665Y-48259600D01*
X68506153Y-48285530D01*
X68453497Y-48301503D01*
X68392610Y-48307500D01*
X67167390Y-48307500D01*
X67106503Y-48301503D01*
X67053847Y-48285530D01*
X67005335Y-48259600D01*
X66962804Y-48224696D01*
X66927900Y-48182165D01*
X66901970Y-48133653D01*
X66885997Y-48080997D01*
X66880000Y-48020110D01*
X66880000Y-47219890D01*
X66885997Y-47159003D01*
X66901970Y-47106347D01*
X66927900Y-47057835D01*
X66962804Y-47015304D01*
X67005335Y-46980400D01*
X67053847Y-46954470D01*
X67106503Y-46938497D01*
X67167390Y-46932500D01*
X68392610Y-46932500D01*
X68453497Y-46938497D01*
X68453497Y-46938497D01*
G37*
G36*
X59050000Y-47750000D02*
X56650000Y-47750000D01*
X56650000Y-45850000D01*
X59050000Y-45850000D01*
X59050000Y-47750000D01*
X59050000Y-47750000D01*
G37*
G36*
X65350000Y-46600000D02*
X62950000Y-46600000D01*
X62950000Y-42400000D01*
X65350000Y-42400000D01*
X65350000Y-46600000D01*
X65350000Y-46600000D01*
G37*
G36*
X68453497Y-45063497D02*
X68506153Y-45079470D01*
X68554665Y-45105400D01*
X68597196Y-45140304D01*
X68632100Y-45182835D01*
X68658030Y-45231347D01*
X68674003Y-45284003D01*
X68680000Y-45344890D01*
X68680000Y-46145110D01*
X68674003Y-46205997D01*
X68658030Y-46258653D01*
X68632100Y-46307165D01*
X68597196Y-46349696D01*
X68554665Y-46384600D01*
X68506153Y-46410530D01*
X68453497Y-46426503D01*
X68392610Y-46432500D01*
X67167390Y-46432500D01*
X67106503Y-46426503D01*
X67053847Y-46410530D01*
X67005335Y-46384600D01*
X66962804Y-46349696D01*
X66927900Y-46307165D01*
X66901970Y-46258653D01*
X66885997Y-46205997D01*
X66880000Y-46145110D01*
X66880000Y-45344890D01*
X66885997Y-45284003D01*
X66901970Y-45231347D01*
X66927900Y-45182835D01*
X66962804Y-45140304D01*
X67005335Y-45105400D01*
X67053847Y-45079470D01*
X67106503Y-45063497D01*
X67167390Y-45057500D01*
X68392610Y-45057500D01*
X68453497Y-45063497D01*
X68453497Y-45063497D01*
G37*
G36*
X70739497Y-45063497D02*
X70792153Y-45079470D01*
X70840665Y-45105400D01*
X70883196Y-45140304D01*
X70918100Y-45182835D01*
X70944030Y-45231347D01*
X70960003Y-45284003D01*
X70966000Y-45344890D01*
X70966000Y-46145110D01*
X70960003Y-46205997D01*
X70944030Y-46258653D01*
X70918100Y-46307165D01*
X70883196Y-46349696D01*
X70840665Y-46384600D01*
X70792153Y-46410530D01*
X70739497Y-46426503D01*
X70678610Y-46432500D01*
X69453390Y-46432500D01*
X69392503Y-46426503D01*
X69339847Y-46410530D01*
X69291335Y-46384600D01*
X69248804Y-46349696D01*
X69213900Y-46307165D01*
X69187970Y-46258653D01*
X69171997Y-46205997D01*
X69166000Y-46145110D01*
X69166000Y-45344890D01*
X69171997Y-45284003D01*
X69187970Y-45231347D01*
X69213900Y-45182835D01*
X69248804Y-45140304D01*
X69291335Y-45105400D01*
X69339847Y-45079470D01*
X69392503Y-45063497D01*
X69453390Y-45057500D01*
X70678610Y-45057500D01*
X70739497Y-45063497D01*
X70739497Y-45063497D01*
G37*
G36*
X59050000Y-45450000D02*
X56650000Y-45450000D01*
X56650000Y-43550000D01*
X59050000Y-43550000D01*
X59050000Y-45450000D01*
X59050000Y-45450000D01*
G37*
G36*
X68453497Y-43382497D02*
X68506153Y-43398470D01*
X68554665Y-43424400D01*
X68597196Y-43459304D01*
X68632100Y-43501835D01*
X68658030Y-43550347D01*
X68674003Y-43603003D01*
X68680000Y-43663890D01*
X68680000Y-44464110D01*
X68674003Y-44524997D01*
X68658030Y-44577653D01*
X68632100Y-44626165D01*
X68597196Y-44668696D01*
X68554665Y-44703600D01*
X68506153Y-44729530D01*
X68453497Y-44745503D01*
X68392610Y-44751500D01*
X67167390Y-44751500D01*
X67106503Y-44745503D01*
X67053847Y-44729530D01*
X67005335Y-44703600D01*
X66962804Y-44668696D01*
X66927900Y-44626165D01*
X66901970Y-44577653D01*
X66885997Y-44524997D01*
X66880000Y-44464110D01*
X66880000Y-43663890D01*
X66885997Y-43603003D01*
X66901970Y-43550347D01*
X66927900Y-43501835D01*
X66962804Y-43459304D01*
X67005335Y-43424400D01*
X67053847Y-43398470D01*
X67106503Y-43382497D01*
X67167390Y-43376500D01*
X68392610Y-43376500D01*
X68453497Y-43382497D01*
X68453497Y-43382497D01*
G37*
G36*
X70739497Y-43382497D02*
X70792153Y-43398470D01*
X70840665Y-43424400D01*
X70883196Y-43459304D01*
X70918100Y-43501835D01*
X70944030Y-43550347D01*
X70960003Y-43603003D01*
X70966000Y-43663890D01*
X70966000Y-44464110D01*
X70960003Y-44524997D01*
X70944030Y-44577653D01*
X70918100Y-44626165D01*
X70883196Y-44668696D01*
X70840665Y-44703600D01*
X70792153Y-44729530D01*
X70739497Y-44745503D01*
X70678610Y-44751500D01*
X69453390Y-44751500D01*
X69392503Y-44745503D01*
X69339847Y-44729530D01*
X69291335Y-44703600D01*
X69248804Y-44668696D01*
X69213900Y-44626165D01*
X69187970Y-44577653D01*
X69171997Y-44524997D01*
X69166000Y-44464110D01*
X69166000Y-43663890D01*
X69171997Y-43603003D01*
X69187970Y-43550347D01*
X69213900Y-43501835D01*
X69248804Y-43459304D01*
X69291335Y-43424400D01*
X69339847Y-43398470D01*
X69392503Y-43382497D01*
X69453390Y-43376500D01*
X70678610Y-43376500D01*
X70739497Y-43382497D01*
X70739497Y-43382497D01*
G37*
G36*
X52909122Y-40746115D02*
X53025041Y-40769173D01*
X53352620Y-40904861D01*
X53643511Y-41099228D01*
X53647436Y-41101851D01*
X53898149Y-41352564D01*
X53898151Y-41352567D01*
X54095139Y-41647380D01*
X54177100Y-41845250D01*
X54230827Y-41974960D01*
X54300000Y-42322714D01*
X54300000Y-42677286D01*
X54260374Y-42876500D01*
X54230827Y-43025041D01*
X54095139Y-43352620D01*
X53977103Y-43529273D01*
X53898149Y-43647436D01*
X53647436Y-43898149D01*
X53647433Y-43898151D01*
X53352620Y-44095139D01*
X53025041Y-44230827D01*
X52909122Y-44253885D01*
X52677286Y-44300000D01*
X52322714Y-44300000D01*
X52090878Y-44253885D01*
X51974959Y-44230827D01*
X51647380Y-44095139D01*
X51352567Y-43898151D01*
X51352564Y-43898149D01*
X51101851Y-43647436D01*
X51022897Y-43529273D01*
X50904861Y-43352620D01*
X50769173Y-43025041D01*
X50739626Y-42876500D01*
X50700000Y-42677286D01*
X50700000Y-42322714D01*
X50769173Y-41974960D01*
X50822901Y-41845250D01*
X50904861Y-41647380D01*
X51101849Y-41352567D01*
X51101851Y-41352564D01*
X51352564Y-41101851D01*
X51356489Y-41099228D01*
X51647380Y-40904861D01*
X51974959Y-40769173D01*
X52090878Y-40746115D01*
X52322714Y-40700000D01*
X52677286Y-40700000D01*
X52909122Y-40746115D01*
X52909122Y-40746115D01*
G37*
G36*
X77909122Y-40746115D02*
X78025041Y-40769173D01*
X78352620Y-40904861D01*
X78643511Y-41099228D01*
X78647436Y-41101851D01*
X78898149Y-41352564D01*
X78898151Y-41352567D01*
X79095139Y-41647380D01*
X79177100Y-41845250D01*
X79230827Y-41974960D01*
X79300000Y-42322714D01*
X79300000Y-42677286D01*
X79260374Y-42876500D01*
X79230827Y-43025041D01*
X79095139Y-43352620D01*
X78977103Y-43529273D01*
X78898149Y-43647436D01*
X78647436Y-43898149D01*
X78647433Y-43898151D01*
X78352620Y-44095139D01*
X78025041Y-44230827D01*
X77909122Y-44253885D01*
X77677286Y-44300000D01*
X77322714Y-44300000D01*
X77090878Y-44253885D01*
X76974959Y-44230827D01*
X76647380Y-44095139D01*
X76352567Y-43898151D01*
X76352564Y-43898149D01*
X76101851Y-43647436D01*
X76022897Y-43529273D01*
X75904861Y-43352620D01*
X75769173Y-43025041D01*
X75739626Y-42876500D01*
X75700000Y-42677286D01*
X75700000Y-42322714D01*
X75769173Y-41974960D01*
X75822901Y-41845250D01*
X75904861Y-41647380D01*
X76101849Y-41352567D01*
X76101851Y-41352564D01*
X76352564Y-41101851D01*
X76356489Y-41099228D01*
X76647380Y-40904861D01*
X76974959Y-40769173D01*
X77090878Y-40746115D01*
X77322714Y-40700000D01*
X77677286Y-40700000D01*
X77909122Y-40746115D01*
X77909122Y-40746115D01*
G37*
G36*
X59050000Y-43150000D02*
X56650000Y-43150000D01*
X56650000Y-41250000D01*
X59050000Y-41250000D01*
X59050000Y-43150000D01*
X59050000Y-43150000D01*
G37*
G36*
X70739497Y-41507497D02*
X70792153Y-41523470D01*
X70840665Y-41549400D01*
X70883196Y-41584304D01*
X70918100Y-41626835D01*
X70944030Y-41675347D01*
X70960003Y-41728003D01*
X70966000Y-41788890D01*
X70966000Y-42589110D01*
X70960003Y-42649997D01*
X70944030Y-42702653D01*
X70918100Y-42751165D01*
X70883196Y-42793696D01*
X70840665Y-42828600D01*
X70792153Y-42854530D01*
X70739497Y-42870503D01*
X70678610Y-42876500D01*
X69453390Y-42876500D01*
X69392503Y-42870503D01*
X69339847Y-42854530D01*
X69291335Y-42828600D01*
X69248804Y-42793696D01*
X69213900Y-42751165D01*
X69187970Y-42702653D01*
X69171997Y-42649997D01*
X69166000Y-42589110D01*
X69166000Y-41788890D01*
X69171997Y-41728003D01*
X69187970Y-41675347D01*
X69213900Y-41626835D01*
X69248804Y-41584304D01*
X69291335Y-41549400D01*
X69339847Y-41523470D01*
X69392503Y-41507497D01*
X69453390Y-41501500D01*
X70678610Y-41501500D01*
X70739497Y-41507497D01*
X70739497Y-41507497D01*
G37*
G36*
X68453497Y-41507497D02*
X68506153Y-41523470D01*
X68554665Y-41549400D01*
X68597196Y-41584304D01*
X68632100Y-41626835D01*
X68658030Y-41675347D01*
X68674003Y-41728003D01*
X68680000Y-41788890D01*
X68680000Y-42589110D01*
X68674003Y-42649997D01*
X68658030Y-42702653D01*
X68632100Y-42751165D01*
X68597196Y-42793696D01*
X68554665Y-42828600D01*
X68506153Y-42854530D01*
X68453497Y-42870503D01*
X68392610Y-42876500D01*
X67167390Y-42876500D01*
X67106503Y-42870503D01*
X67053847Y-42854530D01*
X67005335Y-42828600D01*
X66962804Y-42793696D01*
X66927900Y-42751165D01*
X66901970Y-42702653D01*
X66885997Y-42649997D01*
X66880000Y-42589110D01*
X66880000Y-41788890D01*
X66885997Y-41728003D01*
X66901970Y-41675347D01*
X66927900Y-41626835D01*
X66962804Y-41584304D01*
X67005335Y-41549400D01*
X67053847Y-41523470D01*
X67106503Y-41507497D01*
X67167390Y-41501500D01*
X68392610Y-41501500D01*
X68453497Y-41507497D01*
X68453497Y-41507497D01*
G37*
M02*
