G04 #@! TF.GenerationSoftware,KiCad,Pcbnew,5.0.2+dfsg1-1*
G04 #@! TF.CreationDate,2019-02-22T20:57:12+02:00*
G04 #@! TF.ProjectId,e3634a_oled,65333633-3461-45f6-9f6c-65642e6b6963,A*
G04 #@! TF.SameCoordinates,Original*
G04 #@! TF.FileFunction,Soldermask,Bot*
G04 #@! TF.FilePolarity,Negative*
%FSLAX46Y46*%
G04 Gerber Fmt 4.6, Leading zero omitted, Abs format (unit mm)*
G04 Created by KiCad (PCBNEW 5.0.2+dfsg1-1) date Fri 22 Feb 2019 08:57:12 PM EET*
%MOMM*%
%LPD*%
G01*
G04 APERTURE LIST*
%ADD10C,0.100000*%
G04 APERTURE END LIST*
D10*
G36*
X77909122Y-69246115D02*
X78025041Y-69269173D01*
X78352620Y-69404861D01*
X78390243Y-69430000D01*
X78647436Y-69601851D01*
X78898149Y-69852564D01*
X78898151Y-69852567D01*
X79095139Y-70147380D01*
X79230827Y-70474959D01*
X79300000Y-70822716D01*
X79300000Y-71177284D01*
X79232863Y-71514807D01*
X79230827Y-71525040D01*
X79095140Y-71852618D01*
X78898149Y-72147436D01*
X78647436Y-72398149D01*
X78647433Y-72398151D01*
X78352620Y-72595139D01*
X78025041Y-72730827D01*
X77909122Y-72753885D01*
X77677286Y-72800000D01*
X77322714Y-72800000D01*
X77090878Y-72753885D01*
X76974959Y-72730827D01*
X76647380Y-72595139D01*
X76352567Y-72398151D01*
X76352564Y-72398149D01*
X76101851Y-72147436D01*
X75904860Y-71852618D01*
X75769173Y-71525040D01*
X75767138Y-71514807D01*
X75700000Y-71177284D01*
X75700000Y-70822716D01*
X75769173Y-70474959D01*
X75904861Y-70147380D01*
X76101849Y-69852567D01*
X76101851Y-69852564D01*
X76352564Y-69601851D01*
X76609757Y-69430000D01*
X76647380Y-69404861D01*
X76974959Y-69269173D01*
X77090878Y-69246115D01*
X77322714Y-69200000D01*
X77677286Y-69200000D01*
X77909122Y-69246115D01*
X77909122Y-69246115D01*
G37*
G36*
X70829707Y-69437597D02*
X70906836Y-69445193D01*
X71038787Y-69485220D01*
X71104763Y-69505233D01*
X71287172Y-69602733D01*
X71447054Y-69733946D01*
X71578267Y-69893828D01*
X71675767Y-70076237D01*
X71675767Y-70076238D01*
X71735807Y-70274164D01*
X71756080Y-70480000D01*
X71735807Y-70685836D01*
X71695780Y-70817787D01*
X71675767Y-70883763D01*
X71578267Y-71066172D01*
X71447054Y-71226054D01*
X71287172Y-71357267D01*
X71104763Y-71454767D01*
X71038787Y-71474780D01*
X70906836Y-71514807D01*
X70829707Y-71522404D01*
X70752580Y-71530000D01*
X70649420Y-71530000D01*
X70572293Y-71522404D01*
X70495164Y-71514807D01*
X70363213Y-71474780D01*
X70297237Y-71454767D01*
X70114828Y-71357267D01*
X69954946Y-71226054D01*
X69823733Y-71066172D01*
X69726233Y-70883763D01*
X69706220Y-70817787D01*
X69666193Y-70685836D01*
X69645920Y-70480000D01*
X69666193Y-70274164D01*
X69726233Y-70076238D01*
X69726233Y-70076237D01*
X69823733Y-69893828D01*
X69954946Y-69733946D01*
X70114828Y-69602733D01*
X70297237Y-69505233D01*
X70363213Y-69485220D01*
X70495164Y-69445193D01*
X70572293Y-69437597D01*
X70649420Y-69430000D01*
X70752580Y-69430000D01*
X70829707Y-69437597D01*
X70829707Y-69437597D01*
G37*
G36*
X61591000Y-71530000D02*
X59491000Y-71530000D01*
X59491000Y-69430000D01*
X61591000Y-69430000D01*
X61591000Y-71530000D01*
X61591000Y-71530000D01*
G37*
G36*
X63209707Y-69437597D02*
X63286836Y-69445193D01*
X63418787Y-69485220D01*
X63484763Y-69505233D01*
X63667172Y-69602733D01*
X63827054Y-69733946D01*
X63958267Y-69893828D01*
X64055767Y-70076237D01*
X64055767Y-70076238D01*
X64115807Y-70274164D01*
X64136080Y-70480000D01*
X64115807Y-70685836D01*
X64075780Y-70817787D01*
X64055767Y-70883763D01*
X63958267Y-71066172D01*
X63827054Y-71226054D01*
X63667172Y-71357267D01*
X63484763Y-71454767D01*
X63418787Y-71474780D01*
X63286836Y-71514807D01*
X63209707Y-71522404D01*
X63132580Y-71530000D01*
X63029420Y-71530000D01*
X62952293Y-71522404D01*
X62875164Y-71514807D01*
X62743213Y-71474780D01*
X62677237Y-71454767D01*
X62494828Y-71357267D01*
X62334946Y-71226054D01*
X62203733Y-71066172D01*
X62106233Y-70883763D01*
X62086220Y-70817787D01*
X62046193Y-70685836D01*
X62025920Y-70480000D01*
X62046193Y-70274164D01*
X62106233Y-70076238D01*
X62106233Y-70076237D01*
X62203733Y-69893828D01*
X62334946Y-69733946D01*
X62494828Y-69602733D01*
X62677237Y-69505233D01*
X62743213Y-69485220D01*
X62875164Y-69445193D01*
X62952293Y-69437597D01*
X63029420Y-69430000D01*
X63132580Y-69430000D01*
X63209707Y-69437597D01*
X63209707Y-69437597D01*
G37*
G36*
X68289707Y-69437597D02*
X68366836Y-69445193D01*
X68498787Y-69485220D01*
X68564763Y-69505233D01*
X68747172Y-69602733D01*
X68907054Y-69733946D01*
X69038267Y-69893828D01*
X69135767Y-70076237D01*
X69135767Y-70076238D01*
X69195807Y-70274164D01*
X69216080Y-70480000D01*
X69195807Y-70685836D01*
X69155780Y-70817787D01*
X69135767Y-70883763D01*
X69038267Y-71066172D01*
X68907054Y-71226054D01*
X68747172Y-71357267D01*
X68564763Y-71454767D01*
X68498787Y-71474780D01*
X68366836Y-71514807D01*
X68289707Y-71522404D01*
X68212580Y-71530000D01*
X68109420Y-71530000D01*
X68032293Y-71522404D01*
X67955164Y-71514807D01*
X67823213Y-71474780D01*
X67757237Y-71454767D01*
X67574828Y-71357267D01*
X67414946Y-71226054D01*
X67283733Y-71066172D01*
X67186233Y-70883763D01*
X67166220Y-70817787D01*
X67126193Y-70685836D01*
X67105920Y-70480000D01*
X67126193Y-70274164D01*
X67186233Y-70076238D01*
X67186233Y-70076237D01*
X67283733Y-69893828D01*
X67414946Y-69733946D01*
X67574828Y-69602733D01*
X67757237Y-69505233D01*
X67823213Y-69485220D01*
X67955164Y-69445193D01*
X68032293Y-69437597D01*
X68109420Y-69430000D01*
X68212580Y-69430000D01*
X68289707Y-69437597D01*
X68289707Y-69437597D01*
G37*
G36*
X65749707Y-69437597D02*
X65826836Y-69445193D01*
X65958787Y-69485220D01*
X66024763Y-69505233D01*
X66207172Y-69602733D01*
X66367054Y-69733946D01*
X66498267Y-69893828D01*
X66595767Y-70076237D01*
X66595767Y-70076238D01*
X66655807Y-70274164D01*
X66676080Y-70480000D01*
X66655807Y-70685836D01*
X66615780Y-70817787D01*
X66595767Y-70883763D01*
X66498267Y-71066172D01*
X66367054Y-71226054D01*
X66207172Y-71357267D01*
X66024763Y-71454767D01*
X65958787Y-71474780D01*
X65826836Y-71514807D01*
X65749707Y-71522404D01*
X65672580Y-71530000D01*
X65569420Y-71530000D01*
X65492293Y-71522404D01*
X65415164Y-71514807D01*
X65283213Y-71474780D01*
X65217237Y-71454767D01*
X65034828Y-71357267D01*
X64874946Y-71226054D01*
X64743733Y-71066172D01*
X64646233Y-70883763D01*
X64626220Y-70817787D01*
X64586193Y-70685836D01*
X64565920Y-70480000D01*
X64586193Y-70274164D01*
X64646233Y-70076238D01*
X64646233Y-70076237D01*
X64743733Y-69893828D01*
X64874946Y-69733946D01*
X65034828Y-69602733D01*
X65217237Y-69505233D01*
X65283213Y-69485220D01*
X65415164Y-69445193D01*
X65492293Y-69437597D01*
X65569420Y-69430000D01*
X65672580Y-69430000D01*
X65749707Y-69437597D01*
X65749707Y-69437597D01*
G37*
G36*
X70150000Y-67500000D02*
X66850000Y-67500000D01*
X66850000Y-66300000D01*
X70150000Y-66300000D01*
X70150000Y-67500000D01*
X70150000Y-67500000D01*
G37*
G36*
X62208707Y-64957596D02*
X62285836Y-64965193D01*
X62417787Y-65005220D01*
X62483763Y-65025233D01*
X62666172Y-65122733D01*
X62826054Y-65253946D01*
X62957267Y-65413828D01*
X63054767Y-65596237D01*
X63054767Y-65596238D01*
X63114807Y-65794164D01*
X63135080Y-66000000D01*
X63114807Y-66205836D01*
X63104391Y-66240172D01*
X63054767Y-66403763D01*
X62957267Y-66586172D01*
X62826054Y-66746054D01*
X62666172Y-66877267D01*
X62483763Y-66974767D01*
X62417787Y-66994780D01*
X62285836Y-67034807D01*
X62208707Y-67042404D01*
X62131580Y-67050000D01*
X62028420Y-67050000D01*
X61951293Y-67042404D01*
X61874164Y-67034807D01*
X61742213Y-66994780D01*
X61676237Y-66974767D01*
X61493828Y-66877267D01*
X61333946Y-66746054D01*
X61202733Y-66586172D01*
X61105233Y-66403763D01*
X61055609Y-66240172D01*
X61045193Y-66205836D01*
X61024920Y-66000000D01*
X61045193Y-65794164D01*
X61105233Y-65596238D01*
X61105233Y-65596237D01*
X61202733Y-65413828D01*
X61333946Y-65253946D01*
X61493828Y-65122733D01*
X61676237Y-65025233D01*
X61742213Y-65005220D01*
X61874164Y-64965193D01*
X61951293Y-64957596D01*
X62028420Y-64950000D01*
X62131580Y-64950000D01*
X62208707Y-64957596D01*
X62208707Y-64957596D01*
G37*
G36*
X59668707Y-64957596D02*
X59745836Y-64965193D01*
X59877787Y-65005220D01*
X59943763Y-65025233D01*
X60126172Y-65122733D01*
X60286054Y-65253946D01*
X60417267Y-65413828D01*
X60514767Y-65596237D01*
X60514767Y-65596238D01*
X60574807Y-65794164D01*
X60595080Y-66000000D01*
X60574807Y-66205836D01*
X60564391Y-66240172D01*
X60514767Y-66403763D01*
X60417267Y-66586172D01*
X60286054Y-66746054D01*
X60126172Y-66877267D01*
X59943763Y-66974767D01*
X59877787Y-66994780D01*
X59745836Y-67034807D01*
X59668707Y-67042404D01*
X59591580Y-67050000D01*
X59488420Y-67050000D01*
X59411293Y-67042404D01*
X59334164Y-67034807D01*
X59202213Y-66994780D01*
X59136237Y-66974767D01*
X58953828Y-66877267D01*
X58793946Y-66746054D01*
X58662733Y-66586172D01*
X58565233Y-66403763D01*
X58515609Y-66240172D01*
X58505193Y-66205836D01*
X58484920Y-66000000D01*
X58505193Y-65794164D01*
X58565233Y-65596238D01*
X58565233Y-65596237D01*
X58662733Y-65413828D01*
X58793946Y-65253946D01*
X58953828Y-65122733D01*
X59136237Y-65025233D01*
X59202213Y-65005220D01*
X59334164Y-64965193D01*
X59411293Y-64957596D01*
X59488420Y-64950000D01*
X59591580Y-64950000D01*
X59668707Y-64957596D01*
X59668707Y-64957596D01*
G37*
G36*
X58050000Y-67050000D02*
X55950000Y-67050000D01*
X55950000Y-64950000D01*
X58050000Y-64950000D01*
X58050000Y-67050000D01*
X58050000Y-67050000D01*
G37*
G36*
X64748707Y-64957596D02*
X64825836Y-64965193D01*
X64957787Y-65005220D01*
X65023763Y-65025233D01*
X65206172Y-65122733D01*
X65366054Y-65253946D01*
X65497267Y-65413828D01*
X65594767Y-65596237D01*
X65594767Y-65596238D01*
X65654807Y-65794164D01*
X65675080Y-66000000D01*
X65654807Y-66205836D01*
X65644391Y-66240172D01*
X65594767Y-66403763D01*
X65497267Y-66586172D01*
X65366054Y-66746054D01*
X65206172Y-66877267D01*
X65023763Y-66974767D01*
X64957787Y-66994780D01*
X64825836Y-67034807D01*
X64748707Y-67042404D01*
X64671580Y-67050000D01*
X64568420Y-67050000D01*
X64491293Y-67042404D01*
X64414164Y-67034807D01*
X64282213Y-66994780D01*
X64216237Y-66974767D01*
X64033828Y-66877267D01*
X63873946Y-66746054D01*
X63742733Y-66586172D01*
X63645233Y-66403763D01*
X63595609Y-66240172D01*
X63585193Y-66205836D01*
X63564920Y-66000000D01*
X63585193Y-65794164D01*
X63645233Y-65596238D01*
X63645233Y-65596237D01*
X63742733Y-65413828D01*
X63873946Y-65253946D01*
X64033828Y-65122733D01*
X64216237Y-65025233D01*
X64282213Y-65005220D01*
X64414164Y-64965193D01*
X64491293Y-64957596D01*
X64568420Y-64950000D01*
X64671580Y-64950000D01*
X64748707Y-64957596D01*
X64748707Y-64957596D01*
G37*
G36*
X75528707Y-64611596D02*
X75605836Y-64619193D01*
X75737787Y-64659220D01*
X75803763Y-64679233D01*
X75986172Y-64776733D01*
X76146054Y-64907946D01*
X76277267Y-65067828D01*
X76374767Y-65250237D01*
X76374767Y-65250238D01*
X76434807Y-65448164D01*
X76455080Y-65654000D01*
X76434807Y-65859836D01*
X76394780Y-65991787D01*
X76374767Y-66057763D01*
X76277267Y-66240172D01*
X76146054Y-66400054D01*
X75986172Y-66531267D01*
X75803763Y-66628767D01*
X75737787Y-66648780D01*
X75605836Y-66688807D01*
X75528707Y-66696404D01*
X75451580Y-66704000D01*
X75348420Y-66704000D01*
X75271293Y-66696404D01*
X75194164Y-66688807D01*
X75062213Y-66648780D01*
X74996237Y-66628767D01*
X74813828Y-66531267D01*
X74653946Y-66400054D01*
X74522733Y-66240172D01*
X74425233Y-66057763D01*
X74405220Y-65991787D01*
X74365193Y-65859836D01*
X74344920Y-65654000D01*
X74365193Y-65448164D01*
X74425233Y-65250238D01*
X74425233Y-65250237D01*
X74522733Y-65067828D01*
X74653946Y-64907946D01*
X74813828Y-64776733D01*
X74996237Y-64679233D01*
X75062213Y-64659220D01*
X75194164Y-64619193D01*
X75271293Y-64611596D01*
X75348420Y-64604000D01*
X75451580Y-64604000D01*
X75528707Y-64611596D01*
X75528707Y-64611596D01*
G37*
G36*
X78990000Y-66704000D02*
X76890000Y-66704000D01*
X76890000Y-64604000D01*
X78990000Y-64604000D01*
X78990000Y-66704000D01*
X78990000Y-66704000D01*
G37*
G36*
X70150000Y-65700000D02*
X66850000Y-65700000D01*
X66850000Y-64500000D01*
X70150000Y-64500000D01*
X70150000Y-65700000D01*
X70150000Y-65700000D01*
G37*
G36*
X78068707Y-62071596D02*
X78145836Y-62079193D01*
X78277787Y-62119220D01*
X78343763Y-62139233D01*
X78526172Y-62236733D01*
X78686054Y-62367946D01*
X78817267Y-62527828D01*
X78914767Y-62710237D01*
X78933350Y-62771497D01*
X78974807Y-62908164D01*
X78995080Y-63114000D01*
X78974807Y-63319836D01*
X78934780Y-63451787D01*
X78914767Y-63517763D01*
X78817267Y-63700172D01*
X78686054Y-63860054D01*
X78526172Y-63991267D01*
X78343763Y-64088767D01*
X78277787Y-64108780D01*
X78145836Y-64148807D01*
X78068707Y-64156404D01*
X77991580Y-64164000D01*
X77888420Y-64164000D01*
X77811293Y-64156404D01*
X77734164Y-64148807D01*
X77602213Y-64108780D01*
X77536237Y-64088767D01*
X77353828Y-63991267D01*
X77193946Y-63860054D01*
X77062733Y-63700172D01*
X76965233Y-63517763D01*
X76945220Y-63451787D01*
X76905193Y-63319836D01*
X76884920Y-63114000D01*
X76905193Y-62908164D01*
X76946650Y-62771497D01*
X76965233Y-62710237D01*
X77062733Y-62527828D01*
X77193946Y-62367946D01*
X77353828Y-62236733D01*
X77536237Y-62139233D01*
X77602213Y-62119220D01*
X77734164Y-62079193D01*
X77811293Y-62071596D01*
X77888420Y-62064000D01*
X77991580Y-62064000D01*
X78068707Y-62071596D01*
X78068707Y-62071596D01*
G37*
G36*
X75528707Y-62071596D02*
X75605836Y-62079193D01*
X75737787Y-62119220D01*
X75803763Y-62139233D01*
X75986172Y-62236733D01*
X76146054Y-62367946D01*
X76277267Y-62527828D01*
X76374767Y-62710237D01*
X76393350Y-62771497D01*
X76434807Y-62908164D01*
X76455080Y-63114000D01*
X76434807Y-63319836D01*
X76394780Y-63451787D01*
X76374767Y-63517763D01*
X76277267Y-63700172D01*
X76146054Y-63860054D01*
X75986172Y-63991267D01*
X75803763Y-64088767D01*
X75737787Y-64108780D01*
X75605836Y-64148807D01*
X75528707Y-64156404D01*
X75451580Y-64164000D01*
X75348420Y-64164000D01*
X75271293Y-64156404D01*
X75194164Y-64148807D01*
X75062213Y-64108780D01*
X74996237Y-64088767D01*
X74813828Y-63991267D01*
X74653946Y-63860054D01*
X74522733Y-63700172D01*
X74425233Y-63517763D01*
X74405220Y-63451787D01*
X74365193Y-63319836D01*
X74344920Y-63114000D01*
X74365193Y-62908164D01*
X74406650Y-62771497D01*
X74425233Y-62710237D01*
X74522733Y-62527828D01*
X74653946Y-62367946D01*
X74813828Y-62236733D01*
X74996237Y-62139233D01*
X75062213Y-62119220D01*
X75194164Y-62079193D01*
X75271293Y-62071596D01*
X75348420Y-62064000D01*
X75451580Y-62064000D01*
X75528707Y-62071596D01*
X75528707Y-62071596D01*
G37*
G36*
X57064997Y-57139997D02*
X57117653Y-57155970D01*
X57166165Y-57181900D01*
X57208696Y-57216804D01*
X57243600Y-57259335D01*
X57269530Y-57307847D01*
X57285503Y-57360503D01*
X57291500Y-57421390D01*
X57291500Y-58646610D01*
X57285503Y-58707497D01*
X57269530Y-58760153D01*
X57243600Y-58808665D01*
X57208696Y-58851196D01*
X57166165Y-58886100D01*
X57117652Y-58912031D01*
X57057156Y-58930382D01*
X57034517Y-58939760D01*
X57014142Y-58953374D01*
X56996815Y-58970701D01*
X56983201Y-58991075D01*
X56973823Y-59013714D01*
X56969043Y-59037748D01*
X56969043Y-59062252D01*
X56973823Y-59086285D01*
X56983201Y-59108924D01*
X56996815Y-59129299D01*
X57014142Y-59146626D01*
X57034516Y-59160240D01*
X57057156Y-59169618D01*
X57117652Y-59187969D01*
X57166165Y-59213900D01*
X57208696Y-59248804D01*
X57243600Y-59291335D01*
X57269530Y-59339847D01*
X57285503Y-59392503D01*
X57291500Y-59453390D01*
X57291500Y-60678610D01*
X57285503Y-60739497D01*
X57269530Y-60792153D01*
X57243600Y-60840665D01*
X57208696Y-60883196D01*
X57166165Y-60918100D01*
X57117652Y-60944031D01*
X57057156Y-60962382D01*
X57034517Y-60971760D01*
X57014142Y-60985374D01*
X56996815Y-61002701D01*
X56983201Y-61023075D01*
X56973823Y-61045714D01*
X56969043Y-61069748D01*
X56969043Y-61094252D01*
X56973823Y-61118285D01*
X56983201Y-61140924D01*
X56996815Y-61161299D01*
X57014142Y-61178626D01*
X57034516Y-61192240D01*
X57057156Y-61201618D01*
X57117652Y-61219969D01*
X57166165Y-61245900D01*
X57208696Y-61280804D01*
X57243600Y-61323335D01*
X57269530Y-61371847D01*
X57285503Y-61424503D01*
X57291500Y-61485390D01*
X57291500Y-62710610D01*
X57285503Y-62771497D01*
X57269530Y-62824153D01*
X57243600Y-62872665D01*
X57208696Y-62915196D01*
X57166165Y-62950100D01*
X57117653Y-62976030D01*
X57064997Y-62992003D01*
X57004110Y-62998000D01*
X56203890Y-62998000D01*
X56143003Y-62992003D01*
X56090347Y-62976030D01*
X56041835Y-62950100D01*
X55999304Y-62915196D01*
X55964400Y-62872665D01*
X55938470Y-62824153D01*
X55922497Y-62771497D01*
X55916500Y-62710610D01*
X55916500Y-61485390D01*
X55922497Y-61424503D01*
X55938470Y-61371847D01*
X55964400Y-61323335D01*
X55999304Y-61280804D01*
X56041835Y-61245900D01*
X56090348Y-61219969D01*
X56150844Y-61201618D01*
X56173483Y-61192240D01*
X56193858Y-61178626D01*
X56211185Y-61161299D01*
X56224799Y-61140925D01*
X56234177Y-61118286D01*
X56238957Y-61094252D01*
X56238957Y-61069748D01*
X56234177Y-61045715D01*
X56224799Y-61023076D01*
X56211185Y-61002701D01*
X56193858Y-60985374D01*
X56173484Y-60971760D01*
X56150844Y-60962382D01*
X56090348Y-60944031D01*
X56041835Y-60918100D01*
X55999304Y-60883196D01*
X55964400Y-60840665D01*
X55938470Y-60792153D01*
X55922497Y-60739497D01*
X55916500Y-60678610D01*
X55916500Y-59453390D01*
X55922497Y-59392503D01*
X55938470Y-59339847D01*
X55964400Y-59291335D01*
X55999304Y-59248804D01*
X56041835Y-59213900D01*
X56090348Y-59187969D01*
X56150844Y-59169618D01*
X56173483Y-59160240D01*
X56193858Y-59146626D01*
X56211185Y-59129299D01*
X56224799Y-59108925D01*
X56234177Y-59086286D01*
X56238957Y-59062252D01*
X56238957Y-59037748D01*
X56234177Y-59013715D01*
X56224799Y-58991076D01*
X56211185Y-58970701D01*
X56193858Y-58953374D01*
X56173484Y-58939760D01*
X56150844Y-58930382D01*
X56090348Y-58912031D01*
X56041835Y-58886100D01*
X55999304Y-58851196D01*
X55964400Y-58808665D01*
X55938470Y-58760153D01*
X55922497Y-58707497D01*
X55916500Y-58646610D01*
X55916500Y-57421390D01*
X55922497Y-57360503D01*
X55938470Y-57307847D01*
X55964400Y-57259335D01*
X55999304Y-57216804D01*
X56041835Y-57181900D01*
X56090347Y-57155970D01*
X56143003Y-57139997D01*
X56203890Y-57134000D01*
X57004110Y-57134000D01*
X57064997Y-57139997D01*
X57064997Y-57139997D01*
G37*
G36*
X55189997Y-57139997D02*
X55242653Y-57155970D01*
X55291165Y-57181900D01*
X55333696Y-57216804D01*
X55368600Y-57259335D01*
X55394530Y-57307847D01*
X55410503Y-57360503D01*
X55416500Y-57421390D01*
X55416500Y-58646610D01*
X55410503Y-58707497D01*
X55394530Y-58760153D01*
X55368600Y-58808665D01*
X55333696Y-58851196D01*
X55291165Y-58886100D01*
X55242652Y-58912031D01*
X55182155Y-58930382D01*
X55159516Y-58939760D01*
X55139141Y-58953373D01*
X55121814Y-58970700D01*
X55108200Y-58991075D01*
X55098823Y-59013714D01*
X55094042Y-59037747D01*
X55094042Y-59062252D01*
X55098822Y-59086285D01*
X55108200Y-59108924D01*
X55121813Y-59129299D01*
X55139140Y-59146626D01*
X55159515Y-59160240D01*
X55182154Y-59169617D01*
X55242646Y-59187967D01*
X55291163Y-59213900D01*
X55333694Y-59248804D01*
X55368598Y-59291335D01*
X55394528Y-59339847D01*
X55410501Y-59392503D01*
X55416498Y-59453390D01*
X55416498Y-60678610D01*
X55410501Y-60739497D01*
X55394528Y-60792153D01*
X55368598Y-60840665D01*
X55333694Y-60883196D01*
X55291163Y-60918100D01*
X55242646Y-60944033D01*
X55182154Y-60962383D01*
X55159515Y-60971760D01*
X55139141Y-60985374D01*
X55121813Y-61002701D01*
X55108200Y-61023076D01*
X55098822Y-61045715D01*
X55094042Y-61069748D01*
X55094042Y-61094252D01*
X55098823Y-61118286D01*
X55108200Y-61140925D01*
X55121814Y-61161299D01*
X55139141Y-61178627D01*
X55159516Y-61192240D01*
X55182155Y-61201618D01*
X55242652Y-61219969D01*
X55291165Y-61245900D01*
X55333696Y-61280804D01*
X55368600Y-61323335D01*
X55394530Y-61371847D01*
X55410503Y-61424503D01*
X55416500Y-61485390D01*
X55416500Y-62710610D01*
X55410503Y-62771497D01*
X55394530Y-62824153D01*
X55368600Y-62872665D01*
X55333696Y-62915196D01*
X55291165Y-62950100D01*
X55242653Y-62976030D01*
X55189997Y-62992003D01*
X55129110Y-62998000D01*
X54328890Y-62998000D01*
X54268003Y-62992003D01*
X54215347Y-62976030D01*
X54166835Y-62950100D01*
X54124304Y-62915196D01*
X54089400Y-62872665D01*
X54063470Y-62824153D01*
X54047497Y-62771497D01*
X54041500Y-62710610D01*
X54041500Y-61485390D01*
X54047497Y-61424503D01*
X54063470Y-61371847D01*
X54089400Y-61323335D01*
X54124304Y-61280804D01*
X54166835Y-61245900D01*
X54215352Y-61219967D01*
X54275844Y-61201617D01*
X54298483Y-61192240D01*
X54318857Y-61178626D01*
X54336185Y-61161299D01*
X54349798Y-61140924D01*
X54359176Y-61118285D01*
X54363956Y-61094252D01*
X54363956Y-61069748D01*
X54359175Y-61045714D01*
X54349798Y-61023075D01*
X54336184Y-61002701D01*
X54318857Y-60985373D01*
X54298482Y-60971760D01*
X54275843Y-60962382D01*
X54215346Y-60944031D01*
X54166833Y-60918100D01*
X54124302Y-60883196D01*
X54089398Y-60840665D01*
X54063468Y-60792153D01*
X54047495Y-60739497D01*
X54041498Y-60678610D01*
X54041498Y-59453390D01*
X54047495Y-59392503D01*
X54063468Y-59339847D01*
X54089398Y-59291335D01*
X54124302Y-59248804D01*
X54166833Y-59213900D01*
X54215346Y-59187969D01*
X54275843Y-59169618D01*
X54298482Y-59160240D01*
X54318857Y-59146627D01*
X54336184Y-59129300D01*
X54349798Y-59108925D01*
X54359175Y-59086286D01*
X54363956Y-59062253D01*
X54363956Y-59037748D01*
X54359176Y-59013715D01*
X54349798Y-58991076D01*
X54336185Y-58970701D01*
X54318858Y-58953374D01*
X54298483Y-58939760D01*
X54275844Y-58930383D01*
X54215352Y-58912033D01*
X54166835Y-58886100D01*
X54124304Y-58851196D01*
X54089400Y-58808665D01*
X54063470Y-58760153D01*
X54047497Y-58707497D01*
X54041500Y-58646610D01*
X54041500Y-57421390D01*
X54047497Y-57360503D01*
X54063470Y-57307847D01*
X54089400Y-57259335D01*
X54124304Y-57216804D01*
X54166835Y-57181900D01*
X54215347Y-57155970D01*
X54268003Y-57139997D01*
X54328890Y-57134000D01*
X55129110Y-57134000D01*
X55189997Y-57139997D01*
X55189997Y-57139997D01*
G37*
G36*
X78068707Y-59531596D02*
X78145836Y-59539193D01*
X78277787Y-59579220D01*
X78343763Y-59599233D01*
X78526172Y-59696733D01*
X78686054Y-59827946D01*
X78817267Y-59987828D01*
X78914767Y-60170237D01*
X78914767Y-60170238D01*
X78974807Y-60368164D01*
X78995080Y-60574000D01*
X78974807Y-60779836D01*
X78948876Y-60865318D01*
X78914767Y-60977763D01*
X78817267Y-61160172D01*
X78686054Y-61320054D01*
X78526172Y-61451267D01*
X78343763Y-61548767D01*
X78277787Y-61568780D01*
X78145836Y-61608807D01*
X78068707Y-61616404D01*
X77991580Y-61624000D01*
X77888420Y-61624000D01*
X77811293Y-61616404D01*
X77734164Y-61608807D01*
X77602213Y-61568780D01*
X77536237Y-61548767D01*
X77353828Y-61451267D01*
X77193946Y-61320054D01*
X77062733Y-61160172D01*
X76965233Y-60977763D01*
X76931124Y-60865318D01*
X76905193Y-60779836D01*
X76884920Y-60574000D01*
X76905193Y-60368164D01*
X76965233Y-60170238D01*
X76965233Y-60170237D01*
X77062733Y-59987828D01*
X77193946Y-59827946D01*
X77353828Y-59696733D01*
X77536237Y-59599233D01*
X77602213Y-59579220D01*
X77734164Y-59539193D01*
X77811293Y-59531596D01*
X77888420Y-59524000D01*
X77991580Y-59524000D01*
X78068707Y-59531596D01*
X78068707Y-59531596D01*
G37*
G36*
X75528707Y-59531596D02*
X75605836Y-59539193D01*
X75737787Y-59579220D01*
X75803763Y-59599233D01*
X75986172Y-59696733D01*
X76146054Y-59827946D01*
X76277267Y-59987828D01*
X76374767Y-60170237D01*
X76374767Y-60170238D01*
X76434807Y-60368164D01*
X76455080Y-60574000D01*
X76434807Y-60779836D01*
X76408876Y-60865318D01*
X76374767Y-60977763D01*
X76277267Y-61160172D01*
X76146054Y-61320054D01*
X75986172Y-61451267D01*
X75803763Y-61548767D01*
X75737787Y-61568780D01*
X75605836Y-61608807D01*
X75528707Y-61616404D01*
X75451580Y-61624000D01*
X75348420Y-61624000D01*
X75271293Y-61616404D01*
X75194164Y-61608807D01*
X75062213Y-61568780D01*
X74996237Y-61548767D01*
X74813828Y-61451267D01*
X74653946Y-61320054D01*
X74522733Y-61160172D01*
X74425233Y-60977763D01*
X74391124Y-60865318D01*
X74365193Y-60779836D01*
X74344920Y-60574000D01*
X74365193Y-60368164D01*
X74425233Y-60170238D01*
X74425233Y-60170237D01*
X74522733Y-59987828D01*
X74653946Y-59827946D01*
X74813828Y-59696733D01*
X74996237Y-59599233D01*
X75062213Y-59579220D01*
X75194164Y-59539193D01*
X75271293Y-59531596D01*
X75348420Y-59524000D01*
X75451580Y-59524000D01*
X75528707Y-59531596D01*
X75528707Y-59531596D01*
G37*
G36*
X71851309Y-57002602D02*
X67502602Y-61351309D01*
X66300520Y-60149227D01*
X70649227Y-55800520D01*
X71851309Y-57002602D01*
X71851309Y-57002602D01*
G37*
G36*
X65699480Y-50850773D02*
X61350773Y-55199480D01*
X60275695Y-54124402D01*
X60256753Y-54108856D01*
X60235142Y-54097305D01*
X60211693Y-54090192D01*
X60187307Y-54087790D01*
X60162921Y-54090192D01*
X60139472Y-54097305D01*
X60117861Y-54108856D01*
X60098919Y-54124402D01*
X60083373Y-54143344D01*
X60071822Y-54164955D01*
X60064709Y-54188404D01*
X60062307Y-54212790D01*
X60064709Y-54237176D01*
X60094000Y-54384433D01*
X60094000Y-54571567D01*
X60057492Y-54755105D01*
X59985879Y-54927994D01*
X59881913Y-55083590D01*
X59749590Y-55215913D01*
X59593994Y-55319879D01*
X59452424Y-55378519D01*
X59430822Y-55390066D01*
X59411880Y-55405612D01*
X59396334Y-55424554D01*
X59384783Y-55446165D01*
X59377670Y-55469614D01*
X59375268Y-55494000D01*
X59377670Y-55518386D01*
X59384783Y-55541836D01*
X59396334Y-55563446D01*
X59411880Y-55582388D01*
X59430822Y-55597934D01*
X59452424Y-55609481D01*
X59593994Y-55668121D01*
X59749590Y-55772087D01*
X59881913Y-55904410D01*
X59985879Y-56060006D01*
X60057492Y-56232895D01*
X60062911Y-56260140D01*
X60094000Y-56416432D01*
X60094000Y-56603568D01*
X60061729Y-56765804D01*
X60059327Y-56790190D01*
X60061729Y-56814576D01*
X60068842Y-56838025D01*
X60080393Y-56859636D01*
X60095939Y-56878578D01*
X60114881Y-56894124D01*
X60136491Y-56905675D01*
X60159941Y-56912788D01*
X60184327Y-56915190D01*
X60208713Y-56912788D01*
X60232162Y-56905675D01*
X60253773Y-56894124D01*
X60272715Y-56878578D01*
X61350773Y-55800520D01*
X65699480Y-60149227D01*
X64497398Y-61351309D01*
X60141727Y-56995638D01*
X60122785Y-56980092D01*
X60101174Y-56968541D01*
X60077725Y-56961428D01*
X60053339Y-56959026D01*
X60028953Y-56961428D01*
X60005504Y-56968541D01*
X59983893Y-56980092D01*
X59964951Y-56995638D01*
X59949409Y-57014575D01*
X59881913Y-57115590D01*
X59749590Y-57247913D01*
X59593994Y-57351879D01*
X59421105Y-57423492D01*
X59283452Y-57450873D01*
X59237568Y-57460000D01*
X59050432Y-57460000D01*
X59004548Y-57450873D01*
X58866895Y-57423492D01*
X58694006Y-57351879D01*
X58538410Y-57247913D01*
X58406087Y-57115590D01*
X58302121Y-56959994D01*
X58230508Y-56787105D01*
X58194000Y-56603567D01*
X58194000Y-56416433D01*
X58230508Y-56232895D01*
X58302121Y-56060006D01*
X58406087Y-55904410D01*
X58538410Y-55772087D01*
X58694006Y-55668121D01*
X58835576Y-55609481D01*
X58857178Y-55597934D01*
X58876120Y-55582388D01*
X58891666Y-55563446D01*
X58903217Y-55541835D01*
X58910330Y-55518386D01*
X58912732Y-55494000D01*
X58910330Y-55469614D01*
X58903217Y-55446164D01*
X58891666Y-55424554D01*
X58876120Y-55405612D01*
X58857178Y-55390066D01*
X58835576Y-55378519D01*
X58694006Y-55319879D01*
X58538410Y-55215913D01*
X58406087Y-55083590D01*
X58302121Y-54927994D01*
X58230508Y-54755105D01*
X58194000Y-54571567D01*
X58194000Y-54384433D01*
X58230508Y-54200895D01*
X58302121Y-54028006D01*
X58406087Y-53872410D01*
X58538410Y-53740087D01*
X58694006Y-53636121D01*
X58866895Y-53564508D01*
X59004549Y-53537127D01*
X59050432Y-53528000D01*
X59237568Y-53528000D01*
X59283451Y-53537127D01*
X59421105Y-53564508D01*
X59593994Y-53636121D01*
X59749590Y-53740087D01*
X59881913Y-53872410D01*
X59954220Y-53980625D01*
X59969756Y-53999556D01*
X59988698Y-54015101D01*
X60010309Y-54026653D01*
X60033758Y-54033766D01*
X60058144Y-54036168D01*
X60082531Y-54033766D01*
X60105980Y-54026653D01*
X60127591Y-54015102D01*
X60146533Y-53999556D01*
X64497398Y-49648691D01*
X65699480Y-50850773D01*
X65699480Y-50850773D01*
G37*
G36*
X75528707Y-56991597D02*
X75605836Y-56999193D01*
X75737787Y-57039220D01*
X75803763Y-57059233D01*
X75986172Y-57156733D01*
X76146054Y-57287946D01*
X76277267Y-57447828D01*
X76374767Y-57630237D01*
X76374767Y-57630238D01*
X76434807Y-57828164D01*
X76455080Y-58034000D01*
X76434807Y-58239836D01*
X76424020Y-58275395D01*
X76374767Y-58437763D01*
X76277267Y-58620172D01*
X76146054Y-58780054D01*
X75986172Y-58911267D01*
X75803763Y-59008767D01*
X75787451Y-59013715D01*
X75605836Y-59068807D01*
X75528707Y-59076403D01*
X75451580Y-59084000D01*
X75348420Y-59084000D01*
X75271293Y-59076403D01*
X75194164Y-59068807D01*
X75012549Y-59013715D01*
X74996237Y-59008767D01*
X74813828Y-58911267D01*
X74653946Y-58780054D01*
X74522733Y-58620172D01*
X74425233Y-58437763D01*
X74375980Y-58275395D01*
X74365193Y-58239836D01*
X74344920Y-58034000D01*
X74365193Y-57828164D01*
X74425233Y-57630238D01*
X74425233Y-57630237D01*
X74522733Y-57447828D01*
X74653946Y-57287946D01*
X74813828Y-57156733D01*
X74996237Y-57059233D01*
X75062213Y-57039220D01*
X75194164Y-56999193D01*
X75271293Y-56991597D01*
X75348420Y-56984000D01*
X75451580Y-56984000D01*
X75528707Y-56991597D01*
X75528707Y-56991597D01*
G37*
G36*
X78068707Y-56991597D02*
X78145836Y-56999193D01*
X78277787Y-57039220D01*
X78343763Y-57059233D01*
X78526172Y-57156733D01*
X78686054Y-57287946D01*
X78817267Y-57447828D01*
X78914767Y-57630237D01*
X78914767Y-57630238D01*
X78974807Y-57828164D01*
X78995080Y-58034000D01*
X78974807Y-58239836D01*
X78964020Y-58275395D01*
X78914767Y-58437763D01*
X78817267Y-58620172D01*
X78686054Y-58780054D01*
X78526172Y-58911267D01*
X78343763Y-59008767D01*
X78327451Y-59013715D01*
X78145836Y-59068807D01*
X78068707Y-59076403D01*
X77991580Y-59084000D01*
X77888420Y-59084000D01*
X77811293Y-59076403D01*
X77734164Y-59068807D01*
X77552549Y-59013715D01*
X77536237Y-59008767D01*
X77353828Y-58911267D01*
X77193946Y-58780054D01*
X77062733Y-58620172D01*
X76965233Y-58437763D01*
X76915980Y-58275395D01*
X76905193Y-58239836D01*
X76884920Y-58034000D01*
X76905193Y-57828164D01*
X76965233Y-57630238D01*
X76965233Y-57630237D01*
X77062733Y-57447828D01*
X77193946Y-57287946D01*
X77353828Y-57156733D01*
X77536237Y-57059233D01*
X77602213Y-57039220D01*
X77734164Y-56999193D01*
X77811293Y-56991597D01*
X77888420Y-56984000D01*
X77991580Y-56984000D01*
X78068707Y-56991597D01*
X78068707Y-56991597D01*
G37*
G36*
X78068707Y-54451596D02*
X78145836Y-54459193D01*
X78255213Y-54492372D01*
X78343763Y-54519233D01*
X78526172Y-54616733D01*
X78686054Y-54747946D01*
X78817267Y-54907828D01*
X78914767Y-55090237D01*
X78914767Y-55090238D01*
X78974807Y-55288164D01*
X78995080Y-55494000D01*
X78974807Y-55699836D01*
X78934780Y-55831787D01*
X78914767Y-55897763D01*
X78817267Y-56080172D01*
X78686054Y-56240054D01*
X78526172Y-56371267D01*
X78343763Y-56468767D01*
X78277787Y-56488780D01*
X78145836Y-56528807D01*
X78068707Y-56536403D01*
X77991580Y-56544000D01*
X77888420Y-56544000D01*
X77811293Y-56536403D01*
X77734164Y-56528807D01*
X77602213Y-56488780D01*
X77536237Y-56468767D01*
X77353828Y-56371267D01*
X77193946Y-56240054D01*
X77062733Y-56080172D01*
X76965233Y-55897763D01*
X76945220Y-55831787D01*
X76905193Y-55699836D01*
X76884920Y-55494000D01*
X76905193Y-55288164D01*
X76965233Y-55090238D01*
X76965233Y-55090237D01*
X77062733Y-54907828D01*
X77193946Y-54747946D01*
X77353828Y-54616733D01*
X77536237Y-54519233D01*
X77624787Y-54492372D01*
X77734164Y-54459193D01*
X77811293Y-54451596D01*
X77888420Y-54444000D01*
X77991580Y-54444000D01*
X78068707Y-54451596D01*
X78068707Y-54451596D01*
G37*
G36*
X75528707Y-54451596D02*
X75605836Y-54459193D01*
X75715213Y-54492372D01*
X75803763Y-54519233D01*
X75986172Y-54616733D01*
X76146054Y-54747946D01*
X76277267Y-54907828D01*
X76374767Y-55090237D01*
X76374767Y-55090238D01*
X76434807Y-55288164D01*
X76455080Y-55494000D01*
X76434807Y-55699836D01*
X76394780Y-55831787D01*
X76374767Y-55897763D01*
X76277267Y-56080172D01*
X76146054Y-56240054D01*
X75986172Y-56371267D01*
X75803763Y-56468767D01*
X75737787Y-56488780D01*
X75605836Y-56528807D01*
X75528707Y-56536403D01*
X75451580Y-56544000D01*
X75348420Y-56544000D01*
X75271293Y-56536403D01*
X75194164Y-56528807D01*
X75062213Y-56488780D01*
X74996237Y-56468767D01*
X74813828Y-56371267D01*
X74653946Y-56240054D01*
X74522733Y-56080172D01*
X74425233Y-55897763D01*
X74405220Y-55831787D01*
X74365193Y-55699836D01*
X74344920Y-55494000D01*
X74365193Y-55288164D01*
X74425233Y-55090238D01*
X74425233Y-55090237D01*
X74522733Y-54907828D01*
X74653946Y-54747946D01*
X74813828Y-54616733D01*
X74996237Y-54519233D01*
X75084787Y-54492372D01*
X75194164Y-54459193D01*
X75271293Y-54451596D01*
X75348420Y-54444000D01*
X75451580Y-54444000D01*
X75528707Y-54451596D01*
X75528707Y-54451596D01*
G37*
G36*
X71851309Y-53997398D02*
X70649227Y-55199480D01*
X66300520Y-50850773D01*
X67502602Y-49648691D01*
X71851309Y-53997398D01*
X71851309Y-53997398D01*
G37*
G36*
X75527047Y-51911433D02*
X75605836Y-51919193D01*
X75737787Y-51959220D01*
X75803763Y-51979233D01*
X75986172Y-52076733D01*
X76146054Y-52207946D01*
X76277267Y-52367828D01*
X76374767Y-52550237D01*
X76374767Y-52550238D01*
X76434807Y-52748164D01*
X76455080Y-52954000D01*
X76434807Y-53159836D01*
X76427408Y-53184226D01*
X76374767Y-53357763D01*
X76277267Y-53540172D01*
X76146054Y-53700054D01*
X75986172Y-53831267D01*
X75803763Y-53928767D01*
X75737787Y-53948780D01*
X75605836Y-53988807D01*
X75528707Y-53996403D01*
X75451580Y-54004000D01*
X75348420Y-54004000D01*
X75271293Y-53996403D01*
X75194164Y-53988807D01*
X75062213Y-53948780D01*
X74996237Y-53928767D01*
X74813828Y-53831267D01*
X74653946Y-53700054D01*
X74522733Y-53540172D01*
X74425233Y-53357763D01*
X74372592Y-53184226D01*
X74365193Y-53159836D01*
X74344920Y-52954000D01*
X74365193Y-52748164D01*
X74425233Y-52550238D01*
X74425233Y-52550237D01*
X74522733Y-52367828D01*
X74653946Y-52207946D01*
X74813828Y-52076733D01*
X74996237Y-51979233D01*
X75062213Y-51959220D01*
X75194164Y-51919193D01*
X75272953Y-51911433D01*
X75348420Y-51904000D01*
X75451580Y-51904000D01*
X75527047Y-51911433D01*
X75527047Y-51911433D01*
G37*
G36*
X78067047Y-51911433D02*
X78145836Y-51919193D01*
X78277787Y-51959220D01*
X78343763Y-51979233D01*
X78526172Y-52076733D01*
X78686054Y-52207946D01*
X78817267Y-52367828D01*
X78914767Y-52550237D01*
X78914767Y-52550238D01*
X78974807Y-52748164D01*
X78995080Y-52954000D01*
X78974807Y-53159836D01*
X78967408Y-53184226D01*
X78914767Y-53357763D01*
X78817267Y-53540172D01*
X78686054Y-53700054D01*
X78526172Y-53831267D01*
X78343763Y-53928767D01*
X78277787Y-53948780D01*
X78145836Y-53988807D01*
X78068707Y-53996403D01*
X77991580Y-54004000D01*
X77888420Y-54004000D01*
X77811293Y-53996403D01*
X77734164Y-53988807D01*
X77602213Y-53948780D01*
X77536237Y-53928767D01*
X77353828Y-53831267D01*
X77193946Y-53700054D01*
X77062733Y-53540172D01*
X76965233Y-53357763D01*
X76912592Y-53184226D01*
X76905193Y-53159836D01*
X76884920Y-52954000D01*
X76905193Y-52748164D01*
X76965233Y-52550238D01*
X76965233Y-52550237D01*
X77062733Y-52367828D01*
X77193946Y-52207946D01*
X77353828Y-52076733D01*
X77536237Y-51979233D01*
X77602213Y-51959220D01*
X77734164Y-51919193D01*
X77812953Y-51911433D01*
X77888420Y-51904000D01*
X77991580Y-51904000D01*
X78067047Y-51911433D01*
X78067047Y-51911433D01*
G37*
G36*
X53590000Y-53242000D02*
X51490000Y-53242000D01*
X51490000Y-51142000D01*
X53590000Y-51142000D01*
X53590000Y-53242000D01*
X53590000Y-53242000D01*
G37*
G36*
X56508000Y-51710000D02*
X55208000Y-51710000D01*
X55208000Y-50510000D01*
X56508000Y-50510000D01*
X56508000Y-51710000D01*
X56508000Y-51710000D01*
G37*
G36*
X78068707Y-49371597D02*
X78145836Y-49379193D01*
X78277787Y-49419220D01*
X78343763Y-49439233D01*
X78526172Y-49536733D01*
X78686054Y-49667946D01*
X78817267Y-49827828D01*
X78914767Y-50010237D01*
X78914767Y-50010238D01*
X78974807Y-50208164D01*
X78995080Y-50414000D01*
X78974807Y-50619836D01*
X78949883Y-50702000D01*
X78914767Y-50817763D01*
X78817267Y-51000172D01*
X78686054Y-51160054D01*
X78526172Y-51291267D01*
X78343763Y-51388767D01*
X78277787Y-51408780D01*
X78145836Y-51448807D01*
X78068707Y-51456404D01*
X77991580Y-51464000D01*
X77888420Y-51464000D01*
X77811293Y-51456403D01*
X77734164Y-51448807D01*
X77602213Y-51408780D01*
X77536237Y-51388767D01*
X77353828Y-51291267D01*
X77193946Y-51160054D01*
X77062733Y-51000172D01*
X76965233Y-50817763D01*
X76930117Y-50702000D01*
X76905193Y-50619836D01*
X76884920Y-50414000D01*
X76905193Y-50208164D01*
X76965233Y-50010238D01*
X76965233Y-50010237D01*
X77062733Y-49827828D01*
X77193946Y-49667946D01*
X77353828Y-49536733D01*
X77536237Y-49439233D01*
X77602213Y-49419220D01*
X77734164Y-49379193D01*
X77811293Y-49371596D01*
X77888420Y-49364000D01*
X77991580Y-49364000D01*
X78068707Y-49371597D01*
X78068707Y-49371597D01*
G37*
G36*
X75528707Y-49371597D02*
X75605836Y-49379193D01*
X75737787Y-49419220D01*
X75803763Y-49439233D01*
X75986172Y-49536733D01*
X76146054Y-49667946D01*
X76277267Y-49827828D01*
X76374767Y-50010237D01*
X76374767Y-50010238D01*
X76434807Y-50208164D01*
X76455080Y-50414000D01*
X76434807Y-50619836D01*
X76409883Y-50702000D01*
X76374767Y-50817763D01*
X76277267Y-51000172D01*
X76146054Y-51160054D01*
X75986172Y-51291267D01*
X75803763Y-51388767D01*
X75737787Y-51408780D01*
X75605836Y-51448807D01*
X75528707Y-51456404D01*
X75451580Y-51464000D01*
X75348420Y-51464000D01*
X75271293Y-51456403D01*
X75194164Y-51448807D01*
X75062213Y-51408780D01*
X74996237Y-51388767D01*
X74813828Y-51291267D01*
X74653946Y-51160054D01*
X74522733Y-51000172D01*
X74425233Y-50817763D01*
X74390117Y-50702000D01*
X74365193Y-50619836D01*
X74344920Y-50414000D01*
X74365193Y-50208164D01*
X74425233Y-50010238D01*
X74425233Y-50010237D01*
X74522733Y-49827828D01*
X74653946Y-49667946D01*
X74813828Y-49536733D01*
X74996237Y-49439233D01*
X75062213Y-49419220D01*
X75194164Y-49379193D01*
X75271293Y-49371596D01*
X75348420Y-49364000D01*
X75451580Y-49364000D01*
X75528707Y-49371597D01*
X75528707Y-49371597D01*
G37*
G36*
X72944544Y-49818198D02*
X71318198Y-51444544D01*
X70752512Y-50878858D01*
X72378858Y-49252512D01*
X72944544Y-49818198D01*
X72944544Y-49818198D01*
G37*
G36*
X58508000Y-50760000D02*
X57208000Y-50760000D01*
X57208000Y-49560000D01*
X58508000Y-49560000D01*
X58508000Y-50760000D01*
X58508000Y-50760000D01*
G37*
G36*
X52668707Y-48609597D02*
X52745836Y-48617193D01*
X52877787Y-48657220D01*
X52943763Y-48677233D01*
X53126172Y-48774733D01*
X53286054Y-48905946D01*
X53417267Y-49065828D01*
X53514767Y-49248237D01*
X53534780Y-49314213D01*
X53574807Y-49446164D01*
X53595080Y-49652000D01*
X53574807Y-49857836D01*
X53534780Y-49989787D01*
X53514767Y-50055763D01*
X53417267Y-50238172D01*
X53286054Y-50398054D01*
X53126172Y-50529267D01*
X52943763Y-50626767D01*
X52877787Y-50646780D01*
X52745836Y-50686807D01*
X52668707Y-50694404D01*
X52591580Y-50702000D01*
X52488420Y-50702000D01*
X52411293Y-50694403D01*
X52334164Y-50686807D01*
X52202213Y-50646780D01*
X52136237Y-50626767D01*
X51953828Y-50529267D01*
X51793946Y-50398054D01*
X51662733Y-50238172D01*
X51565233Y-50055763D01*
X51545220Y-49989787D01*
X51505193Y-49857836D01*
X51484920Y-49652000D01*
X51505193Y-49446164D01*
X51545220Y-49314213D01*
X51565233Y-49248237D01*
X51662733Y-49065828D01*
X51793946Y-48905946D01*
X51953828Y-48774733D01*
X52136237Y-48677233D01*
X52202213Y-48657220D01*
X52334164Y-48617193D01*
X52411293Y-48609596D01*
X52488420Y-48602000D01*
X52591580Y-48602000D01*
X52668707Y-48609597D01*
X52668707Y-48609597D01*
G37*
G36*
X72096016Y-48969670D02*
X70469670Y-50596016D01*
X69903984Y-50030330D01*
X71530330Y-48403984D01*
X72096016Y-48969670D01*
X72096016Y-48969670D01*
G37*
G36*
X56508000Y-49810000D02*
X55208000Y-49810000D01*
X55208000Y-48610000D01*
X56508000Y-48610000D01*
X56508000Y-49810000D01*
X56508000Y-49810000D01*
G37*
G36*
X71247488Y-48121142D02*
X69621142Y-49747488D01*
X69055456Y-49181802D01*
X70681802Y-47555456D01*
X71247488Y-48121142D01*
X71247488Y-48121142D01*
G37*
G36*
X75520549Y-46830793D02*
X75605836Y-46839193D01*
X75707393Y-46870000D01*
X75803763Y-46899233D01*
X75986172Y-46996733D01*
X76146054Y-47127946D01*
X76277267Y-47287828D01*
X76374767Y-47470237D01*
X76374767Y-47470238D01*
X76434807Y-47668164D01*
X76455080Y-47874000D01*
X76434807Y-48079836D01*
X76422277Y-48121142D01*
X76374767Y-48277763D01*
X76277267Y-48460172D01*
X76146054Y-48620054D01*
X75986172Y-48751267D01*
X75803763Y-48848767D01*
X75737787Y-48868780D01*
X75605836Y-48908807D01*
X75528707Y-48916403D01*
X75451580Y-48924000D01*
X75348420Y-48924000D01*
X75271293Y-48916403D01*
X75194164Y-48908807D01*
X75062213Y-48868780D01*
X74996237Y-48848767D01*
X74813828Y-48751267D01*
X74653946Y-48620054D01*
X74522733Y-48460172D01*
X74425233Y-48277763D01*
X74377723Y-48121142D01*
X74365193Y-48079836D01*
X74344920Y-47874000D01*
X74365193Y-47668164D01*
X74425233Y-47470238D01*
X74425233Y-47470237D01*
X74522733Y-47287828D01*
X74653946Y-47127946D01*
X74813828Y-46996733D01*
X74996237Y-46899233D01*
X75092607Y-46870000D01*
X75194164Y-46839193D01*
X75279451Y-46830793D01*
X75348420Y-46824000D01*
X75451580Y-46824000D01*
X75520549Y-46830793D01*
X75520549Y-46830793D01*
G37*
G36*
X78060549Y-46830793D02*
X78145836Y-46839193D01*
X78247393Y-46870000D01*
X78343763Y-46899233D01*
X78526172Y-46996733D01*
X78686054Y-47127946D01*
X78817267Y-47287828D01*
X78914767Y-47470237D01*
X78914767Y-47470238D01*
X78974807Y-47668164D01*
X78995080Y-47874000D01*
X78974807Y-48079836D01*
X78962277Y-48121142D01*
X78914767Y-48277763D01*
X78817267Y-48460172D01*
X78686054Y-48620054D01*
X78526172Y-48751267D01*
X78343763Y-48848767D01*
X78277787Y-48868780D01*
X78145836Y-48908807D01*
X78068707Y-48916403D01*
X77991580Y-48924000D01*
X77888420Y-48924000D01*
X77811293Y-48916403D01*
X77734164Y-48908807D01*
X77602213Y-48868780D01*
X77536237Y-48848767D01*
X77353828Y-48751267D01*
X77193946Y-48620054D01*
X77062733Y-48460172D01*
X76965233Y-48277763D01*
X76917723Y-48121142D01*
X76905193Y-48079836D01*
X76884920Y-47874000D01*
X76905193Y-47668164D01*
X76965233Y-47470238D01*
X76965233Y-47470237D01*
X77062733Y-47287828D01*
X77193946Y-47127946D01*
X77353828Y-46996733D01*
X77536237Y-46899233D01*
X77632607Y-46870000D01*
X77734164Y-46839193D01*
X77819451Y-46830793D01*
X77888420Y-46824000D01*
X77991580Y-46824000D01*
X78060549Y-46830793D01*
X78060549Y-46830793D01*
G37*
G36*
X57763203Y-46672893D02*
X57763206Y-46672894D01*
X57763207Y-46672894D01*
X57800907Y-46684330D01*
X57800908Y-46684330D01*
X57800913Y-46684332D01*
X57815078Y-46691903D01*
X57837717Y-46701280D01*
X57861750Y-46706060D01*
X57886255Y-46706060D01*
X57910288Y-46701279D01*
X57932922Y-46691903D01*
X57947087Y-46684332D01*
X57947092Y-46684330D01*
X57947093Y-46684330D01*
X57984793Y-46672894D01*
X57984794Y-46672894D01*
X57984797Y-46672893D01*
X58030140Y-46668427D01*
X58517860Y-46668427D01*
X58536197Y-46670233D01*
X58548449Y-46670835D01*
X58566869Y-46670835D01*
X58618358Y-46675906D01*
X58702443Y-46692632D01*
X58730949Y-46701279D01*
X58746048Y-46705859D01*
X58746050Y-46705860D01*
X58751955Y-46707651D01*
X58831164Y-46740460D01*
X58876787Y-46764846D01*
X58948082Y-46812484D01*
X58988076Y-46845306D01*
X59048694Y-46905924D01*
X59081516Y-46945918D01*
X59129154Y-47017213D01*
X59153540Y-47062836D01*
X59186349Y-47142045D01*
X59201368Y-47191557D01*
X59218094Y-47275642D01*
X59223165Y-47327131D01*
X59223165Y-47345551D01*
X59223767Y-47357803D01*
X59225573Y-47376140D01*
X59225573Y-47863860D01*
X59223767Y-47882197D01*
X59223165Y-47894449D01*
X59223165Y-47912869D01*
X59218094Y-47964358D01*
X59201368Y-48048443D01*
X59186349Y-48097955D01*
X59153540Y-48177164D01*
X59129154Y-48222787D01*
X59081516Y-48294082D01*
X59048694Y-48334076D01*
X58988076Y-48394694D01*
X58948082Y-48427516D01*
X58876787Y-48475154D01*
X58831164Y-48499540D01*
X58751955Y-48532349D01*
X58746050Y-48534140D01*
X58746048Y-48534141D01*
X58736296Y-48537099D01*
X58702443Y-48547368D01*
X58618358Y-48564094D01*
X58566869Y-48569165D01*
X58548449Y-48569165D01*
X58536197Y-48569767D01*
X58517860Y-48571573D01*
X58030140Y-48571573D01*
X57984797Y-48567107D01*
X57984794Y-48567106D01*
X57984793Y-48567106D01*
X57947093Y-48555670D01*
X57947092Y-48555670D01*
X57947087Y-48555668D01*
X57932922Y-48548097D01*
X57910283Y-48538720D01*
X57886250Y-48533940D01*
X57861745Y-48533940D01*
X57837712Y-48538721D01*
X57815078Y-48548097D01*
X57800913Y-48555668D01*
X57800908Y-48555670D01*
X57800907Y-48555670D01*
X57763207Y-48567106D01*
X57763206Y-48567106D01*
X57763203Y-48567107D01*
X57717860Y-48571573D01*
X57230140Y-48571573D01*
X57211803Y-48569767D01*
X57199551Y-48569165D01*
X57181131Y-48569165D01*
X57129642Y-48564094D01*
X57045557Y-48547368D01*
X57011704Y-48537099D01*
X57001952Y-48534141D01*
X57001950Y-48534140D01*
X56996045Y-48532349D01*
X56916836Y-48499540D01*
X56871213Y-48475154D01*
X56799918Y-48427516D01*
X56759924Y-48394694D01*
X56699306Y-48334076D01*
X56666484Y-48294082D01*
X56618846Y-48222787D01*
X56594460Y-48177164D01*
X56561651Y-48097955D01*
X56546632Y-48048443D01*
X56529906Y-47964358D01*
X56524835Y-47912869D01*
X56524835Y-47894449D01*
X56524233Y-47882197D01*
X56522427Y-47863860D01*
X56522427Y-47376140D01*
X56524233Y-47357803D01*
X56524835Y-47345551D01*
X56524835Y-47327131D01*
X56529906Y-47275642D01*
X56546632Y-47191557D01*
X56561651Y-47142045D01*
X56594460Y-47062836D01*
X56618846Y-47017213D01*
X56666484Y-46945918D01*
X56699306Y-46905924D01*
X56759924Y-46845306D01*
X56799918Y-46812484D01*
X56871213Y-46764846D01*
X56916836Y-46740460D01*
X56996045Y-46707651D01*
X57001950Y-46705860D01*
X57001952Y-46705859D01*
X57017051Y-46701279D01*
X57045557Y-46692632D01*
X57129642Y-46675906D01*
X57181131Y-46670835D01*
X57199551Y-46670835D01*
X57211803Y-46670233D01*
X57230140Y-46668427D01*
X57717860Y-46668427D01*
X57763203Y-46672893D01*
X57763203Y-46672893D01*
G37*
G36*
X61295000Y-48247000D02*
X60295000Y-48247000D01*
X60295000Y-46297000D01*
X61295000Y-46297000D01*
X61295000Y-48247000D01*
X61295000Y-48247000D01*
G37*
G36*
X65105000Y-48247000D02*
X64105000Y-48247000D01*
X64105000Y-46297000D01*
X65105000Y-46297000D01*
X65105000Y-48247000D01*
X65105000Y-48247000D01*
G37*
G36*
X62565000Y-48247000D02*
X61565000Y-48247000D01*
X61565000Y-46297000D01*
X62565000Y-46297000D01*
X62565000Y-48247000D01*
X62565000Y-48247000D01*
G37*
G36*
X63835000Y-48247000D02*
X62835000Y-48247000D01*
X62835000Y-46297000D01*
X63835000Y-46297000D01*
X63835000Y-48247000D01*
X63835000Y-48247000D01*
G37*
G36*
X59061068Y-44389076D02*
X59104727Y-44402320D01*
X59144966Y-44423828D01*
X59180230Y-44452770D01*
X59209172Y-44488034D01*
X59230680Y-44528273D01*
X59243924Y-44571932D01*
X59249000Y-44623474D01*
X59249000Y-46044526D01*
X59243924Y-46096068D01*
X59230680Y-46139727D01*
X59209172Y-46179966D01*
X59180230Y-46215230D01*
X59144966Y-46244172D01*
X59104727Y-46265680D01*
X59061068Y-46278924D01*
X59009526Y-46284000D01*
X56738474Y-46284000D01*
X56686932Y-46278924D01*
X56643273Y-46265680D01*
X56603034Y-46244172D01*
X56567770Y-46215230D01*
X56538828Y-46179966D01*
X56517320Y-46139727D01*
X56504076Y-46096068D01*
X56499000Y-46044526D01*
X56499000Y-44623474D01*
X56504076Y-44571932D01*
X56517320Y-44528273D01*
X56538828Y-44488034D01*
X56567770Y-44452770D01*
X56603034Y-44423828D01*
X56643273Y-44402320D01*
X56686932Y-44389076D01*
X56738474Y-44384000D01*
X59009526Y-44384000D01*
X59061068Y-44389076D01*
X59061068Y-44389076D01*
G37*
G36*
X68967068Y-44180076D02*
X69010727Y-44193320D01*
X69050966Y-44214828D01*
X69086230Y-44243770D01*
X69115172Y-44279034D01*
X69136680Y-44319273D01*
X69149924Y-44362932D01*
X69155000Y-44414474D01*
X69155000Y-45835526D01*
X69149924Y-45887068D01*
X69136680Y-45930727D01*
X69115172Y-45970966D01*
X69086230Y-46006230D01*
X69050966Y-46035172D01*
X69010727Y-46056680D01*
X68967068Y-46069924D01*
X68915526Y-46075000D01*
X66644474Y-46075000D01*
X66592932Y-46069924D01*
X66549273Y-46056680D01*
X66509034Y-46035172D01*
X66473770Y-46006230D01*
X66444828Y-45970966D01*
X66423320Y-45930727D01*
X66410076Y-45887068D01*
X66405000Y-45835526D01*
X66405000Y-44414474D01*
X66410076Y-44362932D01*
X66423320Y-44319273D01*
X66444828Y-44279034D01*
X66473770Y-44243770D01*
X66509034Y-44214828D01*
X66549273Y-44193320D01*
X66592932Y-44180076D01*
X66644474Y-44175000D01*
X68915526Y-44175000D01*
X68967068Y-44180076D01*
X68967068Y-44180076D01*
G37*
G36*
X71042622Y-43711517D02*
X71090585Y-43726066D01*
X71134775Y-43749686D01*
X71173518Y-43781482D01*
X71205314Y-43820225D01*
X71228934Y-43864415D01*
X71243483Y-43912378D01*
X71249000Y-43968391D01*
X71249000Y-44718609D01*
X71243483Y-44774622D01*
X71228934Y-44822585D01*
X71205314Y-44866775D01*
X71173518Y-44905518D01*
X71134775Y-44937314D01*
X71090585Y-44960934D01*
X71042622Y-44975483D01*
X70986609Y-44981000D01*
X70161391Y-44981000D01*
X70105378Y-44975483D01*
X70057415Y-44960934D01*
X70013225Y-44937314D01*
X69974482Y-44905518D01*
X69942686Y-44866775D01*
X69919066Y-44822585D01*
X69904517Y-44774622D01*
X69899000Y-44718609D01*
X69899000Y-43968391D01*
X69904517Y-43912378D01*
X69919066Y-43864415D01*
X69942686Y-43820225D01*
X69974482Y-43781482D01*
X70013225Y-43749686D01*
X70057415Y-43726066D01*
X70105378Y-43711517D01*
X70161391Y-43706000D01*
X70986609Y-43706000D01*
X71042622Y-43711517D01*
X71042622Y-43711517D01*
G37*
G36*
X52909122Y-40746115D02*
X53025041Y-40769173D01*
X53352620Y-40904861D01*
X53521570Y-41017750D01*
X53647436Y-41101851D01*
X53898149Y-41352564D01*
X54095140Y-41647382D01*
X54230827Y-41974960D01*
X54300000Y-42322714D01*
X54300000Y-42677286D01*
X54257743Y-42889727D01*
X54230827Y-43025041D01*
X54227116Y-43034000D01*
X54095280Y-43352281D01*
X54095139Y-43352620D01*
X53900772Y-43643511D01*
X53898149Y-43647436D01*
X53647436Y-43898149D01*
X53647433Y-43898151D01*
X53352620Y-44095139D01*
X53025041Y-44230827D01*
X52959972Y-44243770D01*
X52677286Y-44300000D01*
X52322714Y-44300000D01*
X52040028Y-44243770D01*
X51974959Y-44230827D01*
X51647380Y-44095139D01*
X51352567Y-43898151D01*
X51352564Y-43898149D01*
X51101851Y-43647436D01*
X51099228Y-43643511D01*
X50904861Y-43352620D01*
X50904721Y-43352281D01*
X50772884Y-43034000D01*
X50769173Y-43025041D01*
X50742257Y-42889727D01*
X50700000Y-42677286D01*
X50700000Y-42322714D01*
X50769173Y-41974960D01*
X50904860Y-41647382D01*
X51101851Y-41352564D01*
X51352564Y-41101851D01*
X51478430Y-41017750D01*
X51647380Y-40904861D01*
X51974959Y-40769173D01*
X52090878Y-40746115D01*
X52322714Y-40700000D01*
X52677286Y-40700000D01*
X52909122Y-40746115D01*
X52909122Y-40746115D01*
G37*
G36*
X77909122Y-40746115D02*
X78025041Y-40769173D01*
X78352620Y-40904861D01*
X78521570Y-41017750D01*
X78647436Y-41101851D01*
X78898149Y-41352564D01*
X79095140Y-41647382D01*
X79230827Y-41974960D01*
X79300000Y-42322714D01*
X79300000Y-42677286D01*
X79257743Y-42889727D01*
X79230827Y-43025041D01*
X79227116Y-43034000D01*
X79095280Y-43352281D01*
X79095139Y-43352620D01*
X78900772Y-43643511D01*
X78898149Y-43647436D01*
X78647436Y-43898149D01*
X78647433Y-43898151D01*
X78352620Y-44095139D01*
X78025041Y-44230827D01*
X77959972Y-44243770D01*
X77677286Y-44300000D01*
X77322714Y-44300000D01*
X77040028Y-44243770D01*
X76974959Y-44230827D01*
X76647380Y-44095139D01*
X76352567Y-43898151D01*
X76352564Y-43898149D01*
X76101851Y-43647436D01*
X76099228Y-43643511D01*
X75904861Y-43352620D01*
X75904721Y-43352281D01*
X75772884Y-43034000D01*
X75769173Y-43025041D01*
X75742257Y-42889727D01*
X75700000Y-42677286D01*
X75700000Y-42322714D01*
X75769173Y-41974960D01*
X75904860Y-41647382D01*
X76101851Y-41352564D01*
X76352564Y-41101851D01*
X76478430Y-41017750D01*
X76647380Y-40904861D01*
X76974959Y-40769173D01*
X77090878Y-40746115D01*
X77322714Y-40700000D01*
X77677286Y-40700000D01*
X77909122Y-40746115D01*
X77909122Y-40746115D01*
G37*
G36*
X71042622Y-42136517D02*
X71090585Y-42151066D01*
X71134775Y-42174686D01*
X71173518Y-42206482D01*
X71205314Y-42245225D01*
X71228934Y-42289415D01*
X71243483Y-42337378D01*
X71249000Y-42393391D01*
X71249000Y-43143609D01*
X71243483Y-43199622D01*
X71228934Y-43247585D01*
X71205314Y-43291775D01*
X71173518Y-43330518D01*
X71134775Y-43362314D01*
X71090585Y-43385934D01*
X71042622Y-43400483D01*
X70986609Y-43406000D01*
X70161391Y-43406000D01*
X70105378Y-43400483D01*
X70057415Y-43385934D01*
X70013225Y-43362314D01*
X69974482Y-43330518D01*
X69942686Y-43291775D01*
X69919066Y-43247585D01*
X69904517Y-43199622D01*
X69899000Y-43143609D01*
X69899000Y-42393391D01*
X69904517Y-42337378D01*
X69919066Y-42289415D01*
X69942686Y-42245225D01*
X69974482Y-42206482D01*
X70013225Y-42174686D01*
X70057415Y-42151066D01*
X70105378Y-42136517D01*
X70161391Y-42131000D01*
X70986609Y-42131000D01*
X71042622Y-42136517D01*
X71042622Y-42136517D01*
G37*
G36*
X59061068Y-41139076D02*
X59104727Y-41152320D01*
X59144966Y-41173828D01*
X59180230Y-41202770D01*
X59209172Y-41238034D01*
X59230680Y-41278273D01*
X59243924Y-41321932D01*
X59249000Y-41373474D01*
X59249000Y-42794526D01*
X59243924Y-42846068D01*
X59230680Y-42889727D01*
X59209172Y-42929966D01*
X59180230Y-42965230D01*
X59144966Y-42994172D01*
X59104727Y-43015680D01*
X59061068Y-43028924D01*
X59009526Y-43034000D01*
X56738474Y-43034000D01*
X56686932Y-43028924D01*
X56643273Y-43015680D01*
X56603034Y-42994172D01*
X56567770Y-42965230D01*
X56538828Y-42929966D01*
X56517320Y-42889727D01*
X56504076Y-42846068D01*
X56499000Y-42794526D01*
X56499000Y-41373474D01*
X56504076Y-41321932D01*
X56517320Y-41278273D01*
X56538828Y-41238034D01*
X56567770Y-41202770D01*
X56603034Y-41173828D01*
X56643273Y-41152320D01*
X56686932Y-41139076D01*
X56738474Y-41134000D01*
X59009526Y-41134000D01*
X59061068Y-41139076D01*
X59061068Y-41139076D01*
G37*
G36*
X65105000Y-42847000D02*
X64105000Y-42847000D01*
X64105000Y-40897000D01*
X65105000Y-40897000D01*
X65105000Y-42847000D01*
X65105000Y-42847000D01*
G37*
G36*
X63835000Y-42847000D02*
X62835000Y-42847000D01*
X62835000Y-40897000D01*
X63835000Y-40897000D01*
X63835000Y-42847000D01*
X63835000Y-42847000D01*
G37*
G36*
X62565000Y-42847000D02*
X61565000Y-42847000D01*
X61565000Y-40897000D01*
X62565000Y-40897000D01*
X62565000Y-42847000D01*
X62565000Y-42847000D01*
G37*
G36*
X61295000Y-42847000D02*
X60295000Y-42847000D01*
X60295000Y-40897000D01*
X61295000Y-40897000D01*
X61295000Y-42847000D01*
X61295000Y-42847000D01*
G37*
G36*
X68967068Y-40930076D02*
X69010727Y-40943320D01*
X69050966Y-40964828D01*
X69086230Y-40993770D01*
X69115172Y-41029034D01*
X69136680Y-41069273D01*
X69149924Y-41112932D01*
X69155000Y-41164474D01*
X69155000Y-42585526D01*
X69149924Y-42637068D01*
X69136680Y-42680727D01*
X69115172Y-42720966D01*
X69086230Y-42756230D01*
X69050966Y-42785172D01*
X69010727Y-42806680D01*
X68967068Y-42819924D01*
X68915526Y-42825000D01*
X66644474Y-42825000D01*
X66592932Y-42819924D01*
X66549273Y-42806680D01*
X66509034Y-42785172D01*
X66473770Y-42756230D01*
X66444828Y-42720966D01*
X66423320Y-42680727D01*
X66410076Y-42637068D01*
X66405000Y-42585526D01*
X66405000Y-41164474D01*
X66410076Y-41112932D01*
X66423320Y-41069273D01*
X66444828Y-41029034D01*
X66473770Y-40993770D01*
X66509034Y-40964828D01*
X66549273Y-40943320D01*
X66592932Y-40930076D01*
X66644474Y-40925000D01*
X68915526Y-40925000D01*
X68967068Y-40930076D01*
X68967068Y-40930076D01*
G37*
M02*
