M48
;DRILL file {KiCad 5.0.2+dfsg1-1} date Fri 22 Feb 2019 08:56:27 PM EET
;FORMAT={2:4/ absolute / inch / suppress leading zeros}
FMAT,2
INCH,TZ
T1C0.0197
T2C0.0236
T3C0.0276
T4C0.0315
T5C0.0394
%
G90
G05
T1
X20865Y-26178
X21575Y-26188
X22085Y-16548
X22445Y-26678
X22685Y-22948
X23385Y-16248
X23585Y-20548
X24565Y-21748
X25185Y-21048
X25295Y-22835
X25585Y-20768
X25984Y-19783
X25984Y-24016
X25985Y-18748
X26575Y-22835
X26735Y-20998
X26885Y-19348
X27362Y-22047
X27385Y-21548
X28185Y-20585
X28185Y-22048
X28431Y-22355
X28431Y-20278
X28435Y-23463
X28592Y-22715
X28723Y-20014
X28785Y-23098
T2
X21685Y-20648
X23285Y-19248
T3
X23285Y-22248
X23285Y-21448
T4
X23985Y-17548
X25985Y-17148
T5
X23835Y-27748
X24835Y-27748
X25835Y-27748
X26835Y-27748
X27835Y-27748
X22441Y-25984
X23441Y-25984
X24441Y-25984
X25441Y-25984
X20685Y-19548
X20685Y-20548
X29685Y-18848
X29685Y-19848
X29685Y-20848
X29685Y-21848
X29685Y-22848
X29685Y-23848
X29685Y-24848
X29685Y-25848
X30685Y-18848
X30685Y-19848
X30685Y-20848
X30685Y-21848
X30685Y-22848
X30685Y-23848
X30685Y-24848
X30685Y-25848
T0
M30
