G04 #@! TF.GenerationSoftware,KiCad,Pcbnew,5.0.2+dfsg1-1*
G04 #@! TF.CreationDate,2019-02-22T20:57:12+02:00*
G04 #@! TF.ProjectId,e3634a_oled,65333633-3461-45f6-9f6c-65642e6b6963,A*
G04 #@! TF.SameCoordinates,Original*
G04 #@! TF.FileFunction,Copper,L2,Bot*
G04 #@! TF.FilePolarity,Positive*
%FSLAX46Y46*%
G04 Gerber Fmt 4.6, Leading zero omitted, Abs format (unit mm)*
G04 Created by KiCad (PCBNEW 5.0.2+dfsg1-1) date Fri 22 Feb 2019 08:57:12 PM EET*
%MOMM*%
%LPD*%
G01*
G04 APERTURE LIST*
G04 #@! TA.AperFunction,ComponentPad*
%ADD10O,1.700000X1.700000*%
G04 #@! TD*
G04 #@! TA.AperFunction,ComponentPad*
%ADD11R,1.700000X1.700000*%
G04 #@! TD*
G04 #@! TA.AperFunction,SMDPad,CuDef*
%ADD12R,0.900000X0.800000*%
G04 #@! TD*
G04 #@! TA.AperFunction,Conductor*
%ADD13C,0.100000*%
G04 #@! TD*
G04 #@! TA.AperFunction,SMDPad,CuDef*
%ADD14C,0.975000*%
G04 #@! TD*
G04 #@! TA.AperFunction,SMDPad,CuDef*
%ADD15C,0.250000*%
G04 #@! TD*
G04 #@! TA.AperFunction,SMDPad,CuDef*
%ADD16C,0.400000*%
G04 #@! TD*
G04 #@! TA.AperFunction,SMDPad,CuDef*
%ADD17C,1.500000*%
G04 #@! TD*
G04 #@! TA.AperFunction,SMDPad,CuDef*
%ADD18R,0.500000X0.800000*%
G04 #@! TD*
G04 #@! TA.AperFunction,SMDPad,CuDef*
%ADD19R,0.400000X0.800000*%
G04 #@! TD*
G04 #@! TA.AperFunction,SMDPad,CuDef*
%ADD20C,0.875000*%
G04 #@! TD*
G04 #@! TA.AperFunction,SMDPad,CuDef*
%ADD21R,0.600000X1.550000*%
G04 #@! TD*
G04 #@! TA.AperFunction,SMDPad,CuDef*
%ADD22C,0.500000*%
G04 #@! TD*
G04 #@! TA.AperFunction,ComponentPad*
%ADD23C,1.500000*%
G04 #@! TD*
G04 #@! TA.AperFunction,ViaPad*
%ADD24C,0.800000*%
G04 #@! TD*
G04 #@! TA.AperFunction,ViaPad*
%ADD25C,1.200000*%
G04 #@! TD*
G04 #@! TA.AperFunction,Conductor*
%ADD26C,0.254000*%
G04 #@! TD*
G04 #@! TA.AperFunction,Conductor*
%ADD27C,0.250000*%
G04 #@! TD*
G04 #@! TA.AperFunction,Conductor*
%ADD28C,1.000000*%
G04 #@! TD*
G04 #@! TA.AperFunction,Conductor*
%ADD29C,0.500000*%
G04 #@! TD*
G04 #@! TA.AperFunction,Conductor*
%ADD30C,0.800000*%
G04 #@! TD*
G04 APERTURE END LIST*
D10*
G04 #@! TO.P,J3,4*
G04 #@! TO.N,+3V3*
X64620000Y-66000000D03*
G04 #@! TO.P,J3,3*
G04 #@! TO.N,/USART_TX*
X62080000Y-66000000D03*
G04 #@! TO.P,J3,2*
G04 #@! TO.N,/USART_RX*
X59540000Y-66000000D03*
D11*
G04 #@! TO.P,J3,1*
G04 #@! TO.N,GND*
X57000000Y-66000000D03*
G04 #@! TD*
D10*
G04 #@! TO.P,J2,16*
G04 #@! TO.N,/DB7*
X75400000Y-47874000D03*
G04 #@! TO.P,J2,15*
G04 #@! TO.N,/DB6*
X77940000Y-47874000D03*
G04 #@! TO.P,J2,14*
G04 #@! TO.N,/DB5*
X75400000Y-50414000D03*
G04 #@! TO.P,J2,13*
G04 #@! TO.N,/DB4*
X77940000Y-50414000D03*
G04 #@! TO.P,J2,12*
G04 #@! TO.N,/DB3*
X75400000Y-52954000D03*
G04 #@! TO.P,J2,11*
G04 #@! TO.N,/DB2*
X77940000Y-52954000D03*
G04 #@! TO.P,J2,10*
G04 #@! TO.N,/DB1*
X75400000Y-55494000D03*
G04 #@! TO.P,J2,9*
G04 #@! TO.N,/DB0*
X77940000Y-55494000D03*
G04 #@! TO.P,J2,8*
G04 #@! TO.N,/RD*
X75400000Y-58034000D03*
G04 #@! TO.P,J2,7*
G04 #@! TO.N,/WR*
X77940000Y-58034000D03*
G04 #@! TO.P,J2,6*
G04 #@! TO.N,/BOOT1*
X75400000Y-60574000D03*
G04 #@! TO.P,J2,5*
G04 #@! TO.N,/CS*
X77940000Y-60574000D03*
G04 #@! TO.P,J2,4*
G04 #@! TO.N,/Reset*
X75400000Y-63114000D03*
G04 #@! TO.P,J2,3*
G04 #@! TO.N,GND*
X77940000Y-63114000D03*
G04 #@! TO.P,J2,2*
X75400000Y-65654000D03*
D11*
G04 #@! TO.P,J2,1*
G04 #@! TO.N,+3V3*
X77940000Y-65654000D03*
G04 #@! TD*
D12*
G04 #@! TO.P,D3,1*
G04 #@! TO.N,VBUS*
X55858000Y-51110000D03*
G04 #@! TO.P,D3,2*
G04 #@! TO.N,+5V*
X55858000Y-49210000D03*
G04 #@! TO.P,D3,3*
G04 #@! TO.N,/Vin*
X57858000Y-50160000D03*
G04 #@! TD*
D13*
G04 #@! TO.N,Net-(J1-Pad3)*
G04 #@! TO.C,R2*
G36*
X54996642Y-57335174D02*
X55020303Y-57338684D01*
X55043507Y-57344496D01*
X55066029Y-57352554D01*
X55087653Y-57362782D01*
X55108170Y-57375079D01*
X55127383Y-57389329D01*
X55145107Y-57405393D01*
X55161171Y-57423117D01*
X55175421Y-57442330D01*
X55187718Y-57462847D01*
X55197946Y-57484471D01*
X55206004Y-57506993D01*
X55211816Y-57530197D01*
X55215326Y-57553858D01*
X55216500Y-57577750D01*
X55216500Y-58490250D01*
X55215326Y-58514142D01*
X55211816Y-58537803D01*
X55206004Y-58561007D01*
X55197946Y-58583529D01*
X55187718Y-58605153D01*
X55175421Y-58625670D01*
X55161171Y-58644883D01*
X55145107Y-58662607D01*
X55127383Y-58678671D01*
X55108170Y-58692921D01*
X55087653Y-58705218D01*
X55066029Y-58715446D01*
X55043507Y-58723504D01*
X55020303Y-58729316D01*
X54996642Y-58732826D01*
X54972750Y-58734000D01*
X54485250Y-58734000D01*
X54461358Y-58732826D01*
X54437697Y-58729316D01*
X54414493Y-58723504D01*
X54391971Y-58715446D01*
X54370347Y-58705218D01*
X54349830Y-58692921D01*
X54330617Y-58678671D01*
X54312893Y-58662607D01*
X54296829Y-58644883D01*
X54282579Y-58625670D01*
X54270282Y-58605153D01*
X54260054Y-58583529D01*
X54251996Y-58561007D01*
X54246184Y-58537803D01*
X54242674Y-58514142D01*
X54241500Y-58490250D01*
X54241500Y-57577750D01*
X54242674Y-57553858D01*
X54246184Y-57530197D01*
X54251996Y-57506993D01*
X54260054Y-57484471D01*
X54270282Y-57462847D01*
X54282579Y-57442330D01*
X54296829Y-57423117D01*
X54312893Y-57405393D01*
X54330617Y-57389329D01*
X54349830Y-57375079D01*
X54370347Y-57362782D01*
X54391971Y-57352554D01*
X54414493Y-57344496D01*
X54437697Y-57338684D01*
X54461358Y-57335174D01*
X54485250Y-57334000D01*
X54972750Y-57334000D01*
X54996642Y-57335174D01*
X54996642Y-57335174D01*
G37*
D14*
G04 #@! TD*
G04 #@! TO.P,R2,1*
G04 #@! TO.N,Net-(J1-Pad3)*
X54729000Y-58034000D03*
D13*
G04 #@! TO.N,+3V3*
G04 #@! TO.C,R2*
G36*
X56871642Y-57335174D02*
X56895303Y-57338684D01*
X56918507Y-57344496D01*
X56941029Y-57352554D01*
X56962653Y-57362782D01*
X56983170Y-57375079D01*
X57002383Y-57389329D01*
X57020107Y-57405393D01*
X57036171Y-57423117D01*
X57050421Y-57442330D01*
X57062718Y-57462847D01*
X57072946Y-57484471D01*
X57081004Y-57506993D01*
X57086816Y-57530197D01*
X57090326Y-57553858D01*
X57091500Y-57577750D01*
X57091500Y-58490250D01*
X57090326Y-58514142D01*
X57086816Y-58537803D01*
X57081004Y-58561007D01*
X57072946Y-58583529D01*
X57062718Y-58605153D01*
X57050421Y-58625670D01*
X57036171Y-58644883D01*
X57020107Y-58662607D01*
X57002383Y-58678671D01*
X56983170Y-58692921D01*
X56962653Y-58705218D01*
X56941029Y-58715446D01*
X56918507Y-58723504D01*
X56895303Y-58729316D01*
X56871642Y-58732826D01*
X56847750Y-58734000D01*
X56360250Y-58734000D01*
X56336358Y-58732826D01*
X56312697Y-58729316D01*
X56289493Y-58723504D01*
X56266971Y-58715446D01*
X56245347Y-58705218D01*
X56224830Y-58692921D01*
X56205617Y-58678671D01*
X56187893Y-58662607D01*
X56171829Y-58644883D01*
X56157579Y-58625670D01*
X56145282Y-58605153D01*
X56135054Y-58583529D01*
X56126996Y-58561007D01*
X56121184Y-58537803D01*
X56117674Y-58514142D01*
X56116500Y-58490250D01*
X56116500Y-57577750D01*
X56117674Y-57553858D01*
X56121184Y-57530197D01*
X56126996Y-57506993D01*
X56135054Y-57484471D01*
X56145282Y-57462847D01*
X56157579Y-57442330D01*
X56171829Y-57423117D01*
X56187893Y-57405393D01*
X56205617Y-57389329D01*
X56224830Y-57375079D01*
X56245347Y-57362782D01*
X56266971Y-57352554D01*
X56289493Y-57344496D01*
X56312697Y-57338684D01*
X56336358Y-57335174D01*
X56360250Y-57334000D01*
X56847750Y-57334000D01*
X56871642Y-57335174D01*
X56871642Y-57335174D01*
G37*
D14*
G04 #@! TD*
G04 #@! TO.P,R2,2*
G04 #@! TO.N,+3V3*
X56604000Y-58034000D03*
D13*
G04 #@! TO.N,Net-(J1-Pad3)*
G04 #@! TO.C,R5*
G36*
X54996640Y-59367174D02*
X55020301Y-59370684D01*
X55043505Y-59376496D01*
X55066027Y-59384554D01*
X55087651Y-59394782D01*
X55108168Y-59407079D01*
X55127381Y-59421329D01*
X55145105Y-59437393D01*
X55161169Y-59455117D01*
X55175419Y-59474330D01*
X55187716Y-59494847D01*
X55197944Y-59516471D01*
X55206002Y-59538993D01*
X55211814Y-59562197D01*
X55215324Y-59585858D01*
X55216498Y-59609750D01*
X55216498Y-60522250D01*
X55215324Y-60546142D01*
X55211814Y-60569803D01*
X55206002Y-60593007D01*
X55197944Y-60615529D01*
X55187716Y-60637153D01*
X55175419Y-60657670D01*
X55161169Y-60676883D01*
X55145105Y-60694607D01*
X55127381Y-60710671D01*
X55108168Y-60724921D01*
X55087651Y-60737218D01*
X55066027Y-60747446D01*
X55043505Y-60755504D01*
X55020301Y-60761316D01*
X54996640Y-60764826D01*
X54972748Y-60766000D01*
X54485248Y-60766000D01*
X54461356Y-60764826D01*
X54437695Y-60761316D01*
X54414491Y-60755504D01*
X54391969Y-60747446D01*
X54370345Y-60737218D01*
X54349828Y-60724921D01*
X54330615Y-60710671D01*
X54312891Y-60694607D01*
X54296827Y-60676883D01*
X54282577Y-60657670D01*
X54270280Y-60637153D01*
X54260052Y-60615529D01*
X54251994Y-60593007D01*
X54246182Y-60569803D01*
X54242672Y-60546142D01*
X54241498Y-60522250D01*
X54241498Y-59609750D01*
X54242672Y-59585858D01*
X54246182Y-59562197D01*
X54251994Y-59538993D01*
X54260052Y-59516471D01*
X54270280Y-59494847D01*
X54282577Y-59474330D01*
X54296827Y-59455117D01*
X54312891Y-59437393D01*
X54330615Y-59421329D01*
X54349828Y-59407079D01*
X54370345Y-59394782D01*
X54391969Y-59384554D01*
X54414491Y-59376496D01*
X54437695Y-59370684D01*
X54461356Y-59367174D01*
X54485248Y-59366000D01*
X54972748Y-59366000D01*
X54996640Y-59367174D01*
X54996640Y-59367174D01*
G37*
D14*
G04 #@! TD*
G04 #@! TO.P,R5,2*
G04 #@! TO.N,Net-(J1-Pad3)*
X54728998Y-60066000D03*
D13*
G04 #@! TO.N,/USBDP*
G04 #@! TO.C,R5*
G36*
X56871642Y-59367174D02*
X56895303Y-59370684D01*
X56918507Y-59376496D01*
X56941029Y-59384554D01*
X56962653Y-59394782D01*
X56983170Y-59407079D01*
X57002383Y-59421329D01*
X57020107Y-59437393D01*
X57036171Y-59455117D01*
X57050421Y-59474330D01*
X57062718Y-59494847D01*
X57072946Y-59516471D01*
X57081004Y-59538993D01*
X57086816Y-59562197D01*
X57090326Y-59585858D01*
X57091500Y-59609750D01*
X57091500Y-60522250D01*
X57090326Y-60546142D01*
X57086816Y-60569803D01*
X57081004Y-60593007D01*
X57072946Y-60615529D01*
X57062718Y-60637153D01*
X57050421Y-60657670D01*
X57036171Y-60676883D01*
X57020107Y-60694607D01*
X57002383Y-60710671D01*
X56983170Y-60724921D01*
X56962653Y-60737218D01*
X56941029Y-60747446D01*
X56918507Y-60755504D01*
X56895303Y-60761316D01*
X56871642Y-60764826D01*
X56847750Y-60766000D01*
X56360250Y-60766000D01*
X56336358Y-60764826D01*
X56312697Y-60761316D01*
X56289493Y-60755504D01*
X56266971Y-60747446D01*
X56245347Y-60737218D01*
X56224830Y-60724921D01*
X56205617Y-60710671D01*
X56187893Y-60694607D01*
X56171829Y-60676883D01*
X56157579Y-60657670D01*
X56145282Y-60637153D01*
X56135054Y-60615529D01*
X56126996Y-60593007D01*
X56121184Y-60569803D01*
X56117674Y-60546142D01*
X56116500Y-60522250D01*
X56116500Y-59609750D01*
X56117674Y-59585858D01*
X56121184Y-59562197D01*
X56126996Y-59538993D01*
X56135054Y-59516471D01*
X56145282Y-59494847D01*
X56157579Y-59474330D01*
X56171829Y-59455117D01*
X56187893Y-59437393D01*
X56205617Y-59421329D01*
X56224830Y-59407079D01*
X56245347Y-59394782D01*
X56266971Y-59384554D01*
X56289493Y-59376496D01*
X56312697Y-59370684D01*
X56336358Y-59367174D01*
X56360250Y-59366000D01*
X56847750Y-59366000D01*
X56871642Y-59367174D01*
X56871642Y-59367174D01*
G37*
D14*
G04 #@! TD*
G04 #@! TO.P,R5,1*
G04 #@! TO.N,/USBDP*
X56604000Y-60066000D03*
D13*
G04 #@! TO.N,Net-(J1-Pad2)*
G04 #@! TO.C,R6*
G36*
X54996642Y-61399174D02*
X55020303Y-61402684D01*
X55043507Y-61408496D01*
X55066029Y-61416554D01*
X55087653Y-61426782D01*
X55108170Y-61439079D01*
X55127383Y-61453329D01*
X55145107Y-61469393D01*
X55161171Y-61487117D01*
X55175421Y-61506330D01*
X55187718Y-61526847D01*
X55197946Y-61548471D01*
X55206004Y-61570993D01*
X55211816Y-61594197D01*
X55215326Y-61617858D01*
X55216500Y-61641750D01*
X55216500Y-62554250D01*
X55215326Y-62578142D01*
X55211816Y-62601803D01*
X55206004Y-62625007D01*
X55197946Y-62647529D01*
X55187718Y-62669153D01*
X55175421Y-62689670D01*
X55161171Y-62708883D01*
X55145107Y-62726607D01*
X55127383Y-62742671D01*
X55108170Y-62756921D01*
X55087653Y-62769218D01*
X55066029Y-62779446D01*
X55043507Y-62787504D01*
X55020303Y-62793316D01*
X54996642Y-62796826D01*
X54972750Y-62798000D01*
X54485250Y-62798000D01*
X54461358Y-62796826D01*
X54437697Y-62793316D01*
X54414493Y-62787504D01*
X54391971Y-62779446D01*
X54370347Y-62769218D01*
X54349830Y-62756921D01*
X54330617Y-62742671D01*
X54312893Y-62726607D01*
X54296829Y-62708883D01*
X54282579Y-62689670D01*
X54270282Y-62669153D01*
X54260054Y-62647529D01*
X54251996Y-62625007D01*
X54246184Y-62601803D01*
X54242674Y-62578142D01*
X54241500Y-62554250D01*
X54241500Y-61641750D01*
X54242674Y-61617858D01*
X54246184Y-61594197D01*
X54251996Y-61570993D01*
X54260054Y-61548471D01*
X54270282Y-61526847D01*
X54282579Y-61506330D01*
X54296829Y-61487117D01*
X54312893Y-61469393D01*
X54330617Y-61453329D01*
X54349830Y-61439079D01*
X54370347Y-61426782D01*
X54391971Y-61416554D01*
X54414493Y-61408496D01*
X54437697Y-61402684D01*
X54461358Y-61399174D01*
X54485250Y-61398000D01*
X54972750Y-61398000D01*
X54996642Y-61399174D01*
X54996642Y-61399174D01*
G37*
D14*
G04 #@! TD*
G04 #@! TO.P,R6,2*
G04 #@! TO.N,Net-(J1-Pad2)*
X54729000Y-62098000D03*
D13*
G04 #@! TO.N,/USBDN*
G04 #@! TO.C,R6*
G36*
X56871642Y-61399174D02*
X56895303Y-61402684D01*
X56918507Y-61408496D01*
X56941029Y-61416554D01*
X56962653Y-61426782D01*
X56983170Y-61439079D01*
X57002383Y-61453329D01*
X57020107Y-61469393D01*
X57036171Y-61487117D01*
X57050421Y-61506330D01*
X57062718Y-61526847D01*
X57072946Y-61548471D01*
X57081004Y-61570993D01*
X57086816Y-61594197D01*
X57090326Y-61617858D01*
X57091500Y-61641750D01*
X57091500Y-62554250D01*
X57090326Y-62578142D01*
X57086816Y-62601803D01*
X57081004Y-62625007D01*
X57072946Y-62647529D01*
X57062718Y-62669153D01*
X57050421Y-62689670D01*
X57036171Y-62708883D01*
X57020107Y-62726607D01*
X57002383Y-62742671D01*
X56983170Y-62756921D01*
X56962653Y-62769218D01*
X56941029Y-62779446D01*
X56918507Y-62787504D01*
X56895303Y-62793316D01*
X56871642Y-62796826D01*
X56847750Y-62798000D01*
X56360250Y-62798000D01*
X56336358Y-62796826D01*
X56312697Y-62793316D01*
X56289493Y-62787504D01*
X56266971Y-62779446D01*
X56245347Y-62769218D01*
X56224830Y-62756921D01*
X56205617Y-62742671D01*
X56187893Y-62726607D01*
X56171829Y-62708883D01*
X56157579Y-62689670D01*
X56145282Y-62669153D01*
X56135054Y-62647529D01*
X56126996Y-62625007D01*
X56121184Y-62601803D01*
X56117674Y-62578142D01*
X56116500Y-62554250D01*
X56116500Y-61641750D01*
X56117674Y-61617858D01*
X56121184Y-61594197D01*
X56126996Y-61570993D01*
X56135054Y-61548471D01*
X56145282Y-61526847D01*
X56157579Y-61506330D01*
X56171829Y-61487117D01*
X56187893Y-61469393D01*
X56205617Y-61453329D01*
X56224830Y-61439079D01*
X56245347Y-61426782D01*
X56266971Y-61416554D01*
X56289493Y-61408496D01*
X56312697Y-61402684D01*
X56336358Y-61399174D01*
X56360250Y-61398000D01*
X56847750Y-61398000D01*
X56871642Y-61399174D01*
X56871642Y-61399174D01*
G37*
D14*
G04 #@! TD*
G04 #@! TO.P,R6,1*
G04 #@! TO.N,/USBDN*
X56604000Y-62098000D03*
D15*
G04 #@! TO.P,U1,1*
G04 #@! TO.N,Net-(U1-Pad1)*
X67131371Y-50479542D03*
D13*
G04 #@! TD*
G04 #@! TO.N,Net-(U1-Pad1)*
G04 #@! TO.C,U1*
G36*
X67502602Y-49931534D02*
X67679379Y-50108311D01*
X66760140Y-51027550D01*
X66583363Y-50850773D01*
X67502602Y-49931534D01*
X67502602Y-49931534D01*
G37*
D15*
G04 #@! TO.P,U1,2*
G04 #@! TO.N,/PC13*
X67484924Y-50833095D03*
D13*
G04 #@! TD*
G04 #@! TO.N,/PC13*
G04 #@! TO.C,U1*
G36*
X67856155Y-50285087D02*
X68032932Y-50461864D01*
X67113693Y-51381103D01*
X66936916Y-51204326D01*
X67856155Y-50285087D01*
X67856155Y-50285087D01*
G37*
D15*
G04 #@! TO.P,U1,3*
G04 #@! TO.N,Net-(U1-Pad3)*
X67838478Y-51186649D03*
D13*
G04 #@! TD*
G04 #@! TO.N,Net-(U1-Pad3)*
G04 #@! TO.C,U1*
G36*
X68209709Y-50638641D02*
X68386486Y-50815418D01*
X67467247Y-51734657D01*
X67290470Y-51557880D01*
X68209709Y-50638641D01*
X68209709Y-50638641D01*
G37*
D15*
G04 #@! TO.P,U1,4*
G04 #@! TO.N,Net-(U1-Pad4)*
X68192031Y-51540202D03*
D13*
G04 #@! TD*
G04 #@! TO.N,Net-(U1-Pad4)*
G04 #@! TO.C,U1*
G36*
X68563262Y-50992194D02*
X68740039Y-51168971D01*
X67820800Y-52088210D01*
X67644023Y-51911433D01*
X68563262Y-50992194D01*
X68563262Y-50992194D01*
G37*
D15*
G04 #@! TO.P,U1,5*
G04 #@! TO.N,Net-(U1-Pad5)*
X68545584Y-51893755D03*
D13*
G04 #@! TD*
G04 #@! TO.N,Net-(U1-Pad5)*
G04 #@! TO.C,U1*
G36*
X68916815Y-51345747D02*
X69093592Y-51522524D01*
X68174353Y-52441763D01*
X67997576Y-52264986D01*
X68916815Y-51345747D01*
X68916815Y-51345747D01*
G37*
D15*
G04 #@! TO.P,U1,6*
G04 #@! TO.N,Net-(U1-Pad6)*
X68899138Y-52247309D03*
D13*
G04 #@! TD*
G04 #@! TO.N,Net-(U1-Pad6)*
G04 #@! TO.C,U1*
G36*
X69270369Y-51699301D02*
X69447146Y-51876078D01*
X68527907Y-52795317D01*
X68351130Y-52618540D01*
X69270369Y-51699301D01*
X69270369Y-51699301D01*
G37*
D15*
G04 #@! TO.P,U1,7*
G04 #@! TO.N,Net-(R1-Pad2)*
X69252691Y-52600862D03*
D13*
G04 #@! TD*
G04 #@! TO.N,Net-(R1-Pad2)*
G04 #@! TO.C,U1*
G36*
X69623922Y-52052854D02*
X69800699Y-52229631D01*
X68881460Y-53148870D01*
X68704683Y-52972093D01*
X69623922Y-52052854D01*
X69623922Y-52052854D01*
G37*
D15*
G04 #@! TO.P,U1,8*
G04 #@! TO.N,GND*
X69606245Y-52954416D03*
D13*
G04 #@! TD*
G04 #@! TO.N,GND*
G04 #@! TO.C,U1*
G36*
X69977476Y-52406408D02*
X70154253Y-52583185D01*
X69235014Y-53502424D01*
X69058237Y-53325647D01*
X69977476Y-52406408D01*
X69977476Y-52406408D01*
G37*
D15*
G04 #@! TO.P,U1,9*
G04 #@! TO.N,+3V3*
X69959798Y-53307969D03*
D13*
G04 #@! TD*
G04 #@! TO.N,+3V3*
G04 #@! TO.C,U1*
G36*
X70331029Y-52759961D02*
X70507806Y-52936738D01*
X69588567Y-53855977D01*
X69411790Y-53679200D01*
X70331029Y-52759961D01*
X70331029Y-52759961D01*
G37*
D15*
G04 #@! TO.P,U1,10*
G04 #@! TO.N,/DB0*
X70313351Y-53661522D03*
D13*
G04 #@! TD*
G04 #@! TO.N,/DB0*
G04 #@! TO.C,U1*
G36*
X70684582Y-53113514D02*
X70861359Y-53290291D01*
X69942120Y-54209530D01*
X69765343Y-54032753D01*
X70684582Y-53113514D01*
X70684582Y-53113514D01*
G37*
D15*
G04 #@! TO.P,U1,11*
G04 #@! TO.N,/DB1*
X70666905Y-54015076D03*
D13*
G04 #@! TD*
G04 #@! TO.N,/DB1*
G04 #@! TO.C,U1*
G36*
X71038136Y-53467068D02*
X71214913Y-53643845D01*
X70295674Y-54563084D01*
X70118897Y-54386307D01*
X71038136Y-53467068D01*
X71038136Y-53467068D01*
G37*
D15*
G04 #@! TO.P,U1,12*
G04 #@! TO.N,/DB2*
X71020458Y-54368629D03*
D13*
G04 #@! TD*
G04 #@! TO.N,/DB2*
G04 #@! TO.C,U1*
G36*
X71391689Y-53820621D02*
X71568466Y-53997398D01*
X70649227Y-54916637D01*
X70472450Y-54739860D01*
X71391689Y-53820621D01*
X71391689Y-53820621D01*
G37*
D15*
G04 #@! TO.P,U1,13*
G04 #@! TO.N,/DB3*
X71020458Y-56631371D03*
D13*
G04 #@! TD*
G04 #@! TO.N,/DB3*
G04 #@! TO.C,U1*
G36*
X71568466Y-57002602D02*
X71391689Y-57179379D01*
X70472450Y-56260140D01*
X70649227Y-56083363D01*
X71568466Y-57002602D01*
X71568466Y-57002602D01*
G37*
D15*
G04 #@! TO.P,U1,14*
G04 #@! TO.N,/DB4*
X70666905Y-56984924D03*
D13*
G04 #@! TD*
G04 #@! TO.N,/DB4*
G04 #@! TO.C,U1*
G36*
X71214913Y-57356155D02*
X71038136Y-57532932D01*
X70118897Y-56613693D01*
X70295674Y-56436916D01*
X71214913Y-57356155D01*
X71214913Y-57356155D01*
G37*
D15*
G04 #@! TO.P,U1,15*
G04 #@! TO.N,/DB5*
X70313351Y-57338478D03*
D13*
G04 #@! TD*
G04 #@! TO.N,/DB5*
G04 #@! TO.C,U1*
G36*
X70861359Y-57709709D02*
X70684582Y-57886486D01*
X69765343Y-56967247D01*
X69942120Y-56790470D01*
X70861359Y-57709709D01*
X70861359Y-57709709D01*
G37*
D15*
G04 #@! TO.P,U1,16*
G04 #@! TO.N,/DB6*
X69959798Y-57692031D03*
D13*
G04 #@! TD*
G04 #@! TO.N,/DB6*
G04 #@! TO.C,U1*
G36*
X70507806Y-58063262D02*
X70331029Y-58240039D01*
X69411790Y-57320800D01*
X69588567Y-57144023D01*
X70507806Y-58063262D01*
X70507806Y-58063262D01*
G37*
D15*
G04 #@! TO.P,U1,17*
G04 #@! TO.N,/DB7*
X69606245Y-58045584D03*
D13*
G04 #@! TD*
G04 #@! TO.N,/DB7*
G04 #@! TO.C,U1*
G36*
X70154253Y-58416815D02*
X69977476Y-58593592D01*
X69058237Y-57674353D01*
X69235014Y-57497576D01*
X70154253Y-58416815D01*
X70154253Y-58416815D01*
G37*
D15*
G04 #@! TO.P,U1,18*
G04 #@! TO.N,/RD*
X69252691Y-58399138D03*
D13*
G04 #@! TD*
G04 #@! TO.N,/RD*
G04 #@! TO.C,U1*
G36*
X69800699Y-58770369D02*
X69623922Y-58947146D01*
X68704683Y-58027907D01*
X68881460Y-57851130D01*
X69800699Y-58770369D01*
X69800699Y-58770369D01*
G37*
D15*
G04 #@! TO.P,U1,19*
G04 #@! TO.N,/WR*
X68899138Y-58752691D03*
D13*
G04 #@! TD*
G04 #@! TO.N,/WR*
G04 #@! TO.C,U1*
G36*
X69447146Y-59123922D02*
X69270369Y-59300699D01*
X68351130Y-58381460D01*
X68527907Y-58204683D01*
X69447146Y-59123922D01*
X69447146Y-59123922D01*
G37*
D15*
G04 #@! TO.P,U1,20*
G04 #@! TO.N,/BOOT1*
X68545584Y-59106245D03*
D13*
G04 #@! TD*
G04 #@! TO.N,/BOOT1*
G04 #@! TO.C,U1*
G36*
X69093592Y-59477476D02*
X68916815Y-59654253D01*
X67997576Y-58735014D01*
X68174353Y-58558237D01*
X69093592Y-59477476D01*
X69093592Y-59477476D01*
G37*
D15*
G04 #@! TO.P,U1,21*
G04 #@! TO.N,/Reset*
X68192031Y-59459798D03*
D13*
G04 #@! TD*
G04 #@! TO.N,/Reset*
G04 #@! TO.C,U1*
G36*
X68740039Y-59831029D02*
X68563262Y-60007806D01*
X67644023Y-59088567D01*
X67820800Y-58911790D01*
X68740039Y-59831029D01*
X68740039Y-59831029D01*
G37*
D15*
G04 #@! TO.P,U1,22*
G04 #@! TO.N,/CS*
X67838478Y-59813351D03*
D13*
G04 #@! TD*
G04 #@! TO.N,/CS*
G04 #@! TO.C,U1*
G36*
X68386486Y-60184582D02*
X68209709Y-60361359D01*
X67290470Y-59442120D01*
X67467247Y-59265343D01*
X68386486Y-60184582D01*
X68386486Y-60184582D01*
G37*
D15*
G04 #@! TO.P,U1,23*
G04 #@! TO.N,GND*
X67484924Y-60166905D03*
D13*
G04 #@! TD*
G04 #@! TO.N,GND*
G04 #@! TO.C,U1*
G36*
X68032932Y-60538136D02*
X67856155Y-60714913D01*
X66936916Y-59795674D01*
X67113693Y-59618897D01*
X68032932Y-60538136D01*
X68032932Y-60538136D01*
G37*
D15*
G04 #@! TO.P,U1,24*
G04 #@! TO.N,+3V3*
X67131371Y-60520458D03*
D13*
G04 #@! TD*
G04 #@! TO.N,+3V3*
G04 #@! TO.C,U1*
G36*
X67679379Y-60891689D02*
X67502602Y-61068466D01*
X66583363Y-60149227D01*
X66760140Y-59972450D01*
X67679379Y-60891689D01*
X67679379Y-60891689D01*
G37*
D15*
G04 #@! TO.P,U1,25*
G04 #@! TO.N,Net-(RN1-Pad8)*
X64868629Y-60520458D03*
D13*
G04 #@! TD*
G04 #@! TO.N,Net-(RN1-Pad8)*
G04 #@! TO.C,U1*
G36*
X65239860Y-59972450D02*
X65416637Y-60149227D01*
X64497398Y-61068466D01*
X64320621Y-60891689D01*
X65239860Y-59972450D01*
X65239860Y-59972450D01*
G37*
D15*
G04 #@! TO.P,U1,26*
G04 #@! TO.N,Net-(RN1-Pad7)*
X64515076Y-60166905D03*
D13*
G04 #@! TD*
G04 #@! TO.N,Net-(RN1-Pad7)*
G04 #@! TO.C,U1*
G36*
X64886307Y-59618897D02*
X65063084Y-59795674D01*
X64143845Y-60714913D01*
X63967068Y-60538136D01*
X64886307Y-59618897D01*
X64886307Y-59618897D01*
G37*
D15*
G04 #@! TO.P,U1,27*
G04 #@! TO.N,Net-(RN1-Pad6)*
X64161522Y-59813351D03*
D13*
G04 #@! TD*
G04 #@! TO.N,Net-(RN1-Pad6)*
G04 #@! TO.C,U1*
G36*
X64532753Y-59265343D02*
X64709530Y-59442120D01*
X63790291Y-60361359D01*
X63613514Y-60184582D01*
X64532753Y-59265343D01*
X64532753Y-59265343D01*
G37*
D15*
G04 #@! TO.P,U1,28*
G04 #@! TO.N,Net-(RN1-Pad5)*
X63807969Y-59459798D03*
D13*
G04 #@! TD*
G04 #@! TO.N,Net-(RN1-Pad5)*
G04 #@! TO.C,U1*
G36*
X64179200Y-58911790D02*
X64355977Y-59088567D01*
X63436738Y-60007806D01*
X63259961Y-59831029D01*
X64179200Y-58911790D01*
X64179200Y-58911790D01*
G37*
D15*
G04 #@! TO.P,U1,29*
G04 #@! TO.N,Net-(U1-Pad29)*
X63454416Y-59106245D03*
D13*
G04 #@! TD*
G04 #@! TO.N,Net-(U1-Pad29)*
G04 #@! TO.C,U1*
G36*
X63825647Y-58558237D02*
X64002424Y-58735014D01*
X63083185Y-59654253D01*
X62906408Y-59477476D01*
X63825647Y-58558237D01*
X63825647Y-58558237D01*
G37*
D15*
G04 #@! TO.P,U1,30*
G04 #@! TO.N,/USART_TX*
X63100862Y-58752691D03*
D13*
G04 #@! TD*
G04 #@! TO.N,/USART_TX*
G04 #@! TO.C,U1*
G36*
X63472093Y-58204683D02*
X63648870Y-58381460D01*
X62729631Y-59300699D01*
X62552854Y-59123922D01*
X63472093Y-58204683D01*
X63472093Y-58204683D01*
G37*
D15*
G04 #@! TO.P,U1,31*
G04 #@! TO.N,/USART_RX*
X62747309Y-58399138D03*
D13*
G04 #@! TD*
G04 #@! TO.N,/USART_RX*
G04 #@! TO.C,U1*
G36*
X63118540Y-57851130D02*
X63295317Y-58027907D01*
X62376078Y-58947146D01*
X62199301Y-58770369D01*
X63118540Y-57851130D01*
X63118540Y-57851130D01*
G37*
D15*
G04 #@! TO.P,U1,32*
G04 #@! TO.N,/USBDN*
X62393755Y-58045584D03*
D13*
G04 #@! TD*
G04 #@! TO.N,/USBDN*
G04 #@! TO.C,U1*
G36*
X62764986Y-57497576D02*
X62941763Y-57674353D01*
X62022524Y-58593592D01*
X61845747Y-58416815D01*
X62764986Y-57497576D01*
X62764986Y-57497576D01*
G37*
D15*
G04 #@! TO.P,U1,33*
G04 #@! TO.N,/USBDP*
X62040202Y-57692031D03*
D13*
G04 #@! TD*
G04 #@! TO.N,/USBDP*
G04 #@! TO.C,U1*
G36*
X62411433Y-57144023D02*
X62588210Y-57320800D01*
X61668971Y-58240039D01*
X61492194Y-58063262D01*
X62411433Y-57144023D01*
X62411433Y-57144023D01*
G37*
D15*
G04 #@! TO.P,U1,34*
G04 #@! TO.N,/SWDIO*
X61686649Y-57338478D03*
D13*
G04 #@! TD*
G04 #@! TO.N,/SWDIO*
G04 #@! TO.C,U1*
G36*
X62057880Y-56790470D02*
X62234657Y-56967247D01*
X61315418Y-57886486D01*
X61138641Y-57709709D01*
X62057880Y-56790470D01*
X62057880Y-56790470D01*
G37*
D15*
G04 #@! TO.P,U1,35*
G04 #@! TO.N,GND*
X61333095Y-56984924D03*
D13*
G04 #@! TD*
G04 #@! TO.N,GND*
G04 #@! TO.C,U1*
G36*
X61704326Y-56436916D02*
X61881103Y-56613693D01*
X60961864Y-57532932D01*
X60785087Y-57356155D01*
X61704326Y-56436916D01*
X61704326Y-56436916D01*
G37*
D15*
G04 #@! TO.P,U1,36*
G04 #@! TO.N,+3V3*
X60979542Y-56631371D03*
D13*
G04 #@! TD*
G04 #@! TO.N,+3V3*
G04 #@! TO.C,U1*
G36*
X61350773Y-56083363D02*
X61527550Y-56260140D01*
X60608311Y-57179379D01*
X60431534Y-57002602D01*
X61350773Y-56083363D01*
X61350773Y-56083363D01*
G37*
D15*
G04 #@! TO.P,U1,37*
G04 #@! TO.N,/SWCLK*
X60979542Y-54368629D03*
D13*
G04 #@! TD*
G04 #@! TO.N,/SWCLK*
G04 #@! TO.C,U1*
G36*
X61527550Y-54739860D02*
X61350773Y-54916637D01*
X60431534Y-53997398D01*
X60608311Y-53820621D01*
X61527550Y-54739860D01*
X61527550Y-54739860D01*
G37*
D15*
G04 #@! TO.P,U1,38*
G04 #@! TO.N,Net-(U1-Pad38)*
X61333095Y-54015076D03*
D13*
G04 #@! TD*
G04 #@! TO.N,Net-(U1-Pad38)*
G04 #@! TO.C,U1*
G36*
X61881103Y-54386307D02*
X61704326Y-54563084D01*
X60785087Y-53643845D01*
X60961864Y-53467068D01*
X61881103Y-54386307D01*
X61881103Y-54386307D01*
G37*
D15*
G04 #@! TO.P,U1,39*
G04 #@! TO.N,Net-(U1-Pad39)*
X61686649Y-53661522D03*
D13*
G04 #@! TD*
G04 #@! TO.N,Net-(U1-Pad39)*
G04 #@! TO.C,U1*
G36*
X62234657Y-54032753D02*
X62057880Y-54209530D01*
X61138641Y-53290291D01*
X61315418Y-53113514D01*
X62234657Y-54032753D01*
X62234657Y-54032753D01*
G37*
D15*
G04 #@! TO.P,U1,40*
G04 #@! TO.N,Net-(U1-Pad40)*
X62040202Y-53307969D03*
D13*
G04 #@! TD*
G04 #@! TO.N,Net-(U1-Pad40)*
G04 #@! TO.C,U1*
G36*
X62588210Y-53679200D02*
X62411433Y-53855977D01*
X61492194Y-52936738D01*
X61668971Y-52759961D01*
X62588210Y-53679200D01*
X62588210Y-53679200D01*
G37*
D15*
G04 #@! TO.P,U1,41*
G04 #@! TO.N,Net-(U1-Pad41)*
X62393755Y-52954416D03*
D13*
G04 #@! TD*
G04 #@! TO.N,Net-(U1-Pad41)*
G04 #@! TO.C,U1*
G36*
X62941763Y-53325647D02*
X62764986Y-53502424D01*
X61845747Y-52583185D01*
X62022524Y-52406408D01*
X62941763Y-53325647D01*
X62941763Y-53325647D01*
G37*
D15*
G04 #@! TO.P,U1,42*
G04 #@! TO.N,/SCL*
X62747309Y-52600862D03*
D13*
G04 #@! TD*
G04 #@! TO.N,/SCL*
G04 #@! TO.C,U1*
G36*
X63295317Y-52972093D02*
X63118540Y-53148870D01*
X62199301Y-52229631D01*
X62376078Y-52052854D01*
X63295317Y-52972093D01*
X63295317Y-52972093D01*
G37*
D15*
G04 #@! TO.P,U1,43*
G04 #@! TO.N,/SDA*
X63100862Y-52247309D03*
D13*
G04 #@! TD*
G04 #@! TO.N,/SDA*
G04 #@! TO.C,U1*
G36*
X63648870Y-52618540D02*
X63472093Y-52795317D01*
X62552854Y-51876078D01*
X62729631Y-51699301D01*
X63648870Y-52618540D01*
X63648870Y-52618540D01*
G37*
D15*
G04 #@! TO.P,U1,44*
G04 #@! TO.N,/BOOT0*
X63454416Y-51893755D03*
D13*
G04 #@! TD*
G04 #@! TO.N,/BOOT0*
G04 #@! TO.C,U1*
G36*
X64002424Y-52264986D02*
X63825647Y-52441763D01*
X62906408Y-51522524D01*
X63083185Y-51345747D01*
X64002424Y-52264986D01*
X64002424Y-52264986D01*
G37*
D15*
G04 #@! TO.P,U1,45*
G04 #@! TO.N,Net-(U1-Pad45)*
X63807969Y-51540202D03*
D13*
G04 #@! TD*
G04 #@! TO.N,Net-(U1-Pad45)*
G04 #@! TO.C,U1*
G36*
X64355977Y-51911433D02*
X64179200Y-52088210D01*
X63259961Y-51168971D01*
X63436738Y-50992194D01*
X64355977Y-51911433D01*
X64355977Y-51911433D01*
G37*
D15*
G04 #@! TO.P,U1,46*
G04 #@! TO.N,Net-(U1-Pad46)*
X64161522Y-51186649D03*
D13*
G04 #@! TD*
G04 #@! TO.N,Net-(U1-Pad46)*
G04 #@! TO.C,U1*
G36*
X64709530Y-51557880D02*
X64532753Y-51734657D01*
X63613514Y-50815418D01*
X63790291Y-50638641D01*
X64709530Y-51557880D01*
X64709530Y-51557880D01*
G37*
D15*
G04 #@! TO.P,U1,47*
G04 #@! TO.N,GND*
X64515076Y-50833095D03*
D13*
G04 #@! TD*
G04 #@! TO.N,GND*
G04 #@! TO.C,U1*
G36*
X65063084Y-51204326D02*
X64886307Y-51381103D01*
X63967068Y-50461864D01*
X64143845Y-50285087D01*
X65063084Y-51204326D01*
X65063084Y-51204326D01*
G37*
D15*
G04 #@! TO.P,U1,48*
G04 #@! TO.N,+3V3*
X64868629Y-50479542D03*
D13*
G04 #@! TD*
G04 #@! TO.N,+3V3*
G04 #@! TO.C,U1*
G36*
X65416637Y-50850773D02*
X65239860Y-51027550D01*
X64320621Y-50108311D01*
X64497398Y-49931534D01*
X65416637Y-50850773D01*
X65416637Y-50850773D01*
G37*
D16*
G04 #@! TO.P,Y1,1*
G04 #@! TO.N,Net-(U1-Pad5)*
X70151472Y-48651472D03*
D13*
G04 #@! TD*
G04 #@! TO.N,Net-(U1-Pad5)*
G04 #@! TO.C,Y1*
G36*
X69338299Y-49181802D02*
X70681802Y-47838299D01*
X70964645Y-48121142D01*
X69621142Y-49464645D01*
X69338299Y-49181802D01*
X69338299Y-49181802D01*
G37*
D16*
G04 #@! TO.P,Y1,2*
G04 #@! TO.N,GND*
X71000000Y-49500000D03*
D13*
G04 #@! TD*
G04 #@! TO.N,GND*
G04 #@! TO.C,Y1*
G36*
X70186827Y-50030330D02*
X71530330Y-48686827D01*
X71813173Y-48969670D01*
X70469670Y-50313173D01*
X70186827Y-50030330D01*
X70186827Y-50030330D01*
G37*
D16*
G04 #@! TO.P,Y1,3*
G04 #@! TO.N,Net-(U1-Pad6)*
X71848528Y-50348528D03*
D13*
G04 #@! TD*
G04 #@! TO.N,Net-(U1-Pad6)*
G04 #@! TO.C,Y1*
G36*
X71035355Y-50878858D02*
X72378858Y-49535355D01*
X72661701Y-49818198D01*
X71318198Y-51161701D01*
X71035355Y-50878858D01*
X71035355Y-50878858D01*
G37*
G04 #@! TO.N,GND*
G04 #@! TO.C,C1*
G36*
X58823504Y-41335204D02*
X58847773Y-41338804D01*
X58871571Y-41344765D01*
X58894671Y-41353030D01*
X58916849Y-41363520D01*
X58937893Y-41376133D01*
X58957598Y-41390747D01*
X58975777Y-41407223D01*
X58992253Y-41425402D01*
X59006867Y-41445107D01*
X59019480Y-41466151D01*
X59029970Y-41488329D01*
X59038235Y-41511429D01*
X59044196Y-41535227D01*
X59047796Y-41559496D01*
X59049000Y-41584000D01*
X59049000Y-42584000D01*
X59047796Y-42608504D01*
X59044196Y-42632773D01*
X59038235Y-42656571D01*
X59029970Y-42679671D01*
X59019480Y-42701849D01*
X59006867Y-42722893D01*
X58992253Y-42742598D01*
X58975777Y-42760777D01*
X58957598Y-42777253D01*
X58937893Y-42791867D01*
X58916849Y-42804480D01*
X58894671Y-42814970D01*
X58871571Y-42823235D01*
X58847773Y-42829196D01*
X58823504Y-42832796D01*
X58799000Y-42834000D01*
X56949000Y-42834000D01*
X56924496Y-42832796D01*
X56900227Y-42829196D01*
X56876429Y-42823235D01*
X56853329Y-42814970D01*
X56831151Y-42804480D01*
X56810107Y-42791867D01*
X56790402Y-42777253D01*
X56772223Y-42760777D01*
X56755747Y-42742598D01*
X56741133Y-42722893D01*
X56728520Y-42701849D01*
X56718030Y-42679671D01*
X56709765Y-42656571D01*
X56703804Y-42632773D01*
X56700204Y-42608504D01*
X56699000Y-42584000D01*
X56699000Y-41584000D01*
X56700204Y-41559496D01*
X56703804Y-41535227D01*
X56709765Y-41511429D01*
X56718030Y-41488329D01*
X56728520Y-41466151D01*
X56741133Y-41445107D01*
X56755747Y-41425402D01*
X56772223Y-41407223D01*
X56790402Y-41390747D01*
X56810107Y-41376133D01*
X56831151Y-41363520D01*
X56853329Y-41353030D01*
X56876429Y-41344765D01*
X56900227Y-41338804D01*
X56924496Y-41335204D01*
X56949000Y-41334000D01*
X58799000Y-41334000D01*
X58823504Y-41335204D01*
X58823504Y-41335204D01*
G37*
D17*
G04 #@! TD*
G04 #@! TO.P,C1,2*
G04 #@! TO.N,GND*
X57874000Y-42084000D03*
D13*
G04 #@! TO.N,/Vin*
G04 #@! TO.C,C1*
G36*
X58823504Y-44585204D02*
X58847773Y-44588804D01*
X58871571Y-44594765D01*
X58894671Y-44603030D01*
X58916849Y-44613520D01*
X58937893Y-44626133D01*
X58957598Y-44640747D01*
X58975777Y-44657223D01*
X58992253Y-44675402D01*
X59006867Y-44695107D01*
X59019480Y-44716151D01*
X59029970Y-44738329D01*
X59038235Y-44761429D01*
X59044196Y-44785227D01*
X59047796Y-44809496D01*
X59049000Y-44834000D01*
X59049000Y-45834000D01*
X59047796Y-45858504D01*
X59044196Y-45882773D01*
X59038235Y-45906571D01*
X59029970Y-45929671D01*
X59019480Y-45951849D01*
X59006867Y-45972893D01*
X58992253Y-45992598D01*
X58975777Y-46010777D01*
X58957598Y-46027253D01*
X58937893Y-46041867D01*
X58916849Y-46054480D01*
X58894671Y-46064970D01*
X58871571Y-46073235D01*
X58847773Y-46079196D01*
X58823504Y-46082796D01*
X58799000Y-46084000D01*
X56949000Y-46084000D01*
X56924496Y-46082796D01*
X56900227Y-46079196D01*
X56876429Y-46073235D01*
X56853329Y-46064970D01*
X56831151Y-46054480D01*
X56810107Y-46041867D01*
X56790402Y-46027253D01*
X56772223Y-46010777D01*
X56755747Y-45992598D01*
X56741133Y-45972893D01*
X56728520Y-45951849D01*
X56718030Y-45929671D01*
X56709765Y-45906571D01*
X56703804Y-45882773D01*
X56700204Y-45858504D01*
X56699000Y-45834000D01*
X56699000Y-44834000D01*
X56700204Y-44809496D01*
X56703804Y-44785227D01*
X56709765Y-44761429D01*
X56718030Y-44738329D01*
X56728520Y-44716151D01*
X56741133Y-44695107D01*
X56755747Y-44675402D01*
X56772223Y-44657223D01*
X56790402Y-44640747D01*
X56810107Y-44626133D01*
X56831151Y-44613520D01*
X56853329Y-44603030D01*
X56876429Y-44594765D01*
X56900227Y-44588804D01*
X56924496Y-44585204D01*
X56949000Y-44584000D01*
X58799000Y-44584000D01*
X58823504Y-44585204D01*
X58823504Y-44585204D01*
G37*
D17*
G04 #@! TD*
G04 #@! TO.P,C1,1*
G04 #@! TO.N,/Vin*
X57874000Y-45334000D03*
D13*
G04 #@! TO.N,+3V3*
G04 #@! TO.C,C2*
G36*
X68729504Y-44376204D02*
X68753773Y-44379804D01*
X68777571Y-44385765D01*
X68800671Y-44394030D01*
X68822849Y-44404520D01*
X68843893Y-44417133D01*
X68863598Y-44431747D01*
X68881777Y-44448223D01*
X68898253Y-44466402D01*
X68912867Y-44486107D01*
X68925480Y-44507151D01*
X68935970Y-44529329D01*
X68944235Y-44552429D01*
X68950196Y-44576227D01*
X68953796Y-44600496D01*
X68955000Y-44625000D01*
X68955000Y-45625000D01*
X68953796Y-45649504D01*
X68950196Y-45673773D01*
X68944235Y-45697571D01*
X68935970Y-45720671D01*
X68925480Y-45742849D01*
X68912867Y-45763893D01*
X68898253Y-45783598D01*
X68881777Y-45801777D01*
X68863598Y-45818253D01*
X68843893Y-45832867D01*
X68822849Y-45845480D01*
X68800671Y-45855970D01*
X68777571Y-45864235D01*
X68753773Y-45870196D01*
X68729504Y-45873796D01*
X68705000Y-45875000D01*
X66855000Y-45875000D01*
X66830496Y-45873796D01*
X66806227Y-45870196D01*
X66782429Y-45864235D01*
X66759329Y-45855970D01*
X66737151Y-45845480D01*
X66716107Y-45832867D01*
X66696402Y-45818253D01*
X66678223Y-45801777D01*
X66661747Y-45783598D01*
X66647133Y-45763893D01*
X66634520Y-45742849D01*
X66624030Y-45720671D01*
X66615765Y-45697571D01*
X66609804Y-45673773D01*
X66606204Y-45649504D01*
X66605000Y-45625000D01*
X66605000Y-44625000D01*
X66606204Y-44600496D01*
X66609804Y-44576227D01*
X66615765Y-44552429D01*
X66624030Y-44529329D01*
X66634520Y-44507151D01*
X66647133Y-44486107D01*
X66661747Y-44466402D01*
X66678223Y-44448223D01*
X66696402Y-44431747D01*
X66716107Y-44417133D01*
X66737151Y-44404520D01*
X66759329Y-44394030D01*
X66782429Y-44385765D01*
X66806227Y-44379804D01*
X66830496Y-44376204D01*
X66855000Y-44375000D01*
X68705000Y-44375000D01*
X68729504Y-44376204D01*
X68729504Y-44376204D01*
G37*
D17*
G04 #@! TD*
G04 #@! TO.P,C2,1*
G04 #@! TO.N,+3V3*
X67780000Y-45125000D03*
D13*
G04 #@! TO.N,GND*
G04 #@! TO.C,C2*
G36*
X68729504Y-41126204D02*
X68753773Y-41129804D01*
X68777571Y-41135765D01*
X68800671Y-41144030D01*
X68822849Y-41154520D01*
X68843893Y-41167133D01*
X68863598Y-41181747D01*
X68881777Y-41198223D01*
X68898253Y-41216402D01*
X68912867Y-41236107D01*
X68925480Y-41257151D01*
X68935970Y-41279329D01*
X68944235Y-41302429D01*
X68950196Y-41326227D01*
X68953796Y-41350496D01*
X68955000Y-41375000D01*
X68955000Y-42375000D01*
X68953796Y-42399504D01*
X68950196Y-42423773D01*
X68944235Y-42447571D01*
X68935970Y-42470671D01*
X68925480Y-42492849D01*
X68912867Y-42513893D01*
X68898253Y-42533598D01*
X68881777Y-42551777D01*
X68863598Y-42568253D01*
X68843893Y-42582867D01*
X68822849Y-42595480D01*
X68800671Y-42605970D01*
X68777571Y-42614235D01*
X68753773Y-42620196D01*
X68729504Y-42623796D01*
X68705000Y-42625000D01*
X66855000Y-42625000D01*
X66830496Y-42623796D01*
X66806227Y-42620196D01*
X66782429Y-42614235D01*
X66759329Y-42605970D01*
X66737151Y-42595480D01*
X66716107Y-42582867D01*
X66696402Y-42568253D01*
X66678223Y-42551777D01*
X66661747Y-42533598D01*
X66647133Y-42513893D01*
X66634520Y-42492849D01*
X66624030Y-42470671D01*
X66615765Y-42447571D01*
X66609804Y-42423773D01*
X66606204Y-42399504D01*
X66605000Y-42375000D01*
X66605000Y-41375000D01*
X66606204Y-41350496D01*
X66609804Y-41326227D01*
X66615765Y-41302429D01*
X66624030Y-41279329D01*
X66634520Y-41257151D01*
X66647133Y-41236107D01*
X66661747Y-41216402D01*
X66678223Y-41198223D01*
X66696402Y-41181747D01*
X66716107Y-41167133D01*
X66737151Y-41154520D01*
X66759329Y-41144030D01*
X66782429Y-41135765D01*
X66806227Y-41129804D01*
X66830496Y-41126204D01*
X66855000Y-41125000D01*
X68705000Y-41125000D01*
X68729504Y-41126204D01*
X68729504Y-41126204D01*
G37*
D17*
G04 #@! TD*
G04 #@! TO.P,C2,2*
G04 #@! TO.N,GND*
X67780000Y-41875000D03*
D18*
G04 #@! TO.P,RN1,1*
G04 #@! TO.N,/SPI_INT*
X69700000Y-66900000D03*
D19*
G04 #@! TO.P,RN1,3*
G04 #@! TO.N,/SPI_MISO*
X68100000Y-66900000D03*
G04 #@! TO.P,RN1,2*
G04 #@! TO.N,/SPI_SCK*
X68900000Y-66900000D03*
D18*
G04 #@! TO.P,RN1,4*
G04 #@! TO.N,/SPI_MOSI*
X67300000Y-66900000D03*
D19*
G04 #@! TO.P,RN1,7*
G04 #@! TO.N,Net-(RN1-Pad7)*
X68900000Y-65100000D03*
D18*
G04 #@! TO.P,RN1,8*
G04 #@! TO.N,Net-(RN1-Pad8)*
X69700000Y-65100000D03*
D19*
G04 #@! TO.P,RN1,6*
G04 #@! TO.N,Net-(RN1-Pad6)*
X68100000Y-65100000D03*
D18*
G04 #@! TO.P,RN1,5*
G04 #@! TO.N,Net-(RN1-Pad5)*
X67300000Y-65100000D03*
G04 #@! TD*
D13*
G04 #@! TO.N,+3V3*
G04 #@! TO.C,C7*
G36*
X70851691Y-43907053D02*
X70872926Y-43910203D01*
X70893750Y-43915419D01*
X70913962Y-43922651D01*
X70933368Y-43931830D01*
X70951781Y-43942866D01*
X70969024Y-43955654D01*
X70984930Y-43970070D01*
X70999346Y-43985976D01*
X71012134Y-44003219D01*
X71023170Y-44021632D01*
X71032349Y-44041038D01*
X71039581Y-44061250D01*
X71044797Y-44082074D01*
X71047947Y-44103309D01*
X71049000Y-44124750D01*
X71049000Y-44562250D01*
X71047947Y-44583691D01*
X71044797Y-44604926D01*
X71039581Y-44625750D01*
X71032349Y-44645962D01*
X71023170Y-44665368D01*
X71012134Y-44683781D01*
X70999346Y-44701024D01*
X70984930Y-44716930D01*
X70969024Y-44731346D01*
X70951781Y-44744134D01*
X70933368Y-44755170D01*
X70913962Y-44764349D01*
X70893750Y-44771581D01*
X70872926Y-44776797D01*
X70851691Y-44779947D01*
X70830250Y-44781000D01*
X70317750Y-44781000D01*
X70296309Y-44779947D01*
X70275074Y-44776797D01*
X70254250Y-44771581D01*
X70234038Y-44764349D01*
X70214632Y-44755170D01*
X70196219Y-44744134D01*
X70178976Y-44731346D01*
X70163070Y-44716930D01*
X70148654Y-44701024D01*
X70135866Y-44683781D01*
X70124830Y-44665368D01*
X70115651Y-44645962D01*
X70108419Y-44625750D01*
X70103203Y-44604926D01*
X70100053Y-44583691D01*
X70099000Y-44562250D01*
X70099000Y-44124750D01*
X70100053Y-44103309D01*
X70103203Y-44082074D01*
X70108419Y-44061250D01*
X70115651Y-44041038D01*
X70124830Y-44021632D01*
X70135866Y-44003219D01*
X70148654Y-43985976D01*
X70163070Y-43970070D01*
X70178976Y-43955654D01*
X70196219Y-43942866D01*
X70214632Y-43931830D01*
X70234038Y-43922651D01*
X70254250Y-43915419D01*
X70275074Y-43910203D01*
X70296309Y-43907053D01*
X70317750Y-43906000D01*
X70830250Y-43906000D01*
X70851691Y-43907053D01*
X70851691Y-43907053D01*
G37*
D20*
G04 #@! TD*
G04 #@! TO.P,C7,1*
G04 #@! TO.N,+3V3*
X70574000Y-44343500D03*
D13*
G04 #@! TO.N,GND*
G04 #@! TO.C,C7*
G36*
X70851691Y-42332053D02*
X70872926Y-42335203D01*
X70893750Y-42340419D01*
X70913962Y-42347651D01*
X70933368Y-42356830D01*
X70951781Y-42367866D01*
X70969024Y-42380654D01*
X70984930Y-42395070D01*
X70999346Y-42410976D01*
X71012134Y-42428219D01*
X71023170Y-42446632D01*
X71032349Y-42466038D01*
X71039581Y-42486250D01*
X71044797Y-42507074D01*
X71047947Y-42528309D01*
X71049000Y-42549750D01*
X71049000Y-42987250D01*
X71047947Y-43008691D01*
X71044797Y-43029926D01*
X71039581Y-43050750D01*
X71032349Y-43070962D01*
X71023170Y-43090368D01*
X71012134Y-43108781D01*
X70999346Y-43126024D01*
X70984930Y-43141930D01*
X70969024Y-43156346D01*
X70951781Y-43169134D01*
X70933368Y-43180170D01*
X70913962Y-43189349D01*
X70893750Y-43196581D01*
X70872926Y-43201797D01*
X70851691Y-43204947D01*
X70830250Y-43206000D01*
X70317750Y-43206000D01*
X70296309Y-43204947D01*
X70275074Y-43201797D01*
X70254250Y-43196581D01*
X70234038Y-43189349D01*
X70214632Y-43180170D01*
X70196219Y-43169134D01*
X70178976Y-43156346D01*
X70163070Y-43141930D01*
X70148654Y-43126024D01*
X70135866Y-43108781D01*
X70124830Y-43090368D01*
X70115651Y-43070962D01*
X70108419Y-43050750D01*
X70103203Y-43029926D01*
X70100053Y-43008691D01*
X70099000Y-42987250D01*
X70099000Y-42549750D01*
X70100053Y-42528309D01*
X70103203Y-42507074D01*
X70108419Y-42486250D01*
X70115651Y-42466038D01*
X70124830Y-42446632D01*
X70135866Y-42428219D01*
X70148654Y-42410976D01*
X70163070Y-42395070D01*
X70178976Y-42380654D01*
X70196219Y-42367866D01*
X70214632Y-42356830D01*
X70234038Y-42347651D01*
X70254250Y-42340419D01*
X70275074Y-42335203D01*
X70296309Y-42332053D01*
X70317750Y-42331000D01*
X70830250Y-42331000D01*
X70851691Y-42332053D01*
X70851691Y-42332053D01*
G37*
D20*
G04 #@! TD*
G04 #@! TO.P,C7,2*
G04 #@! TO.N,GND*
X70574000Y-42768500D03*
D21*
G04 #@! TO.P,U3,1*
G04 #@! TO.N,GND*
X60795000Y-41872000D03*
G04 #@! TO.P,U3,2*
X62065000Y-41872000D03*
G04 #@! TO.P,U3,3*
X63335000Y-41872000D03*
G04 #@! TO.P,U3,4*
X64605000Y-41872000D03*
G04 #@! TO.P,U3,5*
G04 #@! TO.N,/SDA*
X64605000Y-47272000D03*
G04 #@! TO.P,U3,6*
G04 #@! TO.N,/SCL*
X63335000Y-47272000D03*
G04 #@! TO.P,U3,7*
G04 #@! TO.N,GND*
X62065000Y-47272000D03*
G04 #@! TO.P,U3,8*
G04 #@! TO.N,+3V3*
X60795000Y-47272000D03*
G04 #@! TD*
D11*
G04 #@! TO.P,J4,1*
G04 #@! TO.N,GND*
X60541000Y-70480000D03*
D10*
G04 #@! TO.P,J4,2*
G04 #@! TO.N,/SPI_MOSI*
X63081000Y-70480000D03*
G04 #@! TO.P,J4,3*
G04 #@! TO.N,/SPI_MISO*
X65621000Y-70480000D03*
G04 #@! TO.P,J4,4*
G04 #@! TO.N,/SPI_SCK*
X68161000Y-70480000D03*
G04 #@! TO.P,J4,5*
G04 #@! TO.N,/SPI_INT*
X70701000Y-70480000D03*
G04 #@! TD*
D11*
G04 #@! TO.P,J5,1*
G04 #@! TO.N,GND*
X52540000Y-52192000D03*
D10*
G04 #@! TO.P,J5,2*
G04 #@! TO.N,+5V*
X52540000Y-49652000D03*
G04 #@! TD*
D22*
G04 #@! TO.P,JP2,1*
G04 #@! TO.N,+5V*
X57224000Y-47620000D03*
D13*
G04 #@! TD*
G04 #@! TO.N,+5V*
G04 #@! TO.C,JP2*
G36*
X57724000Y-48370000D02*
X57224000Y-48370000D01*
X57224000Y-48369398D01*
X57199466Y-48369398D01*
X57150635Y-48364588D01*
X57102510Y-48355016D01*
X57055555Y-48340772D01*
X57010222Y-48321995D01*
X56966949Y-48298864D01*
X56926150Y-48271604D01*
X56888221Y-48240476D01*
X56853524Y-48205779D01*
X56822396Y-48167850D01*
X56795136Y-48127051D01*
X56772005Y-48083778D01*
X56753228Y-48038445D01*
X56738984Y-47991490D01*
X56729412Y-47943365D01*
X56724602Y-47894534D01*
X56724602Y-47870000D01*
X56724000Y-47870000D01*
X56724000Y-47370000D01*
X56724602Y-47370000D01*
X56724602Y-47345466D01*
X56729412Y-47296635D01*
X56738984Y-47248510D01*
X56753228Y-47201555D01*
X56772005Y-47156222D01*
X56795136Y-47112949D01*
X56822396Y-47072150D01*
X56853524Y-47034221D01*
X56888221Y-46999524D01*
X56926150Y-46968396D01*
X56966949Y-46941136D01*
X57010222Y-46918005D01*
X57055555Y-46899228D01*
X57102510Y-46884984D01*
X57150635Y-46875412D01*
X57199466Y-46870602D01*
X57224000Y-46870602D01*
X57224000Y-46870000D01*
X57724000Y-46870000D01*
X57724000Y-48370000D01*
X57724000Y-48370000D01*
G37*
D22*
G04 #@! TO.P,JP2,2*
G04 #@! TO.N,/Vin*
X58524000Y-47620000D03*
D13*
G04 #@! TD*
G04 #@! TO.N,/Vin*
G04 #@! TO.C,JP2*
G36*
X58524000Y-46870602D02*
X58548534Y-46870602D01*
X58597365Y-46875412D01*
X58645490Y-46884984D01*
X58692445Y-46899228D01*
X58737778Y-46918005D01*
X58781051Y-46941136D01*
X58821850Y-46968396D01*
X58859779Y-46999524D01*
X58894476Y-47034221D01*
X58925604Y-47072150D01*
X58952864Y-47112949D01*
X58975995Y-47156222D01*
X58994772Y-47201555D01*
X59009016Y-47248510D01*
X59018588Y-47296635D01*
X59023398Y-47345466D01*
X59023398Y-47370000D01*
X59024000Y-47370000D01*
X59024000Y-47870000D01*
X59023398Y-47870000D01*
X59023398Y-47894534D01*
X59018588Y-47943365D01*
X59009016Y-47991490D01*
X58994772Y-48038445D01*
X58975995Y-48083778D01*
X58952864Y-48127051D01*
X58925604Y-48167850D01*
X58894476Y-48205779D01*
X58859779Y-48240476D01*
X58821850Y-48271604D01*
X58781051Y-48298864D01*
X58737778Y-48321995D01*
X58692445Y-48340772D01*
X58645490Y-48355016D01*
X58597365Y-48364588D01*
X58548534Y-48369398D01*
X58524000Y-48369398D01*
X58524000Y-48370000D01*
X58024000Y-48370000D01*
X58024000Y-46870000D01*
X58524000Y-46870000D01*
X58524000Y-46870602D01*
X58524000Y-46870602D01*
G37*
D23*
G04 #@! TO.P,TP1,1*
G04 #@! TO.N,/SWDIO*
X59144000Y-56510000D03*
G04 #@! TD*
G04 #@! TO.P,TP2,1*
G04 #@! TO.N,/SWCLK*
X59144000Y-54478000D03*
G04 #@! TD*
D24*
G04 #@! TO.N,GND*
X64250000Y-58000000D03*
X69500000Y-56000000D03*
X64986000Y-52750000D03*
X59906000Y-52192000D03*
X57010400Y-67762200D03*
X66002000Y-47620000D03*
X56096000Y-42032000D03*
X59398000Y-41270000D03*
G04 #@! TO.N,+3V3*
X66000000Y-61000000D03*
X69558000Y-54732000D03*
X66000000Y-50250013D03*
D25*
X66002000Y-43556000D03*
D24*
X62395200Y-55240000D03*
X57620000Y-58288000D03*
D25*
X60922000Y-44572000D03*
G04 #@! TO.N,VBUS*
X55080000Y-52446000D03*
D24*
G04 #@! TO.N,Net-(J1-Pad2)*
X52997200Y-66492200D03*
G04 #@! TO.N,Net-(J1-Pad3)*
X54800600Y-66517600D03*
G04 #@! TO.N,/DB3*
X71590000Y-52286990D03*
X71590000Y-56002000D03*
G04 #@! TO.N,/DB4*
X72214696Y-56782870D03*
X72214904Y-51506286D03*
G04 #@! TO.N,/DB5*
X72624839Y-57694893D03*
X72956082Y-50834975D03*
G04 #@! TO.N,/DB6*
X73114000Y-58669000D03*
G04 #@! TO.N,/DB7*
X72225000Y-59595000D03*
G04 #@! TO.N,Net-(R1-Pad2)*
X67907000Y-53335000D03*
G04 #@! TO.N,/PC13*
X68288000Y-49144000D03*
G04 #@! TO.N,/BOOT0*
X63970000Y-53462000D03*
G04 #@! TO.N,/BOOT1*
X67500000Y-58000000D03*
D25*
G04 #@! TO.N,/Vin*
X59144000Y-48890000D03*
G04 #@! TD*
D26*
G04 #@! TO.N,GND*
X77940000Y-63248066D02*
X77940000Y-63114000D01*
X75400000Y-65654000D02*
X75534066Y-65654000D01*
D27*
X76219991Y-64834009D02*
X75400000Y-65654000D01*
X77940000Y-63114000D02*
X76219991Y-64834009D01*
D28*
X75400000Y-65654000D02*
X72606000Y-65654000D01*
D29*
X57000000Y-67751800D02*
X57010400Y-67762200D01*
D27*
X68673500Y-42768500D02*
X70574000Y-42768500D01*
X67780000Y-41875000D02*
X68673500Y-42768500D01*
D29*
X57000000Y-66000000D02*
X57000000Y-67751800D01*
D27*
G04 #@! TO.N,+3V3*
X66651829Y-61000000D02*
X67131371Y-60520458D01*
X66000000Y-61000000D02*
X66651829Y-61000000D01*
X65098158Y-50250013D02*
X65434315Y-50250013D01*
X64868629Y-50479542D02*
X65098158Y-50250013D01*
X65434315Y-50250013D02*
X66000000Y-50250013D01*
X69158001Y-54332001D02*
X69558000Y-54732000D01*
X69158001Y-54109766D02*
X69158001Y-54332001D01*
X69959798Y-53307969D02*
X69158001Y-54109766D01*
X61860907Y-55750006D02*
X60979542Y-56631371D01*
X62395200Y-55240000D02*
X61860907Y-55750006D01*
D28*
X67571000Y-45125000D02*
X66002000Y-43556000D01*
X67780000Y-45125000D02*
X67571000Y-45125000D01*
D27*
X68561500Y-44343500D02*
X67780000Y-45125000D01*
X70574000Y-44343500D02*
X68561500Y-44343500D01*
X60795000Y-44699000D02*
X60922000Y-44572000D01*
X60795000Y-47272000D02*
X60795000Y-44699000D01*
X57366000Y-58034000D02*
X57620000Y-58288000D01*
X56604000Y-58034000D02*
X57366000Y-58034000D01*
D30*
G04 #@! TO.N,VBUS*
X55858000Y-51668000D02*
X55080000Y-52446000D01*
X55858000Y-51110000D02*
X55858000Y-51668000D01*
D27*
G04 #@! TO.N,Net-(J1-Pad2)*
X53556000Y-63271000D02*
X54729000Y-62098000D01*
X52997200Y-63829800D02*
X53556000Y-63271000D01*
X52997200Y-66492200D02*
X52997200Y-63829800D01*
G04 #@! TO.N,Net-(J1-Pad3)*
X54729000Y-60065998D02*
X54728998Y-60066000D01*
X54729000Y-58034000D02*
X54729000Y-60065998D01*
X55664200Y-61001202D02*
X54728998Y-60066000D01*
X55664200Y-63215600D02*
X55664200Y-61001202D01*
X55200599Y-63679201D02*
X55664200Y-63215600D01*
X55200599Y-66117601D02*
X55200599Y-63679201D01*
X54800600Y-66517600D02*
X55200599Y-66117601D01*
G04 #@! TO.N,/DB0*
X70843680Y-53131193D02*
X70313351Y-53661522D01*
X70962883Y-53011990D02*
X70843680Y-53131193D01*
X73171990Y-53011990D02*
X73114000Y-53011990D01*
X74384000Y-54224000D02*
X73171990Y-53011990D01*
X77940000Y-55494000D02*
X76670000Y-54224000D01*
X76670000Y-54224000D02*
X74384000Y-54224000D01*
X73114000Y-53011990D02*
X70962883Y-53011990D01*
G04 #@! TO.N,/DB1*
X74384000Y-55494000D02*
X75400000Y-55494000D01*
X72352000Y-53462000D02*
X74384000Y-55494000D01*
X70666905Y-54015076D02*
X71219981Y-53462000D01*
X71219981Y-53462000D02*
X72352000Y-53462000D01*
G04 #@! TO.N,/DB2*
X77940000Y-52954000D02*
X78321000Y-52954000D01*
X78321000Y-52954000D02*
X79337000Y-53970000D01*
X79337000Y-53970000D02*
X79337000Y-56129000D01*
X79337000Y-56129000D02*
X78702000Y-56764000D01*
X73415829Y-56764000D02*
X71020458Y-54368629D01*
X78702000Y-56764000D02*
X73415829Y-56764000D01*
G04 #@! TO.N,/DB3*
X75400000Y-52954000D02*
X74257000Y-52954000D01*
X74257000Y-52954000D02*
X73749000Y-52446000D01*
X73749000Y-52446000D02*
X71749010Y-52446000D01*
X71749010Y-52446000D02*
X71590000Y-52286990D01*
X71590000Y-56061829D02*
X71020458Y-56631371D01*
X71590000Y-56002000D02*
X71590000Y-56061829D01*
G04 #@! TO.N,/DB4*
X70666905Y-56984924D02*
X71334981Y-57653000D01*
X71334981Y-57653000D02*
X71463000Y-57653000D01*
X71463000Y-57653000D02*
X72214696Y-56901304D01*
X72214696Y-56901304D02*
X72214696Y-56782870D01*
X72392618Y-51684000D02*
X72214904Y-51506286D01*
X77940000Y-50414000D02*
X76670000Y-51684000D01*
X76670000Y-51684000D02*
X72392618Y-51684000D01*
G04 #@! TO.N,/DB5*
X70313351Y-57338478D02*
X71135873Y-58161000D01*
X71135873Y-58161000D02*
X72158732Y-58161000D01*
X72158732Y-58161000D02*
X72624839Y-57694893D01*
X73377057Y-50414000D02*
X75400000Y-50414000D01*
X72956082Y-50834975D02*
X73377057Y-50414000D01*
G04 #@! TO.N,/DB6*
X73068053Y-58623053D02*
X73114000Y-58669000D01*
X70961516Y-58623053D02*
X73068053Y-58623053D01*
X70560823Y-58222360D02*
X70961516Y-58623053D01*
X70490127Y-58222360D02*
X70560823Y-58222360D01*
X69959798Y-57692031D02*
X70490127Y-58222360D01*
G04 #@! TO.N,/DB7*
X71245661Y-59685000D02*
X72135000Y-59685000D01*
X69606245Y-58045584D02*
X71245661Y-59685000D01*
X72135000Y-59685000D02*
X72225000Y-59595000D01*
G04 #@! TO.N,/RD*
X75400000Y-58034000D02*
X74504533Y-58929467D01*
X69783020Y-58929467D02*
X69818467Y-58929467D01*
X69252691Y-58399138D02*
X69783020Y-58929467D01*
X69818467Y-58929467D02*
X71209000Y-60320000D01*
X73114000Y-60320000D02*
X74504533Y-58929467D01*
X71209000Y-60320000D02*
X73114000Y-60320000D01*
G04 #@! TO.N,/WR*
X76670000Y-59304000D02*
X77940000Y-58034000D01*
X69429467Y-59283020D02*
X69429467Y-59302467D01*
X69429467Y-59302467D02*
X71082000Y-60955000D01*
X73115410Y-60955000D02*
X74766410Y-59304000D01*
X68899138Y-58752691D02*
X69429467Y-59283020D01*
X71082000Y-60955000D02*
X73115410Y-60955000D01*
X74766410Y-59304000D02*
X76670000Y-59304000D01*
G04 #@! TO.N,/Reset*
X71026243Y-62294010D02*
X71026243Y-62296243D01*
X68192031Y-59459798D02*
X71026243Y-62294010D01*
X71844000Y-63114000D02*
X75400000Y-63114000D01*
X71026243Y-62296243D02*
X71844000Y-63114000D01*
G04 #@! TO.N,/CS*
X67838478Y-59813351D02*
X72409127Y-64384000D01*
X75869002Y-64384000D02*
X76670000Y-63583002D01*
X72409127Y-64384000D02*
X75869002Y-64384000D01*
X76670000Y-61844000D02*
X77940000Y-60574000D01*
X76670000Y-63583002D02*
X76670000Y-61844000D01*
G04 #@! TO.N,/USART_RX*
X61500000Y-59646447D02*
X62747309Y-58399138D01*
X61500000Y-64040000D02*
X59540000Y-66000000D01*
X61500000Y-59646447D02*
X61500000Y-64040000D01*
G04 #@! TO.N,/USART_TX*
X62080000Y-59773553D02*
X63100862Y-58752691D01*
X62080000Y-59773553D02*
X62080000Y-66000000D01*
G04 #@! TO.N,/SPI_INT*
X69700000Y-69500000D02*
X70700000Y-70500000D01*
X69700000Y-66900000D02*
X69700000Y-69500000D01*
G04 #@! TO.N,/SPI_SCK*
X68900000Y-69760000D02*
X68160000Y-70500000D01*
X68900000Y-66900000D02*
X68900000Y-69760000D01*
G04 #@! TO.N,/SPI_MISO*
X68100000Y-68020000D02*
X65620000Y-70500000D01*
X68100000Y-66900000D02*
X68100000Y-68020000D01*
G04 #@! TO.N,/SPI_MOSI*
X64580000Y-69000000D02*
X63080000Y-70500000D01*
X66000000Y-69000000D02*
X64580000Y-69000000D01*
X67300000Y-66900000D02*
X67300000Y-67700000D01*
X67300000Y-67700000D02*
X66000000Y-69000000D01*
G04 #@! TO.N,Net-(R1-Pad2)*
X68518553Y-53335000D02*
X67907000Y-53335000D01*
X69252691Y-52600862D02*
X68518553Y-53335000D01*
G04 #@! TO.N,/PC13*
X68288000Y-50030019D02*
X68288000Y-49144000D01*
X67484924Y-50833095D02*
X68288000Y-50030019D01*
G04 #@! TO.N,/USBDP*
X61509873Y-58222360D02*
X62040202Y-57692031D01*
X61317233Y-58415000D02*
X62040202Y-57692031D01*
X59666233Y-60066000D02*
X62040202Y-57692031D01*
X56604000Y-60066000D02*
X59666233Y-60066000D01*
G04 #@! TO.N,/USBDN*
X58341339Y-62098000D02*
X62393755Y-58045584D01*
X56604000Y-62098000D02*
X58341339Y-62098000D01*
G04 #@! TO.N,/BOOT0*
X63984745Y-52424084D02*
X63454416Y-51893755D01*
X63984745Y-52881570D02*
X63984745Y-52424084D01*
X63970000Y-52896315D02*
X63984745Y-52881570D01*
X63970000Y-53462000D02*
X63970000Y-52896315D01*
G04 #@! TO.N,/BOOT1*
X67500000Y-58060661D02*
X68545584Y-59106245D01*
X67500000Y-58000000D02*
X67500000Y-58060661D01*
X68545584Y-59106245D02*
X71283339Y-61844000D01*
X74130000Y-61844000D02*
X75400000Y-60574000D01*
X71283339Y-61844000D02*
X74130000Y-61844000D01*
G04 #@! TO.N,Net-(U1-Pad5)*
X69409011Y-49393933D02*
X70151472Y-48651472D01*
X69075913Y-49727031D02*
X69409011Y-49393933D01*
X69075913Y-51363426D02*
X69075913Y-49727031D01*
X68545584Y-51893755D02*
X69075913Y-51363426D01*
G04 #@! TO.N,Net-(U1-Pad6)*
X70947056Y-51250000D02*
X71848528Y-50348528D01*
X68899138Y-52247309D02*
X69896447Y-51250000D01*
X69896447Y-51250000D02*
X70947056Y-51250000D01*
D28*
G04 #@! TO.N,/Vin*
X57858000Y-45350000D02*
X57874000Y-45334000D01*
D30*
X57874000Y-50160000D02*
X59144000Y-48890000D01*
X57858000Y-50160000D02*
X57874000Y-50160000D01*
X59144000Y-48240000D02*
X58524000Y-47620000D01*
X59144000Y-48890000D02*
X59144000Y-48240000D01*
X58524000Y-45984000D02*
X58524000Y-47620000D01*
X57874000Y-45334000D02*
X58524000Y-45984000D01*
D27*
G04 #@! TO.N,Net-(RN1-Pad7)*
X68900000Y-64450000D02*
X68900000Y-65100000D01*
X66799978Y-62349978D02*
X68900000Y-64450000D01*
X64599978Y-62349978D02*
X66799978Y-62349978D01*
X63750000Y-61500000D02*
X64599978Y-62349978D01*
X64515076Y-60166905D02*
X63750000Y-60931981D01*
X63750000Y-60931981D02*
X63750000Y-61500000D01*
G04 #@! TO.N,Net-(RN1-Pad8)*
X64338300Y-61451890D02*
X64338300Y-61050787D01*
X64338300Y-61050787D02*
X64868629Y-60520458D01*
X64786377Y-61899967D02*
X64338300Y-61451890D01*
X69700000Y-64450000D02*
X67149967Y-61899967D01*
X67149967Y-61899967D02*
X64786377Y-61899967D01*
X69700000Y-65100000D02*
X69700000Y-64450000D01*
G04 #@! TO.N,Net-(RN1-Pad6)*
X63299990Y-60674883D02*
X64161522Y-59813351D01*
X68100000Y-65100000D02*
X68100000Y-64450000D01*
X68100000Y-64450000D02*
X66449989Y-62799989D01*
X66449989Y-62799989D02*
X64777167Y-62799988D01*
X64777167Y-62799988D02*
X64413577Y-62799987D01*
X64413577Y-62799987D02*
X63299990Y-61686400D01*
X63299990Y-61686400D02*
X63299990Y-60674883D01*
G04 #@! TO.N,Net-(RN1-Pad5)*
X66000000Y-63250000D02*
X64590000Y-63250000D01*
X67300000Y-65100000D02*
X67300000Y-64550000D01*
X67300000Y-64550000D02*
X66000000Y-63250000D01*
X63277640Y-59990127D02*
X63807969Y-59459798D01*
X62849980Y-60417787D02*
X63277640Y-59990127D01*
X62849980Y-61872800D02*
X62849980Y-60417787D01*
X64227176Y-63249996D02*
X62849980Y-61872800D01*
X64590000Y-63249997D02*
X64227176Y-63249996D01*
X64590000Y-63250000D02*
X64590000Y-63249997D01*
G04 #@! TO.N,/SCL*
X62684010Y-48947990D02*
X61880010Y-48947990D01*
X63335000Y-47272000D02*
X63335000Y-48297000D01*
X63335000Y-48297000D02*
X62684010Y-48947990D01*
X62216980Y-52070533D02*
X62747309Y-52600862D01*
X61233990Y-51087543D02*
X62216980Y-52070533D01*
X61233990Y-49594010D02*
X61233990Y-51087543D01*
X61880010Y-48947990D02*
X61233990Y-49594010D01*
G04 #@! TO.N,/SDA*
X64605000Y-47747000D02*
X64605000Y-47272000D01*
X64605000Y-48509000D02*
X64605000Y-47272000D01*
X63716000Y-49398000D02*
X64605000Y-48509000D01*
X62503901Y-49398000D02*
X63716000Y-49398000D01*
X61684000Y-50217901D02*
X62503901Y-49398000D01*
X63100862Y-52247309D02*
X61684000Y-50830447D01*
X61684000Y-50830447D02*
X61684000Y-50217901D01*
G04 #@! TO.N,/SWCLK*
X60237314Y-53626401D02*
X60979542Y-54368629D01*
X58966200Y-54376400D02*
X59716199Y-53626401D01*
X59716199Y-53626401D02*
X60237314Y-53626401D01*
G04 #@! TO.N,/SWDIO*
X60426607Y-57868807D02*
X59766999Y-57209199D01*
X59766999Y-57209199D02*
X59017000Y-56459200D01*
X61156320Y-57868807D02*
X60426607Y-57868807D01*
X61686649Y-57338478D02*
X61156320Y-57868807D01*
D30*
G04 #@! TO.N,+5V*
X52982000Y-49210000D02*
X52540000Y-49652000D01*
X55858000Y-49210000D02*
X52982000Y-49210000D01*
X55858000Y-48986000D02*
X57224000Y-47620000D01*
X55858000Y-49210000D02*
X55858000Y-48986000D01*
G04 #@! TD*
D27*
G04 #@! TO.N,GND*
G36*
X73125000Y-49993102D02*
X73023787Y-50060730D01*
X73017610Y-50069975D01*
X72932450Y-50069975D01*
X73005523Y-49960614D01*
X73033851Y-49818198D01*
X73005523Y-49675782D01*
X72924851Y-49555048D01*
X72642008Y-49272205D01*
X72521274Y-49191533D01*
X72415171Y-49170428D01*
X72446173Y-49095581D01*
X72446173Y-48843758D01*
X72349804Y-48611104D01*
X72301960Y-48563260D01*
X72078161Y-48563260D01*
X71161927Y-49479494D01*
X71196576Y-49514143D01*
X71014143Y-49696576D01*
X70979494Y-49661927D01*
X70063260Y-50578161D01*
X70063260Y-50760000D01*
X69944703Y-50760000D01*
X69896447Y-50750401D01*
X69848191Y-50760000D01*
X69848190Y-50760000D01*
X69705259Y-50788431D01*
X69565913Y-50881538D01*
X69565913Y-50185420D01*
X69650196Y-50388896D01*
X69698040Y-50436740D01*
X69921839Y-50436740D01*
X70838073Y-49520506D01*
X70803425Y-49485858D01*
X70985858Y-49303425D01*
X71020506Y-49338073D01*
X71936740Y-48421839D01*
X71936740Y-48198040D01*
X71888896Y-48150196D01*
X71656242Y-48053827D01*
X71404419Y-48053827D01*
X71329572Y-48084829D01*
X71308467Y-47978726D01*
X71227795Y-47857992D01*
X70944952Y-47575149D01*
X70824218Y-47494477D01*
X70681802Y-47466149D01*
X70539386Y-47494477D01*
X70418652Y-47575149D01*
X69075149Y-48918652D01*
X69042764Y-48967120D01*
X68936535Y-48710662D01*
X68721338Y-48495465D01*
X68440168Y-48379000D01*
X68135832Y-48379000D01*
X67854662Y-48495465D01*
X67639465Y-48710662D01*
X67523000Y-48991832D01*
X67523000Y-49296168D01*
X67639465Y-49577338D01*
X67659547Y-49597420D01*
X67645018Y-49587712D01*
X67502602Y-49559384D01*
X67360186Y-49587712D01*
X67239452Y-49668384D01*
X66765000Y-50142836D01*
X66765000Y-50097845D01*
X66648535Y-49816675D01*
X66433338Y-49601478D01*
X66152168Y-49485013D01*
X65847832Y-49485013D01*
X65566662Y-49601478D01*
X65408127Y-49760013D01*
X65146413Y-49760013D01*
X65098157Y-49750414D01*
X65049901Y-49760013D01*
X64906970Y-49788444D01*
X64891167Y-49799003D01*
X64760548Y-49668384D01*
X64639814Y-49587712D01*
X64497398Y-49559384D01*
X64354982Y-49587712D01*
X64258638Y-49652087D01*
X64154877Y-49652087D01*
X64917360Y-48889605D01*
X64958270Y-48862270D01*
X64986066Y-48820670D01*
X65066569Y-48700189D01*
X65104599Y-48509000D01*
X65095000Y-48460743D01*
X65095000Y-48359027D01*
X65168150Y-48310150D01*
X65248822Y-48189416D01*
X65277150Y-48047000D01*
X65277150Y-46497000D01*
X65248822Y-46354584D01*
X65168150Y-46233850D01*
X65047416Y-46153178D01*
X64905000Y-46124850D01*
X64305000Y-46124850D01*
X64162584Y-46153178D01*
X64041850Y-46233850D01*
X63970000Y-46341381D01*
X63898150Y-46233850D01*
X63777416Y-46153178D01*
X63635000Y-46124850D01*
X63035000Y-46124850D01*
X62906585Y-46150393D01*
X62901632Y-46138435D01*
X62723566Y-45960369D01*
X62490912Y-45864000D01*
X62352250Y-45864000D01*
X62194000Y-46022250D01*
X62194000Y-47143000D01*
X62214000Y-47143000D01*
X62214000Y-47401000D01*
X62194000Y-47401000D01*
X62194000Y-47421000D01*
X61936000Y-47421000D01*
X61936000Y-47401000D01*
X61916000Y-47401000D01*
X61916000Y-47143000D01*
X61936000Y-47143000D01*
X61936000Y-46022250D01*
X61777750Y-45864000D01*
X61639088Y-45864000D01*
X61406434Y-45960369D01*
X61285000Y-46081803D01*
X61285000Y-45466148D01*
X61468628Y-45390087D01*
X61740087Y-45118628D01*
X61887000Y-44763950D01*
X61887000Y-44380050D01*
X61740087Y-44025372D01*
X61468628Y-43753913D01*
X61113950Y-43607000D01*
X60730050Y-43607000D01*
X60375372Y-43753913D01*
X60103913Y-44025372D01*
X59957000Y-44380050D01*
X59957000Y-44763950D01*
X60103913Y-45118628D01*
X60305001Y-45319716D01*
X60305000Y-46184972D01*
X60231850Y-46233850D01*
X60151178Y-46354584D01*
X60122850Y-46497000D01*
X60122850Y-48047000D01*
X60151178Y-48189416D01*
X60231850Y-48310150D01*
X60352584Y-48390822D01*
X60495000Y-48419150D01*
X61095000Y-48419150D01*
X61223415Y-48393607D01*
X61228368Y-48405565D01*
X61406434Y-48583631D01*
X61506464Y-48625065D01*
X61499405Y-48635630D01*
X60921633Y-49213403D01*
X60880720Y-49240740D01*
X60772421Y-49402823D01*
X60745625Y-49537534D01*
X60734391Y-49594010D01*
X60743990Y-49642266D01*
X60743991Y-51039283D01*
X60734391Y-51087543D01*
X60772422Y-51278731D01*
X60833080Y-51369512D01*
X60880721Y-51440813D01*
X60921631Y-51468148D01*
X61678057Y-52224575D01*
X61582597Y-52320035D01*
X61511790Y-52426004D01*
X61405821Y-52496811D01*
X61229044Y-52673588D01*
X61158237Y-52779557D01*
X61052268Y-52850364D01*
X60875491Y-53027141D01*
X60804684Y-53133111D01*
X60698714Y-53203918D01*
X60606172Y-53296460D01*
X60590584Y-53273131D01*
X60428502Y-53164832D01*
X60285571Y-53136401D01*
X60285570Y-53136401D01*
X60237314Y-53126802D01*
X60189058Y-53136401D01*
X59764456Y-53136401D01*
X59716199Y-53126802D01*
X59525010Y-53164832D01*
X59466514Y-53203918D01*
X59362929Y-53273131D01*
X59335594Y-53314041D01*
X59286635Y-53363000D01*
X58922213Y-53363000D01*
X58512403Y-53532749D01*
X58198749Y-53846403D01*
X58029000Y-54256213D01*
X58029000Y-54699787D01*
X58198749Y-55109597D01*
X58512403Y-55423251D01*
X58683206Y-55494000D01*
X58512403Y-55564749D01*
X58198749Y-55878403D01*
X58029000Y-56288213D01*
X58029000Y-56731787D01*
X58198749Y-57141597D01*
X58512403Y-57455251D01*
X58922213Y-57625000D01*
X59365787Y-57625000D01*
X59453502Y-57588667D01*
X59454639Y-57589804D01*
X59454642Y-57589806D01*
X60046002Y-58181167D01*
X60073337Y-58222077D01*
X60114247Y-58249412D01*
X60235419Y-58330376D01*
X60426607Y-58368406D01*
X60474864Y-58358807D01*
X60680461Y-58358807D01*
X59463269Y-59576000D01*
X57456937Y-59576000D01*
X57416767Y-59374055D01*
X57283257Y-59174243D01*
X57097314Y-59050000D01*
X57236334Y-58957110D01*
X57467832Y-59053000D01*
X57772168Y-59053000D01*
X58053338Y-58936535D01*
X58268535Y-58721338D01*
X58385000Y-58440168D01*
X58385000Y-58135832D01*
X58268535Y-57854662D01*
X58053338Y-57639465D01*
X57772168Y-57523000D01*
X57467832Y-57523000D01*
X57453907Y-57528768D01*
X57416767Y-57342055D01*
X57283257Y-57142243D01*
X57083445Y-57008733D01*
X56847750Y-56961850D01*
X56360250Y-56961850D01*
X56124555Y-57008733D01*
X55924743Y-57142243D01*
X55791233Y-57342055D01*
X55744350Y-57577750D01*
X55744350Y-58490250D01*
X55791233Y-58725945D01*
X55924743Y-58925757D01*
X56110686Y-59050000D01*
X55924743Y-59174243D01*
X55791233Y-59374055D01*
X55744350Y-59609750D01*
X55744350Y-60388388D01*
X55588648Y-60232686D01*
X55588648Y-59609750D01*
X55541765Y-59374055D01*
X55408255Y-59174243D01*
X55222313Y-59050001D01*
X55408257Y-58925757D01*
X55541767Y-58725945D01*
X55588650Y-58490250D01*
X55588650Y-57577750D01*
X55541767Y-57342055D01*
X55408257Y-57142243D01*
X55208445Y-57008733D01*
X54972750Y-56961850D01*
X54485250Y-56961850D01*
X54249555Y-57008733D01*
X54049743Y-57142243D01*
X53916233Y-57342055D01*
X53869350Y-57577750D01*
X53869350Y-58490250D01*
X53916233Y-58725945D01*
X54049743Y-58925757D01*
X54235685Y-59049999D01*
X54049741Y-59174243D01*
X53916231Y-59374055D01*
X53869348Y-59609750D01*
X53869348Y-60522250D01*
X53916231Y-60757945D01*
X54049741Y-60957757D01*
X54235685Y-61082001D01*
X54049743Y-61206243D01*
X53916233Y-61406055D01*
X53869350Y-61641750D01*
X53869350Y-62264685D01*
X53243643Y-62890393D01*
X53243640Y-62890395D01*
X52684841Y-63449195D01*
X52643931Y-63476530D01*
X52616596Y-63517440D01*
X52616595Y-63517441D01*
X52535632Y-63638612D01*
X52497601Y-63829800D01*
X52507201Y-63878061D01*
X52507200Y-65900327D01*
X52348665Y-66058862D01*
X52232200Y-66340032D01*
X52232200Y-66644368D01*
X52348665Y-66925538D01*
X52563862Y-67140735D01*
X52845032Y-67257200D01*
X53149368Y-67257200D01*
X53430538Y-67140735D01*
X53645735Y-66925538D01*
X53762200Y-66644368D01*
X53762200Y-66340032D01*
X53645735Y-66058862D01*
X53487200Y-65900327D01*
X53487200Y-64032764D01*
X53936605Y-63583360D01*
X53936607Y-63583357D01*
X54372285Y-63147680D01*
X54485250Y-63170150D01*
X54972750Y-63170150D01*
X55027595Y-63159241D01*
X54888240Y-63298596D01*
X54847330Y-63325931D01*
X54819995Y-63366841D01*
X54819994Y-63366842D01*
X54739031Y-63488013D01*
X54701000Y-63679201D01*
X54710600Y-63727462D01*
X54710599Y-65752600D01*
X54648432Y-65752600D01*
X54367262Y-65869065D01*
X54152065Y-66084262D01*
X54035600Y-66365432D01*
X54035600Y-66669768D01*
X54152065Y-66950938D01*
X54367262Y-67166135D01*
X54648432Y-67282600D01*
X54952768Y-67282600D01*
X55233938Y-67166135D01*
X55449135Y-66950938D01*
X55517000Y-66787098D01*
X55517000Y-66975911D01*
X55613368Y-67208565D01*
X55791434Y-67386631D01*
X56024088Y-67483000D01*
X56712750Y-67483000D01*
X56871000Y-67324750D01*
X56871000Y-66129000D01*
X56851000Y-66129000D01*
X56851000Y-65871000D01*
X56871000Y-65871000D01*
X56871000Y-64675250D01*
X56712750Y-64517000D01*
X56024088Y-64517000D01*
X55791434Y-64613369D01*
X55690599Y-64714204D01*
X55690599Y-63882165D01*
X55976560Y-63596205D01*
X56017470Y-63568870D01*
X56079169Y-63476530D01*
X56125769Y-63406789D01*
X56163799Y-63215600D01*
X56154200Y-63167343D01*
X56154200Y-63129164D01*
X56360250Y-63170150D01*
X56847750Y-63170150D01*
X57083445Y-63123267D01*
X57283257Y-62989757D01*
X57416767Y-62789945D01*
X57456937Y-62588000D01*
X58293083Y-62588000D01*
X58341339Y-62597599D01*
X58389595Y-62588000D01*
X58389596Y-62588000D01*
X58532527Y-62559569D01*
X58694609Y-62451270D01*
X58721946Y-62410357D01*
X61010000Y-60122303D01*
X61010001Y-63837034D01*
X59995278Y-64851757D01*
X59659666Y-64785000D01*
X59420334Y-64785000D01*
X59065931Y-64855495D01*
X58664034Y-65124034D01*
X58483000Y-65394971D01*
X58483000Y-65024089D01*
X58386632Y-64791435D01*
X58208566Y-64613369D01*
X57975912Y-64517000D01*
X57287250Y-64517000D01*
X57129000Y-64675250D01*
X57129000Y-65871000D01*
X57149000Y-65871000D01*
X57149000Y-66129000D01*
X57129000Y-66129000D01*
X57129000Y-67324750D01*
X57287250Y-67483000D01*
X57975912Y-67483000D01*
X58208566Y-67386631D01*
X58386632Y-67208565D01*
X58483000Y-66975911D01*
X58483000Y-66605029D01*
X58664034Y-66875966D01*
X59065931Y-67144505D01*
X59420334Y-67215000D01*
X59659666Y-67215000D01*
X60014069Y-67144505D01*
X60415966Y-66875966D01*
X60684505Y-66474069D01*
X60778803Y-66000000D01*
X60688243Y-65544722D01*
X61590001Y-64642964D01*
X61590001Y-64866139D01*
X61204034Y-65124034D01*
X60935495Y-65525931D01*
X60841197Y-66000000D01*
X60935495Y-66474069D01*
X61204034Y-66875966D01*
X61605931Y-67144505D01*
X61960334Y-67215000D01*
X62199666Y-67215000D01*
X62554069Y-67144505D01*
X62955966Y-66875966D01*
X63224505Y-66474069D01*
X63318803Y-66000000D01*
X63381197Y-66000000D01*
X63475495Y-66474069D01*
X63744034Y-66875966D01*
X64145931Y-67144505D01*
X64500334Y-67215000D01*
X64739666Y-67215000D01*
X65094069Y-67144505D01*
X65495966Y-66875966D01*
X65764505Y-66474069D01*
X65858803Y-66000000D01*
X65764505Y-65525931D01*
X65495966Y-65124034D01*
X65094069Y-64855495D01*
X64739666Y-64785000D01*
X64500334Y-64785000D01*
X64145931Y-64855495D01*
X63744034Y-65124034D01*
X63475495Y-65525931D01*
X63381197Y-66000000D01*
X63318803Y-66000000D01*
X63224505Y-65525931D01*
X62955966Y-65124034D01*
X62570000Y-64866140D01*
X62570000Y-62285784D01*
X63846571Y-63562355D01*
X63873906Y-63603265D01*
X63914816Y-63630600D01*
X64035987Y-63711564D01*
X64227175Y-63749595D01*
X64275434Y-63739995D01*
X64541726Y-63739997D01*
X64590000Y-63749599D01*
X64638257Y-63740000D01*
X65797036Y-63740000D01*
X66690988Y-64633952D01*
X66677850Y-64700000D01*
X66677850Y-65500000D01*
X66706178Y-65642416D01*
X66786850Y-65763150D01*
X66907584Y-65843822D01*
X67050000Y-65872150D01*
X67550000Y-65872150D01*
X67692416Y-65843822D01*
X67725000Y-65822050D01*
X67757584Y-65843822D01*
X67900000Y-65872150D01*
X68300000Y-65872150D01*
X68442416Y-65843822D01*
X68500000Y-65805346D01*
X68557584Y-65843822D01*
X68700000Y-65872150D01*
X69100000Y-65872150D01*
X69242416Y-65843822D01*
X69275000Y-65822050D01*
X69307584Y-65843822D01*
X69450000Y-65872150D01*
X69950000Y-65872150D01*
X70092416Y-65843822D01*
X70213150Y-65763150D01*
X70293822Y-65642416D01*
X70322150Y-65500000D01*
X70322150Y-64700000D01*
X70293822Y-64557584D01*
X70213150Y-64436850D01*
X70194505Y-64424392D01*
X70180177Y-64352360D01*
X70161569Y-64258812D01*
X70053270Y-64096730D01*
X70012357Y-64069393D01*
X67530574Y-61587610D01*
X67503237Y-61546697D01*
X67341155Y-61438398D01*
X67198224Y-61409967D01*
X67198223Y-61409967D01*
X67149967Y-61400368D01*
X67101711Y-61409967D01*
X66920245Y-61409967D01*
X67005099Y-61353270D01*
X67032436Y-61312357D01*
X67126315Y-61218479D01*
X67239452Y-61331616D01*
X67360186Y-61412288D01*
X67502602Y-61440616D01*
X67645018Y-61412288D01*
X67741362Y-61347913D01*
X67982066Y-61347913D01*
X68214720Y-61251545D01*
X68236048Y-61230217D01*
X68236048Y-61006418D01*
X68034200Y-60804570D01*
X68023201Y-60749273D01*
X67942529Y-60628539D01*
X67491609Y-60177619D01*
X67484640Y-60167189D01*
X67474210Y-60160220D01*
X67023290Y-59709300D01*
X66902556Y-59628628D01*
X66847259Y-59617629D01*
X66645411Y-59415781D01*
X66421612Y-59415781D01*
X66400284Y-59437109D01*
X66303916Y-59669763D01*
X66303916Y-59910467D01*
X66239541Y-60006811D01*
X66211213Y-60149227D01*
X66235108Y-60269355D01*
X66152168Y-60235000D01*
X65847832Y-60235000D01*
X65764892Y-60269355D01*
X65788787Y-60149227D01*
X65760459Y-60006811D01*
X65679787Y-59886077D01*
X65503010Y-59709300D01*
X65397041Y-59638493D01*
X65326234Y-59532524D01*
X65149457Y-59355747D01*
X65043487Y-59284940D01*
X64972680Y-59178970D01*
X64795903Y-59002193D01*
X64689934Y-58931386D01*
X64619127Y-58825417D01*
X64442350Y-58648640D01*
X64336381Y-58577833D01*
X64265574Y-58471864D01*
X64088797Y-58295087D01*
X63982827Y-58224280D01*
X63912020Y-58118310D01*
X63735243Y-57941533D01*
X63629274Y-57870726D01*
X63558467Y-57764757D01*
X63381690Y-57587980D01*
X63275720Y-57517173D01*
X63204913Y-57411203D01*
X63028136Y-57234426D01*
X62922167Y-57163619D01*
X62851360Y-57057650D01*
X62674583Y-56880873D01*
X62568614Y-56810066D01*
X62514103Y-56728486D01*
X62514103Y-56487782D01*
X62417735Y-56255128D01*
X62396407Y-56233800D01*
X62172608Y-56233800D01*
X61970758Y-56435649D01*
X61915464Y-56446648D01*
X61794730Y-56527320D01*
X61229752Y-57092299D01*
X61225722Y-57088269D01*
X61790700Y-56523290D01*
X61811064Y-56492813D01*
X62203378Y-56100499D01*
X62303425Y-56005000D01*
X62547368Y-56005000D01*
X62828538Y-55888535D01*
X63043735Y-55673338D01*
X63160200Y-55392168D01*
X63160200Y-55087832D01*
X63043735Y-54806662D01*
X62828538Y-54591465D01*
X62547368Y-54475000D01*
X62317558Y-54475000D01*
X62321030Y-54472680D01*
X62497807Y-54295903D01*
X62568614Y-54189934D01*
X62674583Y-54119127D01*
X62851360Y-53942350D01*
X62922167Y-53836381D01*
X63028136Y-53765574D01*
X63204913Y-53588797D01*
X63205000Y-53588667D01*
X63205000Y-53614168D01*
X63321465Y-53895338D01*
X63536662Y-54110535D01*
X63817832Y-54227000D01*
X64122168Y-54227000D01*
X64403338Y-54110535D01*
X64618535Y-53895338D01*
X64735000Y-53614168D01*
X64735000Y-53309832D01*
X64618535Y-53028662D01*
X64482204Y-52892331D01*
X64484344Y-52881570D01*
X64474745Y-52833313D01*
X64474745Y-52472335D01*
X64484343Y-52424083D01*
X64474745Y-52375831D01*
X64474745Y-52375828D01*
X64465311Y-52328399D01*
X64619127Y-52174583D01*
X64689934Y-52068614D01*
X64771514Y-52014103D01*
X65012218Y-52014103D01*
X65244872Y-51917735D01*
X65266200Y-51896407D01*
X65266200Y-51672608D01*
X65064351Y-51470758D01*
X65053352Y-51415464D01*
X64972680Y-51294730D01*
X64053441Y-50375491D01*
X63932707Y-50294819D01*
X63877413Y-50283820D01*
X63675563Y-50081971D01*
X63451764Y-50081971D01*
X63430436Y-50103299D01*
X63334068Y-50335953D01*
X63334068Y-50576657D01*
X63279557Y-50658237D01*
X63173588Y-50729044D01*
X62996811Y-50905821D01*
X62926004Y-51011790D01*
X62820035Y-51082597D01*
X62724575Y-51178058D01*
X62174000Y-50627483D01*
X62174000Y-50420865D01*
X62706866Y-49888000D01*
X63667744Y-49888000D01*
X63716000Y-49897599D01*
X63763952Y-49888060D01*
X63763952Y-49993582D01*
X63965800Y-50195430D01*
X63976799Y-50250727D01*
X64057471Y-50371461D01*
X64508391Y-50822381D01*
X64515360Y-50832811D01*
X64525790Y-50839780D01*
X64976710Y-51290700D01*
X65097444Y-51371372D01*
X65152741Y-51382371D01*
X65354589Y-51584219D01*
X65578388Y-51584219D01*
X65599716Y-51562891D01*
X65696084Y-51330237D01*
X65696084Y-51089533D01*
X65760459Y-50993189D01*
X65763099Y-50979915D01*
X65847832Y-51015013D01*
X66152168Y-51015013D01*
X66236901Y-50979915D01*
X66239541Y-50993189D01*
X66320213Y-51113923D01*
X66496990Y-51290700D01*
X66602959Y-51361507D01*
X66673766Y-51467476D01*
X66850543Y-51644253D01*
X66956513Y-51715060D01*
X67027320Y-51821030D01*
X67204097Y-51997807D01*
X67310066Y-52068614D01*
X67380873Y-52174583D01*
X67557650Y-52351360D01*
X67663619Y-52422167D01*
X67734426Y-52528136D01*
X67776290Y-52570000D01*
X67754832Y-52570000D01*
X67473662Y-52686465D01*
X67258465Y-52901662D01*
X67142000Y-53182832D01*
X67142000Y-53487168D01*
X67258465Y-53768338D01*
X67473662Y-53983535D01*
X67754832Y-54100000D01*
X68059168Y-54100000D01*
X68340338Y-53983535D01*
X68494132Y-53829741D01*
X68518553Y-53834599D01*
X68566809Y-53825000D01*
X68566810Y-53825000D01*
X68709741Y-53796569D01*
X68871823Y-53688270D01*
X68899160Y-53647357D01*
X69114134Y-53432384D01*
X69144610Y-53412020D01*
X70063849Y-52492781D01*
X70144521Y-52372047D01*
X70155520Y-52316753D01*
X70357369Y-52114903D01*
X70357369Y-51891104D01*
X70336041Y-51869776D01*
X70103387Y-51773408D01*
X70066004Y-51773408D01*
X70099412Y-51740000D01*
X70898800Y-51740000D01*
X70947056Y-51749599D01*
X70995312Y-51740000D01*
X70995313Y-51740000D01*
X71069967Y-51725150D01*
X70941465Y-51853652D01*
X70825000Y-52134822D01*
X70825000Y-52439158D01*
X70863521Y-52532156D01*
X70787253Y-52547326D01*
X70787253Y-52457274D01*
X70690885Y-52224620D01*
X70669557Y-52203292D01*
X70445758Y-52203292D01*
X70243910Y-52405140D01*
X70188613Y-52416139D01*
X70067879Y-52496811D01*
X69148640Y-53416050D01*
X69128276Y-53446526D01*
X68845644Y-53729159D01*
X68804731Y-53756496D01*
X68696432Y-53918579D01*
X68671857Y-54042127D01*
X68658402Y-54109766D01*
X68668001Y-54158022D01*
X68668001Y-54283745D01*
X68658402Y-54332001D01*
X68668001Y-54380257D01*
X68668001Y-54380258D01*
X68696432Y-54523189D01*
X68793000Y-54667713D01*
X68793000Y-54884168D01*
X68909465Y-55165338D01*
X69124662Y-55380535D01*
X69405832Y-55497000D01*
X69710168Y-55497000D01*
X69991338Y-55380535D01*
X70206535Y-55165338D01*
X70254890Y-55048600D01*
X70386077Y-55179787D01*
X70506811Y-55260459D01*
X70649227Y-55288787D01*
X70791643Y-55260459D01*
X70912377Y-55179787D01*
X71025514Y-55066650D01*
X71266736Y-55307871D01*
X71156662Y-55353465D01*
X70941465Y-55568662D01*
X70853550Y-55780906D01*
X70791643Y-55739541D01*
X70649227Y-55711213D01*
X70506811Y-55739541D01*
X70386077Y-55820213D01*
X70209300Y-55996990D01*
X70138493Y-56102959D01*
X70032524Y-56173766D01*
X69855747Y-56350543D01*
X69784940Y-56456513D01*
X69678970Y-56527320D01*
X69502193Y-56704097D01*
X69431386Y-56810066D01*
X69325417Y-56880873D01*
X69148640Y-57057650D01*
X69077833Y-57163619D01*
X68971864Y-57234426D01*
X68795087Y-57411203D01*
X68724280Y-57517173D01*
X68618310Y-57587980D01*
X68441533Y-57764757D01*
X68370726Y-57870726D01*
X68265000Y-57941371D01*
X68265000Y-57847832D01*
X68148535Y-57566662D01*
X67933338Y-57351465D01*
X67652168Y-57235000D01*
X67347832Y-57235000D01*
X67066662Y-57351465D01*
X66851465Y-57566662D01*
X66735000Y-57847832D01*
X66735000Y-58152168D01*
X66851465Y-58433338D01*
X67066662Y-58648535D01*
X67347832Y-58765000D01*
X67441290Y-58765000D01*
X67380873Y-58825417D01*
X67310066Y-58931386D01*
X67228486Y-58985897D01*
X66987782Y-58985897D01*
X66755128Y-59082265D01*
X66733800Y-59103593D01*
X66733800Y-59327392D01*
X66935649Y-59529242D01*
X66946648Y-59584536D01*
X67027320Y-59705270D01*
X67946559Y-60624509D01*
X67977036Y-60644873D01*
X72028522Y-64696360D01*
X72055857Y-64737270D01*
X72096767Y-64764605D01*
X72217938Y-64845569D01*
X72409127Y-64883599D01*
X72457384Y-64874000D01*
X73125000Y-64874000D01*
X73125000Y-73060000D01*
X50440000Y-73060000D01*
X50440000Y-70767250D01*
X59058000Y-70767250D01*
X59058000Y-71455911D01*
X59154368Y-71688565D01*
X59332434Y-71866631D01*
X59565088Y-71963000D01*
X60253750Y-71963000D01*
X60412000Y-71804750D01*
X60412000Y-70609000D01*
X59216250Y-70609000D01*
X59058000Y-70767250D01*
X50440000Y-70767250D01*
X50440000Y-69504089D01*
X59058000Y-69504089D01*
X59058000Y-70192750D01*
X59216250Y-70351000D01*
X60412000Y-70351000D01*
X60412000Y-69155250D01*
X60670000Y-69155250D01*
X60670000Y-70351000D01*
X60690000Y-70351000D01*
X60690000Y-70609000D01*
X60670000Y-70609000D01*
X60670000Y-71804750D01*
X60828250Y-71963000D01*
X61516912Y-71963000D01*
X61749566Y-71866631D01*
X61927632Y-71688565D01*
X62024000Y-71455911D01*
X62024000Y-71085029D01*
X62205034Y-71355966D01*
X62606931Y-71624505D01*
X62961334Y-71695000D01*
X63200666Y-71695000D01*
X63555069Y-71624505D01*
X63956966Y-71355966D01*
X64225505Y-70954069D01*
X64319803Y-70480000D01*
X64232395Y-70040569D01*
X64782964Y-69490000D01*
X64915698Y-69490000D01*
X64745034Y-69604034D01*
X64476495Y-70005931D01*
X64382197Y-70480000D01*
X64476495Y-70954069D01*
X64745034Y-71355966D01*
X65146931Y-71624505D01*
X65501334Y-71695000D01*
X65740666Y-71695000D01*
X66095069Y-71624505D01*
X66496966Y-71355966D01*
X66765505Y-70954069D01*
X66859803Y-70480000D01*
X66772395Y-70040569D01*
X68410001Y-68402964D01*
X68410001Y-69290726D01*
X68280666Y-69265000D01*
X68041334Y-69265000D01*
X67686931Y-69335495D01*
X67285034Y-69604034D01*
X67016495Y-70005931D01*
X66922197Y-70480000D01*
X67016495Y-70954069D01*
X67285034Y-71355966D01*
X67686931Y-71624505D01*
X68041334Y-71695000D01*
X68280666Y-71695000D01*
X68635069Y-71624505D01*
X69036966Y-71355966D01*
X69305505Y-70954069D01*
X69399803Y-70480000D01*
X69309975Y-70028404D01*
X69361569Y-69951188D01*
X69377021Y-69873509D01*
X69387641Y-69880605D01*
X69549273Y-70042237D01*
X69462197Y-70480000D01*
X69556495Y-70954069D01*
X69825034Y-71355966D01*
X70226931Y-71624505D01*
X70581334Y-71695000D01*
X70820666Y-71695000D01*
X71175069Y-71624505D01*
X71576966Y-71355966D01*
X71845505Y-70954069D01*
X71939803Y-70480000D01*
X71845505Y-70005931D01*
X71576966Y-69604034D01*
X71175069Y-69335495D01*
X70820666Y-69265000D01*
X70581334Y-69265000D01*
X70228206Y-69335241D01*
X70190000Y-69297036D01*
X70190000Y-67578618D01*
X70213150Y-67563150D01*
X70293822Y-67442416D01*
X70322150Y-67300000D01*
X70322150Y-66500000D01*
X70293822Y-66357584D01*
X70213150Y-66236850D01*
X70092416Y-66156178D01*
X69950000Y-66127850D01*
X69450000Y-66127850D01*
X69307584Y-66156178D01*
X69275000Y-66177950D01*
X69242416Y-66156178D01*
X69100000Y-66127850D01*
X68700000Y-66127850D01*
X68557584Y-66156178D01*
X68500000Y-66194654D01*
X68442416Y-66156178D01*
X68300000Y-66127850D01*
X67900000Y-66127850D01*
X67757584Y-66156178D01*
X67725000Y-66177950D01*
X67692416Y-66156178D01*
X67550000Y-66127850D01*
X67050000Y-66127850D01*
X66907584Y-66156178D01*
X66786850Y-66236850D01*
X66706178Y-66357584D01*
X66677850Y-66500000D01*
X66677850Y-67300000D01*
X66706178Y-67442416D01*
X66769641Y-67537394D01*
X65797036Y-68510000D01*
X64628251Y-68510000D01*
X64579999Y-68500402D01*
X64531747Y-68510000D01*
X64531743Y-68510000D01*
X64388812Y-68538431D01*
X64226730Y-68646730D01*
X64199393Y-68687643D01*
X63552126Y-69334910D01*
X63200666Y-69265000D01*
X62961334Y-69265000D01*
X62606931Y-69335495D01*
X62205034Y-69604034D01*
X62024000Y-69874971D01*
X62024000Y-69504089D01*
X61927632Y-69271435D01*
X61749566Y-69093369D01*
X61516912Y-68997000D01*
X60828250Y-68997000D01*
X60670000Y-69155250D01*
X60412000Y-69155250D01*
X60253750Y-68997000D01*
X59565088Y-68997000D01*
X59332434Y-69093369D01*
X59154368Y-69271435D01*
X59058000Y-69504089D01*
X50440000Y-69504089D01*
X50440000Y-52479250D01*
X51057000Y-52479250D01*
X51057000Y-53167912D01*
X51153369Y-53400566D01*
X51331435Y-53578632D01*
X51564089Y-53675000D01*
X52252750Y-53675000D01*
X52411000Y-53516750D01*
X52411000Y-52321000D01*
X52669000Y-52321000D01*
X52669000Y-53516750D01*
X52827250Y-53675000D01*
X53515911Y-53675000D01*
X53748565Y-53578632D01*
X53926631Y-53400566D01*
X54023000Y-53167912D01*
X54023000Y-52479250D01*
X53864750Y-52321000D01*
X52669000Y-52321000D01*
X52411000Y-52321000D01*
X51215250Y-52321000D01*
X51057000Y-52479250D01*
X50440000Y-52479250D01*
X50440000Y-52254050D01*
X54115000Y-52254050D01*
X54115000Y-52637950D01*
X54261913Y-52992628D01*
X54533372Y-53264087D01*
X54888050Y-53411000D01*
X55271950Y-53411000D01*
X55626628Y-53264087D01*
X55898087Y-52992628D01*
X56045000Y-52637950D01*
X56045000Y-52562873D01*
X56345659Y-52262214D01*
X56409534Y-52219534D01*
X56578614Y-51966488D01*
X56623000Y-51743345D01*
X56623000Y-51743341D01*
X56636535Y-51675294D01*
X56651822Y-51652416D01*
X56680150Y-51510000D01*
X56680150Y-50710000D01*
X56651822Y-50567584D01*
X56571150Y-50446850D01*
X56450416Y-50366178D01*
X56308000Y-50337850D01*
X55897399Y-50337850D01*
X55858000Y-50330013D01*
X55818601Y-50337850D01*
X55408000Y-50337850D01*
X55265584Y-50366178D01*
X55144850Y-50446850D01*
X55064178Y-50567584D01*
X55035850Y-50710000D01*
X55035850Y-51408277D01*
X54963127Y-51481000D01*
X54888050Y-51481000D01*
X54533372Y-51627913D01*
X54261913Y-51899372D01*
X54115000Y-52254050D01*
X50440000Y-52254050D01*
X50440000Y-51216088D01*
X51057000Y-51216088D01*
X51057000Y-51904750D01*
X51215250Y-52063000D01*
X52411000Y-52063000D01*
X52411000Y-52043000D01*
X52669000Y-52043000D01*
X52669000Y-52063000D01*
X53864750Y-52063000D01*
X54023000Y-51904750D01*
X54023000Y-51216088D01*
X53926631Y-50983434D01*
X53748565Y-50805368D01*
X53515911Y-50709000D01*
X53145029Y-50709000D01*
X53415966Y-50527966D01*
X53684505Y-50126069D01*
X53714554Y-49975000D01*
X55372054Y-49975000D01*
X55408000Y-49982150D01*
X55818601Y-49982150D01*
X55858000Y-49989987D01*
X55897399Y-49982150D01*
X56308000Y-49982150D01*
X56450416Y-49953822D01*
X56571150Y-49873150D01*
X56651822Y-49752416D01*
X56680150Y-49610000D01*
X56680150Y-49245722D01*
X57186130Y-48739743D01*
X57211894Y-48739743D01*
X57224000Y-48742151D01*
X57724000Y-48742151D01*
X57866416Y-48713823D01*
X57874000Y-48708755D01*
X57881584Y-48713823D01*
X58024000Y-48742151D01*
X58179000Y-48742151D01*
X58179000Y-48773127D01*
X57564278Y-49387850D01*
X57408000Y-49387850D01*
X57265584Y-49416178D01*
X57144850Y-49496850D01*
X57064178Y-49617584D01*
X57035850Y-49760000D01*
X57035850Y-50560000D01*
X57064178Y-50702416D01*
X57144850Y-50823150D01*
X57265584Y-50903822D01*
X57408000Y-50932150D01*
X57834606Y-50932150D01*
X57874000Y-50939986D01*
X57913394Y-50932150D01*
X58308000Y-50932150D01*
X58450416Y-50903822D01*
X58571150Y-50823150D01*
X58651822Y-50702416D01*
X58680150Y-50560000D01*
X58680150Y-50435722D01*
X59260873Y-49855000D01*
X59335950Y-49855000D01*
X59690628Y-49708087D01*
X59962087Y-49436628D01*
X60109000Y-49081950D01*
X60109000Y-48698050D01*
X59962087Y-48343372D01*
X59913157Y-48294442D01*
X59923986Y-48239999D01*
X59909000Y-48164659D01*
X59909000Y-48164655D01*
X59864614Y-47941512D01*
X59768322Y-47797401D01*
X59738213Y-47752339D01*
X59738212Y-47752338D01*
X59695534Y-47688466D01*
X59631661Y-47645788D01*
X59396151Y-47410278D01*
X59396151Y-47370000D01*
X59393743Y-47357894D01*
X59393743Y-47320991D01*
X59386592Y-47248388D01*
X59367470Y-47152255D01*
X59346293Y-47082444D01*
X59308784Y-46991888D01*
X59289000Y-46954874D01*
X59289000Y-46198985D01*
X59373792Y-46072086D01*
X59421150Y-45834000D01*
X59421150Y-44834000D01*
X59373792Y-44595914D01*
X59238926Y-44394074D01*
X59037086Y-44259208D01*
X58799000Y-44211850D01*
X56949000Y-44211850D01*
X56710914Y-44259208D01*
X56509074Y-44394074D01*
X56374208Y-44595914D01*
X56326850Y-44834000D01*
X56326850Y-45834000D01*
X56374208Y-46072086D01*
X56509074Y-46273926D01*
X56710914Y-46408792D01*
X56949000Y-46456150D01*
X57759000Y-46456150D01*
X57759000Y-46504811D01*
X57724000Y-46497849D01*
X57224000Y-46497849D01*
X57211894Y-46500257D01*
X57174991Y-46500257D01*
X57102388Y-46507408D01*
X57006255Y-46526530D01*
X56936444Y-46547707D01*
X56845888Y-46585216D01*
X56781546Y-46619607D01*
X56700047Y-46674063D01*
X56643653Y-46720345D01*
X56574345Y-46789653D01*
X56528063Y-46846047D01*
X56473607Y-46927546D01*
X56439216Y-46991888D01*
X56401707Y-47082444D01*
X56380530Y-47152255D01*
X56361408Y-47248388D01*
X56354257Y-47320991D01*
X56354257Y-47357894D01*
X56351849Y-47370000D01*
X56351849Y-47410278D01*
X55370343Y-48391785D01*
X55306466Y-48434466D01*
X55299427Y-48445000D01*
X53057339Y-48445000D01*
X52981999Y-48430014D01*
X52906659Y-48445000D01*
X52906655Y-48445000D01*
X52803270Y-48465565D01*
X52659666Y-48437000D01*
X52420334Y-48437000D01*
X52065931Y-48507495D01*
X51664034Y-48776034D01*
X51395495Y-49177931D01*
X51301197Y-49652000D01*
X51395495Y-50126069D01*
X51664034Y-50527966D01*
X51934971Y-50709000D01*
X51564089Y-50709000D01*
X51331435Y-50805368D01*
X51153369Y-50983434D01*
X51057000Y-51216088D01*
X50440000Y-51216088D01*
X50440000Y-47237000D01*
X55588000Y-47237000D01*
X55635835Y-47227485D01*
X55676388Y-47200388D01*
X55703485Y-47159835D01*
X55713000Y-47112000D01*
X55713000Y-42371250D01*
X56066000Y-42371250D01*
X56066000Y-42959911D01*
X56162368Y-43192565D01*
X56340434Y-43370631D01*
X56573088Y-43467000D01*
X57586750Y-43467000D01*
X57745000Y-43308750D01*
X57745000Y-42213000D01*
X58003000Y-42213000D01*
X58003000Y-43308750D01*
X58161250Y-43467000D01*
X59174912Y-43467000D01*
X59407566Y-43370631D01*
X59585632Y-43192565D01*
X59682000Y-42959911D01*
X59682000Y-42371250D01*
X59523750Y-42213000D01*
X58003000Y-42213000D01*
X57745000Y-42213000D01*
X56224250Y-42213000D01*
X56066000Y-42371250D01*
X55713000Y-42371250D01*
X55713000Y-42159250D01*
X59862000Y-42159250D01*
X59862000Y-42772911D01*
X59958368Y-43005565D01*
X60136434Y-43183631D01*
X60369088Y-43280000D01*
X60507750Y-43280000D01*
X60666000Y-43121750D01*
X60666000Y-42001000D01*
X60924000Y-42001000D01*
X60924000Y-43121750D01*
X61082250Y-43280000D01*
X61220912Y-43280000D01*
X61430000Y-43193392D01*
X61639088Y-43280000D01*
X61777750Y-43280000D01*
X61936000Y-43121750D01*
X61936000Y-42001000D01*
X62194000Y-42001000D01*
X62194000Y-43121750D01*
X62352250Y-43280000D01*
X62490912Y-43280000D01*
X62700000Y-43193392D01*
X62909088Y-43280000D01*
X63047750Y-43280000D01*
X63206000Y-43121750D01*
X63206000Y-42001000D01*
X63464000Y-42001000D01*
X63464000Y-43121750D01*
X63622250Y-43280000D01*
X63760912Y-43280000D01*
X63970000Y-43193392D01*
X64179088Y-43280000D01*
X64317750Y-43280000D01*
X64476000Y-43121750D01*
X64476000Y-42001000D01*
X64734000Y-42001000D01*
X64734000Y-43121750D01*
X64892250Y-43280000D01*
X65030912Y-43280000D01*
X65080286Y-43259548D01*
X65037000Y-43364050D01*
X65037000Y-43747950D01*
X65183913Y-44102628D01*
X65455372Y-44374087D01*
X65696795Y-44474088D01*
X66232850Y-45010144D01*
X66232850Y-45625000D01*
X66280208Y-45863086D01*
X66415074Y-46064926D01*
X66616914Y-46199792D01*
X66855000Y-46247150D01*
X68705000Y-46247150D01*
X68943086Y-46199792D01*
X69144926Y-46064926D01*
X69279792Y-45863086D01*
X69327150Y-45625000D01*
X69327150Y-44833500D01*
X69801980Y-44833500D01*
X69899921Y-44980079D01*
X70091622Y-45108170D01*
X70317750Y-45153150D01*
X70830250Y-45153150D01*
X71056378Y-45108170D01*
X71248079Y-44980079D01*
X71376170Y-44788378D01*
X71421150Y-44562250D01*
X71421150Y-44124750D01*
X71376170Y-43898622D01*
X71301340Y-43786631D01*
X71407566Y-43742631D01*
X71585632Y-43564565D01*
X71682000Y-43331911D01*
X71682000Y-43055750D01*
X71523750Y-42897500D01*
X70703000Y-42897500D01*
X70703000Y-42917500D01*
X70445000Y-42917500D01*
X70445000Y-42897500D01*
X70425000Y-42897500D01*
X70425000Y-42639500D01*
X70445000Y-42639500D01*
X70445000Y-41856250D01*
X70703000Y-41856250D01*
X70703000Y-42639500D01*
X71523750Y-42639500D01*
X71682000Y-42481250D01*
X71682000Y-42205089D01*
X71585632Y-41972435D01*
X71407566Y-41794369D01*
X71174912Y-41698000D01*
X70861250Y-41698000D01*
X70703000Y-41856250D01*
X70445000Y-41856250D01*
X70286750Y-41698000D01*
X69973088Y-41698000D01*
X69740434Y-41794369D01*
X69562368Y-41972435D01*
X69514280Y-42088530D01*
X69429750Y-42004000D01*
X67909000Y-42004000D01*
X67909000Y-43099750D01*
X68067250Y-43258000D01*
X69080912Y-43258000D01*
X69313566Y-43161631D01*
X69491632Y-42983565D01*
X69527280Y-42897502D01*
X69624248Y-42897502D01*
X69466000Y-43055750D01*
X69466000Y-43331911D01*
X69562368Y-43564565D01*
X69740434Y-43742631D01*
X69846660Y-43786631D01*
X69801980Y-43853500D01*
X68609756Y-43853500D01*
X68561500Y-43843901D01*
X68513244Y-43853500D01*
X68513243Y-43853500D01*
X68370312Y-43881931D01*
X68208230Y-43990230D01*
X68199798Y-44002850D01*
X67672144Y-44002850D01*
X66927293Y-43258000D01*
X67492750Y-43258000D01*
X67651000Y-43099750D01*
X67651000Y-42004000D01*
X66130250Y-42004000D01*
X65972000Y-42162250D01*
X65972000Y-42591000D01*
X65810050Y-42591000D01*
X65538000Y-42703687D01*
X65538000Y-42159250D01*
X65379750Y-42001000D01*
X64734000Y-42001000D01*
X64476000Y-42001000D01*
X63464000Y-42001000D01*
X63206000Y-42001000D01*
X62194000Y-42001000D01*
X61936000Y-42001000D01*
X60924000Y-42001000D01*
X60666000Y-42001000D01*
X60020250Y-42001000D01*
X59862000Y-42159250D01*
X55713000Y-42159250D01*
X55713000Y-41208089D01*
X56066000Y-41208089D01*
X56066000Y-41796750D01*
X56224250Y-41955000D01*
X57745000Y-41955000D01*
X57745000Y-40859250D01*
X58003000Y-40859250D01*
X58003000Y-41955000D01*
X59523750Y-41955000D01*
X59682000Y-41796750D01*
X59682000Y-41208089D01*
X59585632Y-40975435D01*
X59581286Y-40971089D01*
X59862000Y-40971089D01*
X59862000Y-41584750D01*
X60020250Y-41743000D01*
X60666000Y-41743000D01*
X60666000Y-40622250D01*
X60924000Y-40622250D01*
X60924000Y-41743000D01*
X61936000Y-41743000D01*
X61936000Y-40622250D01*
X62194000Y-40622250D01*
X62194000Y-41743000D01*
X63206000Y-41743000D01*
X63206000Y-40622250D01*
X63464000Y-40622250D01*
X63464000Y-41743000D01*
X64476000Y-41743000D01*
X64476000Y-40622250D01*
X64734000Y-40622250D01*
X64734000Y-41743000D01*
X65379750Y-41743000D01*
X65538000Y-41584750D01*
X65538000Y-40999089D01*
X65972000Y-40999089D01*
X65972000Y-41587750D01*
X66130250Y-41746000D01*
X67651000Y-41746000D01*
X67651000Y-40650250D01*
X67909000Y-40650250D01*
X67909000Y-41746000D01*
X69429750Y-41746000D01*
X69588000Y-41587750D01*
X69588000Y-40999089D01*
X69491632Y-40766435D01*
X69313566Y-40588369D01*
X69080912Y-40492000D01*
X68067250Y-40492000D01*
X67909000Y-40650250D01*
X67651000Y-40650250D01*
X67492750Y-40492000D01*
X66479088Y-40492000D01*
X66246434Y-40588369D01*
X66068368Y-40766435D01*
X65972000Y-40999089D01*
X65538000Y-40999089D01*
X65538000Y-40971089D01*
X65441632Y-40738435D01*
X65263566Y-40560369D01*
X65030912Y-40464000D01*
X64892250Y-40464000D01*
X64734000Y-40622250D01*
X64476000Y-40622250D01*
X64317750Y-40464000D01*
X64179088Y-40464000D01*
X63970000Y-40550608D01*
X63760912Y-40464000D01*
X63622250Y-40464000D01*
X63464000Y-40622250D01*
X63206000Y-40622250D01*
X63047750Y-40464000D01*
X62909088Y-40464000D01*
X62700000Y-40550608D01*
X62490912Y-40464000D01*
X62352250Y-40464000D01*
X62194000Y-40622250D01*
X61936000Y-40622250D01*
X61777750Y-40464000D01*
X61639088Y-40464000D01*
X61430000Y-40550608D01*
X61220912Y-40464000D01*
X61082250Y-40464000D01*
X60924000Y-40622250D01*
X60666000Y-40622250D01*
X60507750Y-40464000D01*
X60369088Y-40464000D01*
X60136434Y-40560369D01*
X59958368Y-40738435D01*
X59862000Y-40971089D01*
X59581286Y-40971089D01*
X59407566Y-40797369D01*
X59174912Y-40701000D01*
X58161250Y-40701000D01*
X58003000Y-40859250D01*
X57745000Y-40859250D01*
X57586750Y-40701000D01*
X56573088Y-40701000D01*
X56340434Y-40797369D01*
X56162368Y-40975435D01*
X56066000Y-41208089D01*
X55713000Y-41208089D01*
X55713000Y-40440000D01*
X73125000Y-40440000D01*
X73125000Y-49993102D01*
X73125000Y-49993102D01*
G37*
X73125000Y-49993102D02*
X73023787Y-50060730D01*
X73017610Y-50069975D01*
X72932450Y-50069975D01*
X73005523Y-49960614D01*
X73033851Y-49818198D01*
X73005523Y-49675782D01*
X72924851Y-49555048D01*
X72642008Y-49272205D01*
X72521274Y-49191533D01*
X72415171Y-49170428D01*
X72446173Y-49095581D01*
X72446173Y-48843758D01*
X72349804Y-48611104D01*
X72301960Y-48563260D01*
X72078161Y-48563260D01*
X71161927Y-49479494D01*
X71196576Y-49514143D01*
X71014143Y-49696576D01*
X70979494Y-49661927D01*
X70063260Y-50578161D01*
X70063260Y-50760000D01*
X69944703Y-50760000D01*
X69896447Y-50750401D01*
X69848191Y-50760000D01*
X69848190Y-50760000D01*
X69705259Y-50788431D01*
X69565913Y-50881538D01*
X69565913Y-50185420D01*
X69650196Y-50388896D01*
X69698040Y-50436740D01*
X69921839Y-50436740D01*
X70838073Y-49520506D01*
X70803425Y-49485858D01*
X70985858Y-49303425D01*
X71020506Y-49338073D01*
X71936740Y-48421839D01*
X71936740Y-48198040D01*
X71888896Y-48150196D01*
X71656242Y-48053827D01*
X71404419Y-48053827D01*
X71329572Y-48084829D01*
X71308467Y-47978726D01*
X71227795Y-47857992D01*
X70944952Y-47575149D01*
X70824218Y-47494477D01*
X70681802Y-47466149D01*
X70539386Y-47494477D01*
X70418652Y-47575149D01*
X69075149Y-48918652D01*
X69042764Y-48967120D01*
X68936535Y-48710662D01*
X68721338Y-48495465D01*
X68440168Y-48379000D01*
X68135832Y-48379000D01*
X67854662Y-48495465D01*
X67639465Y-48710662D01*
X67523000Y-48991832D01*
X67523000Y-49296168D01*
X67639465Y-49577338D01*
X67659547Y-49597420D01*
X67645018Y-49587712D01*
X67502602Y-49559384D01*
X67360186Y-49587712D01*
X67239452Y-49668384D01*
X66765000Y-50142836D01*
X66765000Y-50097845D01*
X66648535Y-49816675D01*
X66433338Y-49601478D01*
X66152168Y-49485013D01*
X65847832Y-49485013D01*
X65566662Y-49601478D01*
X65408127Y-49760013D01*
X65146413Y-49760013D01*
X65098157Y-49750414D01*
X65049901Y-49760013D01*
X64906970Y-49788444D01*
X64891167Y-49799003D01*
X64760548Y-49668384D01*
X64639814Y-49587712D01*
X64497398Y-49559384D01*
X64354982Y-49587712D01*
X64258638Y-49652087D01*
X64154877Y-49652087D01*
X64917360Y-48889605D01*
X64958270Y-48862270D01*
X64986066Y-48820670D01*
X65066569Y-48700189D01*
X65104599Y-48509000D01*
X65095000Y-48460743D01*
X65095000Y-48359027D01*
X65168150Y-48310150D01*
X65248822Y-48189416D01*
X65277150Y-48047000D01*
X65277150Y-46497000D01*
X65248822Y-46354584D01*
X65168150Y-46233850D01*
X65047416Y-46153178D01*
X64905000Y-46124850D01*
X64305000Y-46124850D01*
X64162584Y-46153178D01*
X64041850Y-46233850D01*
X63970000Y-46341381D01*
X63898150Y-46233850D01*
X63777416Y-46153178D01*
X63635000Y-46124850D01*
X63035000Y-46124850D01*
X62906585Y-46150393D01*
X62901632Y-46138435D01*
X62723566Y-45960369D01*
X62490912Y-45864000D01*
X62352250Y-45864000D01*
X62194000Y-46022250D01*
X62194000Y-47143000D01*
X62214000Y-47143000D01*
X62214000Y-47401000D01*
X62194000Y-47401000D01*
X62194000Y-47421000D01*
X61936000Y-47421000D01*
X61936000Y-47401000D01*
X61916000Y-47401000D01*
X61916000Y-47143000D01*
X61936000Y-47143000D01*
X61936000Y-46022250D01*
X61777750Y-45864000D01*
X61639088Y-45864000D01*
X61406434Y-45960369D01*
X61285000Y-46081803D01*
X61285000Y-45466148D01*
X61468628Y-45390087D01*
X61740087Y-45118628D01*
X61887000Y-44763950D01*
X61887000Y-44380050D01*
X61740087Y-44025372D01*
X61468628Y-43753913D01*
X61113950Y-43607000D01*
X60730050Y-43607000D01*
X60375372Y-43753913D01*
X60103913Y-44025372D01*
X59957000Y-44380050D01*
X59957000Y-44763950D01*
X60103913Y-45118628D01*
X60305001Y-45319716D01*
X60305000Y-46184972D01*
X60231850Y-46233850D01*
X60151178Y-46354584D01*
X60122850Y-46497000D01*
X60122850Y-48047000D01*
X60151178Y-48189416D01*
X60231850Y-48310150D01*
X60352584Y-48390822D01*
X60495000Y-48419150D01*
X61095000Y-48419150D01*
X61223415Y-48393607D01*
X61228368Y-48405565D01*
X61406434Y-48583631D01*
X61506464Y-48625065D01*
X61499405Y-48635630D01*
X60921633Y-49213403D01*
X60880720Y-49240740D01*
X60772421Y-49402823D01*
X60745625Y-49537534D01*
X60734391Y-49594010D01*
X60743990Y-49642266D01*
X60743991Y-51039283D01*
X60734391Y-51087543D01*
X60772422Y-51278731D01*
X60833080Y-51369512D01*
X60880721Y-51440813D01*
X60921631Y-51468148D01*
X61678057Y-52224575D01*
X61582597Y-52320035D01*
X61511790Y-52426004D01*
X61405821Y-52496811D01*
X61229044Y-52673588D01*
X61158237Y-52779557D01*
X61052268Y-52850364D01*
X60875491Y-53027141D01*
X60804684Y-53133111D01*
X60698714Y-53203918D01*
X60606172Y-53296460D01*
X60590584Y-53273131D01*
X60428502Y-53164832D01*
X60285571Y-53136401D01*
X60285570Y-53136401D01*
X60237314Y-53126802D01*
X60189058Y-53136401D01*
X59764456Y-53136401D01*
X59716199Y-53126802D01*
X59525010Y-53164832D01*
X59466514Y-53203918D01*
X59362929Y-53273131D01*
X59335594Y-53314041D01*
X59286635Y-53363000D01*
X58922213Y-53363000D01*
X58512403Y-53532749D01*
X58198749Y-53846403D01*
X58029000Y-54256213D01*
X58029000Y-54699787D01*
X58198749Y-55109597D01*
X58512403Y-55423251D01*
X58683206Y-55494000D01*
X58512403Y-55564749D01*
X58198749Y-55878403D01*
X58029000Y-56288213D01*
X58029000Y-56731787D01*
X58198749Y-57141597D01*
X58512403Y-57455251D01*
X58922213Y-57625000D01*
X59365787Y-57625000D01*
X59453502Y-57588667D01*
X59454639Y-57589804D01*
X59454642Y-57589806D01*
X60046002Y-58181167D01*
X60073337Y-58222077D01*
X60114247Y-58249412D01*
X60235419Y-58330376D01*
X60426607Y-58368406D01*
X60474864Y-58358807D01*
X60680461Y-58358807D01*
X59463269Y-59576000D01*
X57456937Y-59576000D01*
X57416767Y-59374055D01*
X57283257Y-59174243D01*
X57097314Y-59050000D01*
X57236334Y-58957110D01*
X57467832Y-59053000D01*
X57772168Y-59053000D01*
X58053338Y-58936535D01*
X58268535Y-58721338D01*
X58385000Y-58440168D01*
X58385000Y-58135832D01*
X58268535Y-57854662D01*
X58053338Y-57639465D01*
X57772168Y-57523000D01*
X57467832Y-57523000D01*
X57453907Y-57528768D01*
X57416767Y-57342055D01*
X57283257Y-57142243D01*
X57083445Y-57008733D01*
X56847750Y-56961850D01*
X56360250Y-56961850D01*
X56124555Y-57008733D01*
X55924743Y-57142243D01*
X55791233Y-57342055D01*
X55744350Y-57577750D01*
X55744350Y-58490250D01*
X55791233Y-58725945D01*
X55924743Y-58925757D01*
X56110686Y-59050000D01*
X55924743Y-59174243D01*
X55791233Y-59374055D01*
X55744350Y-59609750D01*
X55744350Y-60388388D01*
X55588648Y-60232686D01*
X55588648Y-59609750D01*
X55541765Y-59374055D01*
X55408255Y-59174243D01*
X55222313Y-59050001D01*
X55408257Y-58925757D01*
X55541767Y-58725945D01*
X55588650Y-58490250D01*
X55588650Y-57577750D01*
X55541767Y-57342055D01*
X55408257Y-57142243D01*
X55208445Y-57008733D01*
X54972750Y-56961850D01*
X54485250Y-56961850D01*
X54249555Y-57008733D01*
X54049743Y-57142243D01*
X53916233Y-57342055D01*
X53869350Y-57577750D01*
X53869350Y-58490250D01*
X53916233Y-58725945D01*
X54049743Y-58925757D01*
X54235685Y-59049999D01*
X54049741Y-59174243D01*
X53916231Y-59374055D01*
X53869348Y-59609750D01*
X53869348Y-60522250D01*
X53916231Y-60757945D01*
X54049741Y-60957757D01*
X54235685Y-61082001D01*
X54049743Y-61206243D01*
X53916233Y-61406055D01*
X53869350Y-61641750D01*
X53869350Y-62264685D01*
X53243643Y-62890393D01*
X53243640Y-62890395D01*
X52684841Y-63449195D01*
X52643931Y-63476530D01*
X52616596Y-63517440D01*
X52616595Y-63517441D01*
X52535632Y-63638612D01*
X52497601Y-63829800D01*
X52507201Y-63878061D01*
X52507200Y-65900327D01*
X52348665Y-66058862D01*
X52232200Y-66340032D01*
X52232200Y-66644368D01*
X52348665Y-66925538D01*
X52563862Y-67140735D01*
X52845032Y-67257200D01*
X53149368Y-67257200D01*
X53430538Y-67140735D01*
X53645735Y-66925538D01*
X53762200Y-66644368D01*
X53762200Y-66340032D01*
X53645735Y-66058862D01*
X53487200Y-65900327D01*
X53487200Y-64032764D01*
X53936605Y-63583360D01*
X53936607Y-63583357D01*
X54372285Y-63147680D01*
X54485250Y-63170150D01*
X54972750Y-63170150D01*
X55027595Y-63159241D01*
X54888240Y-63298596D01*
X54847330Y-63325931D01*
X54819995Y-63366841D01*
X54819994Y-63366842D01*
X54739031Y-63488013D01*
X54701000Y-63679201D01*
X54710600Y-63727462D01*
X54710599Y-65752600D01*
X54648432Y-65752600D01*
X54367262Y-65869065D01*
X54152065Y-66084262D01*
X54035600Y-66365432D01*
X54035600Y-66669768D01*
X54152065Y-66950938D01*
X54367262Y-67166135D01*
X54648432Y-67282600D01*
X54952768Y-67282600D01*
X55233938Y-67166135D01*
X55449135Y-66950938D01*
X55517000Y-66787098D01*
X55517000Y-66975911D01*
X55613368Y-67208565D01*
X55791434Y-67386631D01*
X56024088Y-67483000D01*
X56712750Y-67483000D01*
X56871000Y-67324750D01*
X56871000Y-66129000D01*
X56851000Y-66129000D01*
X56851000Y-65871000D01*
X56871000Y-65871000D01*
X56871000Y-64675250D01*
X56712750Y-64517000D01*
X56024088Y-64517000D01*
X55791434Y-64613369D01*
X55690599Y-64714204D01*
X55690599Y-63882165D01*
X55976560Y-63596205D01*
X56017470Y-63568870D01*
X56079169Y-63476530D01*
X56125769Y-63406789D01*
X56163799Y-63215600D01*
X56154200Y-63167343D01*
X56154200Y-63129164D01*
X56360250Y-63170150D01*
X56847750Y-63170150D01*
X57083445Y-63123267D01*
X57283257Y-62989757D01*
X57416767Y-62789945D01*
X57456937Y-62588000D01*
X58293083Y-62588000D01*
X58341339Y-62597599D01*
X58389595Y-62588000D01*
X58389596Y-62588000D01*
X58532527Y-62559569D01*
X58694609Y-62451270D01*
X58721946Y-62410357D01*
X61010000Y-60122303D01*
X61010001Y-63837034D01*
X59995278Y-64851757D01*
X59659666Y-64785000D01*
X59420334Y-64785000D01*
X59065931Y-64855495D01*
X58664034Y-65124034D01*
X58483000Y-65394971D01*
X58483000Y-65024089D01*
X58386632Y-64791435D01*
X58208566Y-64613369D01*
X57975912Y-64517000D01*
X57287250Y-64517000D01*
X57129000Y-64675250D01*
X57129000Y-65871000D01*
X57149000Y-65871000D01*
X57149000Y-66129000D01*
X57129000Y-66129000D01*
X57129000Y-67324750D01*
X57287250Y-67483000D01*
X57975912Y-67483000D01*
X58208566Y-67386631D01*
X58386632Y-67208565D01*
X58483000Y-66975911D01*
X58483000Y-66605029D01*
X58664034Y-66875966D01*
X59065931Y-67144505D01*
X59420334Y-67215000D01*
X59659666Y-67215000D01*
X60014069Y-67144505D01*
X60415966Y-66875966D01*
X60684505Y-66474069D01*
X60778803Y-66000000D01*
X60688243Y-65544722D01*
X61590001Y-64642964D01*
X61590001Y-64866139D01*
X61204034Y-65124034D01*
X60935495Y-65525931D01*
X60841197Y-66000000D01*
X60935495Y-66474069D01*
X61204034Y-66875966D01*
X61605931Y-67144505D01*
X61960334Y-67215000D01*
X62199666Y-67215000D01*
X62554069Y-67144505D01*
X62955966Y-66875966D01*
X63224505Y-66474069D01*
X63318803Y-66000000D01*
X63381197Y-66000000D01*
X63475495Y-66474069D01*
X63744034Y-66875966D01*
X64145931Y-67144505D01*
X64500334Y-67215000D01*
X64739666Y-67215000D01*
X65094069Y-67144505D01*
X65495966Y-66875966D01*
X65764505Y-66474069D01*
X65858803Y-66000000D01*
X65764505Y-65525931D01*
X65495966Y-65124034D01*
X65094069Y-64855495D01*
X64739666Y-64785000D01*
X64500334Y-64785000D01*
X64145931Y-64855495D01*
X63744034Y-65124034D01*
X63475495Y-65525931D01*
X63381197Y-66000000D01*
X63318803Y-66000000D01*
X63224505Y-65525931D01*
X62955966Y-65124034D01*
X62570000Y-64866140D01*
X62570000Y-62285784D01*
X63846571Y-63562355D01*
X63873906Y-63603265D01*
X63914816Y-63630600D01*
X64035987Y-63711564D01*
X64227175Y-63749595D01*
X64275434Y-63739995D01*
X64541726Y-63739997D01*
X64590000Y-63749599D01*
X64638257Y-63740000D01*
X65797036Y-63740000D01*
X66690988Y-64633952D01*
X66677850Y-64700000D01*
X66677850Y-65500000D01*
X66706178Y-65642416D01*
X66786850Y-65763150D01*
X66907584Y-65843822D01*
X67050000Y-65872150D01*
X67550000Y-65872150D01*
X67692416Y-65843822D01*
X67725000Y-65822050D01*
X67757584Y-65843822D01*
X67900000Y-65872150D01*
X68300000Y-65872150D01*
X68442416Y-65843822D01*
X68500000Y-65805346D01*
X68557584Y-65843822D01*
X68700000Y-65872150D01*
X69100000Y-65872150D01*
X69242416Y-65843822D01*
X69275000Y-65822050D01*
X69307584Y-65843822D01*
X69450000Y-65872150D01*
X69950000Y-65872150D01*
X70092416Y-65843822D01*
X70213150Y-65763150D01*
X70293822Y-65642416D01*
X70322150Y-65500000D01*
X70322150Y-64700000D01*
X70293822Y-64557584D01*
X70213150Y-64436850D01*
X70194505Y-64424392D01*
X70180177Y-64352360D01*
X70161569Y-64258812D01*
X70053270Y-64096730D01*
X70012357Y-64069393D01*
X67530574Y-61587610D01*
X67503237Y-61546697D01*
X67341155Y-61438398D01*
X67198224Y-61409967D01*
X67198223Y-61409967D01*
X67149967Y-61400368D01*
X67101711Y-61409967D01*
X66920245Y-61409967D01*
X67005099Y-61353270D01*
X67032436Y-61312357D01*
X67126315Y-61218479D01*
X67239452Y-61331616D01*
X67360186Y-61412288D01*
X67502602Y-61440616D01*
X67645018Y-61412288D01*
X67741362Y-61347913D01*
X67982066Y-61347913D01*
X68214720Y-61251545D01*
X68236048Y-61230217D01*
X68236048Y-61006418D01*
X68034200Y-60804570D01*
X68023201Y-60749273D01*
X67942529Y-60628539D01*
X67491609Y-60177619D01*
X67484640Y-60167189D01*
X67474210Y-60160220D01*
X67023290Y-59709300D01*
X66902556Y-59628628D01*
X66847259Y-59617629D01*
X66645411Y-59415781D01*
X66421612Y-59415781D01*
X66400284Y-59437109D01*
X66303916Y-59669763D01*
X66303916Y-59910467D01*
X66239541Y-60006811D01*
X66211213Y-60149227D01*
X66235108Y-60269355D01*
X66152168Y-60235000D01*
X65847832Y-60235000D01*
X65764892Y-60269355D01*
X65788787Y-60149227D01*
X65760459Y-60006811D01*
X65679787Y-59886077D01*
X65503010Y-59709300D01*
X65397041Y-59638493D01*
X65326234Y-59532524D01*
X65149457Y-59355747D01*
X65043487Y-59284940D01*
X64972680Y-59178970D01*
X64795903Y-59002193D01*
X64689934Y-58931386D01*
X64619127Y-58825417D01*
X64442350Y-58648640D01*
X64336381Y-58577833D01*
X64265574Y-58471864D01*
X64088797Y-58295087D01*
X63982827Y-58224280D01*
X63912020Y-58118310D01*
X63735243Y-57941533D01*
X63629274Y-57870726D01*
X63558467Y-57764757D01*
X63381690Y-57587980D01*
X63275720Y-57517173D01*
X63204913Y-57411203D01*
X63028136Y-57234426D01*
X62922167Y-57163619D01*
X62851360Y-57057650D01*
X62674583Y-56880873D01*
X62568614Y-56810066D01*
X62514103Y-56728486D01*
X62514103Y-56487782D01*
X62417735Y-56255128D01*
X62396407Y-56233800D01*
X62172608Y-56233800D01*
X61970758Y-56435649D01*
X61915464Y-56446648D01*
X61794730Y-56527320D01*
X61229752Y-57092299D01*
X61225722Y-57088269D01*
X61790700Y-56523290D01*
X61811064Y-56492813D01*
X62203378Y-56100499D01*
X62303425Y-56005000D01*
X62547368Y-56005000D01*
X62828538Y-55888535D01*
X63043735Y-55673338D01*
X63160200Y-55392168D01*
X63160200Y-55087832D01*
X63043735Y-54806662D01*
X62828538Y-54591465D01*
X62547368Y-54475000D01*
X62317558Y-54475000D01*
X62321030Y-54472680D01*
X62497807Y-54295903D01*
X62568614Y-54189934D01*
X62674583Y-54119127D01*
X62851360Y-53942350D01*
X62922167Y-53836381D01*
X63028136Y-53765574D01*
X63204913Y-53588797D01*
X63205000Y-53588667D01*
X63205000Y-53614168D01*
X63321465Y-53895338D01*
X63536662Y-54110535D01*
X63817832Y-54227000D01*
X64122168Y-54227000D01*
X64403338Y-54110535D01*
X64618535Y-53895338D01*
X64735000Y-53614168D01*
X64735000Y-53309832D01*
X64618535Y-53028662D01*
X64482204Y-52892331D01*
X64484344Y-52881570D01*
X64474745Y-52833313D01*
X64474745Y-52472335D01*
X64484343Y-52424083D01*
X64474745Y-52375831D01*
X64474745Y-52375828D01*
X64465311Y-52328399D01*
X64619127Y-52174583D01*
X64689934Y-52068614D01*
X64771514Y-52014103D01*
X65012218Y-52014103D01*
X65244872Y-51917735D01*
X65266200Y-51896407D01*
X65266200Y-51672608D01*
X65064351Y-51470758D01*
X65053352Y-51415464D01*
X64972680Y-51294730D01*
X64053441Y-50375491D01*
X63932707Y-50294819D01*
X63877413Y-50283820D01*
X63675563Y-50081971D01*
X63451764Y-50081971D01*
X63430436Y-50103299D01*
X63334068Y-50335953D01*
X63334068Y-50576657D01*
X63279557Y-50658237D01*
X63173588Y-50729044D01*
X62996811Y-50905821D01*
X62926004Y-51011790D01*
X62820035Y-51082597D01*
X62724575Y-51178058D01*
X62174000Y-50627483D01*
X62174000Y-50420865D01*
X62706866Y-49888000D01*
X63667744Y-49888000D01*
X63716000Y-49897599D01*
X63763952Y-49888060D01*
X63763952Y-49993582D01*
X63965800Y-50195430D01*
X63976799Y-50250727D01*
X64057471Y-50371461D01*
X64508391Y-50822381D01*
X64515360Y-50832811D01*
X64525790Y-50839780D01*
X64976710Y-51290700D01*
X65097444Y-51371372D01*
X65152741Y-51382371D01*
X65354589Y-51584219D01*
X65578388Y-51584219D01*
X65599716Y-51562891D01*
X65696084Y-51330237D01*
X65696084Y-51089533D01*
X65760459Y-50993189D01*
X65763099Y-50979915D01*
X65847832Y-51015013D01*
X66152168Y-51015013D01*
X66236901Y-50979915D01*
X66239541Y-50993189D01*
X66320213Y-51113923D01*
X66496990Y-51290700D01*
X66602959Y-51361507D01*
X66673766Y-51467476D01*
X66850543Y-51644253D01*
X66956513Y-51715060D01*
X67027320Y-51821030D01*
X67204097Y-51997807D01*
X67310066Y-52068614D01*
X67380873Y-52174583D01*
X67557650Y-52351360D01*
X67663619Y-52422167D01*
X67734426Y-52528136D01*
X67776290Y-52570000D01*
X67754832Y-52570000D01*
X67473662Y-52686465D01*
X67258465Y-52901662D01*
X67142000Y-53182832D01*
X67142000Y-53487168D01*
X67258465Y-53768338D01*
X67473662Y-53983535D01*
X67754832Y-54100000D01*
X68059168Y-54100000D01*
X68340338Y-53983535D01*
X68494132Y-53829741D01*
X68518553Y-53834599D01*
X68566809Y-53825000D01*
X68566810Y-53825000D01*
X68709741Y-53796569D01*
X68871823Y-53688270D01*
X68899160Y-53647357D01*
X69114134Y-53432384D01*
X69144610Y-53412020D01*
X70063849Y-52492781D01*
X70144521Y-52372047D01*
X70155520Y-52316753D01*
X70357369Y-52114903D01*
X70357369Y-51891104D01*
X70336041Y-51869776D01*
X70103387Y-51773408D01*
X70066004Y-51773408D01*
X70099412Y-51740000D01*
X70898800Y-51740000D01*
X70947056Y-51749599D01*
X70995312Y-51740000D01*
X70995313Y-51740000D01*
X71069967Y-51725150D01*
X70941465Y-51853652D01*
X70825000Y-52134822D01*
X70825000Y-52439158D01*
X70863521Y-52532156D01*
X70787253Y-52547326D01*
X70787253Y-52457274D01*
X70690885Y-52224620D01*
X70669557Y-52203292D01*
X70445758Y-52203292D01*
X70243910Y-52405140D01*
X70188613Y-52416139D01*
X70067879Y-52496811D01*
X69148640Y-53416050D01*
X69128276Y-53446526D01*
X68845644Y-53729159D01*
X68804731Y-53756496D01*
X68696432Y-53918579D01*
X68671857Y-54042127D01*
X68658402Y-54109766D01*
X68668001Y-54158022D01*
X68668001Y-54283745D01*
X68658402Y-54332001D01*
X68668001Y-54380257D01*
X68668001Y-54380258D01*
X68696432Y-54523189D01*
X68793000Y-54667713D01*
X68793000Y-54884168D01*
X68909465Y-55165338D01*
X69124662Y-55380535D01*
X69405832Y-55497000D01*
X69710168Y-55497000D01*
X69991338Y-55380535D01*
X70206535Y-55165338D01*
X70254890Y-55048600D01*
X70386077Y-55179787D01*
X70506811Y-55260459D01*
X70649227Y-55288787D01*
X70791643Y-55260459D01*
X70912377Y-55179787D01*
X71025514Y-55066650D01*
X71266736Y-55307871D01*
X71156662Y-55353465D01*
X70941465Y-55568662D01*
X70853550Y-55780906D01*
X70791643Y-55739541D01*
X70649227Y-55711213D01*
X70506811Y-55739541D01*
X70386077Y-55820213D01*
X70209300Y-55996990D01*
X70138493Y-56102959D01*
X70032524Y-56173766D01*
X69855747Y-56350543D01*
X69784940Y-56456513D01*
X69678970Y-56527320D01*
X69502193Y-56704097D01*
X69431386Y-56810066D01*
X69325417Y-56880873D01*
X69148640Y-57057650D01*
X69077833Y-57163619D01*
X68971864Y-57234426D01*
X68795087Y-57411203D01*
X68724280Y-57517173D01*
X68618310Y-57587980D01*
X68441533Y-57764757D01*
X68370726Y-57870726D01*
X68265000Y-57941371D01*
X68265000Y-57847832D01*
X68148535Y-57566662D01*
X67933338Y-57351465D01*
X67652168Y-57235000D01*
X67347832Y-57235000D01*
X67066662Y-57351465D01*
X66851465Y-57566662D01*
X66735000Y-57847832D01*
X66735000Y-58152168D01*
X66851465Y-58433338D01*
X67066662Y-58648535D01*
X67347832Y-58765000D01*
X67441290Y-58765000D01*
X67380873Y-58825417D01*
X67310066Y-58931386D01*
X67228486Y-58985897D01*
X66987782Y-58985897D01*
X66755128Y-59082265D01*
X66733800Y-59103593D01*
X66733800Y-59327392D01*
X66935649Y-59529242D01*
X66946648Y-59584536D01*
X67027320Y-59705270D01*
X67946559Y-60624509D01*
X67977036Y-60644873D01*
X72028522Y-64696360D01*
X72055857Y-64737270D01*
X72096767Y-64764605D01*
X72217938Y-64845569D01*
X72409127Y-64883599D01*
X72457384Y-64874000D01*
X73125000Y-64874000D01*
X73125000Y-73060000D01*
X50440000Y-73060000D01*
X50440000Y-70767250D01*
X59058000Y-70767250D01*
X59058000Y-71455911D01*
X59154368Y-71688565D01*
X59332434Y-71866631D01*
X59565088Y-71963000D01*
X60253750Y-71963000D01*
X60412000Y-71804750D01*
X60412000Y-70609000D01*
X59216250Y-70609000D01*
X59058000Y-70767250D01*
X50440000Y-70767250D01*
X50440000Y-69504089D01*
X59058000Y-69504089D01*
X59058000Y-70192750D01*
X59216250Y-70351000D01*
X60412000Y-70351000D01*
X60412000Y-69155250D01*
X60670000Y-69155250D01*
X60670000Y-70351000D01*
X60690000Y-70351000D01*
X60690000Y-70609000D01*
X60670000Y-70609000D01*
X60670000Y-71804750D01*
X60828250Y-71963000D01*
X61516912Y-71963000D01*
X61749566Y-71866631D01*
X61927632Y-71688565D01*
X62024000Y-71455911D01*
X62024000Y-71085029D01*
X62205034Y-71355966D01*
X62606931Y-71624505D01*
X62961334Y-71695000D01*
X63200666Y-71695000D01*
X63555069Y-71624505D01*
X63956966Y-71355966D01*
X64225505Y-70954069D01*
X64319803Y-70480000D01*
X64232395Y-70040569D01*
X64782964Y-69490000D01*
X64915698Y-69490000D01*
X64745034Y-69604034D01*
X64476495Y-70005931D01*
X64382197Y-70480000D01*
X64476495Y-70954069D01*
X64745034Y-71355966D01*
X65146931Y-71624505D01*
X65501334Y-71695000D01*
X65740666Y-71695000D01*
X66095069Y-71624505D01*
X66496966Y-71355966D01*
X66765505Y-70954069D01*
X66859803Y-70480000D01*
X66772395Y-70040569D01*
X68410001Y-68402964D01*
X68410001Y-69290726D01*
X68280666Y-69265000D01*
X68041334Y-69265000D01*
X67686931Y-69335495D01*
X67285034Y-69604034D01*
X67016495Y-70005931D01*
X66922197Y-70480000D01*
X67016495Y-70954069D01*
X67285034Y-71355966D01*
X67686931Y-71624505D01*
X68041334Y-71695000D01*
X68280666Y-71695000D01*
X68635069Y-71624505D01*
X69036966Y-71355966D01*
X69305505Y-70954069D01*
X69399803Y-70480000D01*
X69309975Y-70028404D01*
X69361569Y-69951188D01*
X69377021Y-69873509D01*
X69387641Y-69880605D01*
X69549273Y-70042237D01*
X69462197Y-70480000D01*
X69556495Y-70954069D01*
X69825034Y-71355966D01*
X70226931Y-71624505D01*
X70581334Y-71695000D01*
X70820666Y-71695000D01*
X71175069Y-71624505D01*
X71576966Y-71355966D01*
X71845505Y-70954069D01*
X71939803Y-70480000D01*
X71845505Y-70005931D01*
X71576966Y-69604034D01*
X71175069Y-69335495D01*
X70820666Y-69265000D01*
X70581334Y-69265000D01*
X70228206Y-69335241D01*
X70190000Y-69297036D01*
X70190000Y-67578618D01*
X70213150Y-67563150D01*
X70293822Y-67442416D01*
X70322150Y-67300000D01*
X70322150Y-66500000D01*
X70293822Y-66357584D01*
X70213150Y-66236850D01*
X70092416Y-66156178D01*
X69950000Y-66127850D01*
X69450000Y-66127850D01*
X69307584Y-66156178D01*
X69275000Y-66177950D01*
X69242416Y-66156178D01*
X69100000Y-66127850D01*
X68700000Y-66127850D01*
X68557584Y-66156178D01*
X68500000Y-66194654D01*
X68442416Y-66156178D01*
X68300000Y-66127850D01*
X67900000Y-66127850D01*
X67757584Y-66156178D01*
X67725000Y-66177950D01*
X67692416Y-66156178D01*
X67550000Y-66127850D01*
X67050000Y-66127850D01*
X66907584Y-66156178D01*
X66786850Y-66236850D01*
X66706178Y-66357584D01*
X66677850Y-66500000D01*
X66677850Y-67300000D01*
X66706178Y-67442416D01*
X66769641Y-67537394D01*
X65797036Y-68510000D01*
X64628251Y-68510000D01*
X64579999Y-68500402D01*
X64531747Y-68510000D01*
X64531743Y-68510000D01*
X64388812Y-68538431D01*
X64226730Y-68646730D01*
X64199393Y-68687643D01*
X63552126Y-69334910D01*
X63200666Y-69265000D01*
X62961334Y-69265000D01*
X62606931Y-69335495D01*
X62205034Y-69604034D01*
X62024000Y-69874971D01*
X62024000Y-69504089D01*
X61927632Y-69271435D01*
X61749566Y-69093369D01*
X61516912Y-68997000D01*
X60828250Y-68997000D01*
X60670000Y-69155250D01*
X60412000Y-69155250D01*
X60253750Y-68997000D01*
X59565088Y-68997000D01*
X59332434Y-69093369D01*
X59154368Y-69271435D01*
X59058000Y-69504089D01*
X50440000Y-69504089D01*
X50440000Y-52479250D01*
X51057000Y-52479250D01*
X51057000Y-53167912D01*
X51153369Y-53400566D01*
X51331435Y-53578632D01*
X51564089Y-53675000D01*
X52252750Y-53675000D01*
X52411000Y-53516750D01*
X52411000Y-52321000D01*
X52669000Y-52321000D01*
X52669000Y-53516750D01*
X52827250Y-53675000D01*
X53515911Y-53675000D01*
X53748565Y-53578632D01*
X53926631Y-53400566D01*
X54023000Y-53167912D01*
X54023000Y-52479250D01*
X53864750Y-52321000D01*
X52669000Y-52321000D01*
X52411000Y-52321000D01*
X51215250Y-52321000D01*
X51057000Y-52479250D01*
X50440000Y-52479250D01*
X50440000Y-52254050D01*
X54115000Y-52254050D01*
X54115000Y-52637950D01*
X54261913Y-52992628D01*
X54533372Y-53264087D01*
X54888050Y-53411000D01*
X55271950Y-53411000D01*
X55626628Y-53264087D01*
X55898087Y-52992628D01*
X56045000Y-52637950D01*
X56045000Y-52562873D01*
X56345659Y-52262214D01*
X56409534Y-52219534D01*
X56578614Y-51966488D01*
X56623000Y-51743345D01*
X56623000Y-51743341D01*
X56636535Y-51675294D01*
X56651822Y-51652416D01*
X56680150Y-51510000D01*
X56680150Y-50710000D01*
X56651822Y-50567584D01*
X56571150Y-50446850D01*
X56450416Y-50366178D01*
X56308000Y-50337850D01*
X55897399Y-50337850D01*
X55858000Y-50330013D01*
X55818601Y-50337850D01*
X55408000Y-50337850D01*
X55265584Y-50366178D01*
X55144850Y-50446850D01*
X55064178Y-50567584D01*
X55035850Y-50710000D01*
X55035850Y-51408277D01*
X54963127Y-51481000D01*
X54888050Y-51481000D01*
X54533372Y-51627913D01*
X54261913Y-51899372D01*
X54115000Y-52254050D01*
X50440000Y-52254050D01*
X50440000Y-51216088D01*
X51057000Y-51216088D01*
X51057000Y-51904750D01*
X51215250Y-52063000D01*
X52411000Y-52063000D01*
X52411000Y-52043000D01*
X52669000Y-52043000D01*
X52669000Y-52063000D01*
X53864750Y-52063000D01*
X54023000Y-51904750D01*
X54023000Y-51216088D01*
X53926631Y-50983434D01*
X53748565Y-50805368D01*
X53515911Y-50709000D01*
X53145029Y-50709000D01*
X53415966Y-50527966D01*
X53684505Y-50126069D01*
X53714554Y-49975000D01*
X55372054Y-49975000D01*
X55408000Y-49982150D01*
X55818601Y-49982150D01*
X55858000Y-49989987D01*
X55897399Y-49982150D01*
X56308000Y-49982150D01*
X56450416Y-49953822D01*
X56571150Y-49873150D01*
X56651822Y-49752416D01*
X56680150Y-49610000D01*
X56680150Y-49245722D01*
X57186130Y-48739743D01*
X57211894Y-48739743D01*
X57224000Y-48742151D01*
X57724000Y-48742151D01*
X57866416Y-48713823D01*
X57874000Y-48708755D01*
X57881584Y-48713823D01*
X58024000Y-48742151D01*
X58179000Y-48742151D01*
X58179000Y-48773127D01*
X57564278Y-49387850D01*
X57408000Y-49387850D01*
X57265584Y-49416178D01*
X57144850Y-49496850D01*
X57064178Y-49617584D01*
X57035850Y-49760000D01*
X57035850Y-50560000D01*
X57064178Y-50702416D01*
X57144850Y-50823150D01*
X57265584Y-50903822D01*
X57408000Y-50932150D01*
X57834606Y-50932150D01*
X57874000Y-50939986D01*
X57913394Y-50932150D01*
X58308000Y-50932150D01*
X58450416Y-50903822D01*
X58571150Y-50823150D01*
X58651822Y-50702416D01*
X58680150Y-50560000D01*
X58680150Y-50435722D01*
X59260873Y-49855000D01*
X59335950Y-49855000D01*
X59690628Y-49708087D01*
X59962087Y-49436628D01*
X60109000Y-49081950D01*
X60109000Y-48698050D01*
X59962087Y-48343372D01*
X59913157Y-48294442D01*
X59923986Y-48239999D01*
X59909000Y-48164659D01*
X59909000Y-48164655D01*
X59864614Y-47941512D01*
X59768322Y-47797401D01*
X59738213Y-47752339D01*
X59738212Y-47752338D01*
X59695534Y-47688466D01*
X59631661Y-47645788D01*
X59396151Y-47410278D01*
X59396151Y-47370000D01*
X59393743Y-47357894D01*
X59393743Y-47320991D01*
X59386592Y-47248388D01*
X59367470Y-47152255D01*
X59346293Y-47082444D01*
X59308784Y-46991888D01*
X59289000Y-46954874D01*
X59289000Y-46198985D01*
X59373792Y-46072086D01*
X59421150Y-45834000D01*
X59421150Y-44834000D01*
X59373792Y-44595914D01*
X59238926Y-44394074D01*
X59037086Y-44259208D01*
X58799000Y-44211850D01*
X56949000Y-44211850D01*
X56710914Y-44259208D01*
X56509074Y-44394074D01*
X56374208Y-44595914D01*
X56326850Y-44834000D01*
X56326850Y-45834000D01*
X56374208Y-46072086D01*
X56509074Y-46273926D01*
X56710914Y-46408792D01*
X56949000Y-46456150D01*
X57759000Y-46456150D01*
X57759000Y-46504811D01*
X57724000Y-46497849D01*
X57224000Y-46497849D01*
X57211894Y-46500257D01*
X57174991Y-46500257D01*
X57102388Y-46507408D01*
X57006255Y-46526530D01*
X56936444Y-46547707D01*
X56845888Y-46585216D01*
X56781546Y-46619607D01*
X56700047Y-46674063D01*
X56643653Y-46720345D01*
X56574345Y-46789653D01*
X56528063Y-46846047D01*
X56473607Y-46927546D01*
X56439216Y-46991888D01*
X56401707Y-47082444D01*
X56380530Y-47152255D01*
X56361408Y-47248388D01*
X56354257Y-47320991D01*
X56354257Y-47357894D01*
X56351849Y-47370000D01*
X56351849Y-47410278D01*
X55370343Y-48391785D01*
X55306466Y-48434466D01*
X55299427Y-48445000D01*
X53057339Y-48445000D01*
X52981999Y-48430014D01*
X52906659Y-48445000D01*
X52906655Y-48445000D01*
X52803270Y-48465565D01*
X52659666Y-48437000D01*
X52420334Y-48437000D01*
X52065931Y-48507495D01*
X51664034Y-48776034D01*
X51395495Y-49177931D01*
X51301197Y-49652000D01*
X51395495Y-50126069D01*
X51664034Y-50527966D01*
X51934971Y-50709000D01*
X51564089Y-50709000D01*
X51331435Y-50805368D01*
X51153369Y-50983434D01*
X51057000Y-51216088D01*
X50440000Y-51216088D01*
X50440000Y-47237000D01*
X55588000Y-47237000D01*
X55635835Y-47227485D01*
X55676388Y-47200388D01*
X55703485Y-47159835D01*
X55713000Y-47112000D01*
X55713000Y-42371250D01*
X56066000Y-42371250D01*
X56066000Y-42959911D01*
X56162368Y-43192565D01*
X56340434Y-43370631D01*
X56573088Y-43467000D01*
X57586750Y-43467000D01*
X57745000Y-43308750D01*
X57745000Y-42213000D01*
X58003000Y-42213000D01*
X58003000Y-43308750D01*
X58161250Y-43467000D01*
X59174912Y-43467000D01*
X59407566Y-43370631D01*
X59585632Y-43192565D01*
X59682000Y-42959911D01*
X59682000Y-42371250D01*
X59523750Y-42213000D01*
X58003000Y-42213000D01*
X57745000Y-42213000D01*
X56224250Y-42213000D01*
X56066000Y-42371250D01*
X55713000Y-42371250D01*
X55713000Y-42159250D01*
X59862000Y-42159250D01*
X59862000Y-42772911D01*
X59958368Y-43005565D01*
X60136434Y-43183631D01*
X60369088Y-43280000D01*
X60507750Y-43280000D01*
X60666000Y-43121750D01*
X60666000Y-42001000D01*
X60924000Y-42001000D01*
X60924000Y-43121750D01*
X61082250Y-43280000D01*
X61220912Y-43280000D01*
X61430000Y-43193392D01*
X61639088Y-43280000D01*
X61777750Y-43280000D01*
X61936000Y-43121750D01*
X61936000Y-42001000D01*
X62194000Y-42001000D01*
X62194000Y-43121750D01*
X62352250Y-43280000D01*
X62490912Y-43280000D01*
X62700000Y-43193392D01*
X62909088Y-43280000D01*
X63047750Y-43280000D01*
X63206000Y-43121750D01*
X63206000Y-42001000D01*
X63464000Y-42001000D01*
X63464000Y-43121750D01*
X63622250Y-43280000D01*
X63760912Y-43280000D01*
X63970000Y-43193392D01*
X64179088Y-43280000D01*
X64317750Y-43280000D01*
X64476000Y-43121750D01*
X64476000Y-42001000D01*
X64734000Y-42001000D01*
X64734000Y-43121750D01*
X64892250Y-43280000D01*
X65030912Y-43280000D01*
X65080286Y-43259548D01*
X65037000Y-43364050D01*
X65037000Y-43747950D01*
X65183913Y-44102628D01*
X65455372Y-44374087D01*
X65696795Y-44474088D01*
X66232850Y-45010144D01*
X66232850Y-45625000D01*
X66280208Y-45863086D01*
X66415074Y-46064926D01*
X66616914Y-46199792D01*
X66855000Y-46247150D01*
X68705000Y-46247150D01*
X68943086Y-46199792D01*
X69144926Y-46064926D01*
X69279792Y-45863086D01*
X69327150Y-45625000D01*
X69327150Y-44833500D01*
X69801980Y-44833500D01*
X69899921Y-44980079D01*
X70091622Y-45108170D01*
X70317750Y-45153150D01*
X70830250Y-45153150D01*
X71056378Y-45108170D01*
X71248079Y-44980079D01*
X71376170Y-44788378D01*
X71421150Y-44562250D01*
X71421150Y-44124750D01*
X71376170Y-43898622D01*
X71301340Y-43786631D01*
X71407566Y-43742631D01*
X71585632Y-43564565D01*
X71682000Y-43331911D01*
X71682000Y-43055750D01*
X71523750Y-42897500D01*
X70703000Y-42897500D01*
X70703000Y-42917500D01*
X70445000Y-42917500D01*
X70445000Y-42897500D01*
X70425000Y-42897500D01*
X70425000Y-42639500D01*
X70445000Y-42639500D01*
X70445000Y-41856250D01*
X70703000Y-41856250D01*
X70703000Y-42639500D01*
X71523750Y-42639500D01*
X71682000Y-42481250D01*
X71682000Y-42205089D01*
X71585632Y-41972435D01*
X71407566Y-41794369D01*
X71174912Y-41698000D01*
X70861250Y-41698000D01*
X70703000Y-41856250D01*
X70445000Y-41856250D01*
X70286750Y-41698000D01*
X69973088Y-41698000D01*
X69740434Y-41794369D01*
X69562368Y-41972435D01*
X69514280Y-42088530D01*
X69429750Y-42004000D01*
X67909000Y-42004000D01*
X67909000Y-43099750D01*
X68067250Y-43258000D01*
X69080912Y-43258000D01*
X69313566Y-43161631D01*
X69491632Y-42983565D01*
X69527280Y-42897502D01*
X69624248Y-42897502D01*
X69466000Y-43055750D01*
X69466000Y-43331911D01*
X69562368Y-43564565D01*
X69740434Y-43742631D01*
X69846660Y-43786631D01*
X69801980Y-43853500D01*
X68609756Y-43853500D01*
X68561500Y-43843901D01*
X68513244Y-43853500D01*
X68513243Y-43853500D01*
X68370312Y-43881931D01*
X68208230Y-43990230D01*
X68199798Y-44002850D01*
X67672144Y-44002850D01*
X66927293Y-43258000D01*
X67492750Y-43258000D01*
X67651000Y-43099750D01*
X67651000Y-42004000D01*
X66130250Y-42004000D01*
X65972000Y-42162250D01*
X65972000Y-42591000D01*
X65810050Y-42591000D01*
X65538000Y-42703687D01*
X65538000Y-42159250D01*
X65379750Y-42001000D01*
X64734000Y-42001000D01*
X64476000Y-42001000D01*
X63464000Y-42001000D01*
X63206000Y-42001000D01*
X62194000Y-42001000D01*
X61936000Y-42001000D01*
X60924000Y-42001000D01*
X60666000Y-42001000D01*
X60020250Y-42001000D01*
X59862000Y-42159250D01*
X55713000Y-42159250D01*
X55713000Y-41208089D01*
X56066000Y-41208089D01*
X56066000Y-41796750D01*
X56224250Y-41955000D01*
X57745000Y-41955000D01*
X57745000Y-40859250D01*
X58003000Y-40859250D01*
X58003000Y-41955000D01*
X59523750Y-41955000D01*
X59682000Y-41796750D01*
X59682000Y-41208089D01*
X59585632Y-40975435D01*
X59581286Y-40971089D01*
X59862000Y-40971089D01*
X59862000Y-41584750D01*
X60020250Y-41743000D01*
X60666000Y-41743000D01*
X60666000Y-40622250D01*
X60924000Y-40622250D01*
X60924000Y-41743000D01*
X61936000Y-41743000D01*
X61936000Y-40622250D01*
X62194000Y-40622250D01*
X62194000Y-41743000D01*
X63206000Y-41743000D01*
X63206000Y-40622250D01*
X63464000Y-40622250D01*
X63464000Y-41743000D01*
X64476000Y-41743000D01*
X64476000Y-40622250D01*
X64734000Y-40622250D01*
X64734000Y-41743000D01*
X65379750Y-41743000D01*
X65538000Y-41584750D01*
X65538000Y-40999089D01*
X65972000Y-40999089D01*
X65972000Y-41587750D01*
X66130250Y-41746000D01*
X67651000Y-41746000D01*
X67651000Y-40650250D01*
X67909000Y-40650250D01*
X67909000Y-41746000D01*
X69429750Y-41746000D01*
X69588000Y-41587750D01*
X69588000Y-40999089D01*
X69491632Y-40766435D01*
X69313566Y-40588369D01*
X69080912Y-40492000D01*
X68067250Y-40492000D01*
X67909000Y-40650250D01*
X67651000Y-40650250D01*
X67492750Y-40492000D01*
X66479088Y-40492000D01*
X66246434Y-40588369D01*
X66068368Y-40766435D01*
X65972000Y-40999089D01*
X65538000Y-40999089D01*
X65538000Y-40971089D01*
X65441632Y-40738435D01*
X65263566Y-40560369D01*
X65030912Y-40464000D01*
X64892250Y-40464000D01*
X64734000Y-40622250D01*
X64476000Y-40622250D01*
X64317750Y-40464000D01*
X64179088Y-40464000D01*
X63970000Y-40550608D01*
X63760912Y-40464000D01*
X63622250Y-40464000D01*
X63464000Y-40622250D01*
X63206000Y-40622250D01*
X63047750Y-40464000D01*
X62909088Y-40464000D01*
X62700000Y-40550608D01*
X62490912Y-40464000D01*
X62352250Y-40464000D01*
X62194000Y-40622250D01*
X61936000Y-40622250D01*
X61777750Y-40464000D01*
X61639088Y-40464000D01*
X61430000Y-40550608D01*
X61220912Y-40464000D01*
X61082250Y-40464000D01*
X60924000Y-40622250D01*
X60666000Y-40622250D01*
X60507750Y-40464000D01*
X60369088Y-40464000D01*
X60136434Y-40560369D01*
X59958368Y-40738435D01*
X59862000Y-40971089D01*
X59581286Y-40971089D01*
X59407566Y-40797369D01*
X59174912Y-40701000D01*
X58161250Y-40701000D01*
X58003000Y-40859250D01*
X57745000Y-40859250D01*
X57586750Y-40701000D01*
X56573088Y-40701000D01*
X56340434Y-40797369D01*
X56162368Y-40975435D01*
X56066000Y-41208089D01*
X55713000Y-41208089D01*
X55713000Y-40440000D01*
X73125000Y-40440000D01*
X73125000Y-49993102D01*
G04 #@! TD*
M02*
